<svg width="651" height="535" viewBox="0 0 651 535" fill="none" xmlns="http://www.w3.org/2000/svg">
<path d="M58.5681 410.623C42.397 442.452 43.576 485.066 69.6382 509.734C76.8605 516.57 85.5911 521.738 94.7979 525.633C109.223 531.736 124.967 534.796 140.666 534.549C154.105 494.788 192.193 464.232 234.475 459.293C237.479 458.942 240.785 458.783 243.247 460.511C247.252 463.321 246.784 469.163 248.154 473.812C250.535 481.893 259.33 486.824 267.855 487.471C276.38 488.118 284.753 485.381 292.851 482.678C310.915 476.651 328.979 470.625 347.044 464.599C368.103 457.573 389.25 450.512 409.042 440.536C428.607 430.675 447.111 417.875 468.541 413.059C479.087 410.689 489.993 410.349 500.649 408.521C533.242 402.93 564.708 379.934 570.529 347.882C572.058 339.458 571.839 330.641 574.94 322.646C578.039 314.652 543.748 295.468 552.295 297.04C531.755 306.199 491.817 322.646 473.559 315.357C449.765 316.196 404.407 335.033 381.13 339.964C304.449 356.208 284.066 322.308 205.713 325.883C175.9 327.244 148.083 326.011 123.6 344.192C98.1824 363.067 73.1624 381.898 58.5681 410.623Z" fill="url(#paint0_linear_853_24)"/>
<path d="M592.66 325.494C591.493 323.597 586.165 325.403 584.818 325.875C573.093 329.975 561.326 333.982 549.573 338.02C537.758 342.081 525.558 346.297 513.122 348.65C494.418 352.189 471.962 359.319 460.791 374.078C451.36 377.542 441.929 381.006 432.495 384.465C425.192 387.144 417.658 389.609 410.282 392.315C409.714 390.583 409.209 388.837 408.867 387.042C408.358 384.375 400.741 386.095 399.477 386.503C375.642 394.2 351.762 402.584 327.07 407.877C315.25 410.41 303.827 414.165 292.05 416.827C286.231 418.143 280.37 419.318 274.537 420.586C271.762 421.189 268.982 421.774 266.197 422.337C265.641 422.45 265.006 422.544 264.359 422.642C267.016 418.8 258.951 417.76 256.024 418.065C230.977 420.682 206.02 425.096 181.62 431.129C183.126 429.665 184.581 428.151 185.97 426.572C187.835 424.451 190.733 421.307 191.476 418.644C191.802 417.479 191.093 416.18 191.243 415.133C191.471 413.532 192.907 412.027 194.001 410.894C199.531 405.158 205.67 399.893 211.176 394.129C212.751 392.48 210.019 392.013 208.744 391.955C206.367 391.845 203.052 392.842 201.307 394.27C195.214 399.255 189.4 404.486 183.519 409.664C177.297 415.142 169.268 417.953 163.644 424.084C156.181 432.219 147.582 439.825 137.355 444.081C134.356 445.329 125.761 449.143 128.634 453.107C131.432 456.966 141.846 454.525 145.302 453.46C175.255 444.226 205.434 437.358 236.514 432.259C238.07 434.261 241.212 435.604 244.613 435.886C252.529 436.544 260.717 433.738 268.165 431.759C283.144 427.777 297.829 422.909 312.61 418.392C327.233 413.922 341.379 408.63 356.132 404.455C368.075 401.077 380.083 397.925 392.114 394.819C391.907 397.25 391.508 399.674 391.191 402.088C390.578 406.756 400.739 404.371 402.934 403.846C420.599 399.624 437.91 393.271 455.208 387.984C464.524 385.138 475.611 383.035 484.021 378.454C490.013 375.19 493.337 368.41 498.705 365.17C499.055 364.959 501.127 363.903 502.081 363.418C503.023 362.964 503.04 362.944 502.133 363.356C503.577 362.728 504.999 362.064 506.397 361.363C507.295 360.933 507.309 360.913 506.439 361.3C507.161 360.971 507.888 360.648 508.618 360.331C510.86 359.349 513.196 358.458 515.32 357.287C521.915 353.648 528.644 350.473 535.809 347.745C552.944 341.218 570.415 335.347 587.838 329.438C589.175 328.984 593.872 327.466 592.66 325.494Z" fill="white"/>
<path d="M391.478 439.079C389.814 436.053 382.033 439.577 380.462 441.125C378.582 442.976 376.328 444.582 374.491 446.461C374.008 446.687 373.669 446.854 373.457 446.967C373.145 447.027 372.739 447.108 372.236 447.212C367.499 447.904 362.757 448.844 358.33 450.526C354.296 452.061 346.925 455.207 348.878 460.061C349.258 461.007 351.846 459.985 352.345 459.596C356.396 456.445 358.152 456.73 363.069 456.444C368.494 456.128 373.93 455.11 378.968 453.303C384.948 451.156 395.259 445.958 391.478 439.079Z" fill="white"/>
<path d="M427.042 439.766C419.942 440.455 413.166 442.608 406.13 443.611C398.906 444.642 391.962 446.101 384.94 447.936C370.918 451.599 357.016 455.955 344.057 461.962C340.72 463.508 344.734 464.245 346.565 463.679C359.792 459.597 372.818 455.039 386.159 451.232C392.5 449.423 398.833 447.661 405.12 445.712C412.087 443.551 419.479 442.923 426.575 441.199C427.601 440.949 429.015 439.575 427.042 439.766Z" fill="white"/>
<path d="M512.166 420.497C512.671 417.566 504.552 420.296 503.567 421.155C501.071 423.336 497.294 424.981 494.666 427.381C493.362 428.573 493.206 429.251 492.725 430.674C492.265 432.028 493.633 431.169 491.309 432.262C490.083 432.838 489.036 433.154 487.712 433.485C487.144 433.627 486.934 434.083 487.706 433.979C490.218 433.641 492.636 433.001 495.108 432.5C496.155 432.287 497.171 432.143 498.208 431.867C494.563 432.834 501.594 431.154 501.508 431.177C504.964 430.183 508.701 428.377 510.938 425.742C511.66 424.891 512.385 423.713 512.607 422.652C512.784 421.812 512.067 421.077 512.166 420.497Z" fill="white"/>
<path d="M549.264 413.113C537.267 415.4 525.972 420.042 514.607 424.036C508.685 426.117 502.763 428.2 496.841 430.281C491.171 432.273 485.062 433.965 479.884 436.841C477.468 438.183 479.387 439.12 481.451 438.732C493.328 436.497 504.99 431.203 516.272 427.3C527.675 423.354 539.823 420.056 550.251 414.306C551.779 413.464 550.563 412.865 549.264 413.113Z" fill="white"/>
<path d="M647.83 397.808C639.481 398.206 630.572 401.441 623.012 404.399C621.286 405.075 619.558 405.777 617.837 406.499C618.029 405.296 615.663 405.075 614.419 405.134C611.879 405.257 608.641 406.286 606.969 408.068C604.317 410.894 601.764 413.831 598.858 416.456C597.166 417.984 599.608 418.806 600.926 418.97C603.66 419.312 606.693 418.136 609.029 417.04C615.848 413.838 622.467 410.533 629.574 407.819C635.942 405.387 642.773 403.502 648.843 400.546C651.506 399.251 650.571 397.678 647.83 397.808Z" fill="white"/>
<path d="M123.845 370.661C119.977 370.565 115.992 371.583 112.207 372.238C112.03 372.268 111.855 372.302 111.679 372.332C110.947 371.384 108.438 371.214 107.611 371.22C104.479 371.242 100.879 372.143 98.2514 373.659C96.0939 374.903 94.3945 376.262 92.5956 377.862C86.7753 383.042 97.5957 382.294 100.931 381.435C105.162 380.346 109.257 378.891 113.354 377.459C116.835 376.242 120.719 375.223 123.856 373.413C125.291 372.586 126.685 370.731 123.845 370.661Z" fill="white"/>
<path d="M284.023 396.804C284.081 396.781 284.152 396.756 284.231 396.729C286.229 396.003 291.982 393.682 284.023 396.804Z" fill="white"/>
<path d="M284.232 396.731C284.159 396.758 284.089 396.783 284.025 396.805C283.605 396.959 283.277 397.08 283.002 397.183C282.529 397.3 281.919 397.454 281.155 397.648C278.343 398.457 275.777 399.786 273.035 400.737C267.302 402.723 261 403.279 254.919 403.774C249.717 404.197 244.537 404.605 239.402 405.159C240.369 403.852 241.018 402.503 241.054 401.217C241.193 396.242 229.222 401.049 227.321 402.268C225.667 403.33 224.213 404.414 222.733 405.656C222.386 405.947 222.134 406.169 221.956 406.337C221.568 406.494 220.894 406.812 219.786 407.391C218.813 407.898 217.883 408.577 216.904 409.162C214.029 409.957 211.179 410.886 208.362 411.984C206.091 412.869 199.761 415.778 201.869 418.703C203.999 421.663 211.628 419.627 214.278 418.967C216.942 418.303 219.549 417.472 222.084 416.495C233.27 413.7 245.774 414.198 257.117 412.67C269.184 411.044 287.312 408.246 293.892 398.249C296.807 393.827 286.488 395.969 284.232 396.731Z" fill="white"/>
<path d="M563.199 318.594C554.886 320.099 547.206 324.253 539.34 326.98C530.982 329.877 522.564 332.635 514.094 335.266C512.735 335.689 508.782 336.941 509.009 338.71C509.237 340.482 512.773 340.02 514.039 339.769C524.002 337.794 533.725 335.065 543.112 331.504C547.486 329.845 551.775 327.996 556.009 326.076C559.488 324.498 564.032 322.928 566.241 319.928C567.496 318.222 564.158 318.419 563.199 318.594Z" fill="white"/>
<path d="M593.685 312.788C592.654 312.12 590.873 312.651 589.725 312.805C588.257 313.001 586.867 313.309 585.446 313.693C584.498 313.95 581.924 314.828 582.035 316.003C582.146 317.179 584.602 316.901 585.408 316.713C587.075 316.323 588.667 315.888 590.257 315.293C591.38 314.873 592.975 314.478 593.684 313.54C593.856 313.312 594 312.991 593.685 312.788Z" fill="white"/>
<path d="M614.297 313.452C613.01 312.873 611.45 313.433 610.158 313.761L606.421 314.712C605.786 314.873 604.134 315.456 604.189 316.223C604.244 316.996 605.886 316.807 606.397 316.688C607.642 316.399 608.887 316.11 610.132 315.82C611.619 315.475 613.226 315.193 614.296 314.139C614.451 313.987 614.592 313.586 614.297 313.452Z" fill="white"/>
<path d="M456.025 428.135C453.334 428.135 449.591 428.721 447.648 430.545C446.226 431.88 445.979 433.5 448.742 433.5C451.432 433.5 455.176 432.913 457.119 431.09C458.54 429.755 458.788 428.135 456.025 428.135Z" fill="white"/>
<path d="M381.801 459.418C379.872 459.418 376.753 459.821 375.442 461.248C374.496 462.28 374.071 463.49 376.273 463.49C378.202 463.49 381.32 463.087 382.631 461.66C383.577 460.63 384.002 459.418 381.801 459.418Z" fill="white"/>
<path d="M569.935 395.47C569.775 395.459 569.608 395.479 569.445 395.481C569.439 395.46 569.328 395.462 569.093 395.489C567.856 395.57 566.58 395.967 565.566 396.511C564.518 397.037 563.458 397.578 562.502 398.227C560.997 399.247 559.531 400.317 558.046 401.361C556.775 402.254 557.241 403.246 558.784 403.354C560.738 403.49 562.9 402.755 564.436 401.728C565.621 400.935 566.805 400.142 567.99 399.35C569.136 398.583 570.066 397.743 571.051 396.827C571.914 396.021 570.695 395.523 569.935 395.47Z" fill="white"/>
<path d="M588.73 395.422C586.801 395.422 583.682 395.825 582.372 397.252C581.425 398.284 581.001 399.494 583.202 399.494C585.131 399.494 588.25 399.091 589.56 397.664C590.507 396.634 590.932 395.422 588.73 395.422Z" fill="white"/>
<path d="M231.407 445.542C230.411 444.903 229.079 444.867 227.905 444.884C226.153 444.907 224.352 445.188 222.696 445.694C220.779 446.279 218.721 446.999 217.2 448.214C216.182 449.027 215.163 449.846 214.88 451.065C214.449 452.923 217.269 453.145 218.694 453.125C220.419 453.101 222.121 452.79 223.753 452.294C223.693 452.318 223.633 452.342 223.574 452.366C223.718 452.317 223.862 452.267 224.006 452.218C224.46 452.074 224.911 451.918 225.352 451.746C226.03 451.499 226.693 451.221 227.32 450.878C227.581 450.75 227.84 450.621 228.099 450.492C229.404 449.846 230.423 448.981 231.406 448.014C232.083 447.346 232.351 446.147 231.407 445.542Z" fill="white"/>
<path d="M260.445 443.525C260.182 443.525 259.3 443.978 259.831 443.978C260.092 443.978 260.975 443.525 260.445 443.525Z" fill="white"/>
<path d="M111.91 461.477C111.863 461.38 111.818 461.283 111.771 461.186C111.463 460.538 110.474 460.532 109.814 460.541C108.578 460.558 107.417 460.86 106.285 461.28C106.008 461.383 105.731 461.486 105.455 461.589C105.106 461.75 104.757 461.911 104.407 462.073C104.126 462.248 103.845 462.424 103.564 462.599C103.362 462.779 103.162 462.958 102.961 463.139C102.853 463.315 102.746 463.49 102.638 463.664C102.636 463.825 102.634 463.986 102.633 464.147C102.742 464.276 102.85 464.405 102.959 464.535L103.572 464.792C104.022 464.902 104.476 464.94 104.936 464.907C105.307 464.923 105.674 464.894 106.038 464.823C106.452 464.788 106.856 464.714 107.25 464.598C107.675 464.519 108.086 464.401 108.483 464.243C108.878 464.131 109.255 463.982 109.612 463.794C109.952 463.663 110.268 463.494 110.558 463.29C110.835 463.15 111.076 462.973 111.281 462.757C111.493 462.617 111.647 462.44 111.744 462.224C111.938 462.006 111.993 461.758 111.91 461.477Z" fill="white"/>
<path d="M275.365 437.481C272.981 435.951 268.803 436.947 266.312 437.639C263.731 438.356 261.169 439.114 258.868 440.405C257.546 441.145 256.606 441.976 255.531 442.93C254.708 443.659 253.354 444.806 254.639 445.788C255.97 446.804 258.547 446.325 260.05 446.099C261.945 445.813 263.801 445.559 265.648 445.045C268.193 444.338 270.473 443.282 272.701 442.013C273.882 441.339 277.635 438.936 275.365 437.481Z" fill="white"/>
<path d="M385.828 407.694C385.719 407.566 385.609 407.436 385.5 407.307C385.056 407.06 384.568 406.933 384.038 406.928C383.867 406.907 383.696 406.888 383.526 406.867C382.761 406.837 382.004 406.894 381.255 407.04C380.824 407.142 380.393 407.244 379.962 407.346C379.146 407.576 378.371 407.884 377.634 408.271C377.182 408.484 376.789 408.758 376.453 409.091C376.153 409.309 375.938 409.582 375.809 409.911C375.693 410.192 375.748 410.425 375.973 410.608C376.139 410.87 376.406 411.025 376.772 411.072C377.411 411.21 378.057 411.248 378.711 411.183C378.926 411.164 379.142 411.143 379.357 411.123C379.971 411.081 380.571 410.981 381.157 410.819C381.793 410.691 382.407 410.503 382.999 410.256C383.349 410.095 383.699 409.934 384.048 409.771C384.486 409.563 384.869 409.298 385.196 408.974C385.408 408.834 385.563 408.656 385.66 408.44C385.855 408.224 385.91 407.975 385.828 407.694Z" fill="white"/>
<path d="M502.314 374.432C500.257 374.811 498.243 375.556 496.488 376.576C495.38 377.221 494.365 377.843 493.622 378.822C493.045 379.582 493.226 380.202 494.242 380.499C495.61 380.897 497.301 380.505 498.614 380.151C500.285 379.7 501.833 379.1 503.362 378.35C504.532 377.776 506.366 376.862 506.728 375.629C507.269 373.781 503.157 374.276 502.314 374.432Z" fill="white"/>
<path d="M82.3672 385.791C80.3461 385.791 77.0786 386.212 75.7058 387.708C74.7136 388.788 74.2691 390.057 76.5752 390.057C78.5963 390.057 81.8638 389.636 83.2366 388.141C84.2287 387.06 84.6732 385.791 82.3672 385.791Z" fill="white"/>
<path d="M151.909 363.654C148.641 362.285 144.099 363.74 141.041 364.824C138.624 365.682 136.327 366.785 134.34 368.286C133.057 369.255 131.66 371.036 133.813 371.938C136.263 372.964 139.542 372.177 141.974 371.559C144.742 370.855 147.333 369.825 149.778 368.487C151.337 367.633 155.048 364.967 151.909 363.654Z" fill="white"/>
<path d="M75.3293 52.3529C74.4808 56.7544 105.967 65.3928 146.018 71.8169L147.902 72.1136C148.755 72.2478 149.594 72.38 150.434 72.5023C190.227 78.6189 222.748 80.0677 223.59 75.6954C224.337 71.8245 200.095 64.6836 167.017 58.6514C166.255 58.5117 165.494 58.372 164.717 58.24C162.797 57.8978 160.848 57.5513 158.863 57.2286C158.323 57.1236 157.778 57.0381 157.234 56.9525C156.075 56.75 154.885 56.553 153.708 56.3678C152.828 56.2195 151.916 56.0755 151.018 55.9347L149.296 55.664C148.12 55.4789 146.941 55.3034 145.777 55.1302C145.232 55.0447 144.687 54.9678 144.14 54.892C142.844 54.6982 141.547 54.5033 140.261 54.3311C139.612 54.2391 138.978 54.1492 138.329 54.0572C103.293 49.2247 76.0992 48.3563 75.3293 52.3529Z" fill="url(#paint1_linear_853_24)"/>
<path d="M151.361 52.0195C151.098 53.3015 150.85 54.576 150.587 55.858C150.585 55.8688 150.585 55.8688 150.585 55.8688C150.457 56.5217 150.329 57.1746 150.192 57.8146C150.094 58.3289 149.999 58.8324 149.891 59.3337L149.884 59.3651C149.795 59.8372 149.695 60.306 149.596 60.7651C149.104 63.236 148.612 65.7069 148.107 68.1757C147.852 69.4263 147.601 70.7105 147.331 72.025C142.696 94.9799 136.008 127.507 130.334 155.307L130.151 156.16C128.104 166.23 126.185 175.646 124.549 183.74L124.547 183.75C124.963 183.853 125.392 183.957 125.812 184.049C127.479 175.806 129.446 166.166 131.544 155.861C131.605 155.573 131.665 155.296 131.714 155.006C137.375 127.326 144.013 95.034 148.618 72.2166C148.887 70.9021 149.137 69.6179 149.394 68.3673C149.857 66.035 150.333 63.6941 150.808 61.3639L150.829 61.2675C150.915 60.8063 151.013 60.3483 151.101 59.887C151.188 59.482 151.265 59.063 151.351 58.6581C151.524 57.7918 151.695 56.9364 151.868 56.0702L151.87 56.0594C152.131 54.7882 152.381 53.5029 152.642 52.2318C152.39 52.1787 152.121 52.1451 151.855 52.1008L151.361 52.0195Z" fill="#212121"/>
<path d="M150.31 61.6089C150.321 61.6099 150.332 61.6121 150.344 61.6045C150.505 61.5894 150.655 61.5136 150.752 61.3598C150.769 61.3328 150.785 61.3057 150.802 61.2775L150.816 61.27C151.373 60.4438 151.953 59.6209 152.538 58.8185C154.006 56.8035 155.574 54.8545 157.242 52.9596C156.842 52.8784 156.438 52.8156 156.035 52.7539C153.925 55.175 151.974 57.7 150.183 60.3204C150.107 60.4178 150.043 60.5163 149.978 60.616L149.966 60.6235C149.889 60.7307 149.82 60.8488 149.742 60.956C149.741 60.9657 149.728 60.9733 149.725 60.983C149.508 61.3468 149.909 61.6468 150.31 61.6089Z" fill="#212121"/>
<path d="M149.698 61.0206C149.558 61.3855 149.997 61.8403 150.419 61.6378C150.456 61.6238 150.494 61.5999 150.521 61.5739C150.64 61.483 150.759 61.3931 150.877 61.3119C154.734 58.4761 158.892 56.0529 163.358 54.0638C162.794 53.9566 162.231 53.8505 161.655 53.752C158.482 55.2364 155.467 56.9429 152.614 58.8529C151.813 59.3737 151.042 59.9195 150.277 60.4857C150.199 60.5334 150.121 60.5908 150.053 60.6492C149.989 60.6893 149.934 60.7402 149.87 60.7792C149.778 60.8442 149.716 60.934 149.698 61.0206Z" fill="#212121"/>
<path d="M146.781 51.3555C147.605 53.7235 148.439 56.0937 149.263 58.4607C149.335 58.6599 149.398 58.8581 149.47 59.0584C149.542 59.2673 149.714 59.3637 149.904 59.3637C150.248 59.3875 150.642 59.1006 150.497 58.7021C149.667 56.3135 148.836 53.9238 147.996 51.5244C147.592 51.4605 147.186 51.4074 146.781 51.3555Z" fill="#212121"/>
<path d="M142.469 50.7695C144.872 54.1348 147.283 57.5109 149.674 60.874C149.78 61.0191 149.937 61.083 150.082 61.0852C150.115 61.0906 150.149 61.0852 150.184 61.0808C150.442 61.031 150.679 60.8004 150.66 60.5492C150.672 60.5416 150.661 60.5395 150.661 60.5395C150.669 60.5016 150.655 60.4593 150.641 60.4171C150.626 60.3749 150.6 60.3413 150.574 60.298C150.354 59.9861 150.125 59.6732 149.905 59.3614C149.695 59.0615 149.474 58.7594 149.263 58.4594C147.475 55.9625 145.69 53.4559 143.902 50.959C143.422 50.8962 142.951 50.8334 142.469 50.7695Z" fill="#212121"/>
<path d="M138.445 44.2067C124.682 42.5555 110.815 41.6026 97.0781 41.385C111.933 36.8178 132.833 33.4504 154.694 36.8914C176.468 40.3195 194.813 49.8166 207.092 58.6163C185.028 51.8977 161.881 47.023 138.445 44.2067Z" fill="url(#paint2_linear_853_24)"/>
<path d="M81.9523 47.3472C85.8644 47.2584 89.7716 47.279 93.5438 47.2877C109.983 47.3256 126.594 48.5123 143.084 50.7212C169.385 54.2467 195.038 60.4294 219.215 68.9292C222.062 71.9274 223.595 74.2824 223.61 75.4659C223.391 70.9366 191.29 62.2701 151.024 55.9315C110.758 49.5918 77.3058 47.9373 75.4062 52.1331C75.8618 51.033 78.1678 49.2919 81.9523 47.3472Z" fill="url(#paint3_linear_853_24)"/>
<path d="M143.085 50.7188C126.595 48.5099 109.983 47.3232 93.5447 47.2853C89.7725 47.2766 85.8653 47.2571 81.9531 47.3448C85.6737 45.4207 90.842 43.2974 97.0774 41.3809C110.814 41.5985 124.681 42.5513 138.445 44.2026C161.882 47.02 185.028 51.8946 207.091 58.6122C212.283 62.3467 216.394 65.9513 219.216 68.9257C195.039 60.4269 169.387 54.2454 143.085 50.7188Z" fill="url(#paint4_linear_853_24)"/>
<path d="M0.00178606 27.3256C0.263332 31.2648 29.3305 33.1856 65.2778 31.6979L66.9662 31.6232C67.7312 31.5896 68.4839 31.5561 69.2342 31.5138C104.888 29.8052 133.227 25.3517 132.967 21.4375C132.737 17.9726 110.247 16.0712 80.3947 16.6754C79.7071 16.6884 79.0206 16.7014 78.3207 16.7242C76.5906 16.7664 74.8334 16.8097 73.0505 16.879C72.5618 16.8833 72.0731 16.905 71.5856 16.9266C70.5419 16.9559 69.4724 16.9949 68.4176 17.0403C67.6256 17.0663 66.8066 17.1031 66.0023 17.1389L64.4588 17.2071C63.404 17.2536 62.348 17.3089 61.3068 17.3641C60.8181 17.3857 60.3305 17.4161 59.8431 17.4464C58.6827 17.5059 57.5223 17.5666 56.3754 17.6434C55.7958 17.6781 55.2286 17.7117 54.649 17.7463C23.3813 19.7289 -0.23643 23.7481 0.00178606 27.3256Z" fill="url(#paint5_linear_853_24)"/>
<path d="M65.3984 13.7102C65.4611 14.8612 65.5347 16.0014 65.5973 17.1524C65.5973 17.1621 65.5973 17.1621 65.5973 17.1621C65.6354 17.7468 65.6722 18.3315 65.698 18.9065C65.7299 19.3667 65.7606 19.8171 65.7815 20.2676L65.7828 20.2957C65.8122 20.7169 65.8319 21.1392 65.8503 21.5517C65.9829 23.766 66.1167 25.9803 66.2383 28.1957C66.2997 29.3174 66.3734 30.4673 66.4385 31.6475C67.6222 52.2323 69.1951 81.4207 70.5765 106.36L70.6109 107.128C71.1181 116.161 71.5883 124.607 72.0046 131.865V131.875C72.3864 131.89 72.7794 131.905 73.1613 131.911C72.7389 124.519 72.26 115.869 71.7431 106.627C71.7308 106.368 71.7197 106.118 71.6976 105.86C70.3321 81.0255 68.769 52.0482 67.5902 31.588C67.5264 30.4089 67.4514 29.2579 67.3901 28.1361C67.2624 26.0463 67.1458 23.9468 67.0291 21.856L67.0254 21.7694C66.9959 21.3579 66.9775 20.9454 66.948 20.5328C66.9321 20.1679 66.9038 19.7944 66.8866 19.4306C66.84 18.6542 66.7945 17.8876 66.7491 17.1102V17.1004C66.6865 15.9592 66.6128 14.8093 66.5502 13.668C66.3218 13.6669 66.0824 13.6843 65.8429 13.6929L65.3984 13.7102Z" fill="#212121"/>
<path d="M66.6858 22.1566C66.6956 22.1566 66.7054 22.1555 66.714 22.1468C66.8491 22.1057 66.9608 22.0137 67.0112 21.8642C67.0198 21.8383 67.0271 21.8112 67.0357 21.7852L67.0455 21.7765C67.339 20.9666 67.6522 20.1567 67.9763 19.363C68.7868 17.3707 69.6966 15.4163 70.7072 13.4922C70.345 13.4922 69.9827 13.5095 69.6205 13.5269C68.3484 15.9826 67.2371 18.499 66.2855 21.0695C66.2425 21.1669 66.2094 21.2633 66.1762 21.3597L66.1664 21.3683C66.1234 21.4744 66.0915 21.5881 66.0485 21.6942C66.0485 21.7029 66.0399 21.7116 66.0399 21.7202C65.9355 22.071 66.3493 22.2584 66.6858 22.1566Z" fill="#212121"/>
<path d="M66.0256 21.7533C65.9875 22.0922 66.4676 22.4073 66.7857 22.1583C66.8139 22.1399 66.8422 22.1117 66.8593 22.0857C66.9416 21.9872 67.0239 21.8876 67.1061 21.7977C69.7891 18.6782 72.8234 15.863 76.221 13.3672C75.7114 13.3737 75.2018 13.3813 74.6836 13.3975C72.2855 15.2317 70.0728 17.2306 68.0467 19.3755C67.4745 19.9646 66.933 20.5698 66.4025 21.1913C66.3473 21.2455 66.292 21.3094 66.2466 21.3722C66.1999 21.4177 66.1644 21.4707 66.119 21.5162C66.0551 21.5876 66.0207 21.6754 66.0256 21.7533Z" fill="#212121"/>
<path d="M61.3281 13.9365C62.572 15.8314 63.8244 17.7262 65.0683 19.6222C65.1764 19.7813 65.2734 19.9405 65.3814 20.0997C65.4895 20.2675 65.6602 20.3206 65.8247 20.2859C66.1268 20.2458 66.4006 19.9297 66.1858 19.6113C64.9321 17.6991 63.6771 15.787 62.4136 13.8672C62.0501 13.8856 61.6891 13.9116 61.3281 13.9365Z" fill="#212121"/>
<path d="M57.4844 14.1921C60.3123 16.6695 63.1513 19.1545 65.9693 21.6329C66.0933 21.7391 66.2419 21.7672 66.3683 21.7434C66.3978 21.7423 66.4261 21.7315 66.4556 21.7217C66.6668 21.634 66.8178 21.3936 66.7466 21.1803C66.7552 21.1717 66.7453 21.1717 66.7453 21.1717C66.7429 21.137 66.722 21.1035 66.6999 21.0699C66.6778 21.0363 66.6471 21.0114 66.6164 20.9789C66.3573 20.7494 66.0884 20.5198 65.8293 20.2903C65.5801 20.0683 65.3222 19.8474 65.0729 19.6255C62.9695 17.788 60.8673 15.9429 58.7639 14.1055C58.3341 14.1347 57.9141 14.1629 57.4844 14.1921Z" fill="#212121"/>
<path d="M52.5334 9.24678C40.3058 10.2375 28.1469 11.8487 16.2656 14.0695C28.0315 7.53058 45.2739 0.965699 64.8801 0.098393C84.4064 -0.765664 102.349 4.19779 114.91 9.62359C94.3918 7.70491 73.3564 7.56414 52.5334 9.24678Z" fill="url(#paint6_linear_853_24)"/>
<path d="M4.58271 21.8591C7.93246 21.0968 11.3019 20.4288 14.5534 19.7748C28.7211 16.9249 43.2976 15.0354 57.9983 14.0469C81.4478 12.4725 104.938 13.2997 127.678 16.3824C130.806 18.4657 132.657 20.2252 132.937 21.2419C131.727 17.3786 102.123 15.5422 66.0116 17.1414C29.8999 18.7407 0.713526 23.1801 0.0234375 27.1268C0.165876 26.1014 1.76095 24.1979 4.58271 21.8591Z" fill="url(#paint7_linear_853_24)"/>
<path d="M57.9937 14.048C43.2918 15.0355 28.7165 16.926 14.5488 19.7759C11.2973 20.4299 7.92788 21.098 4.57812 21.8603C7.3483 19.5507 11.3218 16.8156 16.2605 14.0718C28.1418 11.8511 40.3006 10.241 52.5282 9.24914C73.35 7.5665 94.3867 7.70727 114.905 9.62595C120.22 11.9323 124.573 14.3165 127.674 16.3836C104.933 13.2998 81.4432 12.4726 57.9937 14.048Z" fill="url(#paint8_linear_853_24)"/>
<path d="M186.753 393.737C141.337 370.561 107.162 327.65 84.1741 278.293C65.317 237.805 53.987 192.979 50.1657 151.143C49.9889 149.203 49.828 147.259 49.6856 145.316C48.4012 127.825 47.8474 110.358 47.6116 92.817C47.5527 88.4556 49.2386 71.0824 49.3356 58.3457C49.3393 57.7956 49.4204 57.2791 49.5493 56.793C47.161 60.0879 47.0001 71.2448 45.0011 76.3967C21.5663 136.757 28.7545 204.137 54.7827 262.322C69.0805 294.283 89.0575 323.47 112.778 347.191C118.8 353.212 125.113 358.882 131.713 364.165C155.739 383.394 182.798 396.413 211.31 403.545C202.96 401.043 194.755 397.821 186.753 393.737Z" fill="url(#paint9_linear_853_24)"/>
<path d="M553.162 297.859C553.108 297.673 552.511 296.073 551.515 296.887C546.595 300.527 347.529 351.616 274.179 309.794C246.548 294.039 214.817 269.49 191.958 246.394C183.054 237.397 178.677 224.417 179.924 211.432C180.019 210.452 180.112 209.471 180.207 208.486C180.795 202.309 179.315 196.1 176.047 190.944C175.428 189.966 174.787 189.01 174.162 188.037C141.62 137.399 102.092 93.8151 58.2036 54.0371C55.1068 51.2305 50.5549 52.9619 49.5407 56.7938C49.4117 57.2811 49.3319 57.7976 49.327 58.3465C49.23 71.0833 47.5453 88.4564 47.603 92.8179C47.8388 110.359 48.3938 127.826 49.677 145.316C49.8194 147.26 49.9803 149.204 50.1571 151.144C53.9894 193.095 65.3783 238.046 84.3288 278.617C105.505 323.955 136.127 363.825 176.248 387.905C179.679 389.965 183.175 391.917 186.744 393.738C194.747 397.821 202.95 401.044 211.298 403.546C257.424 417.37 307.981 408.947 353.59 399.243C355.59 398.818 357.59 398.374 359.591 397.936C410.752 386.74 462.184 371.441 509.851 348.711C511.759 347.801 513.673 346.897 515.583 345.992C538.704 335.027 560.717 323.791 553.162 297.859Z" fill="url(#paint10_linear_853_24)"/>
<path d="M315.969 339.557C315.969 339.557 317.243 383.452 376.528 418.568C376.528 418.568 370.154 377.373 315.969 339.557Z" fill="#CC5E37"/>
<path d="M365.353 403.791C364.703 402.945 364.155 402.029 363.507 401.184C362.865 400.348 362.197 399.532 361.529 398.719C360.195 397.097 358.823 395.508 357.48 393.893C354.819 390.686 352.189 387.449 349.589 384.185C344.369 377.632 339.268 370.973 334.261 364.235C329.275 357.527 324.384 350.743 319.556 343.907C314.699 337.033 309.909 330.109 305.152 323.159C302.783 319.696 300.421 316.228 298.064 312.756C295.69 309.256 293.377 305.688 290.89 302.278C290.292 301.457 289.667 300.66 289.051 299.855C288.61 299.279 287.72 300.026 288.087 300.644C290.249 304.291 292.641 307.761 295.004 311.264C297.349 314.744 299.712 318.211 302.078 321.676C306.827 328.632 311.608 335.566 316.449 342.45C321.312 349.366 326.237 356.233 331.252 363.027C336.218 369.756 341.274 376.415 346.446 382.969C349.051 386.271 351.685 389.547 354.351 392.793C357.008 396.029 359.62 399.374 362.525 402.363C363.233 403.091 364.017 403.726 364.73 404.452C365.147 404.877 365.705 404.249 365.353 403.791Z" fill="#A54820"/>
<path d="M429.438 333.475C429.438 333.475 430.712 377.37 489.997 412.486C489.997 412.486 483.623 371.291 429.438 333.475Z" fill="#CC5E37"/>
<path d="M478.819 397.71C478.168 396.865 477.621 395.948 476.973 395.104C476.331 394.268 475.663 393.452 474.995 392.639C473.661 391.017 472.289 389.427 470.948 387.813C468.286 384.605 465.656 381.369 463.057 378.105C457.836 371.552 452.735 364.892 447.729 358.154C442.742 351.446 437.851 344.662 433.023 337.826C428.168 330.952 423.377 324.029 418.619 317.078C416.25 313.616 413.889 310.148 411.533 306.675C409.158 303.176 406.846 299.607 404.359 296.196C403.761 295.375 403.136 294.578 402.52 293.773C402.079 293.197 401.189 293.943 401.555 294.562C403.718 298.209 406.11 301.679 408.472 305.182C410.817 308.662 413.181 312.129 415.546 315.594C420.296 322.55 425.076 329.482 429.918 336.368C434.781 343.284 439.706 350.151 444.721 356.945C449.688 363.674 454.743 370.333 459.915 376.887C462.519 380.189 465.154 383.465 467.819 386.711C470.477 389.947 473.089 393.29 475.994 396.281C476.701 397.009 477.486 397.644 478.199 398.37C478.613 398.796 479.171 398.169 478.819 397.71Z" fill="#A54820"/>
<defs>
<linearGradient id="paint0_linear_853_24" x1="279.933" y1="95.5718" x2="336.87" y2="497.987" gradientUnits="userSpaceOnUse">
<stop offset="0.1096" stop-color="#263238"/>
<stop offset="1" stop-color="#41BFCC" stop-opacity="0"/>
</linearGradient>
<linearGradient id="paint1_linear_853_24" x1="151.537" y1="55.6396" x2="148.274" y2="72.5839" gradientUnits="userSpaceOnUse">
<stop offset="0.0416" stop-color="#042100"/>
<stop offset="1" stop-color="#306522"/>
</linearGradient>
<linearGradient id="paint2_linear_853_24" x1="81.3088" y1="29.6915" x2="213.42" y2="65.4116" gradientUnits="userSpaceOnUse">
<stop stop-color="#250F24"/>
<stop offset="1" stop-color="#B03D3A"/>
</linearGradient>
<linearGradient id="paint3_linear_853_24" x1="77.1358" y1="44.1328" x2="209.245" y2="79.8523" gradientUnits="userSpaceOnUse">
<stop stop-color="#E5D0A7"/>
<stop offset="0.3527" stop-color="#E3CEA5"/>
<stop offset="0.5339" stop-color="#DDC89D"/>
<stop offset="0.676" stop-color="#D2BF90"/>
<stop offset="0.7979" stop-color="#C3B07D"/>
<stop offset="0.9057" stop-color="#AF9E64"/>
<stop offset="1" stop-color="#988948"/>
</linearGradient>
<linearGradient id="paint4_linear_853_24" x1="220.289" y1="63.9184" x2="84.6363" y2="34.8294" gradientUnits="userSpaceOnUse">
<stop stop-color="#349859"/>
<stop offset="1" stop-color="#988948"/>
</linearGradient>
<linearGradient id="paint5_linear_853_24" x1="66.3835" y1="16.7954" x2="66.5414" y2="31.9716" gradientUnits="userSpaceOnUse">
<stop offset="0.0416" stop-color="#042100"/>
<stop offset="1" stop-color="#306522"/>
</linearGradient>
<linearGradient id="paint6_linear_853_24" x1="0.0483981" y1="6.75913" x2="121.948" y2="7.76237" gradientUnits="userSpaceOnUse">
<stop stop-color="#250F24"/>
<stop offset="1" stop-color="#B03D3A"/>
</linearGradient>
<linearGradient id="paint7_linear_853_24" x1="-0.291246" y1="19.9324" x2="121.607" y2="20.9356" gradientUnits="userSpaceOnUse">
<stop stop-color="#E5D0A7"/>
<stop offset="0.3527" stop-color="#E3CEA5"/>
<stop offset="0.5339" stop-color="#DDC89D"/>
<stop offset="0.676" stop-color="#D2BF90"/>
<stop offset="0.7979" stop-color="#C3B07D"/>
<stop offset="0.9057" stop-color="#AF9E64"/>
<stop offset="1" stop-color="#988948"/>
</linearGradient>
<linearGradient id="paint8_linear_853_24" x1="127.47" y1="11.8858" x2="4.3785" y2="17.4599" gradientUnits="userSpaceOnUse">
<stop stop-color="#349859"/>
<stop offset="1" stop-color="#988948"/>
</linearGradient>
<linearGradient id="paint9_linear_853_24" x1="143.713" y1="222.779" x2="49.9658" y2="289.842" gradientUnits="userSpaceOnUse">
<stop stop-color="#B03D3A"/>
<stop offset="1" stop-color="#250F24"/>
</linearGradient>
<linearGradient id="paint10_linear_853_24" x1="50.0162" y1="233.218" x2="553.246" y2="224.543" gradientUnits="userSpaceOnUse">
<stop stop-color="#B03D3A"/>
<stop offset="1" stop-color="#250F24"/>
</linearGradient>
</defs>
</svg>
