<svg width="827" height="812" viewBox="0 0 827 812" fill="none" xmlns="http://www.w3.org/2000/svg">
<g opacity="0.5">
<path d="M319.972 779.945C325.137 781.331 328.15 786.409 326.683 791.293C325.666 794.786 322.647 797.199 319.137 797.827C317.667 798.091 316.141 798.054 314.68 797.689C309.508 796.307 306.501 791.226 307.949 786.283C309.417 781.405 314.8 778.563 319.972 779.945Z" fill="#FBD56C"/>
<path d="M283.837 768.638C288.888 770.416 291.356 775.785 289.463 780.492C288.168 783.595 285.343 785.664 282.151 786.238C280.424 786.547 278.623 786.434 276.843 785.818C271.84 783.969 269.324 778.673 271.266 773.89C273.165 769.181 278.834 766.789 283.837 768.638Z" fill="#FBD56C"/>
<path d="M345.62 795.453C346.601 790.467 351.691 787.18 357.029 788.097L356.967 788.109C362.311 789.023 365.779 793.772 364.808 798.816C364.051 802.637 360.866 805.519 357.035 806.206C355.889 806.411 354.695 806.377 353.467 806.221C353.458 806.163 353.458 806.163 353.458 806.163C348.182 805.231 344.714 800.484 345.62 795.453Z" fill="#FBD56C"/>
<path d="M248.998 754.159L249.011 754.217C253.82 756.415 255.8 761.993 253.407 766.543C252.031 769.226 249.398 770.949 246.525 771.464C244.486 771.829 242.32 771.593 240.353 770.695C235.541 768.435 233.571 762.919 235.963 758.368C238.356 753.821 244.193 751.96 248.998 754.159Z" fill="#FBD56C"/>
<path d="M384.095 801.293C384.588 796.206 389.329 792.483 394.705 792.894L394.718 792.953C400.088 793.363 404.033 797.84 403.529 802.924C403.12 807.118 399.809 810.396 395.666 811.141C394.767 811.304 393.916 811.331 392.975 811.249C387.592 810.779 383.663 806.364 384.095 801.293Z" fill="#FBD56C"/>
<path d="M154.847 693.735C158.827 697.08 159.149 702.955 155.529 706.665C154.064 708.238 152.201 709.198 150.165 709.563C147.292 710.078 144.165 709.33 141.779 707.321C137.789 703.915 137.477 698.101 141.084 694.333C144.691 690.565 150.912 690.261 154.834 693.677L154.847 693.735Z" fill="#FBD56C"/>
<path d="M103.401 640.825C106.661 644.863 105.839 650.631 101.563 653.709C100.294 654.623 98.953 655.175 97.4823 655.439C93.9726 656.067 90.2261 654.868 87.9242 651.971C84.6646 647.936 85.4859 642.168 89.7618 639.09C94.0376 636.011 100.141 636.79 103.401 640.825Z" fill="#FBD56C"/>
<path d="M186.155 729.456C184.681 731.345 182.476 732.553 180.184 732.964C177.629 733.42 174.818 732.93 172.506 731.283C168.256 728.232 167.36 722.465 170.571 718.39C173.788 714.315 179.912 713.527 184.223 716.566C188.538 719.601 189.372 725.387 186.155 729.456Z" fill="#FBD56C"/>
<path d="M218.897 749.444C217.446 751.765 215.024 753.2 212.407 753.669C210.112 754.08 207.654 753.709 205.489 752.473C200.921 749.796 199.515 744.118 202.284 739.81C205.115 735.492 211.118 734.104 215.693 736.777C220.329 739.445 221.735 745.126 218.897 749.444Z" fill="#FBD56C"/>
<path d="M127.236 681.389C125.882 682.567 124.2 683.37 122.473 683.68C119.281 684.253 115.837 683.244 113.509 680.853C109.837 677.078 110.122 671.28 114.057 667.824C118.057 664.36 124.193 664.636 127.865 668.407C131.521 672.126 131.232 677.924 127.236 681.389Z" fill="#FBD56C"/>
<path d="M80.2112 202.366C78.6852 204.638 76.3379 206.119 73.7276 206.588C71.4257 207.002 68.9713 206.631 66.8025 205.395C62.2345 202.718 60.7573 197.049 63.5949 192.732C66.4162 188.353 72.429 187.025 77.0036 189.702C81.5651 192.318 83.039 197.984 80.2112 202.366Z" fill="#FBD56C"/>
<path d="M183.456 83.2402C186.715 87.2753 185.894 93.0428 181.618 96.1213C180.349 97.035 179.001 97.59 177.537 97.8537C174.027 98.4822 170.281 97.2803 167.979 94.3827C164.719 90.3446 165.541 84.5801 169.816 81.5017C174.089 78.4232 180.199 79.202 183.456 83.2402Z" fill="#FBD56C"/>
<path d="M216.022 62.9712C218.879 67.3283 217.512 73.0069 212.895 75.7082C211.895 76.3276 210.723 76.7231 209.571 76.9285C205.746 77.6154 201.668 76.1007 199.477 72.7463C196.623 68.4505 198 62.7689 202.61 60.0706C207.162 57.3816 213.174 58.6724 216.022 62.9712Z" fill="#FBD56C"/>
<path d="M125.701 144.805C124.236 146.378 122.376 147.337 120.337 147.702C117.464 148.217 114.337 147.469 111.951 145.461C107.961 142.058 107.649 136.241 111.256 132.473C114.863 128.704 121.016 128.413 125.006 131.816C128.999 135.22 129.311 141.036 125.701 144.805Z" fill="#FBD56C"/>
<path d="M101.608 172.549C100.085 174.508 97.9427 175.704 95.5792 176.127C93.024 176.584 90.2061 176.029 87.9659 174.434C83.6511 171.402 82.7516 165.628 85.969 161.553C89.1799 157.481 95.2902 156.635 99.6212 159.729C103.936 162.765 104.832 168.538 101.608 172.549Z" fill="#FBD56C"/>
<path d="M250.368 45.6946C252.809 50.254 250.88 55.7854 246.049 58.0881C245.267 58.4745 244.39 58.6983 243.498 58.8577C239.348 59.6028 234.998 57.6957 232.995 53.9978C230.56 49.4415 232.553 43.8978 237.316 41.6104C242.141 39.3016 248.007 41.1842 250.368 45.6946Z" fill="#FBD56C"/>
<path d="M152.507 119.271C151.095 120.461 149.472 121.252 147.744 121.562C144.553 122.135 141.108 121.126 138.719 118.747C135.108 114.96 135.333 109.174 139.267 105.719C143.264 102.254 149.403 102.527 153.062 106.24C156.731 110.02 156.442 115.816 152.507 119.271Z" fill="#FBD56C"/>
<path d="M400.304 8.30459C400.801 13.0848 397.304 17.3958 392.454 18.2666C392.136 18.3249 391.879 18.3709 391.545 18.3709C386.23 18.8891 381.451 15.1882 380.893 10.1014C380.409 5.06669 384.263 0.565521 389.659 0.09946C389.646 0.0381362 389.646 0.0381348 389.646 0.0381348C394.977 -0.418728 399.749 3.28217 400.304 8.30459Z" fill="#FBD56C"/>
<path d="M361.575 12.748C362.643 17.7397 359.117 22.5567 353.894 23.5563C348.595 24.5068 343.508 21.2352 342.44 16.2434C341.433 11.2394 344.897 6.43467 350.183 5.42283C355.481 4.47538 360.582 7.80833 361.575 12.748Z" fill="#FBD56C"/>
<path d="M286.334 31.5024C288.275 36.212 285.85 41.5809 280.857 43.4115C280.246 43.6476 279.685 43.807 279.11 43.9112C274.581 44.7238 269.942 42.372 268.172 38.1928C266.234 33.4831 268.737 28.1633 273.708 26.2715C278.766 24.4287 284.392 26.7896 286.334 31.5024Z" fill="#FBD56C"/>
<path d="M323.542 20.5183C325.049 25.369 322.049 30.5294 316.838 31.9C316.581 31.946 316.276 32.0625 315.958 32.1177C311.111 32.9885 306.244 30.1768 304.799 25.6266C303.348 20.7023 306.293 15.6155 311.491 14.1836C316.643 12.8253 322.026 15.6063 323.542 20.5183Z" fill="#FBD56C"/>
<path d="M63.1817 579.914C65.6037 584.412 63.6136 589.952 58.8507 592.243C58.0066 592.644 57.2047 592.914 56.3054 593.074C52.1626 593.816 47.7439 591.924 45.7992 588.152C43.3577 583.593 45.2896 578.065 50.1141 575.765C54.9548 573.521 60.8052 575.345 63.1817 579.914Z" fill="#FBD56C"/>
<path d="M35.5764 513.05C37.0828 517.9 34.0797 522.999 28.9402 524.419C28.6221 524.477 28.304 524.533 28.0475 524.579C23.1321 525.462 18.2816 522.708 16.8888 518.084C16.8271 518.097 16.8271 518.097 16.8271 518.097C15.3727 513.178 18.3823 508.079 23.5249 506.715C28.7261 505.286 34.1284 508.132 35.5764 513.05Z" fill="#FBD56C"/>
<path d="M26.7617 478.046C27.7681 483.05 24.3039 487.855 19.0087 488.805C13.7718 489.744 8.68437 486.475 7.67791 481.471C6.68444 476.528 10.1453 471.724 15.3822 470.785C20.6807 469.835 25.7682 473.107 26.7617 478.046Z" fill="#FBD56C"/>
<path d="M21.4755 443.271C21.9722 448.051 18.5308 452.292 13.6121 453.172C13.3589 453.218 13.0405 453.276 12.7224 453.331C7.38812 453.788 2.62868 450.146 2.06376 445.065C1.58001 440.027 5.50515 435.517 10.8167 434.999C16.1347 434.487 20.9787 438.175 21.4755 443.271Z" fill="#FBD56C"/>
<path d="M61.8059 233.829C60.4293 236.512 57.8027 238.232 54.8678 238.76C52.8873 239.115 50.7315 238.938 48.7575 237.981C43.9395 235.724 41.9688 230.208 44.3616 225.655C46.7543 221.108 52.5984 219.246 57.41 221.506C62.2312 223.766 64.1987 229.282 61.8059 233.829Z" fill="#FBD56C"/>
<path d="M47.7789 547.082C49.7139 551.792 47.2139 557.111 42.1784 559.015C41.6167 559.178 41.0486 559.344 40.4772 559.445C35.9481 560.257 31.3216 557.967 29.5554 553.785C27.6009 549.017 30.101 543.694 35.156 541.851C40.1396 540.023 45.7628 542.323 47.7789 547.082Z" fill="#FBD56C"/>
<path d="M81.7839 611.238C84.6377 615.533 83.261 621.215 78.7124 623.901C77.6508 624.527 76.4723 624.928 75.3263 625.134C71.492 625.82 67.4856 624.29 65.3006 620.997C65.2389 621.01 65.239 621.01 65.239 621.01C62.3819 616.653 63.8136 610.962 68.3784 608.331C72.9075 605.587 78.9333 606.942 81.7839 611.238Z" fill="#FBD56C"/>
<path d="M34.6408 300.846C33.6246 304.336 30.6181 306.813 27.1085 307.442C25.6378 307.705 24.1767 307.656 22.641 307.245C17.4691 305.863 14.4628 300.782 15.9238 295.897C17.3264 291.025 22.6962 288.128 27.9331 289.495C33.0952 290.881 36.105 295.962 34.6408 300.846Z" fill="#FBD56C"/>
<path d="M46.6176 266.785C45.3125 269.826 42.4977 271.957 39.3095 272.531C37.5888 272.841 35.7706 272.666 33.9947 272.049C29.0046 270.259 26.469 264.905 28.4299 260.183C30.3097 255.412 35.9848 253.021 40.9782 254.87C46.03 256.648 48.5039 262.014 46.6176 266.785Z" fill="#FBD56C"/>
<path d="M26.075 335.914C25.3251 339.731 22.1954 342.604 18.3092 343.303C17.2183 343.499 15.9618 343.475 14.793 343.248C9.46202 342.393 5.98166 337.585 6.96215 332.599C7.86796 327.564 12.9619 324.278 18.3026 325.194C23.5622 326.062 27.0425 330.867 26.075 335.914Z" fill="#FBD56C"/>
<path d="M21.0704 371.464C20.6549 375.662 17.3499 378.936 13.1357 379.694C12.3078 379.841 11.4052 379.942 10.5254 379.85C5.13595 379.381 1.13288 374.917 1.64585 369.891C2.0809 364.82 6.82096 361.097 12.1909 361.505C17.5609 361.916 21.5022 366.393 21.0704 371.464Z" fill="#FBD56C"/>
<path d="M19.4833 407.345C19.5385 411.893 16.1263 415.627 11.594 416.44C11.0193 416.544 10.4413 416.648 9.78223 416.639C4.43501 416.664 0.0422955 412.579 8.90985e-05 407.465C-0.0226374 402.412 4.30515 398.263 9.71406 398.227C15.0678 398.205 19.4606 402.289 19.4833 407.345Z" fill="#FBD56C"/>
<path d="M55 565.872L62.4284 568.052C63.8764 568.475 84.7328 574.506 115.553 578.98C119.248 584.99 123.121 590.917 127.228 596.733C152.692 632.816 184.908 663.521 222.975 687.995C247.188 703.562 273.025 716.109 300.167 725.544C309.293 752.683 318.371 770.515 319.02 771.779L322.42 778.386L328.858 774.259C330.098 773.462 347.73 762.062 370.304 742.475C383.395 744.327 396.54 745.462 409.712 745.915V736.659C399.599 736.3 389.505 735.539 379.437 734.334C389.213 725.378 399.57 715.063 409.712 703.596V683.221C394.268 702.4 377.356 718.908 362.493 731.897C358.34 731.201 354.195 730.456 350.055 729.613C337.273 727.009 324.738 723.729 312.456 719.819C306.092 700.622 299.784 676.932 296.605 651.578C294.628 635.802 297.492 619.864 304.342 605.818C320.066 614.348 336.838 621.207 354.341 626.193C355.941 629.716 359.162 632.54 363.386 633.607C367.746 634.708 372.165 633.681 375.444 631.222C386.654 633.383 398.105 634.757 409.712 635.358V622.636C399.826 622.097 390.06 620.959 380.473 619.214C379.694 614.269 375.901 609.985 370.46 608.611C364.892 607.204 359.214 609.258 355.957 613.364C340.198 608.703 325.085 602.43 310.881 594.712C315.082 588.706 320.102 583.236 325.871 578.517C342.753 564.71 363.555 559.598 382.947 564.492C393.2 567.08 402.31 572.283 409.712 579.553V555.441C342.776 550.041 284.924 503.236 271.788 437.923C255.974 359.312 310.829 283.209 394.067 268.274C399.297 267.335 404.518 266.682 409.712 266.262V245.121C402.881 249.797 395.138 253.013 386.801 254.509C367.08 258.048 346.734 251.508 330.968 236.569C326.494 232.329 322.572 227.607 319.238 222.529C333.624 215.468 349 209.801 365.214 205.754C368.314 208.884 372.986 210.503 377.775 209.645C382.746 208.753 386.564 205.423 388.132 201.219C395.352 200.152 402.55 199.45 409.712 199.051V186.311C401.771 186.728 393.787 187.504 385.778 188.697C382.7 185.183 377.742 183.312 372.661 184.223C367.399 185.168 363.431 188.841 362.055 193.391C344.769 197.684 328.377 203.712 313.05 211.233C312.706 210.47 312.374 209.703 312.053 208.93C311.865 208.474 311.68 208.017 311.501 207.554C311.388 207.266 311.274 206.977 311.163 206.692C305.787 192.511 304.342 176.855 307.453 161.674C312.342 137.813 319.929 115.672 327.397 97.4837C337.539 94.7456 347.844 92.4153 358.315 90.5357C365.704 89.2111 373.1 88.1379 380.505 87.2671C389.836 96.7784 399.917 107.936 409.712 120.367V99.6116C405.511 94.7118 401.329 90.0482 397.242 85.688C401.397 85.3906 405.556 85.1913 409.712 85.0411V75.7781C402.794 76.0234 395.872 76.4435 388.953 77.0782C367.519 55.4125 350.334 42.4517 349.14 41.5594L343.039 37L339.137 43.3562C338.364 44.6164 327.15 63.0565 315.469 91.2164C283.765 100.663 253.766 114.216 225.91 131.748C187.703 155.796 155.191 186.222 129.277 222.173C128.121 223.777 126.998 225.396 125.874 227.015C94.6481 229.333 73.2689 233.923 71.7885 234.248L64.2106 235.907L67.0354 242.751C67.5938 244.103 75.7882 263.708 91.6708 289.718C84.96 306.064 79.5868 322.925 75.6324 340.237C65.597 384.188 65.0387 428.994 73.9702 473.411C76.8662 487.807 80.72 501.89 85.486 515.632C68.3243 539.714 58.9966 557.955 58.3473 559.237L55 565.872ZM332.004 86.6999C337.968 73.2516 343.464 62.7529 346.951 56.4366C352.568 61.0451 361.587 68.7657 372.165 78.9976C366.934 79.712 361.711 80.5215 356.487 81.4567C348.227 82.9377 340.068 84.6977 332.004 86.6999ZM316.228 730.719C326.643 733.81 337.234 736.469 347.987 738.658C349.769 739.02 351.558 739.345 353.344 739.685C342.601 748.58 333.543 755.252 327.825 759.281C325.04 753.164 320.78 743.275 316.228 730.719ZM98.0862 299.907C107.953 315.088 120.17 331.771 134.757 347.948C124.916 354.973 116.725 364.037 110.914 374.397C93.5831 405.28 99.5115 443.16 125.082 467.962C112.547 480.846 101.671 493.924 92.5474 506.008C88.9404 494.788 85.9373 483.348 83.5932 471.691C74.9052 428.497 75.4474 384.927 85.2068 342.193C88.5022 327.761 92.8169 313.656 98.0862 299.907ZM182.473 432.511C163.915 436.242 146.555 444.822 132.76 457.12C112.91 436.252 108.68 405.535 122.813 380.352C127.498 372 134.017 364.647 141.828 358.849C153.886 368.866 168.168 376.05 183.681 379.91C181.09 397.326 180.684 414.969 182.473 432.511ZM116.904 240.62C109.988 251.679 103.778 263.058 98.281 274.722C90.9696 262.083 85.7652 251.603 82.7328 245.145C90.015 243.879 101.95 242.045 116.904 240.62ZM200.852 240.365C201.94 240.475 203.021 240.61 204.105 240.758C204.417 240.8 204.726 240.846 205.037 240.892C205.849 241.012 206.657 241.141 207.466 241.282C207.768 241.334 208.07 241.386 208.371 241.441C210.534 241.84 212.68 242.312 214.803 242.858C215.06 242.922 215.313 242.996 215.569 243.06C216.404 243.284 217.238 243.517 218.066 243.762C218.329 243.842 218.595 243.919 218.858 243.998C220.956 244.639 223.027 245.351 225.069 246.133C225.329 246.231 225.585 246.335 225.845 246.436C226.621 246.743 227.397 247.059 228.163 247.384C228.439 247.5 228.712 247.614 228.984 247.733C230.962 248.595 232.903 249.521 234.809 250.514C235.082 250.658 235.358 250.805 235.63 250.95C236.345 251.33 237.052 251.719 237.754 252.118C238.013 252.265 238.27 252.409 238.526 252.556C239.458 253.096 240.38 253.648 241.289 254.221C241.325 254.243 241.357 254.267 241.393 254.289C242.276 254.847 243.149 255.42 244.01 256.006C244.218 256.147 244.426 256.291 244.63 256.435C245.396 256.965 246.156 257.508 246.906 258.06C247.033 258.152 247.159 258.244 247.286 258.336C247.396 258.422 247.503 258.508 247.617 258.594C235.634 270.92 225.137 284.466 216.316 298.957C211.524 299.073 206.936 301.557 204.54 305.847C202.076 310.253 202.586 315.389 205.381 319.227C198.226 334.31 192.8 350.184 189.291 366.591C172.464 362.078 156.886 352.857 145.211 339.933C128.413 321.337 114.741 301.781 104.31 284.831C111.245 269.224 119.469 254.126 128.972 239.614C149.805 238.148 174.856 237.737 200.852 240.365ZM258.558 440.299C258.902 442.001 259.282 443.687 259.678 445.364C249.971 438.456 238.218 433.615 225.075 431.303C216.485 429.794 207.716 429.445 199.024 430.153C197.421 413.724 197.869 397.474 200.209 381.658C207.875 382.606 215.647 382.722 223.352 381.916C225.699 381.67 228.014 381.342 230.283 380.935C242.062 378.822 252.734 374.566 261.776 368.495C255.045 391.182 253.597 415.625 258.558 440.299ZM301.196 217.393C285.177 226.371 270.344 237.097 256.964 249.374C247.929 242.389 237.656 236.894 226.715 233.114C226.692 233.107 226.673 233.098 226.65 233.092C225.949 232.85 225.241 232.623 224.536 232.396C224.173 232.28 223.813 232.16 223.449 232.047C222.842 231.859 222.231 231.679 221.621 231.501C221.147 231.363 220.676 231.225 220.199 231.096C219.641 230.943 219.079 230.792 218.517 230.645C217.982 230.507 217.446 230.372 216.907 230.241C216.381 230.112 215.852 229.986 215.326 229.866C214.741 229.732 214.157 229.609 213.569 229.486C213.073 229.382 212.576 229.275 212.076 229.177C211.433 229.051 210.787 228.937 210.144 228.824C209.693 228.744 209.242 228.658 208.79 228.585C208.001 228.456 207.209 228.343 206.414 228.232C206.128 228.192 205.846 228.14 205.557 228.103C210.404 200.428 233.15 178.112 262.798 172.792C272.632 171.029 282.781 171.238 292.456 173.375C291.71 188.522 294.693 203.543 301.196 217.393ZM294.232 159.267C294.138 159.733 294.057 160.2 293.969 160.666C282.94 158.433 271.434 158.298 260.282 160.298C224.767 166.669 197.596 193.572 192.142 226.834C172.899 225.405 154.536 225.463 138.198 226.261C163.266 191.787 194.589 162.579 231.341 139.444C256.256 123.761 282.94 111.361 311.053 102.319C304.657 119.07 298.498 138.451 294.232 159.267ZM281.648 277.598C277.658 270.521 272.662 264.002 266.876 258.161C279.093 247.003 292.684 237.093 307.479 228.723C311.42 234.815 316.079 240.482 321.429 245.55C331.906 255.478 344.149 262.304 357.081 265.698C330.939 276.243 308.602 292.748 291.599 313.129C291.473 301.266 288.154 289.136 281.648 277.598ZM221.874 369.277C215.426 369.951 208.92 369.878 202.492 369.127C205.774 353.774 210.833 338.919 217.498 324.79C222.105 324.517 226.462 322.067 228.773 317.927C231.153 313.668 230.757 308.729 228.202 304.936C236.468 291.417 246.286 278.769 257.477 267.252C262.279 272.18 266.428 277.65 269.762 283.568C280.259 302.186 280.905 322.478 271.538 339.241C262.168 356.01 244.065 366.956 221.874 369.277ZM263.707 532.604C260.09 538.016 255.76 542.967 250.877 547.389C240.38 535.648 231.179 522.761 223.517 508.893C226.689 505.253 227.64 500.108 225.504 495.491C223.313 490.759 218.488 487.902 213.361 487.751C208.472 475.867 204.648 463.403 202.037 450.436C201.524 447.879 201.076 445.321 200.664 442.767C207.992 442.212 215.374 442.534 222.611 443.804C244.568 447.661 261.769 459.834 269.808 477.204C277.85 494.574 275.626 514.768 263.707 532.604ZM279.372 649.076C269.697 651.201 259.542 651.379 249.714 649.594C220.079 644.207 197.388 621.842 192.612 594.157C211.404 591.717 229.364 584.318 244.075 572.998C257.425 585.305 272.233 596.065 288.229 605.076C281.687 618.911 278.665 633.926 279.372 649.076ZM259.844 556.845C265.655 551.639 270.814 545.801 275.096 539.389C282.622 528.127 286.898 516.019 287.846 503.978C303.878 524.619 324.975 541.217 349.065 552.433C337.728 555.379 326.819 560.926 317.059 568.907C310.254 574.473 304.346 580.942 299.427 588.047C285.051 579.121 271.752 568.659 259.844 556.845ZM127.984 580.623C143.146 582.426 160.13 583.711 178.038 583.8L178.428 588.985C181.148 625.163 209.417 655.221 247.166 662.08C257.737 663.999 268.626 663.999 279.132 662.113C280.876 661.801 282.609 661.43 284.33 661.013C287.255 680.443 291.765 698.592 296.576 714.355C272.723 705.503 249.948 694.149 228.481 680.351C191.46 656.551 160.133 626.693 135.374 591.606C132.822 587.988 130.374 584.318 127.984 580.623ZM97.8589 521.179C109.709 504.695 125.186 485.605 143.883 467.748C155.903 456.268 171.178 448.372 187.369 444.754C187.804 447.437 188.272 450.123 188.814 452.812C191.68 467.058 195.934 480.727 201.388 493.737C199.031 497.247 198.502 501.764 200.398 505.857C202.346 510.064 206.378 512.79 210.849 513.449C219.089 528.608 229.056 542.67 240.471 555.459C226.377 564.783 209.31 570.361 191.622 570.913C165.288 571.737 140.163 569.545 119.414 566.605C110.992 551.988 103.797 536.826 97.8589 521.179ZM74.1941 557.949C77.5966 551.933 83.3205 542.311 91.1611 530.764C95.8493 542.363 101.235 553.687 107.277 564.725C92.7779 562.294 81.2523 559.69 74.1941 557.949Z" fill="#FBD56C"/>
<path d="M403.847 314.203C405.766 313.86 407.682 313.587 409.594 313.348V322.629C408.285 322.81 406.977 323.009 405.665 323.245C354.099 332.496 320.123 379.636 329.918 428.336C337.674 466.899 370.608 495.035 409.594 500.474V509.777C365.972 504.304 329.009 473.115 320.347 430.053C309.532 376.287 346.921 324.417 403.847 314.203Z" fill="#FBD56C"/>
<path d="M365.556 397.916C364.676 401.197 361.864 403.558 358.559 404.153C357.315 404.377 356.017 404.343 354.715 404.03C349.942 402.905 347.037 398.321 348.228 393.798C349.436 389.288 354.29 386.544 359.065 387.687C363.854 388.806 366.76 393.39 365.556 397.916Z" fill="#FBD56C"/>
<path d="M396.783 360.905C392.825 361.617 388.725 359.713 386.988 356.091C384.946 351.854 386.949 346.856 391.436 344.927C395.942 343.008 401.234 344.903 403.26 349.143C405.286 353.384 403.286 358.382 398.796 360.311C398.14 360.583 397.468 360.783 396.783 360.905Z" fill="#FBD56C"/>
<path d="M363.006 443.369C366.961 440.6 372.558 441.388 375.493 445.126C378.441 448.858 377.603 454.144 373.652 456.931C372.535 457.71 371.282 458.216 370.003 458.446C366.746 459.028 363.256 457.86 361.146 455.177C358.214 451.439 359.036 446.156 363.006 443.369Z" fill="#FBD56C"/>
<path d="M395.706 461.463C400.076 463.631 401.764 468.727 399.469 472.857C398.148 475.234 395.81 476.76 393.222 477.223C391.307 477.567 389.258 477.325 387.404 476.396C383.034 474.228 381.346 469.129 383.645 465.017C385.937 460.89 391.336 459.299 395.706 461.463Z" fill="#FBD56C"/>
<path d="M354.399 415.388C359.249 414.518 363.918 417.523 364.84 422.1C365.762 426.681 362.584 431.093 357.733 431.961C352.883 432.832 348.211 429.827 347.292 425.249C346.37 420.668 349.548 416.259 354.399 415.388Z" fill="#FBD56C"/>
<path d="M372.444 378.401C369.924 378.854 367.194 378.281 365.054 376.588C361.266 373.614 360.756 368.288 363.921 364.71C367.071 361.132 372.71 360.65 376.502 363.64C380.291 366.626 380.801 371.937 377.635 375.518C376.262 377.076 374.408 378.048 372.444 378.401Z" fill="#FBD56C"/>
</g>
<g opacity="0.5">
<path d="M506.622 31.3456C501.457 29.9597 498.444 24.8821 499.911 19.9977C500.927 16.5053 503.947 14.0922 507.456 13.4636C508.927 13.1999 510.453 13.2367 511.914 13.6016C517.086 14.9845 520.092 20.0651 518.644 25.0078C517.177 29.8861 511.794 32.7285 506.622 31.3456Z" fill="#FBD56C"/>
<path d="M542.757 42.6551C537.705 40.8767 535.238 35.5078 537.131 30.8012C538.426 27.6982 541.251 25.6286 544.442 25.0552C546.17 24.7455 547.971 24.8589 549.75 25.4752C554.753 27.3241 557.27 32.6195 555.328 37.4027C553.429 42.1124 547.76 44.504 542.757 42.6551Z" fill="#FBD56C"/>
<path d="M480.973 15.8384C479.993 20.8241 474.902 24.1111 469.565 23.1943L469.626 23.182C464.283 22.2683 460.815 17.5188 461.786 12.4749C462.542 8.65441 465.727 5.77218 469.558 5.08535C470.704 4.87992 471.899 4.91363 473.126 5.07C473.136 5.12826 473.136 5.1283 473.136 5.1283C478.412 6.06042 481.879 10.8068 480.973 15.8384Z" fill="#FBD56C"/>
<path d="M577.595 57.1324L577.582 57.0741C572.774 54.8757 570.794 49.2983 573.186 44.7481C574.563 42.0652 577.196 40.342 580.069 39.8268C582.108 39.462 584.274 39.6981 586.241 40.5965C591.053 42.8562 593.023 48.3723 590.63 52.9225C588.238 57.4697 582.4 59.3309 577.595 57.1324Z" fill="#FBD56C"/>
<path d="M442.499 10.0004C442.005 15.0872 437.265 18.8096 431.889 18.3987L431.876 18.3404C426.506 17.9295 422.561 13.453 423.064 8.36921C423.473 4.17466 426.785 0.896835 430.928 0.151752C431.827 -0.0107555 432.678 -0.0383625 433.619 0.0444241C439.002 0.513552 442.931 4.92889 442.499 10.0004Z" fill="#FBD56C"/>
<path d="M671.747 117.558C667.767 114.213 667.445 108.338 671.065 104.628C672.529 103.055 674.393 102.095 676.429 101.73C679.302 101.215 682.428 101.963 684.815 103.972C688.805 107.378 689.117 113.192 685.509 116.96C681.902 120.728 675.682 121.032 671.76 117.616L671.747 117.558Z" fill="#FBD56C"/>
<path d="M723.193 170.466C719.933 166.428 720.755 160.66 725.03 157.582C726.3 156.668 727.641 156.116 729.111 155.852C732.621 155.224 736.368 156.423 738.67 159.32C741.929 163.355 741.108 169.123 736.832 172.201C732.556 175.28 726.452 174.501 723.193 170.466Z" fill="#FBD56C"/>
<path d="M640.439 81.8371C641.913 79.9484 644.117 78.7403 646.409 78.3294C648.965 77.8725 651.776 78.3631 654.088 80.0097C658.338 83.0605 659.234 88.828 656.023 92.903C652.805 96.9779 646.682 97.7659 642.371 94.7273C638.056 91.6918 637.221 85.906 640.439 81.8371Z" fill="#FBD56C"/>
<path d="M607.696 61.8493C609.148 59.5282 611.57 58.0933 614.186 57.6241C616.482 57.2133 618.94 57.5842 621.105 58.8199C625.673 61.4967 627.079 67.1753 624.309 71.4833C621.478 75.8005 615.475 77.1894 610.901 74.5157C606.265 71.8481 604.859 66.1665 607.696 61.8493Z" fill="#FBD56C"/>
<path d="M699.358 129.904C700.712 128.726 702.394 127.923 704.121 127.613C707.313 127.04 710.757 128.049 713.085 130.44C716.757 134.215 716.471 140.013 712.536 143.469C708.536 146.933 702.4 146.657 698.728 142.886C695.073 139.167 695.362 133.369 699.358 129.904Z" fill="#FBD56C"/>
<path d="M746.383 608.927C747.909 606.655 750.256 605.174 752.866 604.705C755.168 604.291 757.622 604.662 759.791 605.898C764.359 608.575 765.836 614.244 762.999 618.561C760.178 622.94 754.165 624.268 749.59 621.591C745.029 618.975 743.555 613.309 746.383 608.927Z" fill="#FBD56C"/>
<path d="M643.138 728.053C639.879 724.018 640.7 718.25 644.976 715.172C646.245 714.258 647.593 713.703 649.057 713.439C652.566 712.811 656.313 714.013 658.615 716.91C661.874 720.948 661.053 726.713 656.777 729.791C652.505 732.87 646.395 732.091 643.138 728.053Z" fill="#FBD56C"/>
<path d="M610.572 748.322C607.715 743.965 609.082 738.286 613.699 735.585C614.699 734.965 615.871 734.57 617.023 734.364C620.848 733.678 624.925 735.192 627.117 738.547C629.971 742.842 628.594 748.524 623.984 751.222C619.432 753.911 613.419 752.621 610.572 748.322Z" fill="#FBD56C"/>
<path d="M700.893 666.488C702.357 664.915 704.218 663.955 706.257 663.591C709.13 663.075 712.256 663.824 714.643 665.832C718.633 669.235 718.945 675.052 715.338 678.82C711.731 682.589 705.578 682.88 701.588 679.477C697.595 676.073 697.283 670.256 700.893 666.488Z" fill="#FBD56C"/>
<path d="M724.986 638.744C726.508 636.785 728.651 635.589 731.015 635.166C733.57 634.709 736.388 635.264 738.628 636.858C742.943 639.891 743.842 645.665 740.625 649.74C737.414 653.811 731.304 654.658 726.973 651.564C722.658 648.528 721.762 642.755 724.986 638.744Z" fill="#FBD56C"/>
<path d="M576.226 765.6C573.785 761.041 575.713 755.509 580.544 753.207C581.327 752.82 582.203 752.597 583.096 752.437C587.245 751.692 591.596 753.599 593.599 757.297C596.034 761.853 594.041 767.397 589.278 769.684C584.453 771.993 578.586 770.111 576.226 765.6Z" fill="#FBD56C"/>
<path d="M674.086 692.022C675.499 690.832 677.122 690.041 678.849 689.731C682.041 689.158 685.485 690.167 687.875 692.546C691.485 696.333 691.261 702.119 687.326 705.574C683.33 709.039 677.19 708.766 673.531 705.053C669.863 701.272 670.152 695.477 674.086 692.022Z" fill="#FBD56C"/>
<path d="M426.29 802.988C425.793 798.208 429.289 793.897 434.14 793.026C434.458 792.968 434.715 792.922 435.049 792.922C440.364 792.404 445.143 796.105 445.701 801.192C446.185 806.226 442.331 810.727 436.935 811.194C436.948 811.255 436.948 811.255 436.948 811.255C431.617 811.712 426.845 808.011 426.29 802.988Z" fill="#FBD56C"/>
<path d="M465.019 798.543C463.95 793.551 467.476 788.734 472.7 787.735C477.999 786.784 483.086 790.056 484.154 795.048C485.161 800.052 481.696 804.856 476.411 805.868C471.112 806.816 466.012 803.483 465.019 798.543Z" fill="#FBD56C"/>
<path d="M540.26 779.791C538.318 775.081 540.744 769.712 545.737 767.882C546.347 767.645 546.909 767.486 547.484 767.382C552.013 766.569 556.652 768.921 558.422 773.1C560.36 777.81 557.857 783.13 552.886 785.022C547.828 786.864 542.201 784.503 540.26 779.791Z" fill="#FBD56C"/>
<path d="M503.052 790.775C501.545 785.924 504.545 780.764 509.756 779.393C510.012 779.347 510.318 779.23 510.636 779.175C515.483 778.304 520.35 781.116 521.794 785.666C523.246 790.591 520.301 795.677 515.103 797.109C509.951 798.468 504.568 795.687 503.052 790.775Z" fill="#FBD56C"/>
<path d="M763.412 231.379C760.99 226.881 762.98 221.341 767.743 219.05C768.587 218.649 769.389 218.379 770.288 218.219C774.431 217.477 778.85 219.369 780.795 223.141C783.236 227.7 781.304 233.228 776.48 235.528C771.639 237.772 765.789 235.948 763.412 231.379Z" fill="#FBD56C"/>
<path d="M791.017 298.243C789.511 293.393 792.514 288.293 797.654 286.874C797.972 286.816 798.29 286.76 798.546 286.714C803.462 285.831 808.312 288.585 809.705 293.209C809.767 293.196 809.767 293.196 809.767 293.196C811.221 298.114 808.211 303.214 803.069 304.578C797.868 306.007 792.465 303.161 791.017 298.243Z" fill="#FBD56C"/>
<path d="M799.832 333.247C798.826 328.243 802.29 323.438 807.585 322.488C812.822 321.549 817.909 324.818 818.916 329.822C819.909 334.765 816.448 339.569 811.212 340.508C805.913 341.458 800.826 338.186 799.832 333.247Z" fill="#FBD56C"/>
<path d="M805.118 368.022C804.622 363.242 808.063 359.001 812.982 358.121C813.235 358.075 813.553 358.017 813.871 357.962C819.206 357.505 823.965 361.147 824.53 366.228C825.014 371.266 821.089 375.776 815.777 376.294C810.459 376.806 805.615 373.118 805.118 368.022Z" fill="#FBD56C"/>
<path d="M764.788 577.464C766.164 574.781 768.791 573.061 771.726 572.533C773.706 572.178 775.862 572.355 777.836 573.312C782.654 575.569 784.625 581.085 782.232 585.638C779.839 590.185 773.995 592.047 769.184 589.787C764.363 587.527 762.395 582.011 764.788 577.464Z" fill="#FBD56C"/>
<path d="M778.815 264.211C776.88 259.501 779.38 254.182 784.415 252.277C784.977 252.115 785.545 251.949 786.117 251.848C790.646 251.036 795.272 253.326 797.038 257.508C798.993 262.276 796.493 267.599 791.438 269.442C786.454 271.269 780.831 268.97 778.815 264.211Z" fill="#FBD56C"/>
<path d="M744.81 200.055C741.956 195.76 743.333 190.078 747.881 187.392C748.943 186.766 750.121 186.365 751.267 186.159C755.102 185.473 759.108 187.003 761.293 190.296C761.355 190.283 761.355 190.283 761.355 190.283C764.212 194.64 762.78 200.331 758.215 202.962C753.686 205.706 747.66 204.351 744.81 200.055Z" fill="#FBD56C"/>
<path d="M791.953 510.447C792.969 506.957 795.976 504.48 799.485 503.851C800.956 503.588 802.417 503.637 803.953 504.048C809.125 505.43 812.131 510.511 810.67 515.396C809.267 520.268 803.898 523.165 798.661 521.798C793.499 520.412 790.489 515.331 791.953 510.447Z" fill="#FBD56C"/>
<path d="M779.976 544.508C781.281 541.467 784.096 539.336 787.284 538.762C789.005 538.452 790.823 538.627 792.599 539.244C797.589 541.034 800.125 546.388 798.164 551.11C796.284 555.881 790.609 558.272 785.616 556.423C780.564 554.645 778.09 549.279 779.976 544.508Z" fill="#FBD56C"/>
<path d="M800.519 475.379C801.269 471.562 804.398 468.689 808.285 467.99C809.375 467.794 810.632 467.818 811.801 468.045C817.132 468.9 820.612 473.708 819.632 478.694C818.726 483.729 813.632 487.015 808.291 486.099C803.032 485.231 799.551 480.426 800.519 475.379Z" fill="#FBD56C"/>
<path d="M805.523 439.829C805.939 435.631 809.244 432.357 813.458 431.599C814.286 431.452 815.189 431.351 816.068 431.443C821.458 431.912 825.461 436.376 824.948 441.402C824.513 446.473 819.773 450.196 814.403 449.788C809.033 449.377 805.092 444.9 805.523 439.829Z" fill="#FBD56C"/>
<path d="M807.11 403.947C807.055 399.4 810.467 395.666 815 394.853C815.574 394.749 816.152 394.645 816.812 394.654C822.159 394.629 826.551 398.713 826.594 403.828C826.616 408.881 822.289 413.03 816.88 413.066C811.526 413.088 807.133 409.004 807.11 403.947Z" fill="#FBD56C"/>
<path d="M764.734 255.759L757.306 253.579C755.858 253.156 735.002 247.125 704.181 242.651C700.487 236.641 696.613 230.714 692.506 224.898C667.043 188.815 634.826 158.11 596.76 133.636C572.546 118.069 546.709 105.522 519.567 96.0872C510.441 68.9483 501.363 51.1154 500.714 49.8521L497.315 43.2445L490.877 47.3715C489.636 48.1687 472.004 59.5688 449.43 79.1556C436.34 77.3036 422.672 76.9557 409.5 76.502V85.002C419.613 85.3607 426.432 85.7969 436.5 87.002C425.5 93.002 423.978 93.002 409.5 100.002V120.502C429.978 107.502 442.378 102.722 457.241 89.734C461.394 90.4301 465.54 91.1751 469.679 92.0183C482.461 94.6215 494.997 97.9023 507.279 101.812C513.642 121.009 519.95 144.699 523.129 170.053C525.106 185.828 522.243 201.766 515.392 215.813C499.669 207.283 482.896 200.423 465.394 195.438C463.793 191.915 460.572 189.091 456.349 188.024C451.988 186.923 447.57 187.95 444.291 190.409C433.08 188.248 421.107 187.103 409.5 186.502V199.502C419.386 200.042 429.674 200.672 439.261 202.417C440.041 207.362 443.833 211.646 449.274 213.019C454.842 214.427 460.521 212.372 463.777 208.267C479.536 212.927 494.649 219.201 508.853 226.918C504.652 232.925 499.633 238.395 493.863 243.114C476.981 256.921 456.18 262.032 436.788 257.139C426.535 254.551 416.402 252.772 409 245.502L409.5 266.502C476.436 271.901 534.81 318.395 547.946 383.708C563.761 462.319 508.905 538.422 425.668 553.357C420.437 554.296 415.217 554.949 410.022 555.369V580.002C416.853 575.326 424.596 568.618 432.934 567.121C452.654 563.583 473.001 570.123 488.766 585.062C493.24 589.302 497.162 594.024 500.496 599.102C486.111 606.163 470.734 611.83 454.521 615.877C451.42 612.746 446.748 611.127 441.959 611.986C436.989 612.878 433.171 616.208 431.603 620.412C424.382 621.479 417.184 623.103 410.022 623.502V635.32C417.964 634.903 425.947 634.127 433.957 632.934C437.034 636.448 441.992 638.318 447.073 637.408C452.336 636.463 456.303 632.79 457.68 628.24C474.965 623.947 491.357 617.919 506.685 610.398C507.029 611.161 507.36 611.928 507.681 612.7C507.87 613.157 508.055 613.614 508.233 614.077C508.347 614.365 508.461 614.654 508.571 614.939C513.947 629.12 515.392 644.776 512.282 659.956C507.392 683.818 499.805 705.959 492.338 724.147C482.195 726.885 471.89 729.216 461.42 731.095C454.03 732.42 446.635 733.493 439.229 734.364C429.898 724.852 419.295 696.432 409.5 684.002V704.002C413.701 708.902 423.412 732.23 427.5 736.59C423.344 736.887 413.656 736.921 409.5 737.071V746.002C416.419 745.757 423.863 745.187 430.781 744.553C452.216 766.218 469.4 779.179 470.595 780.071L476.695 784.631L480.598 778.275C481.37 777.014 492.584 758.574 504.266 730.414C535.969 720.968 565.968 707.415 593.824 689.883C632.031 665.834 664.543 635.409 690.458 599.457C691.613 597.854 692.737 596.235 693.86 594.616C725.086 592.298 746.465 587.708 747.946 587.383L755.524 585.724L752.699 578.88C752.141 577.528 743.946 557.923 728.064 531.912C734.774 515.567 740.148 498.706 744.102 481.394C754.137 437.443 754.696 392.637 745.764 348.22C742.868 333.824 739.014 319.741 734.248 305.999C751.41 281.917 760.738 263.676 761.387 262.394L764.734 255.759ZM487.731 734.931C481.767 748.379 476.27 758.878 472.783 765.194C467.166 760.586 458.147 752.865 447.57 742.633C452.8 741.919 458.024 741.109 463.248 740.174C471.507 738.693 479.666 736.933 487.731 734.931ZM503.506 90.9114C493.091 87.8207 482.5 85.1624 471.748 82.9731C469.965 82.6113 468.176 82.2862 466.39 81.9459C477.134 73.0508 486.192 66.3788 491.909 62.3499C494.695 68.4669 498.954 78.3554 503.506 90.9114ZM721.648 521.723C711.782 506.543 699.565 489.86 684.977 473.682C694.818 466.658 703.009 457.594 708.821 447.233C726.151 416.351 720.223 378.471 694.652 353.669C707.188 340.784 718.064 327.707 727.187 315.623C730.794 326.843 733.797 338.283 736.141 349.94C744.829 393.134 744.287 436.704 734.528 479.438C731.232 493.87 726.917 507.975 721.648 521.723ZM637.261 389.12C655.819 385.388 673.179 376.809 686.974 364.511C706.824 385.379 711.054 416.096 696.922 441.279C692.237 449.631 685.717 456.984 677.906 462.782C665.848 452.765 651.566 445.581 636.054 441.72C638.644 424.304 639.05 406.662 637.261 389.12ZM702.831 581.011C709.746 569.952 715.957 558.573 721.453 546.909C728.765 559.548 733.969 570.028 737.002 576.486C729.719 577.752 717.785 579.585 702.831 581.011ZM618.882 581.266C617.794 581.155 616.713 581.02 615.629 580.873C615.317 580.83 615.009 580.784 614.697 580.738C613.885 580.619 613.077 580.49 612.269 580.349C611.967 580.297 611.665 580.245 611.363 580.19C609.201 579.791 607.055 579.319 604.931 578.773C604.675 578.709 604.421 578.635 604.165 578.571C603.331 578.347 602.496 578.114 601.668 577.868C601.405 577.789 601.139 577.712 600.876 577.632C598.779 576.992 596.708 576.28 594.665 575.498C594.406 575.4 594.149 575.296 593.889 575.195C593.113 574.888 592.338 574.572 591.571 574.247C591.295 574.131 591.023 574.017 590.75 573.898C588.773 573.036 586.831 572.11 584.925 571.117C584.653 570.973 584.377 570.825 584.104 570.681C583.39 570.301 582.682 569.912 581.981 569.513C581.721 569.366 581.465 569.222 581.208 569.075C580.276 568.535 579.354 567.983 578.445 567.41C578.409 567.388 578.377 567.364 578.341 567.342C577.458 566.784 576.585 566.211 575.725 565.625C575.517 565.484 575.309 565.34 575.104 565.196C574.338 564.665 573.578 564.123 572.828 563.571C572.702 563.479 572.575 563.387 572.449 563.295C572.338 563.209 572.231 563.123 572.117 563.037C584.101 550.711 594.597 537.165 603.418 522.674C608.21 522.557 612.798 520.074 615.194 515.784C617.658 511.378 617.148 506.242 614.353 502.403C621.509 487.321 626.934 471.447 630.444 455.04C647.271 459.553 662.848 468.773 674.523 481.697C691.321 500.294 704.993 519.85 715.424 536.8C708.49 552.407 700.266 567.505 690.763 582.017C669.929 583.483 644.878 583.894 618.882 581.266ZM561.176 381.332C560.832 379.63 560.452 377.944 560.056 376.266C569.764 383.175 581.516 388.016 594.659 390.328C603.25 391.837 612.019 392.186 620.71 391.478C622.314 407.906 621.866 424.157 619.525 439.973C611.86 439.025 604.087 438.909 596.383 439.715C594.036 439.96 591.721 440.289 589.451 440.696C577.672 442.809 567.001 447.065 557.959 453.136C564.689 430.449 566.137 406.005 561.176 381.332ZM518.538 604.238C534.557 595.26 549.391 584.534 562.77 572.257C571.806 579.242 582.078 584.737 593.019 588.517C593.042 588.523 593.062 588.533 593.084 588.539C593.786 588.781 594.493 589.008 595.198 589.235C595.561 589.351 595.922 589.471 596.285 589.584C596.892 589.771 597.503 589.952 598.113 590.13C598.587 590.268 599.058 590.406 599.535 590.535C600.094 590.688 600.655 590.838 601.217 590.986C601.753 591.124 602.288 591.258 602.827 591.39C603.353 591.519 603.883 591.645 604.409 591.764C604.993 591.899 605.577 592.022 606.165 592.145C606.662 592.249 607.159 592.356 607.659 592.454C608.301 592.58 608.947 592.693 609.59 592.807C610.041 592.887 610.493 592.973 610.944 593.046C611.733 593.175 612.525 593.288 613.321 593.399C613.606 593.439 613.889 593.491 614.178 593.527C609.331 621.203 586.584 643.519 556.936 648.839C547.102 650.602 536.953 650.393 527.278 648.256C528.025 633.109 525.041 618.088 518.538 604.238ZM525.502 662.363C525.596 661.897 525.678 661.431 525.765 660.965C536.794 663.197 548.3 663.332 559.452 661.333C594.967 654.962 622.138 628.059 627.593 594.797C646.836 596.226 665.199 596.167 681.536 595.37C656.469 629.843 625.145 659.052 588.393 682.186C563.478 697.87 536.794 710.27 508.681 719.312C515.077 702.561 521.236 683.18 525.502 662.363ZM538.086 544.033C542.076 551.11 547.073 557.629 552.858 563.47C540.641 574.628 527.051 584.537 512.256 592.908C508.314 586.816 503.656 581.149 498.305 576.081C487.828 566.153 475.585 559.327 462.654 555.933C488.796 545.388 511.133 528.883 528.135 508.502C528.262 520.365 531.58 532.495 538.086 544.033ZM597.86 452.354C604.308 451.679 610.814 451.753 617.243 452.504C613.96 467.857 608.902 482.712 602.236 496.841C597.63 497.114 593.273 499.564 590.961 503.703C588.581 507.962 588.977 512.902 591.532 516.695C583.266 530.214 573.449 542.862 562.257 554.378C557.456 549.451 553.306 543.981 549.972 538.063C539.476 519.445 538.83 499.153 548.196 482.39C557.566 465.621 575.669 454.675 597.86 452.354ZM556.027 289.027C559.644 283.615 563.975 278.663 568.858 274.242C579.354 285.982 588.555 298.87 596.217 312.738C593.045 316.378 592.094 321.523 594.23 326.14C596.422 330.871 601.246 333.729 606.373 333.879C611.262 345.764 615.087 358.228 617.697 371.195C618.21 373.752 618.658 376.309 619.07 378.864C611.743 379.419 604.36 379.097 597.123 377.827C575.166 373.97 557.965 361.797 549.927 344.427C541.885 327.057 544.109 306.863 556.027 289.027ZM540.362 172.555C550.037 170.43 560.193 170.252 570.02 172.037C599.656 177.424 622.346 199.789 627.122 227.473C608.331 229.914 590.37 237.313 575.66 248.633C562.309 236.326 547.501 225.566 531.505 216.555C538.047 202.72 541.07 187.705 540.362 172.555ZM559.891 264.786C554.079 269.992 548.92 275.83 544.638 282.242C537.112 293.504 532.836 305.612 531.888 317.653C515.856 297.012 494.76 280.414 470.67 269.198C482.007 266.252 492.916 260.705 502.675 252.724C509.48 247.158 515.389 240.689 520.307 233.584C534.684 242.51 547.982 252.972 559.891 264.786ZM691.75 241.008C676.588 239.205 659.605 237.92 641.696 237.831L641.307 232.646C638.586 196.468 610.317 166.41 572.569 159.551C561.998 157.632 551.108 157.632 540.602 159.517C538.859 159.83 537.125 160.201 535.404 160.618C532.479 141.188 527.97 123.039 523.158 107.276C547.011 116.128 569.786 127.482 591.253 141.28C628.275 165.08 659.602 194.938 684.361 230.024C686.912 233.643 689.36 237.313 691.75 241.008ZM721.875 300.452C710.025 316.936 694.548 336.026 675.851 353.883C663.832 365.363 648.556 373.258 632.365 376.877C631.93 374.194 631.463 371.508 630.921 368.819C628.054 354.573 623.801 340.904 618.346 327.894C620.704 324.383 621.233 319.867 619.337 315.774C617.389 311.567 613.356 308.841 608.886 308.182C600.646 293.022 590.678 278.961 579.263 266.172C593.357 256.848 610.425 251.27 628.112 250.718C654.446 249.893 679.572 252.086 700.321 255.026C708.743 269.643 715.937 284.805 721.875 300.452ZM745.54 263.682C742.138 269.698 736.414 279.32 728.573 290.867C723.885 279.268 718.499 267.944 712.457 256.906C726.956 259.337 738.482 261.94 745.54 263.682Z" fill="#FBD56C"/>
<path d="M415.747 507.797C413.828 508.14 411.912 508.413 410 508.652V499.371C411.308 499.19 412.617 498.991 413.928 498.755C465.495 489.504 499.471 442.364 489.676 393.664C481.92 355.101 448.986 326.965 410 321.526V312.223C453.622 317.696 490.585 348.885 499.247 391.947C510.062 445.713 472.673 497.583 415.747 507.797Z" fill="#FBD56C"/>
<path d="M454.062 424.084C454.941 420.803 457.753 418.442 461.058 417.847C462.302 417.623 463.6 417.657 464.902 417.97C469.675 419.095 472.581 423.679 471.389 428.202C470.181 432.712 465.328 435.456 460.552 434.313C455.763 433.194 452.857 428.61 454.062 424.084Z" fill="#FBD56C"/>
<path d="M422.834 461.095C426.792 460.383 430.892 462.287 432.629 465.909C434.671 470.146 432.668 475.144 428.181 477.073C423.675 478.992 418.383 477.097 416.357 472.857C414.331 468.616 416.331 463.618 420.821 461.689C421.477 461.417 422.149 461.217 422.834 461.095Z" fill="#FBD56C"/>
<path d="M456.611 378.631C452.656 381.4 447.059 380.612 444.124 376.874C441.176 373.142 442.014 367.856 445.965 365.069C447.082 364.29 448.335 363.784 449.614 363.554C452.871 362.972 456.361 364.14 458.471 366.823C461.403 370.561 460.582 375.844 456.611 378.631Z" fill="#FBD56C"/>
<path d="M423.911 360.537C419.541 358.369 417.853 353.273 420.148 349.143C421.47 346.766 423.807 345.24 426.395 344.777C428.31 344.433 430.359 344.675 432.213 345.604C436.583 347.772 438.271 352.871 435.972 356.983C433.68 361.11 428.281 362.701 423.911 360.537Z" fill="#FBD56C"/>
<path d="M465.218 406.612C460.368 407.482 455.699 404.477 454.777 399.9C453.855 395.319 457.034 390.907 461.884 390.039C466.735 389.168 471.406 392.173 472.325 396.751C473.247 401.332 470.069 405.741 465.218 406.612Z" fill="#FBD56C"/>
<path d="M447.173 443.599C449.693 443.146 452.423 443.719 454.563 445.412C458.352 448.386 458.861 453.712 455.696 457.29C452.547 460.868 446.907 461.35 443.115 458.36C439.326 455.374 438.817 450.063 441.982 446.482C443.355 444.924 445.209 443.952 447.173 443.599Z" fill="#FBD56C"/>
</g>
</svg>
