<svg width="1438" height="92" viewBox="0 0 1438 92" fill="none" xmlns="http://www.w3.org/2000/svg">
<path d="M1344.82 44.6582C1328.77 44.6582 1315.76 22.329 1315.76 22.329C1315.76 22.329 1328.77 -0.00025177 1344.82 -0.00025177C1360.87 -0.00025177 1373.88 22.329 1373.88 22.329C1373.88 22.329 1360.87 44.6582 1344.82 44.6582Z" fill="#FFB12F"/>
<path d="M1228.97 44.6582C1212.93 44.6582 1199.92 22.329 1199.92 22.329C1199.92 22.329 1212.93 -0.00025177 1228.97 -0.00025177C1245.02 -0.00025177 1258.03 22.329 1258.03 22.329C1258.03 22.329 1245.02 44.6582 1228.97 44.6582Z" fill="#45B1A2"/>
<path d="M1113.14 44.6582C1097.09 44.6582 1084.08 22.329 1084.08 22.329C1084.08 22.329 1097.09 -0.00025177 1113.14 -0.00025177C1129.19 -0.00025177 1142.2 22.329 1142.2 22.329C1142.2 22.329 1129.18 44.6582 1113.14 44.6582Z" fill="#FFB12F"/>
<path d="M997.295 44.6582C981.245 44.6582 968.238 22.329 968.238 22.329C968.238 22.329 981.249 -0.00025177 997.295 -0.00025177C1013.34 -0.00025177 1026.35 22.329 1026.35 22.329C1026.35 22.329 1013.34 44.6582 997.295 44.6582Z" fill="#45B1A2"/>
<path d="M881.451 44.6582C865.402 44.6582 852.394 22.329 852.394 22.329C852.394 22.329 865.405 -0.00025177 881.451 -0.00025177C897.5 -0.00025177 910.508 22.329 910.508 22.329C910.508 22.329 897.5 44.6582 881.451 44.6582Z" fill="#FFB12F"/>
<path d="M765.607 44.6582C749.558 44.6582 736.551 22.329 736.551 22.329C736.551 22.329 749.562 -0.00025177 765.607 -0.00025177C781.657 -0.00025177 794.664 22.329 794.664 22.329C794.664 22.329 781.657 44.6582 765.607 44.6582Z" fill="#45B1A2"/>
<path d="M649.764 44.6582C633.714 44.6582 620.707 22.329 620.707 22.329C620.707 22.329 633.718 -0.00025177 649.764 -0.00025177C665.813 -0.00025177 678.82 22.329 678.82 22.329C678.82 22.329 665.809 44.6582 649.764 44.6582Z" fill="#FFB12F"/>
<path d="M533.92 44.6582C517.87 44.6582 504.863 22.329 504.863 22.329C504.863 22.329 517.874 -0.00025177 533.92 -0.00025177C549.969 -0.00025177 562.977 22.329 562.977 22.329C562.977 22.329 549.965 44.6582 533.92 44.6582Z" fill="#45B1A2"/>
<path d="M418.076 44.6582C402.027 44.6582 389.019 22.329 389.019 22.329C389.019 22.329 402.03 -0.00025177 418.076 -0.00025177C434.125 -0.00025177 447.133 22.329 447.133 22.329C447.133 22.329 434.125 44.6582 418.076 44.6582Z" fill="#FFB12F"/>
<path d="M302.232 44.6582C286.183 44.6582 273.176 22.329 273.176 22.329C273.176 22.329 286.187 -0.00025177 302.232 -0.00025177C318.282 -0.00025177 331.289 22.329 331.289 22.329C331.289 22.329 318.282 44.6582 302.232 44.6582Z" fill="#45B1A2"/>
<path d="M186.389 44.6582C170.339 44.6582 157.332 22.329 157.332 22.329C157.332 22.329 170.343 -0.00025177 186.389 -0.00025177C202.438 -0.00025177 215.445 22.329 215.445 22.329C215.445 22.329 202.438 44.6582 186.389 44.6582Z" fill="#FFB12F"/>
<path d="M70.5526 44.6582C54.5032 44.6582 41.4959 22.329 41.4959 22.329C41.4959 22.329 54.507 -0.00025177 70.5526 -0.00025177C86.602 -0.00025177 99.6094 22.329 99.6094 22.329C99.6094 22.329 86.5982 44.6582 70.5526 44.6582Z" fill="#45B1A2"/>
<path d="M1374.17 41.9717C1361.06 62.7919 1329.26 62.7919 1316.15 41.9717C1303.04 21.1551 1271.24 21.1551 1258.14 41.9717C1245.03 62.7883 1213.23 62.7883 1200.12 41.9717C1187.01 21.1551 1155.21 21.1551 1142.11 41.9717C1129 62.7883 1097.2 62.7883 1084.09 41.9717C1070.98 21.1551 1039.19 21.1551 1026.08 41.9717C1012.97 62.7883 981.171 62.7883 968.065 41.9717C954.955 21.1551 923.156 21.1551 910.05 41.9717C896.94 62.7883 865.141 62.7883 852.035 41.9717C838.925 21.1551 807.126 21.1551 794.02 41.9717C780.91 62.7883 749.112 62.7883 736.005 41.9717C722.896 21.1551 691.097 21.1551 677.991 41.9717C664.881 62.7883 633.082 62.7883 619.976 41.9717C606.866 21.1551 575.067 21.1551 561.961 41.9717C548.851 62.7883 517.053 62.7883 503.946 41.9717C490.837 21.1551 459.038 21.1551 445.932 41.9717C432.822 62.7883 401.023 62.7883 387.917 41.9717C374.807 21.1551 343.008 21.1551 329.902 41.9717C316.792 62.7883 284.993 62.7883 271.887 41.9717C258.777 21.1551 226.979 21.1551 213.873 41.9717C200.763 62.7883 168.964 62.7883 155.858 41.9717C142.748 21.1551 110.949 21.1551 97.843 41.9717C84.7332 62.7883 52.9343 62.7883 39.8282 41.9717C26.7184 21.1551 -5.08044 21.1551 -18.1865 41.9717L-19.1702 43.5348C-32.618 64.8916 -16.3901 92 9.83728 92H66.3442H71.3307L182.374 92H187.36H298.388H303.375H414.418H419.404H530.447H535.434H646.477H651.463L762.514 92H767.5H878.543H883.53H994.573H999.559H1110.6H1115.59L1226.63 92H1231.62H1342.67H1347.66H1404.16C1430.39 92 1446.62 64.8916 1433.17 43.5348L1432.19 41.9717C1419.08 21.1551 1387.28 21.1551 1374.17 41.9717Z" fill="#F0008E"/>
<path d="M11.6718 44.7839C3.28832 44.7839 -3.5079 51.2288 -3.5079 59.1791C-3.5079 67.1293 3.28832 73.5742 11.6718 73.5742C20.0553 73.5742 26.8516 67.1293 26.8516 59.1791C26.8516 51.2288 20.0553 44.7839 11.6718 44.7839Z" fill="#FFB12F"/>
<path d="M127.516 44.7839C119.132 44.7839 112.336 51.2288 112.336 59.1791C112.336 67.1293 119.132 73.5742 127.516 73.5742C135.899 73.5742 142.695 67.1293 142.695 59.1791C142.695 51.2288 135.899 44.7839 127.516 44.7839Z" fill="#FFB12F"/>
<path d="M243.359 44.7839C234.976 44.7839 228.18 51.2288 228.18 59.1791C228.18 67.1293 234.976 73.5742 243.359 73.5742C251.743 73.5742 258.539 67.1293 258.539 59.1791C258.539 51.2288 251.743 44.7839 243.359 44.7839Z" fill="#FFB12F"/>
<path d="M359.203 44.7839C350.82 44.7839 344.023 51.2288 344.023 59.1791C344.023 67.1293 350.82 73.5742 359.203 73.5742C367.587 73.5742 374.383 67.1293 374.383 59.1791C374.383 51.2288 367.587 44.7839 359.203 44.7839Z" fill="#FFB12F"/>
<path d="M475.039 44.7839C466.656 44.7839 459.859 51.2288 459.859 59.1791C459.859 67.1293 466.656 73.5742 475.039 73.5742C483.423 73.5742 490.219 67.1293 490.219 59.1791C490.219 51.2288 483.423 44.7839 475.039 44.7839Z" fill="#FFB12F"/>
<path d="M590.883 44.7839C582.499 44.7839 575.703 51.2288 575.703 59.1791C575.703 67.1293 582.499 73.5742 590.883 73.5742C599.266 73.5742 606.062 67.1293 606.062 59.1791C606.062 51.2288 599.266 44.7839 590.883 44.7839Z" fill="#FFB12F"/>
<path d="M706.727 44.7839C698.343 44.7839 691.547 51.2288 691.547 59.1791C691.547 67.1293 698.343 73.5742 706.727 73.5742C715.11 73.5742 721.906 67.1293 721.906 59.1791C721.906 51.2288 715.11 44.7839 706.727 44.7839Z" fill="#FFB12F"/>
<path d="M822.57 44.7839C814.187 44.7839 807.391 51.2288 807.391 59.1791C807.391 67.1293 814.187 73.5742 822.57 73.5742C830.954 73.5742 837.75 67.1293 837.75 59.1791C837.75 51.2288 830.954 44.7839 822.57 44.7839Z" fill="#FFB12F"/>
<path d="M938.414 44.7839C930.031 44.7839 923.234 51.2288 923.234 59.1791C923.234 67.1293 930.031 73.5742 938.414 73.5742C946.798 73.5742 953.594 67.1293 953.594 59.1791C953.594 51.2288 946.798 44.7839 938.414 44.7839Z" fill="#FFB12F"/>
<path d="M1054.26 44.7839C1045.87 44.7839 1039.08 51.2288 1039.08 59.1791C1039.08 67.1293 1045.87 73.5742 1054.26 73.5742C1062.64 73.5742 1069.44 67.1293 1069.44 59.1791C1069.44 51.2288 1062.64 44.7839 1054.26 44.7839Z" fill="#FFB12F"/>
<path d="M1170.1 44.7839C1161.72 44.7839 1154.92 51.2288 1154.92 59.1791C1154.92 67.1293 1161.72 73.5742 1170.1 73.5742C1178.49 73.5742 1185.28 67.1293 1185.28 59.1791C1185.28 51.2288 1178.49 44.7839 1170.1 44.7839Z" fill="#FFB12F"/>
<path d="M1285.94 44.7839C1277.55 44.7839 1270.76 51.2288 1270.76 59.1791C1270.76 67.1293 1277.55 73.5742 1285.94 73.5742C1294.32 73.5742 1301.12 67.1293 1301.12 59.1791C1301.12 51.2288 1294.32 44.7839 1285.94 44.7839Z" fill="#FFB12F"/>
<path d="M1401.78 44.7839C1393.4 44.7839 1386.6 51.2288 1386.6 59.1791C1386.6 67.1293 1393.4 73.5742 1401.78 73.5742C1410.16 73.5742 1416.96 67.1293 1416.96 59.1791C1416.96 51.2288 1410.16 44.7839 1401.78 44.7839Z" fill="#FFB12F"/>
</svg>
