<svg width="255" height="521" viewBox="0 0 255 521" fill="none" xmlns="http://www.w3.org/2000/svg">
<path d="M64.158 309.314C66.5681 313.235 68.8769 317.172 70.7313 321.17C73.7757 327.72 75.4692 334.243 78.4433 340.683C78.8428 341.546 79.2659 342.404 79.7095 343.256C85.8242 355.08 96.116 365.811 107.549 374.33C116.001 380.658 125.111 385.957 134.372 390.761C134.813 390.989 136.944 392.089 139.469 393.29C139.605 393.58 139.877 393.878 140.331 394.122C154.127 401.52 167.862 408.454 182.239 414.519C177.122 412.595 169.833 410.95 165.422 409.358C163.114 408.538 160.811 407.702 158.521 406.825C153.886 405.052 149.294 403.15 144.737 401.141C130.861 395.022 117.366 387.811 104.393 379.449C102.729 378.375 101.068 377.276 99.4192 376.148C90.7428 370.221 82.3686 363.345 76.2307 354.999C78.431 358.534 80.8483 361.992 83.4265 365.37C84.6231 366.937 85.859 368.485 87.1307 370.013C88.3003 371.42 89.5051 372.808 90.7354 374.181C99.3948 383.846 109.506 392.605 120.515 400.244C125.547 403.738 130.838 407.044 136.503 409.501C146.752 413.946 157.389 415.291 167.158 415.501C169.991 415.565 172.768 415.609 175.55 415.67C178.838 415.741 182.135 415.84 185.558 416.051C185.545 416.044 185.529 416.036 185.514 416.028C185.055 415.758 184.533 415.502 183.985 415.251C204.694 423.844 226.955 430.57 250.464 432.733C248.78 432.809 247.096 432.885 245.415 432.962C233.765 433.491 222.209 434.061 210.851 434.766C210.025 434.817 209.187 434.85 208.364 434.903C194.441 435.781 180.69 436.995 165.73 435.025C152.635 433.288 139.164 429.039 126.108 423.897C117.385 420.472 108.626 416.58 100.619 411.286C99.1034 410.283 97.0012 408.869 94.8084 407.234C95.2911 407.712 95.7784 408.184 96.266 408.657C98.2259 410.557 100.227 412.422 102.293 414.24C108.643 419.828 115.631 425.025 123.822 429.487C124.627 429.925 125.43 430.358 126.257 430.781C156.134 446.076 189.402 446.71 214.765 440.781C216.492 440.392 218.217 439.975 219.938 439.544C230.22 436.963 240.275 433.911 251.45 432.821C252.157 432.882 252.864 432.948 253.572 433C256.523 433.217 259.491 433.343 262.466 433.398C262.938 433.437 263.41 433.475 263.883 433.51C256.049 436.125 248.189 438.56 240.279 440.857C236.471 441.54 232.662 442.19 228.885 442.854C222.846 443.916 216.881 444.996 210.795 445.865C184.321 449.743 152.698 449.175 122.896 434.795C114.944 430.95 107.463 426.244 100.292 421.236C102.144 423.024 104.102 424.768 106.139 426.465C109.065 428.903 112.175 431.236 115.432 433.443C117.992 435.178 120.661 436.818 123.388 438.386C125.318 439.496 127.285 440.561 129.287 441.579C140.801 447.448 153.358 451.707 165.687 454.003C186.938 458.004 207.161 456.281 222.806 450.922C224.893 450.213 226.91 449.446 228.84 448.619C231.047 447.675 233.164 446.66 235.273 445.636C237.476 444.567 239.688 443.501 241.978 442.479C251.032 439.8 260.029 436.943 269.009 433.845C269.206 433.856 269.403 433.866 269.6 433.877C269.41 433.865 269.221 433.85 269.031 433.838C269.484 433.681 269.928 433.519 270.38 433.361C279.483 433.085 288.598 432.003 297.439 429.988C294.893 431.661 292.635 433.513 290.169 435.284C289.025 436.105 287.868 436.916 286.699 437.719C285.941 438.147 285.167 438.567 284.375 438.983C279.594 441.487 274.237 443.732 268.727 445.725C268.614 445.766 268.502 445.808 268.389 445.848C262.6 447.936 256.666 449.75 251.114 451.446C227.185 458.776 199.955 462.831 170.539 459.615C162.441 458.725 154.203 457.267 145.919 455.179C144.718 454.876 143.521 454.578 142.32 454.248C144.729 455.082 147.148 455.883 149.575 456.652C164.415 461.357 179.61 464.778 194.626 466.379C194.979 466.417 195.332 466.449 195.685 466.484C200.121 466.934 204.543 467.241 208.918 467.357C230.876 468.009 251.862 463.898 266.269 455.749C272.286 452.371 276.806 448.167 281.227 443.973C283.572 442.501 285.868 440.993 288.114 439.453C293.509 435.764 298.789 430.291 306.232 427.732C306.461 427.653 306.647 427.557 306.798 427.454C308.274 426.995 309.748 426.529 311.2 426.014C311.859 425.78 312.499 425.524 313.152 425.279C311.172 426.591 309.289 427.96 307.529 429.335C305.378 431.017 303.405 432.704 301.668 434.294C296.752 438.786 292.648 443.406 288.131 447.891C286.12 449.883 284.028 451.845 281.732 453.731C275.296 459.022 267.304 463.672 258.193 467.527C246.981 472.282 234.067 475.81 220.364 478.067C217.257 478.58 214.112 479.032 210.938 479.421C203.499 480.34 195.06 480.873 186.713 478.523C194.559 480.774 202.676 482.342 210.781 483.222C218.214 484.029 225.637 484.26 232.837 483.922C260.904 482.711 284.802 472.577 296.542 459.645C302.989 452.64 306.34 445.167 310.293 437.736C311.093 436.222 311.898 434.706 312.767 433.188C313.934 431.155 315.28 429.119 316.895 427.143C317.132 426.852 317.389 426.567 317.637 426.279C318.993 424.714 320.517 423.189 322.299 421.736C322.615 421.479 322.94 421.223 323.269 420.969C323.834 420.699 324.409 420.435 324.97 420.158C325.266 420.037 325.565 419.922 325.859 419.797C326.122 419.686 326.311 419.556 326.461 419.423C340.96 412.002 353.429 402.179 364.293 391.262C365.606 389.932 363.549 389.152 362.25 390.453C351.289 401.395 338.67 411.227 323.969 418.543C323.418 418.766 322.861 418.955 322.306 419.158C319.722 417.791 317.715 416.16 315.973 414.19C308.52 405.691 299.945 397.324 287.824 392.163C279.094 388.423 269.436 386.501 259.735 384.685C256.256 384.039 252.774 383.42 249.34 382.763C247.576 382.427 245.825 382.074 244.095 381.716C247.487 382.588 250.838 383.62 254.137 384.791C264.267 388.414 274.053 393.315 281.861 399.511C281.892 399.538 281.923 399.565 281.955 399.591C288.144 404.513 292.857 410.301 299.918 414.752C303.968 417.294 309.96 419.89 316.665 420.306C317.316 420.346 317.974 420.362 318.636 420.36C313.211 421.92 307.67 422.597 302.335 422.358C293.178 420.525 286.167 416.748 280.508 411.975C272.592 405.219 266.752 397.374 258.122 391.269C253.445 387.932 248.158 385.143 243.013 382.357C238.266 379.792 233.557 377.221 228.67 375.123C227.391 374.573 226.106 374.046 224.793 373.57C220.943 372.176 216.88 371.165 212.839 370.759C210.224 370.5 207.617 370.487 205.063 370.831C225.745 381.558 247.278 394.071 266.473 408.326C271.384 412.034 276.075 415.923 281.901 419.066C282.933 419.622 283.992 420.157 285.105 420.656C288.016 422.086 299.568 426.088 305.123 424.262C307.426 424.217 309.754 424.025 312.086 423.678C310.61 424.228 309.139 424.779 307.629 425.275C306.459 425.66 305.27 426 304.086 426.348C296.972 427.349 290.097 427.362 283.631 426.534C279.351 425.138 274.032 423.126 272.245 422.43C267.245 420.529 262.568 418.323 258.248 415.873C249.605 410.972 242.409 405.102 236.745 398.713C233.697 395.27 231.041 391.667 227.6 388.461C219.588 381.03 208.464 376.274 198.201 371.179C198.08 371.12 197.959 371.059 197.838 370.999C193.804 369.01 189.838 366.957 185.95 364.816C180.878 362.024 175.94 359.095 171.106 356.05C188.272 367.122 201.856 382.7 218.365 397.081C225.769 403.556 233.838 409.826 243.343 415.156C247.904 417.71 252.782 420.048 258.04 422.017C259.191 422.448 262.071 423.42 265.712 424.441C267.575 424.963 269.641 425.498 271.76 425.992C278.454 427.994 285.806 429.04 293.535 428.962C292.18 428.979 290.111 429.611 288.736 429.83C286.9 430.127 285.057 430.386 283.208 430.607C272.59 431.88 261.849 431.92 251.32 431.001C249.815 430.557 248.359 430.061 246.977 429.496C245.998 429.096 245.046 428.671 244.146 428.199C243.776 428.006 243.446 427.793 243.095 427.59C241.886 426.891 240.754 426.151 239.719 425.365C236.588 422.986 234.146 420.29 231.743 417.588C229.892 415.503 228.056 413.415 225.947 411.437C220.445 406.286 213.361 402.014 206.064 397.881C202.751 396.009 199.393 394.172 196.107 392.335C192.894 390.54 189.711 388.727 186.57 386.876C181.704 384.008 176.923 381.076 172.223 378.072C171.146 377.384 170.066 376.699 168.997 376.004C163.829 372.636 158.771 369.175 153.782 365.634C148.993 362.24 144.185 358.699 138.755 356.377C151.637 363.759 163.058 372.932 174.066 382.407C177.337 385.233 180.547 388.092 183.788 390.95C189.854 396.297 195.986 401.676 202.487 406.881C204.141 408.203 205.821 409.514 207.524 410.808C213.137 415.069 219.197 419.229 225.942 422.825C231.473 425.775 237.474 428.333 243.973 430.212C231.942 428.652 220.231 425.933 208.945 422.439C206.526 421.198 204.276 419.704 202.265 418.152C200.477 416.775 198.866 415.365 197.464 414.075C196.227 412.937 195.051 411.776 193.91 410.603C190.456 407.051 187.318 403.409 183.761 399.902C179.694 395.892 175.144 392.086 170.653 388.274C162.14 381.067 153.487 373.696 144.61 366.84C139.743 363.089 134.795 359.483 129.63 356.124C126.425 354.04 123.144 352.04 119.737 350.153C123.328 353.399 126.399 356.999 129.613 360.487C138.576 370.224 148.801 379.153 158.67 388.223C166.562 395.473 174.225 402.849 183.336 409.464C187.636 412.58 192.181 415.21 196.97 417.543C199.947 418.993 203.047 420.324 206.235 421.583C194.075 417.665 182.408 412.894 171.062 407.641C156.626 396.8 147.875 382.767 135.283 371.279C132.403 368.634 129.306 366.143 126.225 363.617C125.65 363.146 125.081 362.671 124.51 362.197C119.676 358.191 114.966 354.032 110.397 349.698C105.278 344.844 100.337 339.773 95.5692 334.48C111.301 356.485 129.937 376.188 151.364 394.013C154.731 396.812 158.168 399.565 161.801 402.183C162.851 402.941 164.25 404.071 165.763 405.135C159.625 402.19 153.559 399.114 147.504 395.928C147.011 395.527 146.43 395.059 145.79 394.541C141.665 391.28 135.49 385.929 134.682 385.042C131.173 381.428 127.74 377.757 124.02 374.214C119.692 370.094 115.012 366.175 110.46 362.117C98.3506 351.321 87.0612 339.511 76.7425 326.479C73.8726 322.852 71.0848 319.126 68.3695 315.305C66.9334 313.283 65.5126 311.239 64.1215 309.161C63.8066 308.691 63.5011 308.213 63.1885 307.74C63.511 308.264 63.8359 308.79 64.158 309.314Z" fill="#233238"/>
<path d="M147.605 423.069C157.252 424.615 166.107 424.181 175.133 424.125C182.101 424.075 189.228 424.238 196.427 424.525C196.882 424.543 197.332 424.544 197.787 424.563C199.592 424.684 207.221 423.955 207.203 423.919C207.199 423.962 198.685 422.571 196.968 422.354C182.089 420.913 167.64 420.737 152.74 418.524C140.311 416.668 127.399 413.268 114.922 407.413C110.96 405.553 107.053 403.426 103.274 401.074C95.1634 396.033 87.6711 389.877 81.6628 382.935C98.1982 402.39 123.153 419.289 147.605 423.069Z" fill="#233238"/>
<path d="M151.142 153.181C152.023 157.939 152.798 162.666 153.1 167.239C153.601 174.734 152.776 181.584 153.249 188.947C153.314 189.933 153.404 190.926 153.516 191.925C155.031 205.742 161.099 220.466 169.143 233.658C175.079 243.437 182.058 252.563 189.378 261.297C189.726 261.713 191.413 263.718 193.449 265.998C193.475 266.331 193.628 266.734 193.984 267.169C204.796 280.406 215.724 293.182 227.62 305.447C223.296 301.3 216.716 296.413 212.964 292.9C210.994 291.075 209.037 289.236 207.106 287.366C203.202 283.582 199.388 279.697 195.651 275.731C184.271 263.648 173.685 250.724 164.059 236.97C162.824 235.204 161.602 233.416 160.403 231.607C154.092 222.097 148.444 211.842 145.572 201.252C146.393 205.554 147.459 209.885 148.715 214.215C149.298 216.224 149.927 218.233 150.599 220.241C151.217 222.089 151.876 223.935 152.567 225.779C157.428 238.759 164.072 251.566 172.034 263.742C175.672 269.311 179.639 274.824 184.3 279.718C192.734 288.573 202.742 294.721 212.324 299.415C215.102 300.779 217.831 302.099 220.56 303.436C223.786 305.017 227.01 306.626 230.315 308.399C230.305 308.385 230.291 308.371 230.281 308.357C229.93 307.895 229.513 307.416 229.066 306.93C246.258 324.462 265.7 340.97 288.127 353.807C286.43 353.104 284.736 352.398 283.044 351.696C271.317 346.824 259.666 342.033 248.162 337.459C247.325 337.126 246.485 336.771 245.649 336.441C231.54 330.847 217.473 325.644 203.428 316.922C191.141 309.277 179.443 299.12 168.499 288.325C161.183 281.121 154.01 273.466 148.12 264.853C147.004 263.223 145.467 260.938 143.926 258.407C144.22 259.074 144.52 259.738 144.822 260.403C146.033 263.073 147.297 265.73 148.644 268.373C152.784 276.497 157.704 284.551 164.096 292.473C164.724 293.25 165.353 294.025 166.009 294.799C189.699 322.787 222.366 338.697 249.728 344.859C251.585 345.292 253.451 345.698 255.319 346.089C266.479 348.421 277.596 350.212 289.067 354.344C289.744 354.726 290.418 355.112 291.099 355.488C293.935 357.049 296.822 358.533 299.743 359.954C300.196 360.207 300.649 360.46 301.103 360.711C292.352 359.537 283.643 358.183 274.938 356.678C270.909 355.561 266.893 354.412 262.901 353.29C256.519 351.498 250.205 349.756 243.852 347.762C216.177 339.18 185.113 324.091 161.145 296.987C154.753 289.747 149.157 281.923 143.982 273.96C145.129 276.477 146.397 279.002 147.762 281.52C149.722 285.135 151.905 288.737 154.28 292.291C156.146 295.084 158.159 297.839 160.255 300.554C161.74 302.476 163.277 304.373 164.867 306.242C174.006 317.004 184.795 326.749 196.112 334.563C215.6 348.07 236.265 355.78 253.795 357.997C256.131 358.299 258.421 358.513 260.646 358.633C263.19 358.771 265.674 358.801 268.153 358.82C270.741 358.839 273.338 358.867 275.997 358.971C285.979 360.647 295.974 362.13 306.045 363.384C306.236 363.485 306.426 363.585 306.617 363.686C306.434 363.588 306.252 363.486 306.069 363.388C306.578 363.45 307.079 363.504 307.588 363.566C316.699 367.499 326.13 370.69 335.648 372.886C332.489 373.27 329.545 373.953 326.427 374.467C324.982 374.703 323.526 374.925 322.061 375.133C321.147 375.182 320.22 375.218 319.278 375.239C313.587 375.369 307.428 374.988 301.213 374.307C301.086 374.293 300.958 374.28 300.831 374.265C294.305 373.542 287.739 372.498 281.597 371.519C255.117 367.321 226.628 358.557 198.761 342.02C191.093 337.463 183.502 332.313 176.108 326.555C175.036 325.721 173.967 324.892 172.905 324.032C174.969 325.917 177.053 327.777 179.16 329.609C192.037 340.82 205.756 351.001 219.997 359.405C220.332 359.603 220.668 359.794 221.004 359.99C225.22 362.452 229.475 364.772 233.759 366.896C255.23 377.613 277.566 383.451 294.94 382.503C302.187 382.13 308.269 380.3 314.251 378.433C317.133 378.143 319.983 377.798 322.795 377.397C329.546 376.449 336.866 373.788 345.209 374.835C345.468 374.867 345.688 374.864 345.876 374.836C347.512 375.089 349.148 375.334 350.781 375.523C351.524 375.609 352.255 375.666 352.994 375.739C350.533 376.047 348.145 376.455 345.877 376.924C343.104 377.499 340.506 378.159 338.177 378.839C331.593 380.756 325.763 383.165 319.573 385.258C316.823 386.185 314.002 387.047 311.007 387.745C302.611 389.704 292.925 390.352 282.433 389.743C269.519 389.006 255.393 386.342 240.972 382.131C237.703 381.178 234.418 380.15 231.129 379.05C223.418 376.481 214.866 373.09 207.509 367.06C214.407 372.768 221.835 377.966 229.516 382.515C236.559 386.69 243.813 390.323 251.065 393.323C279.295 405.12 306.819 406.694 323.39 400.068C332.452 396.518 338.632 391.108 345.389 386.014C346.76 384.973 348.139 383.933 349.581 382.922C351.513 381.566 353.625 380.292 355.98 379.197C356.325 379.037 356.688 378.889 357.045 378.736C358.985 377.904 361.078 377.187 363.398 376.656C363.81 376.562 364.229 376.474 364.652 376.389C365.315 376.398 365.985 376.417 366.646 376.416C366.986 376.441 367.324 376.471 367.664 376.491C367.966 376.508 368.203 376.476 368.402 376.42C385.591 376.19 401.69 372.792 416.621 367.635C418.429 367.002 416.694 365.328 414.911 365.942C399.873 371.075 383.623 374.414 366.275 374.453C365.645 374.406 365.022 374.325 364.395 374.259C362.363 371.797 361.003 369.357 360.035 366.721C355.923 355.378 350.647 343.644 340.635 333.262C333.432 325.761 324.617 319.527 315.715 313.369C312.521 311.165 309.316 308.986 306.17 306.794C304.554 305.668 302.957 304.535 301.383 303.405C304.405 305.777 307.324 308.281 310.137 310.889C318.77 318.926 326.571 327.992 331.919 337.352C331.941 337.391 331.96 337.432 331.982 337.47C336.217 344.899 338.66 352.455 343.94 359.847C346.972 364.078 351.903 369.253 358.378 372.727C359.007 373.064 359.652 373.382 360.307 373.685C354.342 372.639 348.602 370.717 343.416 368.039C335.06 362.116 329.573 355.375 325.805 348.327C320.565 338.395 317.794 328.406 311.597 318.752C308.25 313.492 304.089 308.463 300.068 303.503C296.355 298.93 292.681 294.369 288.652 290.166C287.598 289.066 286.529 287.983 285.413 286.936C282.139 283.866 278.507 281.054 274.664 278.816C272.178 277.371 269.603 276.157 266.946 275.303C283.292 294.809 299.797 316.366 313.319 338.47C316.756 344.18 319.906 349.959 324.464 355.567C325.272 356.558 326.114 357.545 327.023 358.521C329.355 361.193 339.247 370.236 345.444 371.095C347.739 372.114 350.114 373.007 352.555 373.758C350.883 373.591 349.217 373.424 347.534 373.191C346.229 373.009 344.923 372.778 343.618 372.557C336.197 370.213 329.392 367.06 323.313 363.311C319.615 360.041 315.124 355.721 313.624 354.249C309.405 350.179 305.625 345.972 302.291 341.704C295.62 333.163 290.751 324.388 287.597 315.836C285.903 311.228 284.656 306.653 282.48 302.085C277.404 291.482 268.222 281.934 260.023 272.467C259.927 272.357 259.829 272.244 259.733 272.133C256.505 268.424 253.368 264.688 250.344 260.907C246.397 255.973 242.634 250.974 239.021 245.915C251.757 264.121 259.223 284.872 270.041 305.854C274.884 315.288 280.462 324.838 287.821 334.174C291.353 338.649 295.283 343.071 299.729 347.324C300.703 348.256 303.179 350.486 306.39 353.112C308.033 354.457 309.871 355.905 311.778 357.34C317.633 362.287 324.504 366.646 332.18 370.132C330.834 369.523 328.544 369.159 327.101 368.73C325.171 368.161 323.248 367.552 321.335 366.907C310.343 363.202 299.703 358.294 289.639 352.59C288.321 351.485 287.07 350.353 285.92 349.19C285.106 348.367 284.326 347.534 283.618 346.68C283.326 346.329 283.08 345.98 282.811 345.629C281.883 344.421 281.047 343.212 280.325 342.005C278.14 338.349 276.758 334.717 275.416 331.095C274.385 328.303 273.369 325.515 272.041 322.703C268.573 315.376 263.202 308.141 257.569 300.933C255.01 297.667 252.391 294.411 249.845 291.188C247.356 288.038 244.901 284.885 242.504 281.717C238.791 276.808 235.185 271.878 231.686 266.919C230.885 265.782 230.078 264.648 229.289 263.509C225.468 257.997 221.791 252.447 218.213 246.855C214.777 241.492 211.378 235.983 206.897 231.322C216.811 244.123 224.591 257.917 231.849 271.802C234.001 275.937 236.081 280.075 238.192 284.227C242.142 291.995 246.147 299.824 250.582 307.66C251.711 309.652 252.871 311.645 254.06 313.635C257.977 320.185 262.376 326.846 267.67 333.298C272.011 338.589 276.965 343.733 282.675 348.474C271.372 341.481 260.83 333.56 251.004 325.112C249.086 322.844 247.435 320.417 246.039 318.048C244.798 315.944 243.744 313.889 242.852 312.044C242.064 310.414 241.346 308.793 240.668 307.176C238.613 302.28 236.906 297.446 234.732 292.546C232.247 286.942 229.204 281.305 226.222 275.689C220.564 265.063 214.83 254.22 208.676 243.753C205.3 238.022 201.787 232.388 197.966 226.884C195.595 223.469 193.116 220.096 190.469 216.773C192.777 221.445 194.434 226.21 196.276 230.937C201.41 244.123 208.102 257.14 214.388 270.125C219.416 280.504 224.169 290.896 230.645 301.247C233.705 306.127 237.193 310.667 241.036 315.042C243.426 317.762 245.981 320.428 248.653 323.067C238.127 313.821 228.414 304.011 219.205 293.898C209.08 277.163 205.802 260.076 197.75 243.588C195.914 239.802 193.806 236.057 191.727 232.288C191.34 231.585 190.958 230.881 190.575 230.178C187.33 224.224 184.264 218.186 181.405 212.05C178.203 205.176 175.258 198.183 172.57 191.062C179.697 218.781 190.58 245.697 204.943 272.149C207.202 276.304 209.545 280.447 212.135 284.557C212.885 285.745 213.835 287.44 214.923 289.127C209.981 283.561 205.159 277.905 200.39 272.153C200.057 271.552 199.661 270.85 199.226 270.074C196.396 265.141 192.339 257.318 191.879 256.121C189.792 251.141 187.805 246.145 185.482 241.137C182.78 235.31 179.652 229.508 176.704 223.636C168.864 208.015 162.223 191.827 157.012 174.949C155.563 170.253 154.234 165.502 153.013 160.697C152.367 158.155 151.745 155.599 151.166 153.024C151.035 152.442 150.916 151.857 150.789 151.273C150.904 151.906 151.025 152.545 151.142 153.181Z" fill="#233238"/>
<path d="M190.082 297.453C199.033 303.334 207.958 307.007 216.909 311.111C223.82 314.273 230.809 317.706 237.82 321.289C238.263 321.515 238.707 321.723 239.15 321.951C240.89 322.894 248.715 325.728 248.711 325.687C248.69 325.726 240.801 320.511 239.187 319.517C225.019 311.325 210.795 304.509 196.904 295.589C185.321 288.139 173.851 279.029 163.754 267.836C160.547 264.282 157.499 260.502 154.661 256.573C148.57 248.149 143.519 238.971 140.237 229.744C149.136 255.461 167.344 282.676 190.082 297.453Z" fill="#233238"/>
<path d="M226.614 39.6594C226.513 44.4969 226.315 49.2834 225.683 53.8229C224.656 61.2647 222.46 67.8054 221.432 75.1118C221.296 76.0906 221.183 77.0813 221.09 78.0816C219.776 91.9199 222.736 107.568 227.941 122.115C231.773 132.894 236.759 143.244 242.159 153.28C242.415 153.758 243.661 156.062 245.193 158.708C245.151 159.039 245.22 159.464 245.48 159.963C253.386 175.116 261.499 189.84 270.666 204.26C267.271 199.323 261.818 193.205 258.854 189.006C257.296 186.82 255.75 184.623 254.24 182.401C251.183 177.905 248.235 173.327 245.379 168.686C236.682 154.549 228.933 139.748 222.293 124.329C221.44 122.351 220.607 120.351 219.799 118.337C215.545 107.746 212.092 96.5604 211.424 85.6068C211.357 89.9861 211.523 94.443 211.876 98.9381C212.04 101.024 212.25 103.119 212.5 105.221C212.731 107.155 213.002 109.097 213.305 111.042C215.437 124.738 219.349 138.624 224.68 152.162C227.115 158.353 229.882 164.554 233.456 170.291C239.921 180.671 248.475 188.72 256.909 195.257C259.354 197.154 261.758 199 264.159 200.862C266.999 203.064 269.829 205.292 272.706 207.698C272.699 207.683 272.688 207.666 272.681 207.65C272.43 207.126 272.118 206.572 271.78 206.005C285.065 226.656 300.76 246.76 320.122 263.873C318.603 262.841 317.087 261.807 315.573 260.776C305.075 253.63 294.636 246.578 284.297 239.768C283.545 239.274 282.793 238.755 282.043 238.263C269.359 229.927 256.637 221.982 244.65 210.598C234.166 200.621 224.769 188.306 216.239 175.518C210.533 166.98 205.06 158.032 201.036 148.405C200.274 146.582 199.23 144.034 198.233 141.243C198.386 141.955 198.546 142.666 198.707 143.379C199.351 146.239 200.052 149.096 200.835 151.958C203.244 160.752 206.431 169.635 211.085 178.689C211.542 179.577 212.002 180.463 212.488 181.354C230.018 213.561 258.785 235.757 284.332 247.335C286.064 248.135 287.808 248.91 289.558 249.672C300.014 254.217 310.538 258.222 320.935 264.592C321.521 265.103 322.102 265.618 322.694 266.123C325.155 268.226 327.682 270.264 330.255 272.248C330.646 272.588 331.039 272.927 331.432 273.265C323.1 270.342 314.846 267.252 306.626 264.015C302.907 262.106 299.207 260.166 295.525 258.26C289.64 255.211 283.808 252.227 277.991 248.988C252.628 234.979 225.265 213.91 207.283 182.513C202.49 174.129 198.594 165.333 195.14 156.488C195.753 159.185 196.484 161.914 197.31 164.656C198.497 168.594 199.905 172.563 201.511 176.524C202.773 179.637 204.185 182.743 205.688 185.825C206.753 188.009 207.874 190.178 209.052 192.329C215.822 204.72 224.414 216.448 233.912 226.392C250.26 243.567 268.936 255.303 285.654 261.025C287.88 261.793 290.079 262.467 292.234 263.036C294.698 263.685 297.124 264.218 299.547 264.738C302.078 265.281 304.616 265.833 307.198 266.474C316.634 270.136 326.121 273.614 335.73 276.881C335.896 277.018 336.062 277.155 336.229 277.292C336.069 277.159 335.913 277.023 335.754 276.889C336.239 277.054 336.719 277.207 337.205 277.371C345.33 283.069 353.918 288.104 362.794 292.183C359.623 291.918 356.601 291.992 353.443 291.862C351.98 291.802 350.509 291.724 349.034 291.631C348.129 291.494 347.213 291.342 346.286 291.171C340.687 290.145 334.732 288.526 328.785 286.6C328.663 286.56 328.542 286.522 328.421 286.482C322.176 284.452 315.957 282.099 310.141 279.897C285.06 270.423 258.936 256.069 234.998 234.229C228.411 228.214 222.021 221.632 215.946 214.497C215.066 213.464 214.187 212.434 213.321 211.377C214.96 213.641 216.626 215.885 218.316 218.106C228.656 231.693 240.028 244.442 252.27 255.556C252.558 255.817 252.849 256.073 253.137 256.333C256.767 259.597 260.464 262.732 264.229 265.679C283.085 280.524 303.775 290.765 320.981 293.355C328.153 294.458 334.48 293.897 340.716 293.281C343.598 293.581 346.458 293.82 349.293 293.998C356.096 294.437 363.803 293.313 371.762 296.028C372.009 296.112 372.225 296.154 372.415 296.165C373.966 296.743 375.519 297.315 377.08 297.831C377.789 298.065 378.495 298.269 379.203 298.49C376.73 298.293 374.31 298.209 371.994 298.209C369.162 298.209 366.484 298.33 364.066 298.524C357.229 299.068 351.032 300.246 344.548 301.042C341.665 301.392 338.727 301.665 335.653 301.742C327.035 301.961 317.418 300.632 307.267 297.91C294.771 294.572 281.476 289.102 268.208 282.058C265.199 280.462 262.191 278.791 259.192 277.048C252.162 272.969 244.474 267.917 238.492 260.523C244.091 267.509 250.313 274.104 256.912 280.114C262.964 285.629 269.333 290.655 275.826 295.062C301.08 312.334 327.715 319.451 345.285 316.318C354.878 314.678 362.025 310.631 369.675 307.012C371.229 306.27 372.789 305.531 374.406 304.833C376.573 303.897 378.899 303.077 381.427 302.482C381.798 302.394 382.184 302.323 382.564 302.245C384.633 301.824 386.827 301.545 389.207 301.495C389.63 301.486 390.057 301.485 390.489 301.488C391.137 301.63 391.789 301.785 392.436 301.919C392.764 302.011 393.089 302.11 393.418 302.198C393.711 302.276 393.949 302.291 394.155 302.277C411.033 305.534 427.488 305.467 443.153 303.442C445.052 303.189 443.692 301.198 441.821 301.437C426.055 303.419 409.465 303.397 392.47 299.92C391.863 299.746 391.268 299.541 390.668 299.349C389.176 296.526 388.34 293.861 387.925 291.084C386.195 279.144 383.406 266.583 375.704 254.388C370.171 245.585 362.8 237.693 355.331 229.861C352.65 227.056 349.952 224.272 347.315 221.488C345.961 220.058 344.627 218.625 343.314 217.2C345.792 220.136 348.144 223.178 350.37 226.302C357.196 235.921 362.999 246.379 366.34 256.628C366.354 256.671 366.365 256.714 366.378 256.757C369.02 264.89 369.884 272.785 373.555 281.093C375.668 285.85 379.449 291.917 385.084 296.629C385.632 297.087 386.199 297.529 386.78 297.958C381.151 295.726 375.918 292.681 371.383 289.006C364.399 281.515 360.392 273.8 358.128 266.136C355.008 255.349 354.319 245.005 350.205 234.296C347.992 228.468 344.936 222.7 342.004 217.028C339.294 211.798 336.621 206.588 333.527 201.656C332.717 200.365 331.89 199.088 331.008 197.836C328.425 194.166 325.437 190.678 322.127 187.708C319.985 185.788 317.709 184.079 315.28 182.703C327.337 205.116 339.133 229.57 347.898 253.954C350.108 260.242 352.021 266.539 355.349 272.954C355.939 274.088 356.564 275.226 357.257 276.366C358.999 279.454 366.855 290.314 372.748 292.41C374.789 293.872 376.935 295.228 379.173 296.458C377.57 295.955 375.971 295.456 374.371 294.887C373.13 294.445 371.897 293.953 370.665 293.472C363.873 289.674 357.847 285.206 352.653 280.306C349.694 276.354 346.172 271.214 345 269.47C341.695 264.629 338.845 259.744 336.444 254.889C331.641 245.174 328.651 235.594 327.294 226.58C326.568 221.726 326.274 216.993 325.069 212.079C322.245 200.668 315.188 189.458 309.076 178.527C309.005 178.399 308.932 178.269 308.86 178.141C306.45 173.856 304.135 169.56 301.939 165.244C299.073 159.614 296.401 153.956 293.886 148.27C302.67 168.679 305.779 190.511 312.124 213.251C314.955 223.47 318.483 233.951 323.799 244.584C326.35 249.683 329.304 254.808 332.797 259.875C333.562 260.985 335.535 263.67 338.147 266.892C339.483 268.541 340.99 270.332 342.566 272.124C347.297 278.153 353.143 283.813 359.954 288.782C358.759 287.913 356.591 287.093 355.263 286.38C353.489 285.431 351.729 284.446 349.986 283.427C339.973 277.572 330.548 270.612 321.847 262.987C320.781 261.637 319.785 260.276 318.895 258.904C318.263 257.932 317.669 256.958 317.148 255.98C316.933 255.577 316.763 255.185 316.571 254.787C315.907 253.416 315.333 252.063 314.87 250.735C313.471 246.712 312.854 242.875 312.273 239.056C311.828 236.113 311.399 233.177 310.669 230.154C308.756 222.276 304.962 214.103 300.906 205.904C299.062 202.187 297.157 198.468 295.316 194.797C293.515 191.208 291.751 187.623 290.045 184.034C287.403 178.475 284.871 172.916 282.448 167.351C281.894 166.077 281.334 164.802 280.791 163.527C278.166 157.354 275.689 151.175 273.318 144.973C271.039 139.026 268.826 132.942 265.383 127.47C272.498 142.013 277.323 157.097 281.618 172.165C282.888 176.651 284.086 181.125 285.313 185.618C287.608 194.025 289.943 202.504 292.7 211.075C293.402 213.255 294.134 215.44 294.895 217.629C297.404 224.837 300.363 232.252 304.239 239.642C307.419 245.703 311.228 251.744 315.86 257.543C306.207 248.407 297.488 238.513 289.578 228.251C288.159 225.641 287.033 222.931 286.147 220.328C285.358 218.015 284.742 215.791 284.242 213.802C283.801 212.048 283.426 210.314 283.088 208.594C282.068 203.383 281.375 198.303 280.238 193.064C278.938 187.072 277.101 180.937 275.318 174.832C271.93 163.281 268.511 151.501 264.604 140.005C262.459 133.708 260.16 127.48 257.533 121.317C255.903 117.492 254.157 113.687 252.239 109.897C253.552 114.941 254.21 119.941 255.057 124.942C257.413 138.895 261.331 152.998 264.855 166.986C267.676 178.168 270.226 189.308 274.471 200.756C276.479 206.154 278.975 211.306 281.852 216.369C283.641 219.517 285.604 222.646 287.685 225.771C279.251 214.586 271.726 203.011 264.756 191.243C258.23 172.803 258.481 155.407 253.936 137.629C252.905 133.55 251.599 129.456 250.327 125.344C250.09 124.577 249.859 123.81 249.626 123.044C247.654 116.557 245.875 110.021 244.319 103.434C242.575 96.0535 241.108 88.6089 239.918 81.0923C241.283 109.681 246.488 138.241 255.196 167.056C256.566 171.581 258.021 176.114 259.726 180.663C260.218 181.978 260.806 183.831 261.53 185.704C257.818 179.251 254.241 172.737 250.736 166.137C250.53 165.482 250.286 164.714 250.017 163.865C248.246 158.461 245.857 149.979 245.65 148.713C244.615 143.414 243.681 138.119 242.42 132.744C240.955 126.491 239.067 120.176 237.369 113.828C232.856 96.9432 229.631 79.7452 227.946 62.162C227.478 57.2693 227.14 52.3482 226.918 47.3949C226.8 44.7742 226.709 42.145 226.664 39.5074C226.653 38.9102 226.654 38.3128 226.648 37.7154C226.64 38.3639 226.628 39.0124 226.614 39.6594Z" fill="#233238"/>
<path d="M235.531 188.829C243.105 196.402 251.101 201.806 259.036 207.638C265.164 212.134 271.311 216.912 277.452 221.841C277.84 222.152 278.234 222.446 278.621 222.758C280.133 224.034 287.223 228.395 287.227 228.353C287.199 228.386 280.529 221.682 279.15 220.382C266.935 209.49 254.386 199.934 242.59 188.385C232.756 178.743 223.368 167.499 215.747 154.493C213.327 150.362 211.107 146.044 209.124 141.622C204.865 132.139 201.778 122.127 200.433 112.427C203.939 139.414 216.257 169.753 235.531 188.829Z" fill="#233238"/>
</svg>
