<svg width="747" height="718" viewBox="0 0 747 718" fill="none" xmlns="http://www.w3.org/2000/svg">
<path d="M376.812 547.848C376.714 547.848 376.629 547.862 376.528 547.896L376.375 547.943L376.157 548.017H376.153C375.869 548.017 375.644 548.096 375.439 548.266C374.152 548.724 372.868 549.294 371.624 549.955C370.288 550.659 368.894 551.569 367.36 552.742C365.001 554.568 362.798 556.825 360.43 559.85C358.437 562.399 356.673 565.056 354.635 568.261C352.506 571.613 350.383 574.959 348.286 578.33C339.936 591.775 331.612 606.218 322.092 623.789C314.273 638.218 306.695 652.856 297.725 670.395L293.58 678.512L289.417 686.654C289.15 687.184 289.313 687.798 289.797 688.079C289.963 688.176 290.146 688.224 290.343 688.224C290.416 688.224 290.5 688.211 290.626 688.182C290.707 688.3 290.858 688.398 291.088 688.479C304.158 693.121 317.956 697.239 332.098 700.718C345.292 703.959 358.964 706.671 373.899 709.008C381.23 710.15 388.76 711.173 396.281 712.044C396.133 711.091 395.975 710.165 395.826 709.238C395.334 706.155 395.002 703.044 394.839 699.991C394.647 696.582 394.644 693.517 394.828 690.62C395.024 687.325 395.418 684.469 396.033 681.893C396.395 680.413 396.751 679.229 397.151 678.171C397.591 677.01 398.097 675.931 398.656 674.963C398.706 674.874 398.82 674.835 398.914 674.835C399.05 674.853 399.149 674.916 399.198 675.014L400.225 677.584C401.761 681.429 403.501 685.787 405.355 689.949C407.835 695.538 410.199 700.05 412.79 704.147C414.34 706.569 415.885 708.724 417.518 710.73C418.598 712.048 419.696 713.292 420.778 714.429C432.62 715.379 445.274 716.099 458.394 716.574C471.541 717.044 485.559 717.282 501.246 717.296H502.551C514.435 717.296 526.118 717.003 537.275 716.422C540.128 716.276 542.942 716.103 545.725 715.914L545.657 715.686L545.561 715.501C544.611 713.606 543.723 711.548 542.921 709.387C541.903 706.636 541.059 703.861 540.414 701.136C539.696 698.085 539.257 695.361 539.073 692.807C538.965 691.317 538.937 690.024 538.988 688.855C539.046 687.495 539.177 686.333 539.384 685.302C539.608 684.138 539.911 683.125 540.307 682.205C540.741 681.216 541.239 680.389 541.832 679.673C541.876 679.61 541.96 679.574 542.06 679.574C542.222 679.6 542.312 679.667 542.362 679.795C543.813 684.078 545.322 687.945 546.974 691.614C550.167 698.616 553.661 704.356 557.655 709.165C558.946 710.705 560.198 712.054 561.485 713.292C561.886 713.68 562.297 714.062 562.715 714.434C577.391 712.906 591.001 710.752 604.332 707.85C604.079 707.077 603.819 706.335 603.577 705.585C602.932 703.608 602.494 701.947 602.198 700.357C601.813 698.301 601.67 696.732 601.738 695.27C601.776 694.348 601.859 693.62 601.998 692.979C602.071 692.633 602.151 692.287 602.262 691.953C602.36 691.654 602.471 691.357 602.593 691.065C602.639 690.964 602.765 690.905 602.861 690.905C603.001 690.905 603.086 690.984 603.134 691.051C604.35 692.701 605.523 694.499 606.557 696.088C608.094 698.446 609.68 700.876 611.501 703.091C612.292 704.045 612.967 704.784 613.625 705.417L613.731 705.516L613.831 705.615C625.176 702.777 636.213 699.277 646.647 695.214L646.536 695.031C645.129 693.362 643.788 691.561 642.549 689.675C640.775 686.955 639.169 684.076 637.775 681.119C636.329 678.047 635.123 674.975 634.191 671.994C633.188 668.759 632.53 665.806 632.174 662.963C631.788 659.951 631.763 657.271 632.1 654.772C632.115 654.641 632.263 654.543 632.388 654.543C632.532 654.543 632.65 654.623 632.701 654.759C633.183 656.188 633.749 657.619 634.436 659.133C635.741 661.988 637.34 664.888 639.188 667.753C641.07 670.675 643.139 673.506 645.337 676.17C647.376 678.62 649.444 680.848 651.486 682.795C653.735 684.926 655.878 686.703 658.036 688.227C658.67 688.666 659.341 689.117 660.028 689.54C664.225 687.632 668.407 685.566 672.468 683.405C682.783 677.918 692.672 671.562 701.859 664.515C704.187 662.73 706.472 660.906 708.65 659.095C708.061 658.338 707.548 657.644 707.084 656.957C705.78 655.015 704.7 652.945 703.875 650.807C703.01 648.556 702.419 646.311 702.117 644.132C701.944 642.919 701.859 641.747 701.864 640.652C701.87 639.585 701.944 638.549 702.086 637.576C702.101 637.44 702.254 637.341 702.38 637.341C702.52 637.341 702.647 637.431 702.688 637.562C702.949 638.401 703.239 639.174 703.576 639.926C704.018 640.885 704.505 641.781 705.024 642.587C705.531 643.369 706.122 644.182 706.783 645.002C707.652 646.029 708.54 646.951 709.499 647.82C710.391 648.619 711.331 649.364 712.368 650.099C713.583 650.944 714.733 651.643 715.882 652.237L716.114 652.358L716.272 652.437C720.642 648.472 725.091 644.02 729.512 639.206C735.733 632.424 741.535 625.115 746.878 618.228C746.935 618.151 746.973 618.059 747.002 617.934C746.399 616.685 745.714 615.386 744.852 613.841C743.457 611.558 741.886 609.21 740.044 606.66C739.155 605.521 738.3 604.502 737.434 603.543C734.448 600.224 731.141 597.027 727.326 593.765C720.687 588.088 712.878 582.821 704.118 578.112C696.267 573.888 687.724 570.209 677.999 566.867C674.576 565.684 671.003 564.564 667.073 563.449C666.666 563.712 666.301 563.989 665.94 564.273C664.854 565.167 663.831 566.159 662.896 567.223C662.027 568.217 661.198 569.261 660.36 570.413C659.346 571.809 658.402 573.235 657.489 574.614L657.403 574.743L657.163 575.108C656.625 575.919 656.085 576.734 655.534 577.539C655.49 577.602 655.44 577.665 655.347 577.692H655.29C655.175 577.692 655.144 577.68 655.113 577.665C655.039 577.628 654.982 577.558 654.962 577.48C654.945 577.428 654.943 577.38 654.956 577.325C655.547 572.004 656.342 566.362 658.142 561.151C655.872 560.575 653.306 559.996 650.288 559.364C642.39 557.722 634.277 556.432 625.487 555.419C621.584 559.315 618.022 563.477 614.891 567.795C610.605 573.731 607.291 579.757 605.04 585.706C604.648 586.76 604.261 587.89 603.894 589.064C603.848 589.216 603.731 589.311 603.589 589.311C603.399 589.272 603.303 589.181 603.281 589.013C603.207 588.442 603.143 587.878 603.096 587.308C602.854 584.203 602.985 580.842 603.487 577.318C603.971 573.885 604.77 570.345 605.863 566.796C606.927 563.356 608.212 560 609.68 556.821C610.103 555.906 610.547 554.994 611.006 554.093C605.429 553.637 599.408 553.305 592.584 553.058C591.792 553.974 591 554.977 590.218 556.044C587.136 560.355 584.62 565.095 582.684 570.207C581.958 572.164 581.337 574.11 580.841 575.994C580.806 576.137 580.686 576.235 580.548 576.235C580.398 576.235 580.28 576.152 580.234 576.014C579.572 574.071 579.042 571.973 578.66 569.779C578.255 567.505 577.988 565.244 577.868 563.057C577.725 560.634 577.725 558.308 577.868 556.142C577.94 554.948 578.048 553.806 578.19 552.749C574.803 552.678 571.219 552.649 567.219 552.649C560.657 552.649 554.177 552.714 547.317 552.782L546.881 552.786L544.251 552.812C536.306 552.904 527.822 552.99 519.62 552.99C516.483 552.99 513.345 552.979 510.208 552.948C500.573 552.853 490.296 552.616 478.797 552.221C475.218 555.856 471.939 559.706 469.042 563.669C466.803 566.755 464.84 569.831 463.204 572.818C461.444 576.012 459.916 579.309 458.662 582.617C457.807 584.888 457.062 587.256 456.448 589.655C456.413 589.799 456.293 589.897 456.156 589.897C456.056 589.897 455.931 589.86 455.877 589.758C454.819 587.689 454.03 585.34 453.528 582.782C453.036 580.29 452.778 577.617 452.763 574.835C452.747 571.803 452.982 568.702 453.459 565.615C453.951 562.419 454.658 559.324 455.562 556.412C456.085 554.71 456.68 553.029 457.33 551.416C449.411 551.037 441.559 550.67 433.785 550.304L433.515 550.293L433.181 550.277C414.902 549.424 396 548.542 377.398 548.042C377.236 547.92 377.02 547.848 376.812 547.848Z" fill="#D73757"/>
<path d="M603.047 691.654C603.05 691.649 603.052 691.645 603.052 691.637C603.052 691.642 603.047 691.647 603.047 691.654Z" fill="#BB304B"/>
<path d="M742.897 617.241C728.025 616.139 713.125 615.5 698.217 615.202C698.361 614.66 698.474 614.109 698.595 613.571C698.802 612.627 699.013 611.688 699.256 610.755C699.885 608.472 700.704 606.248 701.648 604.071C702.638 601.784 703.822 599.577 705.081 597.425C705.901 596.042 706.773 594.693 707.685 593.363C707.843 593.127 707.827 592.819 707.589 592.63C707.499 592.56 707.38 592.524 707.262 592.524C707.103 592.524 706.944 592.588 706.849 592.724C705.651 594.468 704.468 596.228 703.311 598.003C702.117 599.835 701.014 601.72 699.968 603.637C698.917 605.559 697.994 607.549 697.185 609.585C696.784 610.601 696.415 611.628 696.113 612.675C695.955 613.241 695.812 613.812 695.695 614.387C695.643 614.644 695.616 614.9 695.598 615.156C683.764 614.954 671.926 614.961 660.092 615.148C660.271 613.221 660.436 611.293 660.706 609.375C661.04 606.982 661.526 604.598 662.134 602.258C662.636 600.382 663.198 598.526 663.859 596.702C664.551 594.776 665.333 592.886 666.168 591.021C667.799 587.396 669.62 583.86 671.626 580.427C672.8 578.43 674.015 576.452 675.294 574.516C675.394 574.364 675.389 574.165 675.236 574.045C675.176 573.999 675.097 573.975 675.018 573.975C674.917 573.975 674.817 574.016 674.76 574.102C673.73 575.647 672.701 577.192 671.696 578.753C670.646 580.401 669.621 582.066 668.623 583.747C667.635 585.414 666.67 587.093 665.761 588.812C664.842 590.555 663.986 592.331 663.174 594.127C661.594 597.614 660.168 601.191 659.107 604.872C658.563 606.778 658.087 608.704 657.722 610.659C657.445 612.16 657.267 613.674 657.207 615.197C648.448 615.353 639.69 615.593 630.934 615.892C630.948 615.277 630.955 614.662 630.959 614.046C630.964 613.135 630.979 612.23 631.001 611.318C631.048 609.497 631.18 607.673 631.38 605.862C631.571 604.129 631.856 602.401 632.184 600.693C632.524 598.93 632.968 597.198 633.426 595.468C634.456 591.637 635.816 587.884 637.312 584.203C637.381 584.036 637.301 583.837 637.132 583.769C637.091 583.753 637.048 583.746 637.005 583.746C636.872 583.746 636.741 583.821 636.688 583.947C635.622 586.544 634.613 589.163 633.673 591.807C633.203 593.137 632.749 594.477 632.316 595.823C631.877 597.169 631.497 598.536 631.128 599.897C630.388 602.605 629.77 605.344 629.321 608.113C629.094 609.501 628.92 610.895 628.825 612.293C628.777 612.953 628.756 613.612 628.756 614.272C628.752 614.835 628.768 615.399 628.806 615.963C624.245 616.124 619.683 616.301 615.123 616.492C615.166 616.076 615.235 615.663 615.274 615.241C615.318 614.79 615.338 614.335 615.37 613.879C615.429 612.967 615.47 612.052 615.523 611.14C615.639 609.224 615.803 607.313 616.009 605.401C616.411 601.594 617.182 597.827 618.162 594.127C619.324 589.878 620.857 585.721 622.626 581.686C624.406 577.629 626.447 573.684 628.682 569.858C629.631 568.244 630.619 566.649 631.631 565.07C632.687 563.425 633.769 561.792 634.916 560.205C635.09 559.964 635.063 559.628 634.82 559.446C634.724 559.371 634.601 559.333 634.479 559.333C634.314 559.333 634.149 559.402 634.049 559.54C632.946 561.059 631.836 562.572 630.775 564.122C629.692 565.704 628.652 567.311 627.644 568.94C625.589 572.244 623.682 575.637 621.945 579.115C620.186 582.628 618.596 586.23 617.219 589.901C616.537 591.729 615.903 593.572 615.322 595.436C614.731 597.326 614.229 599.237 613.759 601.165C613.152 603.637 612.666 606.14 612.37 608.668C612.222 609.962 612.127 611.255 612.107 612.56C612.096 613.235 612.107 613.906 612.138 614.581C612.154 614.884 612.18 615.183 612.207 615.486C612.246 615.839 612.322 616.182 612.374 616.532C612.318 616.526 612.261 616.524 612.205 616.524C611.972 616.524 611.738 616.567 611.517 616.647C602.913 617.02 594.311 617.433 585.711 617.875C585.704 617.724 585.692 617.573 585.682 617.422C585.662 616.972 585.624 616.521 585.588 616.071C585.508 615.097 585.419 614.123 585.344 613.15C585.196 611.241 585.113 609.325 585.101 607.411C585.101 605.872 585.151 604.337 585.261 602.802C585.324 601.953 585.424 601.11 585.513 600.262C585.604 599.414 585.699 598.566 585.82 597.723C586.285 594.424 586.982 591.161 587.835 587.939C589.068 583.365 590.719 578.897 592.554 574.53C594.313 570.341 596.283 566.231 598.402 562.204C598.496 562.02 598.375 561.784 598.195 561.712C598.146 561.69 598.099 561.681 598.053 561.681C597.904 561.681 597.772 561.776 597.699 561.915C595.967 565.193 594.303 568.508 592.751 571.876C591.124 575.405 589.629 578.991 588.266 582.631C586.899 586.301 585.669 590.025 584.639 593.8C584.121 595.696 583.672 597.602 583.27 599.519C583.08 600.429 582.932 601.346 582.79 602.263C582.636 603.252 582.494 604.242 582.373 605.232C582.235 606.368 582.135 607.505 582.066 608.645C581.993 609.84 581.987 611.04 582.004 612.238C582.019 613.369 582.087 614.495 582.22 615.622C582.316 616.435 582.489 617.238 582.69 618.033C580.035 618.171 577.38 618.311 574.726 618.453C567.058 618.864 559.389 619.281 551.719 619.691C551.653 618.863 551.568 618.037 551.48 617.211C551.375 616.179 551.275 615.148 551.179 614.121C550.987 612.009 550.845 609.889 550.823 607.769C550.822 606.09 550.851 604.412 550.957 602.732C551.073 600.884 551.28 599.046 551.549 597.213C551.823 595.375 552.145 593.543 552.51 591.725C552.878 589.903 553.331 588.1 553.811 586.305C556.1 577.871 559.312 569.7 562.935 561.741C563.03 561.527 562.914 561.265 562.697 561.175C562.645 561.155 562.591 561.146 562.538 561.146C562.366 561.146 562.205 561.248 562.132 561.411C560.495 564.993 558.905 568.595 557.427 572.251C555.91 575.995 554.511 579.792 553.276 583.635C552.658 585.568 552.082 587.51 551.554 589.469C551.026 591.406 550.524 593.359 550.106 595.328C549.69 597.302 549.357 599.287 549.034 601.282C548.718 603.251 548.475 605.246 548.327 607.236C548.158 609.503 548.084 611.776 548.164 614.049C548.238 615.992 548.465 617.942 548.919 619.838C542.285 620.19 535.651 620.529 529.016 620.852C529.006 620.717 528.999 620.582 528.985 620.445C528.932 619.937 528.853 619.429 528.779 618.921C528.641 617.967 528.494 617.02 528.378 616.067C528.136 614.139 528.062 612.188 528.04 610.249C528.05 607.492 528.319 604.74 528.726 602.018C529.163 599.141 529.758 596.296 530.501 593.488L530.5 593.492C531.674 589.12 533.073 584.8 534.578 580.531C534.647 580.328 534.572 580.103 534.361 580.014C534.315 579.994 534.264 579.985 534.214 579.985C534.056 579.985 533.895 580.074 533.838 580.229C532.682 583.475 531.505 586.711 530.437 589.994C529.867 591.755 529.328 593.524 528.81 595.299C528.288 597.079 527.781 598.865 527.337 600.672C526.45 604.27 525.768 607.924 525.363 611.611C525.156 613.454 525.14 615.324 525.183 617.173C525.203 618.063 525.272 618.942 525.405 619.822C525.468 620.22 525.557 620.618 525.661 621.008C514.836 621.524 504.01 621.985 493.177 622.334C493.175 621.995 493.168 621.655 493.159 621.32C493.126 620.493 493.068 619.665 493.015 618.843C492.918 617.325 492.835 615.809 492.823 614.286C492.818 610.727 492.977 607.16 493.453 603.636C493.944 600.018 494.726 596.448 495.665 592.923C498.32 583.103 502.234 573.668 506.297 564.347C506.413 564.084 506.277 563.765 506.008 563.655C505.94 563.627 505.871 563.614 505.802 563.614C505.591 563.614 505.391 563.741 505.305 563.944C502.009 571.453 498.714 578.962 495.979 586.697C494.627 590.535 493.444 594.43 492.43 598.374C491.923 600.342 491.478 602.327 491.067 604.322C490.66 606.311 490.291 608.313 490.015 610.324C489.726 612.507 489.561 614.695 489.466 616.895C489.414 618.12 489.408 619.346 489.461 620.571C489.485 621.198 489.538 621.83 489.639 622.453C471.163 623.008 452.671 623.2 434.192 622.854C434.188 622.631 434.142 622.409 434.065 622.186C433.527 620.639 433.006 619.086 432.563 617.512C431.484 613.453 430.983 609.281 430.937 605.088C430.937 603.573 430.985 602.058 431.087 600.543C431.203 598.873 431.404 597.208 431.621 595.552C432.044 592.24 432.802 588.974 433.663 585.75C434.859 581.341 436.369 577.014 438.021 572.754C439.653 568.568 441.423 564.433 443.265 560.332C443.365 560.112 443.244 559.84 443.016 559.745C442.961 559.724 442.904 559.713 442.849 559.713C442.67 559.713 442.503 559.82 442.426 559.992C440.81 563.574 439.188 567.161 437.678 570.79C436.131 574.512 434.679 578.273 433.405 582.095C432.138 585.896 431.045 589.766 430.194 593.684C429.767 595.637 429.391 597.595 429.128 599.579C428.864 601.538 428.679 603.512 428.59 605.491C428.452 608.45 428.546 611.419 428.864 614.363C429.168 617.206 429.698 620.045 430.55 622.78C422.545 622.599 414.543 622.326 406.546 621.919C405.073 621.846 403.602 621.743 402.13 621.658C402.072 621.237 402 620.813 401.933 620.395C401.796 619.599 401.637 618.808 401.489 618.017C401.173 616.341 400.893 614.66 400.644 612.981C400.158 609.668 399.936 606.317 399.906 602.974C399.899 601.07 399.93 599.168 400.048 597.276C400.17 595.222 400.37 593.175 400.628 591.139C401.131 587.11 401.915 583.128 402.952 579.207C404.386 573.886 406.27 568.666 408.714 563.714C408.845 563.442 408.682 563.107 408.413 562.997C408.342 562.969 408.273 562.954 408.204 562.954C407.989 562.954 407.793 563.09 407.689 563.296C406.052 566.579 404.6 569.952 403.359 573.408C402.091 576.943 401.051 580.55 400.195 584.201C398.463 591.594 397.539 599.161 397.486 606.749C397.47 609.55 397.544 612.372 397.787 615.163C397.904 616.561 398.057 617.954 398.284 619.338C398.389 619.992 398.522 620.635 398.674 621.28C398.689 621.339 398.708 621.398 398.723 621.457C393.448 621.13 388.174 620.765 382.906 620.324C377.162 619.842 371.427 619.249 365.693 618.622C365.659 618.103 365.604 617.585 365.554 617.067C365.454 616.04 365.354 615.014 365.259 613.987C365.163 612.971 365.074 611.95 365.021 610.924C364.964 609.95 364.957 608.966 364.952 607.984C364.966 605.086 365.198 602.207 365.543 599.33C365.728 597.827 365.977 596.335 366.277 594.848C366.573 593.36 366.891 591.879 367.276 590.407C367.265 590.452 367.256 590.496 367.245 590.539C368.789 584.828 370.948 579.282 373.38 573.881C375.799 568.503 378.529 563.245 381.423 558.104C381.619 557.758 381.365 557.297 381.032 557.16C380.938 557.123 380.846 557.105 380.758 557.105C380.473 557.105 380.231 557.289 380.082 557.548C378.155 560.953 376.248 564.366 374.452 567.838C372.599 571.414 370.867 575.043 369.277 578.741C367.682 582.448 366.293 586.234 365.057 590.077C363.827 593.915 362.755 597.807 362.01 601.771C361.73 603.247 361.53 604.744 361.361 606.238C361.181 607.803 361.091 609.375 361.049 610.95C360.985 613.335 361.002 615.789 361.445 618.152C360.442 618.039 359.437 617.937 358.433 617.82C350.579 616.904 342.736 615.899 334.915 614.752C326.82 613.564 318.766 612.133 310.728 610.595C310.685 610.592 310.643 610.59 310.6 610.59C310.282 610.59 309.977 610.662 309.687 610.804C309.217 611.04 308.853 611.452 308.679 611.946C308.504 612.453 308.541 613.024 308.784 613.506C308.995 613.924 309.449 614.402 309.936 614.506C316.738 615.951 323.592 617.124 330.463 618.187C337.439 619.265 344.437 620.187 351.446 621.041C358.123 621.852 364.806 622.618 371.498 623.291C371.223 623.708 370.964 624.137 370.726 624.57C370.277 625.391 369.908 626.256 369.56 627.119C368.815 628.963 368.218 630.864 367.711 632.786C366.75 636.442 366.138 640.195 365.8 643.961C365.615 646.018 365.525 648.087 365.462 650.155C365.398 652.108 365.398 654.072 365.487 656.026C365.583 657.995 365.689 659.973 365.878 661.937C366.063 663.917 366.318 665.885 366.581 667.855C368.293 680.548 371.904 693.011 377.513 704.557C377.635 704.809 377.762 705.013 378.026 705.144C378.273 705.269 378.569 705.291 378.829 705.202C379.319 705.035 379.721 704.4 379.478 703.892C377.777 700.352 376.356 696.682 375.153 692.948C373.874 688.975 372.817 684.933 371.961 680.85C371.966 680.871 371.97 680.893 371.973 680.914C371.959 680.847 371.946 680.777 371.932 680.709C371.922 680.658 371.911 680.606 371.9 680.553C371.904 680.575 371.909 680.598 371.915 680.62C370.941 675.782 370.24 670.88 369.903 665.954C369.574 661.037 369.596 656.089 369.91 651.171C370.242 646.433 370.926 641.7 371.947 637.058C372.46 634.739 373.083 632.456 373.759 630.179C374.086 629.073 374.429 627.968 374.762 626.858C374.926 626.319 375.078 625.775 375.216 625.218C375.284 624.946 375.347 624.674 375.406 624.402C375.447 624.208 375.466 624.013 375.504 623.822C375.526 623.773 375.523 623.721 375.541 623.673C381.564 624.24 387.595 624.728 393.632 625.127C403.225 625.763 412.832 626.182 422.443 626.446C421.677 628.44 421.185 630.544 420.813 632.638C420.428 634.811 420.195 637.017 420.032 639.22C419.863 641.525 419.757 643.84 419.799 646.148C419.836 648.332 419.91 650.516 420.048 652.694C420.317 657.056 420.94 661.377 421.705 665.687C422.096 667.896 422.55 670.096 423.052 672.285C423.544 674.415 424.119 676.527 424.705 678.631C426.01 683.296 427.562 687.884 429.257 692.419C430.958 696.979 432.886 701.457 434.829 705.918C435.036 706.39 435.521 706.683 436.039 706.505C436.504 706.348 436.837 705.783 436.63 705.305C434.529 700.431 432.712 695.451 431.074 690.408C430.257 687.889 429.517 685.35 428.83 682.794C428.118 680.161 427.458 677.512 426.909 674.841C426.384 672.237 425.906 669.617 425.498 666.99C425.065 664.147 424.758 661.287 424.553 658.418C424.351 655.633 424.215 652.842 424.188 650.045C424.169 647.228 424.328 644.412 424.512 641.605C424.678 639.261 424.911 636.927 425.187 634.602C425.334 633.356 425.476 632.116 425.614 630.874C425.767 629.46 425.93 628.046 425.973 626.622C425.971 626.595 425.961 626.571 425.957 626.544C441.675 626.908 457.406 626.822 473.122 626.444C472.625 628.074 472.265 629.744 471.946 631.419C471.555 633.456 471.275 635.514 471.038 637.572C470.794 639.682 470.641 641.808 470.52 643.934C470.399 645.992 470.345 648.055 470.356 650.118C470.389 654.265 470.52 658.402 470.843 662.534C471.006 664.608 471.217 666.676 471.486 668.734C471.755 670.797 472.089 672.855 472.431 674.908C473.082 678.824 473.863 682.721 474.793 686.581C475.744 690.528 476.836 694.435 478.035 698.31C478.13 698.624 478.5 698.792 478.806 698.687C479.129 698.577 479.282 698.237 479.187 697.923C477.756 693.24 476.556 688.491 475.575 683.7C475.577 683.712 475.58 683.723 475.583 683.733C475.034 681.016 474.543 678.284 474.148 675.536C473.741 672.739 473.478 669.934 473.245 667.116C472.791 661.555 472.63 655.963 472.983 650.39C473.114 648.465 473.28 646.54 473.489 644.62C473.716 642.568 474.001 640.525 474.317 638.483C474.639 636.435 475.025 634.404 475.426 632.372C475.622 631.393 475.828 630.418 476.033 629.445C476.249 628.424 476.477 627.397 476.635 626.361C477.054 626.35 477.473 626.343 477.892 626.331C485.094 626.133 492.295 625.877 499.493 625.583C498.303 628.992 497.558 632.553 497.06 636.124C496.516 640.046 496.326 644.01 496.337 647.964C496.347 651.958 496.637 655.944 497.033 659.918C497.429 663.888 497.995 667.846 498.671 671.785C499.484 676.508 500.466 681.2 501.533 685.875C501.585 686.09 501.865 686.196 502.061 686.133C502.294 686.054 502.368 685.829 502.32 685.609C501.871 683.656 501.449 681.697 501.047 679.738L501.049 679.74C499.922 674.186 498.98 668.586 498.407 662.951C497.822 657.15 497.663 651.291 498.042 645.475C498.277 642.088 498.691 638.712 499.315 635.374C499.637 633.679 500.017 631.998 500.446 630.327C500.868 628.699 501.35 627.09 501.825 625.483C507.607 625.239 513.39 624.973 519.169 624.684C518.419 628.221 517.927 631.819 517.543 635.416C517.332 637.416 517.189 639.427 517.057 641.432C516.93 643.365 516.847 645.292 516.814 647.225C516.672 654.953 517.157 662.688 518.288 670.333C519.349 677.508 521.008 684.603 523.294 691.494C525.591 698.422 528.56 705.104 532.104 711.492C532.267 711.796 532.705 711.848 532.974 711.67C533.281 711.472 533.318 711.099 533.154 710.802C532.467 709.566 531.813 708.313 531.184 707.052C531.206 707.104 531.232 707.151 531.253 707.198C529.109 702.883 527.25 698.427 525.687 693.872C524.122 689.319 522.889 684.654 521.916 679.946C519.772 669.36 519.129 658.499 519.809 647.726C520.067 643.915 520.455 640.124 521.003 636.344C521.277 634.427 521.588 632.51 521.92 630.604C522.269 628.614 522.671 626.634 523.041 624.65C523.052 624.595 523.049 624.54 523.055 624.484C534.963 623.871 546.867 623.186 558.77 622.48C558.03 624.961 557.592 627.543 557.296 630.109C556.942 633.104 556.837 636.114 556.884 639.125C556.931 642.331 557.164 645.54 557.544 648.724C557.934 651.981 558.537 655.206 559.234 658.406C560.66 664.905 562.672 671.293 565.123 677.478C567.436 683.311 570.193 688.992 573.473 694.349C575.501 697.664 577.74 700.859 580.258 703.828C580.522 704.142 581.014 704.178 581.33 703.911C581.643 703.644 581.679 703.163 581.41 702.848C579.554 700.666 577.872 698.337 576.308 695.936C571.169 687.973 567.289 679.213 564.401 670.221C564.389 670.186 564.378 670.151 564.366 670.116C564.354 670.078 564.343 670.042 564.331 670.005C564.337 670.024 564.344 670.044 564.35 670.061C561.624 661.417 559.854 652.418 559.477 643.356V643.39C559.297 638.42 559.637 633.388 560.701 628.527C560.706 628.506 560.71 628.484 560.715 628.464C560.711 628.483 560.707 628.5 560.702 628.519C560.709 628.493 560.714 628.468 560.72 628.443C560.728 628.405 560.736 628.367 560.744 628.327C560.738 628.359 560.732 628.389 560.725 628.421C561.181 626.499 561.759 624.618 562.386 622.74C562.439 622.583 562.442 622.422 562.451 622.264C572.832 621.643 583.21 621.043 593.587 620.439C593.536 620.614 593.487 620.789 593.441 620.966C593.316 621.448 593.214 621.934 593.12 622.426C592.945 623.296 592.84 624.176 592.751 625.055C592.582 626.783 592.544 628.516 592.538 630.25C592.533 632.083 592.623 633.921 592.798 635.743C592.972 637.529 593.156 639.314 593.436 641.089C593.716 642.891 594.097 644.677 594.477 646.462C594.862 648.258 595.3 650.049 595.782 651.83C596.743 655.385 597.91 658.889 599.24 662.323C600.566 665.738 602.055 669.073 603.687 672.357C605.251 675.504 606.983 678.552 608.842 681.536C608.984 681.767 609.238 681.898 609.507 681.772C609.734 681.667 609.887 681.348 609.745 681.112C607.764 677.891 606 674.52 604.426 671.084C602.742 667.408 601.263 663.628 600.038 659.779C600.05 659.813 600.062 659.846 600.073 659.877C599.509 658.097 598.967 656.306 598.486 654.495C597.979 652.574 597.535 650.635 597.154 648.687C596.769 646.745 596.452 644.792 596.251 642.823C596.061 640.971 595.89 639.117 595.799 637.262C595.756 635.868 595.772 634.472 595.807 633.078C595.851 631.68 595.924 630.282 596.056 628.889C596.189 627.511 596.378 626.145 596.589 624.783C596.801 623.442 597.043 622.112 597.217 620.767C597.181 620.918 597.148 621.066 597.117 621.217C597.128 621.149 597.144 621.086 597.159 621.019C597.192 620.871 597.228 620.72 597.261 620.574C597.27 620.453 597.257 620.339 597.244 620.225C599.473 620.095 601.699 619.964 603.927 619.834C605.992 619.713 608.055 619.607 610.119 619.494C609.783 622.823 609.788 626.188 610.002 629.522C610.234 633.208 610.73 636.884 611.45 640.513C612.178 644.205 613.192 647.844 614.323 651.432C615.473 655.075 616.804 658.668 618.33 662.171C619.883 665.732 621.584 669.23 623.427 672.655C625.275 676.089 627.272 679.435 629.405 682.709C629.373 682.666 629.347 682.619 629.315 682.578C632.115 686.888 635.157 691.03 638.32 695.077C638.451 695.245 638.715 695.255 638.875 695.118C639.044 694.978 639.049 694.736 638.916 694.569C636.651 691.657 634.559 688.626 632.547 685.536C632.574 685.572 632.6 685.615 632.627 685.652C629.527 680.871 626.712 675.891 624.203 670.78C621.642 665.569 619.457 660.171 617.677 654.645C616.503 650.942 615.514 647.178 614.823 643.351C614.128 639.552 613.653 635.722 613.487 631.858C613.415 629.715 613.434 627.577 613.533 625.432C613.63 623.375 613.849 621.322 614.098 619.277C617.711 619.091 621.323 618.915 624.934 618.75C628.194 618.599 631.454 618.453 634.713 618.315C634.685 618.607 634.652 618.899 634.633 619.193C634.606 619.6 634.602 620.009 634.602 620.423C634.597 621.371 634.655 622.319 634.728 623.267C634.877 625.031 635.13 626.796 635.489 628.535C636.24 632.164 637.354 635.692 638.615 639.17C641.14 646.119 644.361 652.8 648.19 659.137C649.283 660.948 650.435 662.719 651.618 664.472C651.718 664.624 651.966 664.62 652.093 664.509C652.246 664.378 652.231 664.189 652.129 664.038C651.92 663.726 651.712 663.411 651.507 663.098C649.231 659.586 647.169 655.917 645.322 652.166C643.294 648.052 641.533 643.817 640.148 639.451C639.371 636.95 638.773 634.399 638.309 631.823C638.077 630.535 637.881 629.236 637.739 627.932C637.597 626.689 637.475 625.446 637.41 624.198C637.374 623.229 637.359 622.257 637.364 621.292C637.364 620.811 637.374 620.328 637.379 619.847C637.385 619.303 637.374 618.758 637.406 618.213C637.406 618.21 637.405 618.207 637.405 618.207C640.252 618.091 643.098 617.977 645.947 617.88C649.585 617.757 653.224 617.654 656.864 617.561C656.836 617.659 656.819 617.758 656.821 617.854C656.826 618.236 656.81 618.618 656.81 619C656.81 619.461 656.837 619.922 656.863 620.387C656.91 621.23 657.015 622.074 657.132 622.911C657.364 624.576 657.697 626.227 658.104 627.859C658.97 631.317 660.073 634.704 661.373 638.029C662.698 641.418 664.224 644.722 665.919 647.947C667.615 651.162 669.516 654.257 671.54 657.274C674.751 662.054 678.372 666.553 682.497 670.589C682.766 670.857 683.179 670.93 683.49 670.668C683.764 670.438 683.839 669.951 683.564 669.684C679.509 665.695 676.02 661.136 672.931 656.382C670.851 653.15 668.994 649.783 667.315 646.335C665.632 642.875 664.17 639.297 662.99 635.635C662.077 632.734 661.338 629.768 660.866 626.766C660.633 625.31 660.443 623.843 660.311 622.373C660.182 620.976 660.133 619.575 660.017 618.178C660.017 618.166 660.015 618.152 660.015 618.14C660.013 617.907 659.99 617.693 659.927 617.489C667.926 617.304 675.927 617.199 683.928 617.193C683.87 618.458 683.989 619.741 684.149 620.986C684.318 622.332 684.594 623.663 684.905 624.977C685.216 626.302 685.597 627.617 685.994 628.92C686.405 630.287 686.864 631.649 687.36 632.99C689.299 638.246 691.845 643.264 694.676 648.102C694.802 648.321 695.056 648.442 695.309 648.327C695.525 648.222 695.668 647.923 695.536 647.698C694.169 645.358 692.895 642.959 691.765 640.498C690.65 638.066 689.675 635.568 688.848 633.025C688.026 630.435 687.398 627.794 687.013 625.103C686.817 623.763 686.684 622.411 686.59 621.06C686.537 620.343 686.495 619.626 686.457 618.909C686.429 618.34 686.395 617.77 686.353 617.201C705.177 617.23 723.996 617.796 742.777 619.183C743.304 619.22 743.78 618.801 743.816 618.272C743.847 617.744 743.431 617.282 742.897 617.241Z" fill="#BB304B"/>
<path d="M560.719 628.462C560.721 628.447 560.725 628.434 560.728 628.42C560.726 628.426 560.725 628.433 560.723 628.441C560.723 628.447 560.72 628.454 560.719 628.462Z" fill="#BB304B"/>
<path d="M371.959 680.848C371.946 680.771 371.93 680.695 371.914 680.619C371.919 680.649 371.926 680.679 371.931 680.707C371.939 680.754 371.95 680.801 371.959 680.848Z" fill="#BB304B"/>
<path d="M56.834 129.344C56.8317 129.344 56.8293 129.344 56.8269 129.346L56.8222 129.351C53.1896 138.19 48.2395 146.548 43.4529 154.631C42.5287 156.188 41.6401 157.689 40.7563 159.199C39.0952 162.027 37.8393 164.223 36.6841 166.317C36.2066 167.176 35.7256 168.073 35.2304 169.002C35.6995 169.192 36.1628 169.343 36.6249 169.489C38.7421 170.152 40.934 170.692 43.0536 171.214L43.2029 171.252C46.1092 171.962 49.1139 172.698 52.0083 173.758C52.1233 173.801 52.1766 173.944 52.1541 174.051C52.1399 174.137 52.0842 174.205 51.9846 174.258C48.2644 175.957 43.9375 177.17 39.1272 177.866C36.3926 178.263 33.5574 178.505 30.4592 178.606C28.7424 182.234 27.0718 186.05 25.483 189.954C21.4582 199.816 17.9038 210.54 14.9217 221.828C13.5094 227.145 12.2286 232.611 11.0047 238.54C10.7547 239.761 10.5142 240.959 10.2879 242.135C12.8103 242.652 15.4915 243.09 18.2675 243.452C21.9025 243.92 25.6737 244.239 29.4781 244.404C31.3525 244.475 33.2363 244.509 35.0787 244.509C38.2078 244.509 41.4067 244.404 44.5856 244.198C49.4788 243.877 54.6268 243.314 59.8873 242.524C60.0259 242.524 60.1337 242.59 60.1704 242.695C60.2143 242.807 60.1704 242.949 60.0733 243.011C56.7061 245.039 53.2062 246.946 49.6707 248.678C45.8225 250.561 41.915 252.27 38.0549 253.755C31.4887 256.272 25.0588 258.186 18.9429 259.44C14.8814 260.279 10.968 260.831 7.3093 261.083C6.07118 271.41 5.5475 281.972 5.74299 292.485C6.29393 292.612 6.82235 292.698 7.35432 292.78C9.63981 293.128 11.9431 293.367 14.2973 293.599L14.5935 293.627C16.6384 293.826 18.9571 294.051 21.1881 294.372C22.444 294.553 23.5506 294.745 24.5707 294.957C25.7259 295.199 26.8467 295.476 27.9024 295.787C27.9853 295.813 28.0422 295.84 28.0801 295.895C28.1132 295.936 28.1287 295.981 28.1287 296.027C28.1381 296.113 28.099 296.228 28.0196 296.273C24.3171 298.242 19.8966 300.492 15.1823 302.246C12.757 303.142 10.5284 303.826 8.37207 304.336C7.69081 304.491 7.00599 304.642 6.32236 304.775C6.57828 308.707 6.97045 312.779 7.47873 316.887C8.73699 327.061 10.718 337.304 13.366 347.334C15.7463 347.297 18.1419 347.153 20.4973 346.917C24.4356 346.509 28.4225 345.857 32.6842 344.926C42.0548 342.859 51.3555 339.699 60.3505 336.643L63.0685 335.718C63.258 335.718 63.3386 335.749 63.3884 335.818C63.4583 335.918 63.45 336.068 63.3718 336.146C60.4098 339.264 57.1753 342.21 53.7547 344.901C50.4503 347.513 46.8971 349.977 43.1946 352.224C35.9507 356.623 27.8585 360.485 18.4595 364.03C19.8066 368.006 21.3149 372.042 22.9368 376.04C30.561 394.859 40.8048 413.054 53.3827 430.115C58.9525 437.672 65.1253 445.121 71.7294 452.251C76.9164 459.019 82.453 465.771 88.6543 472.892C92.3556 477.137 96.2761 481.468 100.641 486.131L101.224 486.753C104.072 489.799 107.263 493.212 110.481 496.334C114.308 500.043 117.935 502.95 121.573 505.215C123.461 506.394 125.429 507.423 127.419 508.271C129.509 509.163 131.831 509.863 134.321 510.35C136.117 510.7 138.084 510.871 140.337 510.871L140.929 510.866C142.884 510.849 144.971 510.593 147.309 510.087C149.142 509.687 151.041 509.105 152.952 508.359C154.694 507.689 156.539 506.786 158.758 505.517C162.169 503.581 165.516 501.042 168.993 497.757C172.083 494.83 175.045 491.478 177.796 487.792C180.238 484.526 182.593 480.828 184.792 476.797C186.707 473.296 188.392 469.594 189.8 465.794C190.452 464.012 191.045 462.181 191.617 460.411L191.665 460.268C192.29 458.354 192.911 456.357 193.678 453.794C194.845 449.867 195.974 445.69 197.034 441.378C199.02 433.26 200.661 424.78 201.912 416.176C204.311 399.647 205.193 382.45 204.532 365.065C203.885 348.283 201.676 331.177 197.969 314.222C194.321 297.599 189.176 281.188 182.675 265.44C176.241 249.813 168.299 234.621 159.072 220.291C150.099 206.351 139.715 193.157 128.205 181.076L127.772 181.519L127.022 182.311C124.953 184.47 122.946 186.305 120.887 187.919C119.697 188.853 118.559 189.67 117.407 190.412C116.197 191.184 115.075 191.822 113.974 192.364C112.695 192.987 111.538 193.459 110.435 193.808C109.297 194.164 108.169 194.414 107.082 194.549C106.948 194.549 106.859 194.494 106.811 194.388C106.768 194.287 106.785 194.177 106.855 194.107C107.865 193.077 108.81 192.023 109.666 190.973C110.515 189.922 111.328 188.826 112.083 187.715C114.825 183.678 117.095 179.062 118.831 173.993C119.003 173.466 119.197 172.868 119.377 172.268C115.985 169.019 112.462 165.853 108.9 162.845C102.322 157.297 95.41 152.035 88.3545 147.209C80.2315 141.657 71.5209 136.457 62.469 131.755L60.1266 130.753L57.7795 129.751L57.2843 129.536L56.8447 129.348C56.8423 129.345 56.8376 129.344 56.834 129.344Z" fill="#6BA711"/>
<path d="M60.7406 136.805C60.6624 136.805 60.5937 136.83 60.5498 136.852C60.4396 136.893 60.3437 136.993 60.2986 137.114C60.2501 137.234 60.2536 137.367 60.3093 137.476C64.103 145.739 67.7048 154.308 71.3185 163.669C71.2486 163.617 71.1467 163.617 71.0472 163.617C70.4275 163.617 69.8671 163.653 69.3114 163.694L69.1681 163.704L68.719 163.735C67.6456 163.813 66.6776 163.882 65.7156 163.946C64.3744 164.021 63.0948 164.06 61.801 164.064L61.6292 164.069C60.4847 164.069 59.2963 164.025 58.0996 163.937C57.0227 163.865 55.8236 163.733 54.4339 163.529C53.3142 163.379 52.1673 163.179 50.9269 162.917C49.6022 162.64 48.2847 162.312 47.0123 161.942H47.0099C46.7516 161.942 46.6248 162.004 46.5763 162.147C46.5419 162.235 46.549 162.338 46.5964 162.421C46.6343 162.501 46.7007 162.558 46.7789 162.578C48.7764 163.165 50.7918 163.681 52.768 164.11C53.7917 164.34 54.8284 164.546 55.8604 164.724C56.9397 164.908 58.0179 165.062 59.1008 165.213C60.0783 165.343 61.1114 165.452 62.3495 165.556C63.449 165.642 64.5402 165.685 65.5912 165.685C66.6124 165.685 67.6977 165.623 68.8174 165.501C69.9725 165.377 70.9548 165.166 71.8244 164.856C73.0175 168.092 74.2805 171.487 75.5257 174.914C77.0624 179.177 78.5422 183.41 79.9225 187.493C79.5505 187.56 79.1619 187.694 78.7721 187.831L78.6062 187.89L78.0778 188.068L77.4072 188.292L76.9084 188.457L76.7946 188.512C74.2141 189.316 71.5152 189.979 68.7724 190.483C66.2428 190.954 63.4964 191.266 60.1292 191.462L60.2347 191.548L59.3188 191.543C57.6731 191.574 56.2454 191.599 54.8865 191.599C52.2242 191.599 49.4447 191.497 46.626 191.297C42.3477 190.999 38.1061 190.499 34.0197 189.811C33.7982 189.811 33.6631 189.974 33.6501 190.128C33.6394 190.311 33.7685 190.459 33.9688 190.497C37.1689 191.033 40.0598 191.441 42.8098 191.747C45.9116 192.09 49.1248 192.323 52.3581 192.437C53.6874 192.482 55.0156 192.506 56.3438 192.506C58.3058 192.506 60.2276 192.453 62.0557 192.35C63.7666 192.248 65.3945 192.117 66.8921 191.961C68.6491 191.767 70.1965 191.557 71.623 191.321C73.3469 191.015 74.9949 190.647 76.521 190.227C77.3231 190.009 78.0659 189.778 78.7899 189.523C79.188 189.389 79.5766 189.238 79.9664 189.083L80.4379 188.881C83.1594 197.178 85.7529 205.493 88.35 214.295L88.8678 216.066C87.4389 216.359 86.0029 216.834 84.6546 217.296L83.5622 217.675L82.4651 218.059C81.7957 218.284 81.1192 218.503 80.4533 218.714C79.1891 219.121 77.8977 219.532 76.6027 219.904C75.2331 220.296 73.854 220.663 72.4749 221.01C70.0436 221.628 67.3719 222.201 64.3068 222.766C59.0783 223.739 53.5121 224.398 47.7622 224.729C45.2197 224.868 42.6889 224.939 40.2376 224.939C35.1595 224.939 30.1419 224.651 25.3221 224.083C25.1349 224.083 24.9726 224.223 24.9536 224.401C24.9441 224.589 25.0756 224.742 25.2735 224.771C30.6892 225.411 36.2448 225.736 41.7837 225.736C43.3382 225.736 44.8938 225.712 46.4495 225.662C53.569 225.429 60.7216 224.69 67.7084 223.466C69.5069 223.148 71.2995 222.8 73.1881 222.405C74.5009 222.139 75.8219 221.827 77.124 221.516L77.3906 221.453L77.7378 221.366L78.1039 221.28L78.7934 221.11C80.631 220.674 82.426 220.15 84.1073 219.651C85.5835 219.221 87.5183 218.606 89.3844 217.66C92.825 229.766 96.1093 242.139 99.4066 255.479C99.3367 255.465 99.2739 255.458 99.2194 255.458C99.1045 255.458 99.0204 255.488 98.954 255.526C98.6483 255.701 98.3379 255.869 98.0287 256.035L97.6863 256.222L97.2372 256.469L96.2515 257.014C95.3392 257.511 94.4233 258.005 93.5063 258.495C91.6521 259.478 89.6841 260.445 87.6569 261.372C84.0373 263.032 80.0552 264.559 75.4819 266.043C63.5177 269.879 50.6946 272.259 37.368 273.115L37.1452 273.128L36.0351 273.192C33.1098 273.356 30.1596 273.439 27.2652 273.439C24.1894 273.439 21.1054 273.341 18.0972 273.147C17.9017 273.147 17.7394 273.287 17.7192 273.472C17.7145 273.562 17.7465 273.656 17.8057 273.724C17.8685 273.797 17.9609 273.842 18.0498 273.847C21.2843 274.053 24.5875 274.158 27.867 274.158C30.6288 274.158 33.5174 274.082 36.4521 273.934C42.8714 273.589 49.3132 272.888 55.6009 271.848C62.1529 270.756 68.5579 269.296 74.6371 267.505C77.6193 266.631 80.586 265.647 83.7092 264.5C86.6972 263.411 89.6296 262.219 92.4257 260.954C93.7527 260.356 94.9482 259.782 96.082 259.198C96.6792 258.896 97.2669 258.575 97.8545 258.25C98.146 258.09 98.4327 257.921 98.7206 257.747L98.8415 257.674L98.9801 257.592L99.7301 257.144L99.8639 257.062C102.162 266.658 104.312 275.826 106.418 285.083C107.251 288.719 108.07 292.366 108.885 296.011C108.581 296.135 108.265 296.323 107.95 296.511L107.396 296.84C106.794 297.201 106.192 297.558 105.587 297.915C104.289 298.668 103.072 299.331 101.865 299.941C99.2929 301.241 96.6389 302.38 94.3546 303.345C89.8476 305.254 85.1167 307.003 79.8882 308.692C73.3338 310.793 66.6705 312.546 60.0806 313.902C53.1543 315.333 46.2575 316.325 39.58 316.852C38.4923 316.939 37.4094 317.013 36.3218 317.072C33.81 317.214 31.2935 317.287 28.8433 317.287C25.5342 317.287 22.276 317.15 19.1576 316.88C18.9644 316.88 18.808 317.016 18.7938 317.198C18.7784 317.381 18.917 317.538 19.1137 317.562C22.5402 317.857 26.0638 318.006 29.5886 318.006C32.56 318.006 35.6903 317.901 38.8916 317.694C45.536 317.254 52.4541 316.364 59.4515 315.05C66.1836 313.777 72.9393 312.134 79.5292 310.169C82.5433 309.274 85.734 308.238 89.0135 307.09C91.7658 306.126 94.7539 304.998 98.4185 303.54C100.569 302.685 102.59 301.789 104.427 300.877C105.576 300.314 106.521 299.802 107.403 299.267C107.898 298.965 108.38 298.649 108.852 298.319C109.033 298.195 109.208 298.068 109.38 297.934L111.264 306.743L114.212 320.266C115.212 324.9 116.211 329.543 117.196 334.186L116.781 334.434L116.674 334.508L116.317 334.75C115.961 334.997 115.605 335.249 115.258 335.505L114.55 336.022L113.309 336.924C112.095 337.807 110.774 338.703 109.269 339.663L109.153 339.751L108.816 339.96C108.057 340.431 107.297 340.898 106.534 341.356C105.54 341.95 104.526 342.509 103.508 343.057C101.659 344.056 99.6033 345.067 97.223 346.154C93.1437 347.999 88.7434 349.689 84.1463 351.176C76.6323 353.57 69.0543 355.279 61.6232 356.259C61.5296 356.277 61.4586 356.321 61.4064 356.391C61.3507 356.471 61.3259 356.569 61.3401 356.656C61.3792 356.825 61.5142 356.935 61.6849 356.935C67.8399 356.138 74.0696 354.895 80.2045 353.243C86.5408 351.54 92.7457 349.394 98.6448 346.862C102.084 345.381 105.589 343.67 109.059 341.773C110.802 340.828 112.443 339.808 113.957 338.845C114.744 338.347 115.516 337.825 116.276 337.286C116.637 337.038 116.98 336.777 117.317 336.511L117.484 336.374L117.693 336.206L118.227 338.912C119.726 346.257 121.041 352.702 122.205 358.527C123.53 365.147 124.933 372.317 126.374 379.836L126.219 379.919L125.222 380.656L124.004 381.567L123.389 382.03C122.039 383.045 120.793 383.93 119.687 384.659C117.985 385.781 116.291 386.814 114.653 387.728C112.883 388.714 111.043 389.657 109.182 390.527C105.647 392.191 101.801 393.733 97.7526 395.111C92.1521 396.995 86.2683 398.543 79.7649 399.841C74.0684 400.985 67.9584 401.891 61.6043 402.53C58.7359 402.826 55.8236 403.064 52.9458 403.238C51.2112 403.349 49.4613 403.44 47.703 403.504C47.5359 403.51 47.3594 403.61 47.3393 403.822C47.3357 403.909 47.3701 404.009 47.4352 404.086C47.5063 404.158 47.5786 404.192 47.6568 404.192C60.8247 403.693 72.5294 402.355 83.439 400.107C96.8131 397.337 108.107 393.357 117.964 387.937C119.733 386.969 121.528 385.894 123.301 384.742C124.233 384.146 125.144 383.522 126.009 382.889C126.31 382.666 126.606 382.433 126.898 382.195C132.143 410.061 137.154 438.517 142.001 466.035L142.254 467.466L142.286 467.668L142.407 468.335L142.689 469.946C144.94 482.728 147.742 498.636 150.511 514.036C151.866 521.561 153.223 529.086 154.624 536.603C154.797 537.495 155.553 538.141 156.423 538.141C156.512 538.141 156.604 538.132 156.692 538.122C157.185 538.044 157.631 537.764 157.918 537.359C158.199 536.979 158.31 536.523 158.23 536.073C155.34 520.769 153.038 508.415 150.987 497.194C149.501 489.092 148.025 480.99 146.553 472.893L143.897 458.314C139.349 433.374 134.431 406.704 129.277 380.641C126.652 367.42 123.966 354.384 121.292 341.889C118.606 329.446 115.784 316.953 113.124 305.223C110.166 292.265 107.812 282.184 105.715 273.499C108.314 272.767 111.181 271.691 114.474 270.222C117.34 268.951 120.283 267.456 123.221 265.78C125.74 264.347 128.415 262.685 131.64 260.551C134.399 258.732 137.156 256.81 139.833 254.838C143.888 251.854 148.008 248.685 151.552 245.948L152.931 244.877L153.325 244.571C156.8 241.884 159.931 239.473 163.066 237.179C163.135 237.122 163.174 237.05 163.177 236.969C163.192 236.874 163.16 236.769 163.097 236.695C163.021 236.62 162.935 236.581 162.847 236.581C162.77 236.581 162.685 236.611 162.612 236.662C159.436 238.989 156.231 241.397 152.672 244.078L148.793 246.991C143.179 251.2 138.525 254.507 134.146 257.398L133.733 257.692L133.567 257.797C132.189 258.679 130.3 259.886 128.375 261.026C126.344 262.22 124.246 263.382 122.137 264.479C117.565 266.839 113.39 268.632 109.37 269.964L109.509 270.014L108.139 270.357L107.241 270.631C106.621 270.818 105.995 270.993 105.371 271.166L105.215 271.207C101.54 256.346 98.6033 245.011 95.7041 234.463C95.0465 232.053 94.3712 229.641 93.6947 227.235C93.7741 227.251 93.844 227.259 93.9068 227.259C94.0395 227.259 94.1413 227.225 94.2397 227.175C95.8558 226.359 97.1673 225.65 98.3687 224.948C99.7147 224.161 101.104 223.293 102.503 222.367C105.141 220.631 107.807 218.679 110.653 216.396C111.982 215.331 113.296 214.241 114.605 213.148C115.804 212.143 117.061 211.035 118.448 209.762C121.157 207.259 123.495 204.937 125.594 202.666C128.657 199.356 131.227 196.146 133.45 192.852C133.502 192.779 133.521 192.688 133.504 192.599C133.486 192.505 133.432 192.421 133.349 192.365C133.298 192.324 133.235 192.304 133.157 192.304C133.034 192.304 132.923 192.364 132.856 192.469C131.219 194.882 129.337 197.29 127.104 199.829C124.184 203.122 120.989 206.257 117.609 209.146C116.784 209.854 115.937 210.55 115.095 211.241C114.193 211.977 113.281 212.696 112.36 213.404C110.477 214.848 108.585 216.135 106.821 217.311L106.714 217.379C104.617 218.754 102.395 220.14 100.107 221.501C99.0002 222.155 97.8806 222.79 96.7598 223.417L96.4553 223.587L96.1212 223.774L95.7835 223.957C94.9612 224.412 94.1437 224.863 93.312 225.297C93.248 225.329 93.1876 225.37 93.1331 225.409C89.4744 212.455 85.6724 200.217 81.4995 188.02C81.5327 187.895 81.5113 187.737 81.4438 187.602C81.4047 187.517 81.3467 187.437 81.2744 187.375L80.5872 185.373C79.31 181.68 77.9913 177.992 76.6691 174.412C76.6951 174.447 76.7662 174.454 76.8231 174.454C76.9629 174.454 77.0909 174.422 77.1773 174.365C80.0493 172.694 82.8988 170.484 85.8892 167.612C88.5479 165.061 90.9649 162.209 93.0738 159.133C93.1295 159.059 93.1544 158.955 93.1402 158.855C93.1212 158.756 93.0596 158.667 92.9684 158.605C92.8855 158.559 92.8215 158.539 92.7575 158.539C92.6283 158.539 92.5016 158.607 92.4293 158.717C91.5478 160.003 90.5099 161.326 89.2552 162.764C86.5728 165.795 83.5871 168.427 80.381 170.585L80.2649 170.673C78.951 171.511 77.6655 172.256 76.4428 172.886C76.3136 172.953 76.2058 173.048 76.1241 173.169C74.8563 169.56 73.2817 165.43 71.4654 160.893C69.9489 157.094 68.2724 153.057 66.4809 148.893C65.0165 145.495 63.282 141.633 61.1778 137.086C61.1019 136.918 60.9266 136.805 60.7406 136.805Z" fill="#4A740B"/>
<path d="M19.2742 314.675C19.1071 315.032 18.9827 315.416 18.8571 315.786C18.3441 317.392 17.9922 319.03 17.6771 320.475C17.266 322.378 16.9318 324.327 16.6084 326.213L16.5527 326.532L16.3821 327.53L15.3774 333.331C14.8584 336.345 14.3454 339.359 13.8407 342.378C13.6511 343.504 13.4568 344.629 13.2483 345.75C13.1286 346.418 13.003 347.086 12.836 347.744L12.6097 348.613C12.2163 350.082 11.823 351.555 11.4663 353.028C10.9711 355.105 10.541 357.141 10.1891 359.071C9.43441 363.249 8.98063 367.333 8.84201 371.207C8.76381 373.386 8.78632 375.531 8.91665 377.585C9.04579 379.511 9.2638 381.514 9.58725 383.71C9.74009 384.725 9.92017 385.723 10.1192 386.671C10.31 387.526 10.5363 388.377 10.7673 389.223L10.8467 389.525C11.3467 391.368 11.8644 393.038 12.4248 394.639C13.3964 397.407 14.7068 400.285 16.5527 403.693C17.946 406.277 19.6119 408.975 21.7872 412.178C23.6343 414.909 25.6662 417.595 27.5915 420.115L27.6887 420.247C29.6507 422.819 31.6175 425.399 33.538 428.002C35.7181 430.957 37.6019 433.752 39.295 436.547C40.0746 437.851 40.7641 439.068 41.3862 440.237C41.8719 440.853 42.3423 441.482 42.7984 442.12C42.6575 441.492 42.5259 440.862 42.4015 440.23C41.4288 435.229 40.9525 430.138 40.8696 425.046C40.7997 421.003 40.9525 416.954 41.3044 412.924C41.4798 410.878 41.7025 408.843 41.9797 406.808C42.2854 404.566 42.6421 402.329 43.0164 400.096C43.7712 395.637 44.5851 391.185 45.1266 386.698C45.3955 384.456 45.6041 382.21 45.6965 379.959C45.7427 378.783 45.7652 377.607 45.7522 376.427C45.7379 375.361 45.6917 374.286 45.6171 373.221V373.235C45.5389 372.196 45.437 371.157 45.2794 370.124C45.1503 369.263 44.9974 368.409 44.8079 367.557C44.424 365.829 43.9323 364.127 43.3494 362.457V362.462C43.3446 362.443 43.3363 362.424 43.3316 362.407C41.4655 357.168 38.7452 352.282 35.8247 347.557C34.0285 344.648 32.1589 341.784 30.326 338.898C28.5121 336.029 26.7254 333.138 25.1283 330.146C23.5738 327.245 22.1758 324.254 21.1071 321.143C20.5656 319.578 20.0976 317.987 19.7422 316.367C19.6071 315.736 19.4827 315.105 19.3761 314.469C19.3394 314.543 19.3062 314.61 19.2742 314.675Z" fill="#D73757"/>
<path d="M1.27722 419.432C1.89331 423.535 2.62434 427.625 3.61483 431.659C4.34586 434.596 5.21076 437.511 6.25694 440.36C6.72968 441.637 7.22493 442.899 7.79363 444.135C8.28414 445.191 8.80664 446.235 9.37653 447.25C9.37416 447.244 9.37179 447.237 9.36823 447.23C9.36349 447.221 9.35757 447.214 9.35283 447.204C9.35875 447.212 9.36349 447.221 9.36823 447.23C10.3777 449.019 11.5021 450.743 12.7556 452.378C13.9901 453.998 15.3325 455.534 16.7673 456.989L16.7116 456.934C18.586 458.829 20.6002 460.581 22.7245 462.186C24.8252 463.778 27.0277 465.232 29.2954 466.582C29.2931 466.581 29.2895 466.579 29.2859 466.578C32.3712 468.401 35.5701 470.021 38.839 471.491C40.4965 472.232 42.1671 472.94 43.8519 473.614C44.4218 473.84 44.9929 474.06 45.5687 474.273C45.5687 474.193 45.5675 474.114 45.564 474.034C45.5403 473.861 45.4715 473.7 45.3649 473.568L45.2725 473.43L45.263 473.439C43.8602 471.07 42.5273 468.416 41.0925 465.105C40.4823 463.696 39.9041 462.273 39.32 460.85C38.7146 459.381 38.1127 457.908 37.4789 456.444C36.0298 453.115 34.6555 450.447 33.1508 448.042C32.2953 446.678 31.3605 445.383 30.3783 444.19C29.3559 442.954 28.1853 441.747 26.8938 440.603C24.8346 438.769 22.5338 437.163 20.3075 435.608L19.7163 435.196C18.5635 434.387 17.3372 433.512 16.1524 432.606C14.9439 431.682 13.8006 430.708 12.7508 429.706C11.3386 428.347 10.0341 426.893 8.73792 425.251C7.63605 423.842 6.55314 422.268 5.43351 420.438C4.34586 418.618 3.30441 416.696 2.20729 414.491C1.44309 412.957 0.723914 411.404 0 409.85C0.402833 413.047 0.803295 416.244 1.27722 419.432Z" fill="#D73757"/>
<path d="M89.0272 511.349C88.9301 511.057 88.763 510.805 88.532 510.6C86.7571 508.576 84.9835 506.558 83.2158 504.532L83.2146 504.529C83.1518 504.459 83.089 504.386 83.025 504.315C82.9895 504.272 82.9539 504.231 82.9184 504.19C82.9148 504.186 82.9101 504.182 82.9065 504.178C82.8603 504.124 82.8118 504.07 82.7655 504.017C79.0773 499.777 75.4387 495.484 71.9684 491.066C68.478 486.619 65.1783 482.026 62.1701 477.246C59.1892 472.516 56.4546 467.625 53.886 462.667C53.1715 461.286 52.4761 459.896 51.7889 458.498C49.5223 453.851 47.4158 449.132 45.4253 444.364C43.3389 439.359 41.4681 434.272 39.6826 429.158C36.1234 418.961 33.2218 408.535 31.1804 397.932C31.1887 397.966 31.197 398 31.2041 398.036C31.1579 397.801 31.1141 397.566 31.0679 397.33C31.0276 397.113 30.9849 396.896 30.9423 396.679C29.8629 390.925 29.0193 385.121 28.2551 379.322C27.4874 373.485 26.7836 367.642 26.0384 361.806C24.5621 350.246 22.8868 338.69 20.0492 327.368C20.0172 327.234 19.8774 327.15 19.7423 327.15C19.708 327.15 19.6736 327.156 19.6428 327.167C19.4663 327.222 19.3976 327.4 19.439 327.57C20.2672 330.872 20.984 334.207 21.6274 337.551C21.625 337.544 21.6238 337.537 21.6214 337.53C22.7126 343.272 23.5787 349.056 24.3121 354.856C25.0526 360.685 25.6592 366.531 26.2931 372.372C27.5609 384.011 28.8108 395.676 31.12 407.167C32.2266 412.684 33.5725 418.156 35.0405 423.591C36.5073 429.024 38.1968 434.405 40.1316 439.693C41.1031 442.342 42.1031 444.981 43.1576 447.598C44.218 450.21 45.3424 452.794 46.5035 455.366C48.8269 460.512 51.373 465.563 54.104 470.507C55.8137 473.602 57.6323 476.641 59.5268 479.632C58.4226 479.1 57.3172 478.568 56.2236 478.015C53.3931 476.583 50.6396 475.025 47.9371 473.372C46.1563 472.266 44.4159 471.087 42.724 469.854C40.9183 468.536 39.1233 467.205 37.4149 465.769C35.7123 464.337 34.0915 462.818 32.4624 461.308C30.8487 459.808 29.312 458.232 27.8025 456.632C19.7577 448.067 13.1063 438.302 7.00334 428.325C6.39672 427.333 5.79603 426.34 5.20363 425.343C5.14202 425.242 5.02828 425.193 4.91335 425.193C4.83515 425.193 4.75577 425.216 4.69416 425.261C4.52237 425.38 4.50933 425.59 4.61123 425.759C7.68816 430.929 10.8492 436.048 14.2377 441.029C17.5054 445.837 20.9805 450.499 24.6877 454.991C26.6178 457.331 28.639 459.6 30.7266 461.812C30.716 461.8 30.7053 461.79 30.6947 461.78C32.6662 463.866 34.7396 465.842 36.8687 467.773C37.9291 468.733 38.9977 469.685 40.0854 470.614C41.1778 471.546 42.3069 472.434 43.4455 473.312C45.7452 475.083 48.1338 476.753 50.5958 478.294C53.1976 479.918 55.8634 481.432 58.6441 482.741C59.9628 483.361 61.3076 483.951 62.6808 484.453C64.6321 487.274 66.6818 490.03 68.7932 492.732C72.4661 497.44 76.3415 501.99 80.268 506.496C80.3391 506.599 80.422 506.695 80.5168 506.783C82.3911 508.931 84.275 511.071 86.1529 513.213C86.4444 513.542 87.019 513.685 87.4348 513.661C87.9076 513.634 88.3519 513.428 88.6659 513.08C88.9763 512.737 89.1433 512.275 89.1149 511.813C89.0877 511.656 89.0592 511.505 89.0272 511.349Z" fill="#BB304B"/>
<path d="M19.7717 487.13C20.3878 489.125 21.0027 491.119 21.5857 493.123C22.7574 497.185 23.5157 500.533 23.9742 503.653C24.2562 505.57 24.4872 507.497 24.7147 509.422C24.8344 510.42 24.9552 511.421 25.0796 512.424C25.5287 515.928 26.0192 518.745 26.6258 521.279C27.3853 524.445 28.3473 527.144 29.5783 529.532C30.2312 530.809 31.0037 532.048 31.8792 533.228C32.6565 534.276 33.5913 535.315 34.9017 536.6C36.9881 538.654 39.3067 540.516 41.7877 542.136C46.3978 545.136 51.7247 547.373 57.625 548.791C62.5312 549.962 67.9316 550.576 73.6897 550.612H74.2584C76.2098 550.612 78.2169 550.542 80.2701 550.406C82.039 550.182 83.8079 549.929 85.5603 549.606C85.9974 549.521 86.4335 549.433 86.8683 549.339C87.3244 549.21 87.7782 549.077 88.2308 548.937C88.6431 548.81 89.0507 548.687 89.4571 548.558C86.982 545.891 84.1681 543.559 81.3116 541.481C78.8732 539.83 76.3603 538.279 73.8236 536.77V536.774C72.8746 536.211 71.9303 535.658 70.973 535.1C68.1354 533.453 65.28 531.833 62.4566 530.149C61.0183 529.29 59.5835 528.421 58.1712 527.519C56.7553 526.619 55.3525 525.699 53.9924 524.728C51.3171 522.83 48.7579 520.781 46.3421 518.572C43.9772 516.408 41.732 514.111 39.6409 511.692C37.4976 509.216 35.4976 506.623 33.6422 503.933C32.8188 502.725 32.0178 501.503 31.2454 500.264C30.4669 499.015 29.7039 497.757 28.9445 496.499C27.3616 493.891 25.7834 491.275 24.0572 488.754C22.3724 486.293 20.5537 483.91 18.4578 481.769L18.5135 481.824C18.3559 481.663 18.1936 481.503 18.0312 481.344C18.6011 483.274 19.1793 485.204 19.7717 487.13Z" fill="#D73757"/>
<path d="M87.8938 557.77C86.7872 558.214 85.6675 558.617 84.5479 559.018C83.9733 559.22 83.4046 559.426 82.8347 559.637C82.2565 559.856 81.6831 560.081 81.1049 560.29C78.4201 561.269 75.6844 562.093 72.9309 562.839C70.2236 563.571 67.5022 564.243 64.7901 564.957C64.8138 564.952 64.8411 564.943 64.8648 564.938C63.3328 565.341 61.8044 565.752 60.2962 566.229C58.8851 566.676 57.4918 567.162 56.1126 567.698C53.4468 568.745 50.8592 569.961 48.3747 571.375L48.402 571.361C46.5276 572.436 44.7089 573.621 42.9921 574.934C41.3156 576.21 39.7292 577.597 38.2387 579.088L38.2944 579.033C37.4473 579.889 36.6369 580.78 35.8502 581.696C35.0172 582.665 34.2068 583.654 33.4201 584.66C29.0612 590.254 25.4049 596.325 21.5863 602.281C20.6243 603.786 19.6563 605.291 18.6291 606.76C17.5924 608.238 16.5094 609.692 15.3945 611.115C14.8401 611.818 14.2785 612.516 13.7109 613.209L16.9774 610.895L20.4252 608.457C22.674 606.87 24.7012 605.442 26.7698 604.056L26.8622 603.978L26.8717 603.988C30.5043 601.559 33.5777 599.697 36.5539 598.127C40.0894 596.261 43.8014 594.66 47.5868 593.369L47.4719 593.388C49.0216 592.889 50.614 592.404 52.345 591.929C53.5156 591.609 55.0522 591.178 56.5664 590.689C59.186 589.848 61.6753 588.877 63.9762 587.816C68.4002 585.762 72.348 583.172 75.7081 580.117C83.1723 573.339 87.6675 564.286 91.0655 556.268C90.0418 556.843 88.9791 557.333 87.8938 557.77Z" fill="#D73757"/>
<path d="M100.415 552.074C98.6608 550.835 96.7497 549.851 94.8102 548.932C92.8944 548.025 90.9229 547.238 88.9324 546.502C86.9431 545.77 84.9195 545.13 82.8887 544.507C80.8343 543.874 78.7751 543.266 76.7171 542.647C72.8653 541.48 69.0502 540.226 65.2968 538.776C61.7743 537.416 58.3929 535.71 55.1643 533.763C50.4488 530.852 46.052 527.385 42.2441 523.377C40.6529 521.679 39.1505 519.904 37.7963 518.007C36.3899 516.039 35.1388 513.949 34.0014 511.814C33.1625 510.225 32.3841 508.608 31.5808 507.001C30.7621 505.367 29.9932 503.706 29.2065 502.055C27.652 498.798 25.9992 495.573 24.0088 492.549C23.9507 492.46 23.8701 492.424 23.7884 492.424C23.5834 492.424 23.3784 492.662 23.5277 492.888C24.4057 494.237 25.2161 495.623 25.9732 497.043C25.9696 497.034 25.9649 497.026 25.9625 497.019C27.5407 500.001 28.9198 503.094 30.2432 506.195C30.9055 507.747 31.5714 509.292 32.2929 510.825C33.0061 512.34 33.7561 513.835 34.5571 515.308C36.1352 518.222 38.0463 520.934 40.1339 523.514C41.1564 524.786 42.2666 525.99 43.3921 527.179C44.5118 528.364 45.6871 529.494 46.9003 530.588C49.3244 532.769 51.9357 534.713 54.6608 536.521C57.4427 538.364 60.3952 539.938 63.4034 541.378C66.5882 542.911 69.9068 544.164 73.229 545.368C76.5429 546.566 79.884 547.696 83.2122 548.872C85.8081 549.791 88.4146 550.697 90.9833 551.69C91.5046 551.891 92.0212 552.11 92.5425 552.317C92.5093 552.35 92.4749 552.383 92.4418 552.417C91.8849 552.964 91.3269 553.507 90.7558 554.039C86.2334 558.09 80.7892 560.909 75.5726 563.969C73.1425 565.39 70.6758 566.75 68.2185 568.126C65.6404 569.568 63.0622 571.008 60.5125 572.496C57.8977 574.024 55.2828 575.556 52.7094 577.157C50.1218 578.762 47.5769 580.441 45.0817 582.184C42.6054 583.914 40.2038 585.743 37.8709 587.646C35.5985 589.495 33.4279 591.462 31.383 593.547C28.6662 596.32 26.1805 599.321 24.0384 602.551C23.9495 602.683 23.9412 602.853 24.0751 602.962C24.1865 603.059 24.4033 603.062 24.491 602.93C27.0584 599.067 30.21 595.624 33.6507 592.505C35.8307 590.546 38.0984 588.692 40.4538 586.947C42.8838 585.145 45.4193 583.47 47.988 581.864C53.1442 578.644 58.4948 575.748 63.8857 572.93C64.4698 572.628 65.048 572.321 65.6309 572.02C65.6096 572.031 65.5882 572.042 65.5681 572.054C68.0763 570.759 70.5976 569.487 73.1058 568.195C75.6792 566.878 78.2514 565.56 80.8532 564.303C83.6802 562.93 86.4941 561.507 89.1006 559.75C90.4383 558.85 91.6776 557.847 92.8624 556.763C93.905 555.811 94.8149 554.743 95.5661 553.558C96.5969 554.002 97.6276 554.447 98.6703 554.86C99.3693 555.135 100.166 554.992 100.651 554.399C100.929 554.068 101.062 553.634 101.021 553.209C100.984 552.793 100.766 552.321 100.415 552.074Z" fill="#BB304B"/>
<path d="M504.1 20.4639C507.179 12.69 506.622 5.34251 502.858 4.06732C499.093 2.79213 493.536 8.0677 490.457 15.8431C487.376 23.617 487.933 30.9645 491.697 32.2397C495.462 33.5149 501.022 28.2378 504.1 20.4639Z" fill="#FED300"/>
<path d="M508.787 26.4216C510.794 21.3497 506.443 15.2062 499.077 12.7116C491.709 10.2156 484.095 12.3066 482.086 17.3785C480.077 22.4505 484.429 28.5925 491.797 31.0885C499.164 33.5845 506.778 31.4936 508.787 26.4216Z" fill="#FED300"/>
<path d="M512.656 44.5599C516.248 35.4955 508.471 24.5142 495.3 20.0538C482.131 15.5934 468.524 19.3315 464.932 28.3959C461.34 37.4602 469.118 48.4416 482.288 52.9019C495.457 57.3623 509.065 53.6242 512.656 44.5599Z" fill="#FED300"/>
<path d="M522.066 74.5991C528.547 58.2408 514.512 38.4235 490.744 30.3727C466.977 22.3233 442.419 29.0695 435.938 45.4278C429.457 61.7875 443.491 81.6034 467.26 89.6542C491.028 97.705 515.585 90.9574 522.066 74.5991Z" fill="#FED300"/>
<path d="M504.078 4.8987C504.411 6.27949 504.304 7.73237 503.984 9.11027C503.642 10.5745 503.119 12.0042 502.444 13.3689C501.963 14.3422 501.433 15.2873 500.799 16.1824C501.382 16.5287 501.921 16.9296 502.43 17.3697C502.979 17.8501 503.486 18.3834 503.9 18.9667C504.289 19.5198 504.641 20.1109 504.884 20.7377C505.107 21.3385 505.279 21.9556 505.317 22.5958C505.333 22.919 505.349 23.2466 505.309 23.5714C505.279 23.8501 505.231 24.122 505.158 24.396C504.99 25.0128 504.721 25.6089 504.339 26.1404C503.916 26.7247 503.391 27.2589 502.795 27.6918C502.093 28.2002 501.327 28.6025 500.523 28.9351C501.185 29.2569 501.817 29.6388 502.364 30.1237C502.912 30.6099 503.419 31.1314 503.821 31.7314C504.255 32.3718 504.629 33.0479 504.881 33.7735C505.106 34.4363 505.286 35.1182 505.345 35.8199C505.409 36.5569 505.406 37.3136 505.267 38.0448C505.137 38.7181 504.939 39.3875 504.622 40.0101C504.458 40.3312 504.275 40.6543 504.059 40.9503C503.821 41.2736 503.563 41.5768 503.278 41.8615C503.008 42.1355 502.71 42.3925 502.388 42.6148C502.272 42.6936 502.157 42.7724 502.035 42.8454C503.488 43.8991 504.845 45.0709 505.985 46.4294C507.149 47.8093 508.126 49.3381 508.832 50.9695C509.644 52.8446 510.161 54.8096 510.48 56.8026C510.793 58.7795 510.945 60.7775 510.892 62.777C510.835 64.6836 510.63 66.5886 510.238 68.4593C509.864 70.2762 509.363 72.0702 508.718 73.8257C507.401 77.4038 505.595 80.822 503.459 84.0431C501.557 86.9085 499.423 89.6255 497.127 92.2247C509.28 90.0132 518.532 83.6253 522.108 74.6087C525.995 64.8026 522.581 53.2478 512.979 43.705C514.612 38.5954 512.814 32.811 508.042 27.843C508.365 27.4182 508.63 26.9375 508.827 26.4292C510.098 23.2056 508.805 19.329 505.443 16.3055C506.735 10.9739 506.138 6.49459 504.023 4.69786C504.042 4.76674 504.063 4.82967 504.078 4.8987Z" fill="#FEC400"/>
<path d="M468.115 29.0786C468.089 29.2877 468.25 29.45 468.462 29.4836C469.655 29.6967 470.829 29.9458 472.01 30.211C471.999 30.2098 471.986 30.2073 471.972 30.2047C473.807 30.6368 475.606 31.1645 477.409 31.6848C479.463 32.2833 481.459 33.0033 483.443 33.765C487.578 35.3484 491.671 37.0543 495.575 39.0835C499.432 41.1171 503.187 43.3649 506.391 46.2408C507.816 47.5791 509.072 49.0435 510.128 50.6542C510.153 50.6949 510.173 50.7371 510.197 50.7793C510.44 51.2332 510.774 51.5869 511.294 51.7799C511.772 51.9565 512.319 51.9522 512.796 51.7637C513.289 51.5763 513.682 51.2012 513.879 50.7387C514.06 50.3181 514.092 49.7571 513.869 49.3425C513.501 48.6661 513.135 48.0016 512.718 47.3444C512.326 46.7264 511.881 46.1396 511.416 45.5651C510.411 44.3238 509.205 43.2052 507.976 42.1627C505.396 39.9806 502.401 38.2675 499.321 36.7771C497.74 36.0094 496.093 35.3767 494.448 34.7498C492.771 34.1077 491.052 33.5569 489.323 33.0537C487.57 32.5408 485.799 32.1024 484.011 31.6926C482.335 31.3031 480.631 30.9957 478.943 30.642C475.506 29.9173 472.024 29.3564 468.559 28.7537C468.535 28.7499 468.511 28.7477 468.487 28.7484C468.303 28.7538 468.137 28.9095 468.115 29.0786ZM471.972 30.2047L471.892 30.1849C471.918 30.193 471.945 30.1996 471.972 30.2047Z" fill="#FEC400"/>
<path d="M482.99 19.4718C482.879 19.7174 483.018 19.9955 483.275 20.0988C484.488 20.5758 485.654 21.1134 486.818 21.6731C488.09 22.2888 489.352 22.9151 490.6 23.5655C490.555 23.5417 490.508 23.5165 490.461 23.4913C491.466 24.0188 492.46 24.5732 493.454 25.1262C494.482 25.6958 495.493 26.2897 496.488 26.9076C497.474 27.5303 498.426 28.2012 499.346 28.9011C500.293 29.6269 501.224 30.3694 502.103 31.1666C502.83 31.853 503.532 32.5668 504.208 33.3006C505.01 34.1843 505.745 35.1143 506.456 36.0569C506.903 36.6511 507.821 36.8368 508.521 36.562C508.958 36.394 509.308 36.0659 509.482 35.6559C509.633 35.2997 509.68 34.7796 509.471 34.4266C508.83 33.3431 508.106 32.3433 507.252 31.3931C506.41 30.4529 505.448 29.5872 504.448 28.7847C503.5 28.022 502.499 27.3127 501.454 26.6681C500.291 25.9413 499.067 25.3079 497.843 24.6687C496.728 24.0883 495.588 23.5574 494.43 23.0536C493.272 22.5513 492.086 22.1193 490.894 21.686C488.5 20.8107 486.039 20.1089 483.665 19.1976C483.598 19.1716 483.529 19.1603 483.459 19.1623C483.256 19.1683 483.064 19.2878 482.99 19.4718Z" fill="#FEC400"/>
<path d="M494.321 12.4921C494.135 12.9247 494.379 13.3904 494.825 13.5738C495.504 13.8478 496.158 14.1522 496.801 14.4849C496.751 14.4598 496.702 14.4317 496.654 14.4036C500.082 16.231 503.117 18.6243 506.02 21.0953C506.269 21.3066 506.693 21.3754 507.02 21.3303C507.374 21.2859 507.698 21.1093 507.914 20.8429C508.129 20.5764 508.225 20.2396 508.171 19.9117C508.124 19.5554 507.925 19.3248 507.651 19.0847C505.892 17.5597 503.976 16.2019 501.935 15.0207C500.905 14.4216 499.852 13.8645 498.756 13.3766C497.686 12.8894 496.587 12.4489 495.487 12.0247C495.375 11.9807 495.255 11.9621 495.137 11.9656C494.789 11.9758 494.457 12.1822 494.321 12.4921Z" fill="#FEC400"/>
<path d="M464.787 31.0574C463.048 31.2698 461.305 31.5472 459.596 31.9434C457.813 32.3477 456.078 32.9368 454.411 33.6613C452.699 34.4034 451.125 35.3631 449.641 36.4339C448.132 37.5232 446.764 38.7635 445.569 40.145C445.426 40.3562 445.347 40.5846 445.329 40.8334C445.308 41.2079 445.451 41.5791 445.72 41.8549C445.989 42.1292 446.372 42.3026 446.77 42.3204C447.136 42.3377 447.611 42.2203 447.871 41.9525C448.943 40.848 450.036 39.771 451.231 38.7708C452.344 37.8424 453.547 37.006 454.772 36.2117C456.837 34.9124 459.052 33.8112 461.398 33.0194C462.595 32.6368 463.799 32.3722 465.046 32.2158C465.385 32.1718 465.605 31.8121 465.54 31.514C465.469 31.2087 465.188 31.0412 464.873 31.0504C464.844 31.0513 464.818 31.0536 464.787 31.0574Z" fill="#FEFEFE"/>
<path d="M479.139 21.0479C477.926 21.4353 476.76 21.9027 475.64 22.484C474.435 23.1033 473.335 23.8968 472.322 24.7587C471.94 25.0817 471.907 25.6428 472.253 25.9961C472.418 26.1642 472.652 26.2666 472.9 26.277C473.118 26.2869 473.426 26.2201 473.577 26.0546C474.396 25.1689 475.327 24.4011 476.347 23.7163C477.253 23.1414 478.207 22.6655 479.235 22.3071C479.208 22.3153 479.184 22.3219 479.157 22.3286C479.2 22.3155 479.246 22.3009 479.288 22.2878C479.299 22.2845 479.309 22.2813 479.318 22.278C479.312 22.2797 479.304 22.2829 479.298 22.286C479.332 22.2747 479.37 22.2632 479.403 22.2519C479.583 22.1949 479.722 22.1331 479.825 21.9794C479.919 21.8436 479.953 21.6815 479.916 21.5215C479.881 21.36 479.777 21.2197 479.625 21.1311C479.528 21.0719 479.382 21.0274 479.25 21.0313C479.212 21.0309 479.174 21.038 479.139 21.0479ZM479.288 22.2878C479.269 22.2942 479.254 22.3006 479.235 22.3071C479.255 22.3006 479.277 22.2925 479.298 22.286L479.288 22.2878Z" fill="#FEFEFE"/>
<path d="M347.813 38.1346C336.342 39.4083 325.355 41.5159 315.166 44.3966C304.701 47.3548 295.1 51.2511 286.636 55.9681C282.591 58.2243 278.601 60.8764 274.775 63.8399C272.23 65.8257 269.785 68.011 267.518 70.3463C267.018 70.8635 266.518 71.3866 266.029 71.9138C265.379 72.6202 264.748 73.3378 264.143 74.0709C262.695 75.7761 261.327 77.6061 260.071 79.5081C259.995 79.6197 259.958 79.6725 259.93 79.725C259.061 81.0497 258.262 82.384 257.525 83.7269C256.941 84.7786 256.396 85.8794 255.875 87.0031C255.295 88.5734 254.739 90.1533 254.251 91.7504C254.252 91.7622 254.246 91.7786 254.24 91.7906L254.239 91.7773C254.235 91.7952 254.231 91.8116 254.226 91.8295C254.227 91.8324 254.225 91.8369 254.224 91.8399C254.036 92.6109 253.871 93.3872 253.738 94.1669C253.654 94.6453 253.574 95.1235 253.509 95.6042C253.649 95.711 253.808 95.789 253.98 95.8283C254.085 95.8473 254.19 95.862 254.297 95.8588C254.489 95.8532 254.661 95.8082 254.827 95.722C254.904 95.8069 255.018 95.8775 255.163 95.9486C271.608 104.186 290.66 111.47 315.112 118.859C328.334 122.851 341.912 126.514 355.041 130.052C362.478 132.062 370.172 134.133 377.712 136.248C383.086 137.746 388.442 139.315 393.435 140.79C399.243 142.494 405.05 144.188 410.869 145.864C421.437 148.911 432.867 152.153 445.805 155.772C470.24 162.603 494.771 169.269 515.85 174.986C525.436 177.584 535.021 180.181 544.607 182.785C548.502 183.842 552.389 184.899 556.271 185.962C561.782 187.468 567.291 188.974 572.807 190.462C580.131 192.435 589.808 194.967 599.634 197.084C604.34 198.094 609.1 199.004 613.793 199.778C616.09 200.161 618.391 200.496 620.692 200.815C621.415 200.915 622.14 201.003 622.863 201.097C624.671 201.328 626.546 201.566 628.364 201.918C628.44 201.932 628.521 201.935 628.6 201.933C628.781 201.928 628.953 201.883 629.125 201.79C629.331 201.848 629.444 201.856 629.549 201.853C629.636 201.851 629.717 201.837 629.802 201.816C630.069 201.174 630.337 200.525 630.591 199.872C630.585 199.878 630.585 199.882 630.579 199.889C631.017 198.745 631.424 197.589 631.807 196.43C632.061 195.62 632.3 194.804 632.517 193.984C632.523 193.973 632.523 193.961 632.529 193.955C632.583 193.67 632.63 193.386 632.678 193.109L632.711 192.933C632.736 192.76 632.763 192.609 632.789 192.458C632.789 192.458 632.816 192.29 632.816 192.284L632.846 192.075L632.873 191.895L632.908 191.646C632.949 191.357 632.98 191.113 633.01 190.87L633.017 190.691L633.03 190.695L633.055 190.533C633.091 190.232 633.125 189.937 633.153 189.642C633.331 187.824 633.428 186.252 633.452 184.761L633.461 184.253L633.462 183.837L633.448 183.572L633.46 183.571L633.459 183.311L633.458 183.047C633.456 182.769 633.449 182.533 633.442 182.302C633.436 182.082 633.433 181.973 633.423 181.87L633.412 181.501C633.313 179.569 633.147 177.757 632.916 176.019L632.731 174.784L632.671 174.428C632.278 172.038 631.734 169.583 631.059 167.12C630.398 164.681 629.515 162.104 628.368 159.24C626.669 155.076 624.589 150.894 622.15 146.723C619.732 142.586 616.838 138.371 613.295 133.827C607.43 126.305 600.459 119.024 591.991 111.567C584.659 105.105 576.458 98.8816 566.919 92.5408C558.203 86.7536 548.554 81.1446 538.232 75.8672C519.782 66.436 499.435 58.3657 477.76 51.8802C456.763 45.6009 435.273 41.1671 413.891 38.6971C398.485 36.9228 383.409 36.2353 369.081 36.6578C361.926 36.8688 354.773 37.3634 347.813 38.1346ZM580.256 190.128L580.124 190.068C580.412 190.147 580.699 190.23 580.988 190.308C580.8 190.256 580.607 190.209 580.419 190.157C580.387 190.153 580.355 190.142 580.331 190.137L580.325 190.131C580.305 190.126 580.288 190.121 580.269 190.121L580.305 190.132L580.256 190.128Z" fill="#F29F05"/>
<path d="M254.236 91.7501C254.236 91.7529 254.235 91.7558 254.235 91.7586C254.236 91.7529 254.236 91.7501 254.24 91.7457L254.24 91.7401C254.237 91.743 254.238 91.7472 254.236 91.7501Z" fill="#F29F05"/>
<path d="M340.71 55.4488L340.697 55.4491C293.198 56.8496 261.8 69.9318 254.557 91.3415C248.026 110.611 261.454 134.385 292.367 158.286C323.266 182.175 367.915 203.309 418.088 217.792C462.092 230.503 506.929 236.896 544.337 235.793C591.845 234.393 623.249 221.31 630.492 199.901C637.023 180.631 623.595 156.856 592.682 132.956C561.781 109.066 517.133 87.9326 466.959 73.4502C422.961 60.7378 378.125 54.3456 340.71 55.4488Z" fill="#542C21"/>
<path d="M297.912 60.8852C307.392 62.846 316.76 65.2594 325.99 68.0463C344.577 73.6519 362.615 80.6997 380.259 88.47C397.926 96.244 415.224 104.716 432.469 113.271C433.042 113.554 433.139 114.336 432.805 114.802C432.632 115.044 432.364 115.213 432.062 115.275C431.728 115.349 431.446 115.264 431.149 115.122C414.952 107.086 398.707 99.119 382.143 91.7395C382.15 91.7393 382.156 91.7451 382.161 91.7449C369.204 85.9896 356.059 80.5812 342.628 75.8463C326.531 70.1732 310.02 65.4404 293.148 62.1857C272.902 68.1456 259.127 77.9447 254.587 91.3433C253.685 94.0078 253.175 96.742 253.032 99.5348C257.349 99.3204 261.668 99.1472 265.987 99.0199C270.454 98.8882 274.925 98.8022 279.395 98.7753C305.042 98.5955 330.712 100.079 356.058 103.656C381.267 107.213 406.113 112.582 431.192 116.801C431.087 116.782 430.981 116.767 430.881 116.746C431.13 116.791 431.381 116.831 431.636 116.875C431.967 116.929 432.236 116.996 432.466 117.242C432.671 117.456 432.78 117.741 432.769 118.03C432.754 118.326 432.606 118.612 432.37 118.81C432.164 118.977 431.801 119.138 431.52 119.089C411.81 115.797 392.258 111.771 372.558 108.451L372.571 108.451C372.509 108.441 372.445 108.431 372.389 108.42C372.346 108.417 372.296 108.407 372.252 108.396C372.264 108.396 372.284 108.401 372.296 108.401C362.179 106.707 352.028 105.211 341.816 104.092C331.473 102.96 321.089 102.135 310.683 101.627C291.47 100.694 272.214 100.817 252.992 101.753C253.289 118.427 266.296 137.14 288.578 155.232C299.251 150.467 310.281 146.4 321.508 142.923C340.355 137.086 359.726 132.832 379.227 129.411C398.575 126.012 418.07 123.423 437.568 120.919C437.6 120.918 437.636 120.911 437.668 120.91C438.268 120.893 438.794 121.409 438.834 121.95C438.871 122.585 438.357 123.043 437.714 123.131C435.114 123.462 432.517 123.799 429.924 124.136C410.365 126.687 390.83 129.416 371.472 133.057C371.514 133.05 371.565 133.043 371.608 133.036C361.255 134.992 350.948 137.206 340.751 139.811C323.571 144.208 306.663 149.699 290.537 156.802C301.199 165.24 313.871 173.53 328.187 181.391C332.524 178.037 336.977 174.812 341.526 171.716C356.365 161.621 372.207 152.829 388.588 145.09C404.841 137.419 421.601 130.741 438.697 124.88C438.807 124.843 438.924 124.822 439.042 124.818C439.545 124.804 440.039 125.113 440.207 125.564C440.423 126.146 440.075 126.768 439.466 126.977C422.992 132.617 406.813 139.035 391.115 146.367C391.134 146.354 391.153 146.343 391.165 146.337C391.066 146.38 390.975 146.428 390.877 146.473C382.668 150.334 374.594 154.433 366.712 158.851C354.019 165.945 341.792 173.81 330.365 182.58C345.41 190.698 362.218 198.348 380.393 205.229C381.08 203.645 381.785 202.065 382.522 200.502C389.572 185.465 398.714 171.231 409.5 158.243C420.072 145.519 432.32 133.861 446.36 124.43C446.537 124.309 446.74 124.252 446.945 124.246C447.361 124.233 447.788 124.428 448.009 124.756C448.373 125.288 448.174 125.935 447.644 126.291C444.653 128.296 441.753 130.407 438.923 132.61C438.936 132.598 438.953 132.585 438.965 132.573C438.94 132.592 438.911 132.616 438.88 132.639C438.898 132.627 438.911 132.616 438.923 132.61C438.898 132.627 438.88 132.639 438.856 132.658C438.832 132.676 438.813 132.693 438.79 132.711C438.783 132.718 438.777 132.724 438.771 132.724C438.759 132.736 438.752 132.742 438.741 132.748C438.742 132.753 438.735 132.753 438.729 132.759L438.741 132.748L438.752 132.736C425.773 142.955 414.48 154.983 404.792 167.958C404.852 167.874 404.912 167.799 404.971 167.716C404.463 168.394 403.962 169.079 403.459 169.769C395.203 181.153 388.101 193.312 382.592 206.054C393.939 210.28 405.806 214.207 418.102 217.759C427.595 220.5 437.014 222.922 446.309 225.031C450.107 209.866 452.69 194.43 453.962 178.914C453.962 178.915 453.961 178.918 453.959 178.921C453.96 178.93 453.958 178.939 453.957 178.948C453.957 178.939 453.958 178.93 453.959 178.921C453.962 178.892 453.964 178.864 453.966 178.834C453.969 178.776 453.974 178.719 453.98 178.659L453.98 178.661C455.223 162.831 455.125 146.86 452.842 131.131C452.756 130.528 453.362 129.99 453.968 129.956L453.994 129.955C454.299 129.946 454.612 130.052 454.84 130.242C455.083 130.447 455.183 130.704 455.223 130.997C455.908 135.711 456.395 140.453 456.708 145.207C457.255 153.71 457.276 162.243 456.86 170.752C456.425 179.463 455.569 188.155 454.307 196.799C452.898 206.453 451.015 216.058 448.633 225.554C468.072 229.868 486.93 232.808 504.687 234.417C503.309 228.316 501.766 222.254 500.042 216.227C500.071 216.323 500.097 216.42 500.125 216.512C497.947 208.91 495.508 201.374 492.762 193.933C487.277 179.08 480.659 164.525 472.18 150.933C468.225 144.619 463.86 138.531 458.93 132.851C458.518 132.378 458.641 131.659 459.145 131.291C459.352 131.148 459.585 131.077 459.822 131.07C460.194 131.059 460.57 131.209 460.822 131.49C467.217 138.859 472.677 146.906 477.499 155.239C485.539 169.156 491.872 183.914 497.065 198.955C501.104 210.664 504.483 222.583 507.166 234.632C536.973 237.136 563.581 235.849 584.493 230.984C582.51 228.786 580.514 226.594 578.5 224.413C578.474 224.39 578.448 224.369 578.43 224.34C578.236 224.133 578.044 223.924 577.852 223.723C577.538 223.373 577.216 223.031 576.896 222.688C576.261 222.002 575.621 221.318 574.979 220.638C572.35 217.841 569.697 215.055 567.02 212.3C553.944 198.843 540.217 185.913 525.653 173.839C522.348 171.102 519.049 168.365 515.759 165.615C512.416 162.834 509.067 160.057 505.671 157.334C498.891 151.901 491.93 146.65 484.52 141.974C484.463 141.94 484.399 141.902 484.335 141.864C484.361 141.879 484.387 141.89 484.411 141.907C484.361 141.875 484.317 141.847 484.266 141.814C484.291 141.83 484.311 141.847 484.335 141.864C478.325 138.115 472.016 134.757 465.331 132.143C464.728 131.907 464.527 131.168 464.803 130.657C464.938 130.405 465.151 130.238 465.397 130.143C465.091 130.089 464.791 130.04 464.486 129.985C463.848 129.877 463.451 129.225 463.596 128.661C463.722 128.137 464.211 127.823 464.751 127.807C464.837 127.804 464.931 127.807 465.025 127.822C465.611 127.92 466.191 128.018 466.772 128.122C476.706 129.903 486.408 132.676 495.871 135.958C505.572 139.327 515.051 143.185 524.433 147.245C533.566 151.19 542.619 155.305 551.742 159.289C561.204 163.421 570.631 167.628 579.97 171.995C597.363 180.135 614.475 188.826 630.879 198.577C636.772 178.17 620.441 153.541 589.261 130.394C588.679 130.296 588.105 130.196 587.532 130.104C577.583 128.464 567.558 127.189 557.5 126.279C557.095 126.244 556.69 126.204 556.286 126.17L556.281 126.171C556.187 126.173 556.087 126.164 555.994 126.145C555.688 126.119 555.383 126.094 555.085 126.067C554.481 126.015 553.871 125.965 553.267 125.919C552.052 125.822 550.844 125.725 549.632 125.639C544.558 125.281 539.483 124.997 534.402 124.807C525.865 124.487 517.332 123.976 508.788 123.819C500.001 123.651 491.149 123.814 482.454 125.132L482.752 125.089C478.639 125.724 474.579 126.629 470.663 127.98C470.054 128.188 469.358 127.786 469.182 127.237C468.989 126.631 469.376 126.065 469.985 125.857C474.873 124.173 480 123.166 485.154 122.535C489.289 122.026 493.442 121.754 497.606 121.632C498.983 121.591 500.368 121.568 501.747 121.555C510.453 121.489 519.149 121.948 527.845 122.339C532.448 122.537 537.047 122.68 541.651 122.931C546.534 123.19 551.414 123.537 556.289 123.959C556.347 123.964 556.402 123.968 556.465 123.978C556.582 123.985 556.7 123.993 556.825 124.007C566.353 124.852 575.84 126.009 585.269 127.499C572.233 118.242 556.841 109.263 539.577 100.934C525.797 103.488 512.051 106.295 498.673 110.356C498.773 110.323 498.877 110.29 498.974 110.259C488.627 113.417 478.543 117.339 469.056 122.352C468.494 122.651 467.733 122.351 467.47 121.833C467.173 121.264 467.467 120.655 468.029 120.356C476.256 116.009 484.946 112.463 493.867 109.556C507.661 105.062 521.888 102.016 536.183 99.3143C523.569 93.376 510.006 87.7908 495.657 82.6883C485.351 93.8053 475.455 105.238 465.955 116.954C465.565 117.438 464.727 117.423 464.274 117.049C464.039 116.855 463.894 116.575 463.879 116.288C463.857 115.977 463.981 115.731 464.178 115.482C473.493 103.991 483.196 92.7664 493.293 81.8581C484.883 78.9199 476.212 76.1445 467.323 73.5722C463.58 86.1508 459.68 98.6897 456.257 111.346C456.099 111.933 455.439 112.3 454.808 112.156C454.182 112.013 453.786 111.401 453.948 110.814C457.384 98.116 461.294 85.5369 465.043 72.9241C448.927 68.3304 433.032 64.6657 417.621 61.8866C419.227 63.6703 420.777 65.494 422.284 67.35C433.04 80.6213 441.317 95.4154 449.488 110.143C449.789 110.677 449.678 111.332 449.092 111.667C448.566 111.964 447.755 111.839 447.455 111.306C446.634 109.822 445.808 108.341 444.982 106.858C436.781 92.1664 428.209 77.514 416.968 64.6088C416.982 64.6305 417.001 64.6477 417.013 64.671C415.991 63.5056 414.951 62.3584 413.894 61.2354C393.613 57.7517 374.24 55.8358 356.402 55.4262C370.302 61.7641 383.614 69.2113 396.253 77.5031C411.325 87.3856 425.505 98.4323 438.513 110.588C438.968 111.012 439.018 111.704 438.559 112.156C438.132 112.584 437.332 112.637 436.879 112.206C424.565 100.7 411.201 90.166 397.011 80.7023C397.069 80.7405 397.126 80.7743 397.183 80.8125C393.306 78.2372 389.37 75.7317 385.374 73.321C374.27 66.617 362.701 60.5562 350.704 55.346C347.312 55.3307 343.985 55.3712 340.714 55.4676C324.698 55.9398 310.248 57.7624 297.912 60.8852ZM417.013 64.671L417.167 64.8393C417.11 64.7834 417.065 64.7271 417.013 64.671ZM371.78 133.001C371.725 133.014 371.663 133.028 371.608 133.036C371.663 133.022 371.725 133.014 371.78 133.001Z" fill="#D73757"/>
<path d="M438.745 132.736L438.762 132.728C438.768 132.722 438.776 132.716 438.781 132.712C438.802 132.694 438.825 132.677 438.847 132.66C438.855 132.654 438.864 132.647 438.873 132.641C438.829 132.673 438.787 132.704 438.745 132.736Z" fill="#D73757"/>
<path d="M473.27 133.151C481.227 136.98 488.645 141.715 495.7 146.823C502.833 151.987 509.623 157.537 516.352 163.134C519.612 165.85 522.865 168.576 526.137 171.274C529.803 174.295 533.415 177.363 536.971 180.485C544.067 186.706 550.97 193.119 557.689 199.686C565.414 207.246 572.908 215.002 580.22 222.909C580.29 222.964 580.349 223.032 580.394 223.1C582.622 225.511 584.835 227.938 587.032 230.376C609.466 224.717 624.929 214.762 630.155 200.783C622.69 196.332 615.081 192.094 607.359 188.044C589.148 178.484 570.376 169.895 551.455 161.62C542.333 157.628 533.268 153.526 524.134 149.564C514.856 145.549 505.487 141.692 495.906 138.325C495.906 138.327 495.906 138.327 495.907 138.327C495.906 138.327 495.903 138.326 495.903 138.326C486.539 135.067 476.96 132.274 467.141 130.459C469.218 131.29 471.263 132.188 473.27 133.151Z" fill="#D73757"/>
<path d="M447.458 133.733C461.781 138.635 475.797 136.655 478.733 129.317C481.67 121.979 472.427 112.04 458.101 107.138C443.778 102.237 429.763 104.215 426.826 111.553C423.888 118.893 433.133 128.831 447.458 133.733Z" fill="#F29F05"/>
<path d="M426.796 111.55C426.426 112.475 426.245 113.449 426.249 114.458C426.374 114.339 426.504 114.223 426.636 114.111C427.539 113.357 428.551 112.71 429.648 112.211C430.812 111.686 432.03 111.262 433.283 110.965C435.275 110.497 437.329 110.252 439.383 110.191C439.906 110.176 440.433 110.172 440.955 110.179C443.583 110.224 446.212 110.504 448.786 111.005C451.11 111.457 453.395 112.053 455.616 112.807C457.766 113.541 459.885 114.39 461.909 115.393C464.095 116.477 466.206 117.701 468.154 119.122C470.008 120.476 471.766 121.965 473.25 123.677C474.002 124.549 474.712 125.452 475.299 126.427C475.829 127.301 476.302 128.211 476.629 129.159C476.825 129.737 477.003 130.326 477.095 130.923C477.139 131.203 477.182 131.484 477.209 131.763C477.884 131.024 478.409 130.21 478.763 129.327C480.187 125.775 478.82 121.503 474.908 117.302C471.008 113.104 465.04 109.487 458.113 107.117C452.554 105.215 446.893 104.283 441.736 104.436C434.073 104.661 428.487 107.321 426.796 111.55Z" fill="#F28D00"/>
<path d="M446.234 119.91C445.102 119.943 444.036 120.085 443.069 120.333C442.812 120.395 442.576 120.55 442.408 120.767C442.214 120.9 442.08 121.081 441.964 121.373C441.913 121.508 441.855 121.647 441.797 121.781C439.272 127.819 436.8 133.745 434.332 139.672L434.141 140.131C418.751 177.032 403.361 213.934 387.963 250.835L360.163 317.488L332.832 383.016L306.47 446.216L280.108 509.416L276.623 517.77L273.137 526.125C273.026 526.406 273.114 526.758 273.25 526.984C273.283 527.034 273.316 527.082 273.356 527.127C273.894 528.027 274.43 528.749 275.03 529.403C275.68 530.114 276.466 530.824 277.431 531.576C279.056 532.837 281.026 533.956 283.284 534.897C285.435 535.788 287.639 536.347 289.834 536.558C290.507 536.623 291.177 536.646 291.827 536.627C293.333 536.582 294.742 536.315 296.013 535.834C296.497 535.654 296.801 535.181 296.753 534.682L317.25 483.487L338.197 431.175L350.699 399.954L393.7 292.559L420.587 225.411L447.472 158.265L452.412 145.932L455.356 138.585L459.082 129.279L459.71 127.71L460.084 126.778C460.251 126.367 460.226 126.004 460.044 125.693C458.686 123.431 456.12 121.746 452.418 120.687C450.936 120.262 449.284 120.003 447.509 119.919C447.085 119.896 446.662 119.897 446.234 119.91Z" fill="#542C21"/>
<path d="M397.533 232.891C396.781 232.95 396.037 233.049 395.293 233.186C394.461 235.179 393.629 237.174 392.797 239.167C392.978 239.133 393.156 239.099 393.335 239.071C394.101 238.95 394.87 238.875 395.645 238.852C396.006 238.842 396.372 238.843 396.733 238.856C397.933 238.894 399.123 239.022 400.297 239.263C401.415 239.491 402.525 239.793 403.598 240.171C404.777 240.591 405.935 241.089 407.032 241.675C408.024 242.206 408.979 242.789 409.879 243.438C410.813 244.12 411.698 244.862 412.498 245.669L415.059 239.269C414.605 238.837 414.128 238.421 413.633 238.028C412.896 237.444 412.134 236.9 411.324 236.398C411.316 236.392 411.305 236.385 411.294 236.38C411.303 236.385 411.311 236.391 411.318 236.398C411.302 236.388 411.282 236.377 411.263 236.361C410.397 235.837 409.502 235.357 408.567 234.938C407.606 234.511 406.612 234.135 405.598 233.825C405.635 233.836 405.667 233.847 405.704 233.856C404.764 233.572 403.808 233.336 402.833 233.168C401.895 233.01 400.942 232.902 399.982 232.853C399.958 232.852 399.936 232.852 399.911 232.851L399.93 232.85C399.419 232.836 398.91 232.83 398.398 232.845C398.111 232.854 397.823 232.868 397.533 232.891Z" fill="#FED300"/>
<path d="M372.564 288.476C372.451 288.486 372.335 288.496 372.223 288.507L370.204 293.349C370.562 293.315 370.923 293.294 371.282 293.283C371.437 293.278 371.593 293.274 371.747 293.274C373.127 293.274 374.509 293.383 375.863 293.627C377.188 293.858 378.489 294.183 379.756 294.608C381.141 295.064 382.486 295.613 383.779 296.268C384.946 296.863 386.084 297.528 387.155 298.27C388.309 299.078 389.397 299.969 390.371 300.957L392.581 295.432C391.501 294.541 390.351 293.726 389.149 292.981C389.148 292.978 389.141 292.975 389.141 292.975L389.137 292.975C389.13 292.971 389.124 292.967 389.117 292.963C389.104 292.956 389.093 292.948 389.085 292.941C389.077 292.936 389.068 292.93 389.06 292.926C389.067 292.926 389.067 292.931 389.073 292.931C387.879 292.216 386.635 291.553 385.345 290.98C384.087 290.429 382.805 289.946 381.49 289.54C381.52 289.551 381.552 289.562 381.589 289.573C380.511 289.257 379.424 288.979 378.311 288.792C377.22 288.605 376.122 288.475 375.016 288.428C375.052 288.427 375.084 288.432 375.121 288.43C374.604 288.41 374.083 288.405 373.564 288.42C373.232 288.43 372.897 288.449 372.564 288.476Z" fill="#FED300"/>
<path d="M389.133 292.976L389.137 292.976L389.125 292.969L389.133 292.976Z" fill="#FED300"/>
<path d="M389.133 292.973C389.135 292.973 389.135 292.973 389.138 292.977C389.138 292.973 389.136 292.973 389.133 292.973Z" fill="#FED300"/>
<path d="M342.686 362.221C342.262 362.253 341.841 362.298 341.419 362.355L338.992 368.178C339.425 368.141 339.866 368.116 340.3 368.104C341.013 368.083 341.729 368.097 342.444 368.139C345.256 368.321 348.027 368.944 350.627 369.941C354.239 371.318 357.609 373.361 360.331 375.976L363.056 369.171C362.097 368.393 361.071 367.686 360.009 367.033L360.02 367.043C357.473 365.508 354.716 364.296 351.827 363.418C351.859 363.428 351.896 363.438 351.928 363.449C349.628 362.766 347.261 362.305 344.848 362.197L344.867 362.197C344.375 362.176 343.885 362.171 343.396 362.185C343.159 362.192 342.922 362.204 342.686 362.221Z" fill="#FED300"/>
<path d="M351.264 48.3502C349.332 48.4071 347.874 48.9142 346.679 49.944C346.533 50.0694 346.393 50.2006 346.259 50.345C345.192 49.4159 343.825 48.9271 342.432 48.9682C340.589 49.0226 339.189 49.4835 338.022 50.4179C336.943 49.535 335.646 49.087 334.287 49.1271C332.354 49.1841 330.898 49.691 329.702 50.7209C329.364 51.0131 329.057 51.3428 328.79 51.7039C327.679 50.6564 326.237 50.1033 324.752 50.1471C322.82 50.2041 321.362 50.7111 320.167 51.7409C320.015 51.8799 319.863 52.0173 319.724 52.1663C318.775 51.5322 317.661 51.2177 316.524 51.2513C314.59 51.3083 313.134 51.8138 311.939 52.8436C311.805 52.9583 311.679 53.0833 311.55 53.2082C310.588 52.542 309.451 52.2091 308.28 52.2436C306.346 52.3006 304.891 52.8076 303.693 53.8374C303.174 54.2902 302.741 54.8157 302.408 55.3974C301.378 54.6061 300.15 54.2094 298.878 54.2469C296.946 54.3038 295.49 54.8108 294.293 55.8407C294.026 56.0746 293.778 56.3258 293.557 56.5983C292.831 56.265 292.043 56.1109 291.233 56.1348C289.299 56.1918 287.843 56.6988 286.646 57.7286C286.257 58.0667 285.904 58.4599 285.604 58.8943C285.053 58.7007 284.454 58.6149 283.839 58.6331C281.907 58.69 280.451 59.197 279.254 60.2268C278.632 60.7683 278.136 61.4081 277.779 62.128C277.453 62.0459 277.065 62.0145 276.672 62.0261C274.74 62.0831 273.283 62.5901 272.087 63.6184C271.183 64.4032 270.541 65.4048 270.235 66.5148C270.18 66.4913 270.085 66.4853 269.971 66.4886C268.039 66.5456 266.581 67.0526 265.385 68.0824C264.292 69.0235 263.582 70.3006 263.386 71.6778C261.828 71.7991 260.553 72.3007 259.505 73.2035C258.267 74.2745 257.519 75.7832 257.452 77.3442C256.207 77.6529 255.23 78.1368 254.391 78.8547C253.152 79.9271 252.405 81.4359 252.339 82.9954C252.321 83.5235 252.381 84.0419 252.516 84.536C251.824 84.7544 251.194 85.1188 250.602 85.6283C249.364 86.6993 248.615 88.2095 248.55 89.7691C248.486 91.3803 249.222 93.0669 250.518 94.2833C251.694 95.3792 253.175 95.9577 254.691 95.913C256.622 95.856 258.078 95.3506 259.274 94.3193C260.513 93.2498 261.261 91.7396 261.326 90.18C261.344 89.6534 261.285 89.135 261.151 88.6394C261.843 88.421 262.471 88.0581 263.064 87.5471C264.301 86.4761 265.05 84.9674 265.116 83.4063C266.361 83.0977 267.338 82.6138 268.177 81.8944C269.27 80.9534 269.98 79.6778 270.177 78.2991C271.736 78.1792 273.011 77.6761 274.058 76.7734C274.962 75.9901 275.603 74.9899 275.91 73.8784C275.964 73.9019 276.06 73.9065 276.176 73.9031C278.108 73.8461 279.564 73.3406 280.759 72.3108C281.381 71.7693 281.877 71.1296 282.236 70.4097C282.562 70.4902 282.949 70.5231 283.343 70.5115C285.275 70.4546 286.732 69.949 287.928 68.9177C288.319 68.5796 288.67 68.188 288.97 67.7535C289.521 67.9457 290.122 68.0314 290.735 68.0133C292.667 67.9564 294.124 67.4508 295.32 66.4195C295.587 66.1856 295.835 65.9359 296.058 65.6633C296.781 65.9967 297.57 66.1493 298.382 66.1253C300.313 66.0684 301.771 65.5628 302.967 64.5316C303.483 64.0819 303.916 63.5592 304.254 62.9774C305.285 63.7657 306.513 64.1595 307.782 64.1221C309.714 64.0651 311.171 63.5596 312.367 62.5283C312.501 62.415 312.627 62.2901 312.754 62.1652C313.716 62.8314 314.855 63.1628 316.026 63.1283C317.958 63.0713 319.415 62.5658 320.611 61.536C320.763 61.397 320.914 61.2596 321.053 61.1121C322.002 61.7447 323.116 62.0592 324.255 62.0256C326.187 61.9686 327.643 61.4631 328.839 60.4333C329.177 60.1426 329.484 59.8114 329.751 59.4518C330.862 60.4978 332.304 61.0494 333.789 61.0056C335.632 60.9512 337.032 60.4917 338.199 59.5574C339.276 60.4404 340.575 60.8868 341.934 60.8467C343.865 60.7898 345.323 60.2842 346.519 59.2529C346.665 59.1275 346.804 58.9963 346.936 58.8535C348.005 59.781 349.372 60.2698 350.767 60.2286C352.642 60.1734 354.067 59.6939 355.247 58.7193C356.38 59.8533 357.873 60.4521 359.43 60.4062C361.362 60.3493 362.82 59.8423 364.015 58.8124C365.28 60.2943 367.11 61.1492 368.892 61.0967C370.755 61.0417 372.17 60.573 373.336 59.6179C374.502 61.0525 376.204 61.8446 377.98 61.7923C379.671 61.7424 380.973 61.3582 382.077 60.5794C383.267 62.2807 385.367 63.3005 387.537 63.2366C389.196 63.1877 390.762 62.5282 391.948 61.376C393.008 63.4994 395.332 64.8259 397.842 64.7519C399.324 64.7082 400.766 64.1603 401.899 63.2092C403.054 65.0726 405.219 66.191 407.529 66.1229C409.181 66.0742 410.743 65.4178 411.925 64.2746C413.002 66.3413 415.307 67.6315 417.776 67.5587C419.435 67.5098 420.997 66.8519 422.179 65.7043C422.944 68.2398 425.587 70.0239 428.435 69.9399C430.118 69.8903 431.694 69.2187 432.875 68.049C433.64 70.5963 436.285 72.3863 439.137 72.3022C440.583 72.2596 441.992 71.7377 443.104 70.8315C444.114 73.0081 446.524 74.4223 449.073 74.3471C450.441 74.3068 451.737 73.8577 452.827 73.0453C453.762 75.3955 456.221 76.925 458.923 76.8453C460.493 76.799 461.993 76.1977 463.151 75.1527C463.522 78.121 466.372 80.3778 469.613 80.2823C470.873 80.2451 472.095 79.85 473.154 79.1375C473.987 81.6149 476.548 83.2935 479.357 83.2107C480.688 83.1714 481.959 82.7394 483.031 81.963C483.913 84.3694 486.457 85.9969 489.194 85.9162C490.049 85.891 490.888 85.7022 491.687 85.352C492.647 87.6439 495.095 89.1367 497.752 89.0584C498.714 89.03 499.644 88.7972 500.514 88.3636C501.102 91.1172 503.857 93.133 506.9 93.0433C508.163 93.006 509.382 92.6124 510.428 91.9033C510.879 94.7746 513.72 96.9579 516.868 96.865C517.782 96.8381 518.666 96.6273 519.496 96.2378C520.362 98.6743 522.915 100.324 525.681 100.242C526.872 100.207 528.041 99.8474 529.062 99.1995C529.365 102.245 532.221 104.564 535.543 104.466C536.838 104.428 538.084 104.016 539.145 103.272C539.068 103.49 539.047 103.754 539.056 104.042C539.15 107.258 542.158 109.888 545.624 109.786C546.167 109.77 546.712 109.686 547.242 109.536C548.147 111.902 550.684 113.504 553.39 113.424C553.749 113.414 554.11 113.368 554.452 113.306C554.948 116.192 557.727 118.308 560.897 118.214C561.413 118.199 561.928 118.122 562.426 117.984C563.019 120.748 565.78 122.774 568.828 122.684C569.575 122.662 570.31 122.515 571.015 122.244C571.026 123.827 571.739 125.318 573.001 126.43C574.249 127.533 575.86 128.112 577.539 128.062C578.034 128.048 578.549 127.972 579.063 127.839L579.023 127.973C579.117 131.19 582.125 133.821 585.593 133.718L585.859 133.705C586.071 136.806 589.003 139.257 592.379 139.158C593.01 139.139 593.636 139.029 594.238 138.831C594.155 139.093 594.128 139.406 594.137 139.744C594.232 142.96 597.239 145.59 600.707 145.488C601.29 145.471 601.887 145.371 602.479 145.192C602.229 145.766 602.122 146.407 602.142 147.082C602.233 150.172 604.917 152.694 608.255 152.822C608.226 152.898 608.223 153.015 608.226 153.126C608.316 156.191 610.98 158.709 614.29 158.861C614.089 159.388 614.005 159.973 614.022 160.58C614.102 163.297 616.262 165.664 619.161 166.21C618.891 166.832 618.772 167.52 618.792 168.232C618.852 170.268 620.1 172.175 622.05 173.206C621.699 173.939 621.535 174.736 621.559 175.557C621.628 177.917 623.297 180.072 625.714 180.922C625.018 181.873 624.673 183.01 624.707 184.188C624.753 185.763 625.479 187.236 626.753 188.333C626.181 189.231 625.897 190.277 625.928 191.338C625.957 192.338 626.274 193.329 626.847 194.205C625.404 195.362 624.605 197.043 624.657 198.799C624.751 202.015 627.759 204.645 631.225 204.543C632.906 204.493 634.486 203.822 635.671 202.652C636.854 201.475 637.48 199.97 637.434 198.41C637.405 197.411 637.086 196.42 636.515 195.544C637.957 194.389 638.757 192.705 638.705 190.95C638.659 189.374 637.934 187.9 636.66 186.803C637.231 185.907 637.516 184.861 637.485 183.799C637.415 181.44 635.746 179.284 633.33 178.435C634.026 177.483 634.371 176.345 634.336 175.169C634.277 173.132 633.028 171.227 631.077 170.196C631.431 169.463 631.594 168.664 631.57 167.845C631.49 165.128 629.328 162.759 626.429 162.215C626.701 161.592 626.82 160.905 626.8 160.192C626.71 157.128 624.046 154.607 620.736 154.456C620.935 153.929 621.021 153.344 621.003 152.737C620.913 149.645 618.226 147.125 614.888 146.997C614.92 146.919 614.922 146.804 614.919 146.693C614.825 143.477 611.816 140.847 608.349 140.949C607.766 140.966 607.17 141.067 606.577 141.245C606.828 140.672 606.934 140.03 606.915 139.356C606.82 136.14 603.813 133.509 600.347 133.611C599.721 133.63 599.096 133.74 598.488 133.938C598.571 133.676 598.597 133.363 598.587 133.026C598.492 129.81 595.485 127.18 592.019 127.282L591.752 127.296C591.54 124.196 588.608 121.742 585.232 121.841C584.733 121.856 584.22 121.932 583.706 122.067L583.746 121.933C583.652 118.714 580.644 116.083 577.178 116.185C576.431 116.207 575.696 116.356 574.992 116.627C574.981 115.044 574.266 113.552 573.004 112.44C571.757 111.338 570.145 110.759 568.468 110.809C567.958 110.824 567.443 110.901 566.935 111.039C566.344 108.274 563.585 106.248 560.536 106.337C560.174 106.348 559.816 106.394 559.474 106.456C558.976 103.57 556.198 101.454 553.029 101.548C552.486 101.564 551.941 101.649 551.411 101.799C550.506 99.4333 547.97 97.8293 545.265 97.909C543.969 97.9472 542.725 98.3608 541.664 99.1043C541.738 98.8849 541.761 98.6212 541.752 98.3348C541.658 95.1189 538.649 92.4869 535.182 92.5891C533.991 92.6243 532.822 92.9853 531.801 93.6332C531.499 90.586 528.642 88.2688 525.32 88.3667C524.406 88.3937 523.522 88.6045 522.692 88.9939C521.824 86.5575 519.273 84.9081 516.508 84.9897C515.245 85.0269 514.024 85.422 512.979 86.1296C512.526 83.2583 509.686 81.0751 506.539 81.1679C505.573 81.1964 504.643 81.4292 503.775 81.8627C503.187 79.1091 500.433 77.0933 497.391 77.183C496.536 77.2082 495.697 77.3985 494.898 77.7486C493.934 75.4554 491.49 73.9625 488.833 74.0408C487.501 74.0801 486.23 74.5121 485.159 75.2885C484.278 72.8835 481.733 71.2546 478.996 71.3353C477.736 71.3725 476.513 71.7691 475.455 72.4816C474.621 70.0028 472.061 68.3241 469.253 68.4069C467.683 68.4532 466.182 69.0546 465.025 70.0995C464.652 67.1313 461.802 64.8745 458.562 64.97C457.194 65.0103 455.896 65.4609 454.808 66.2718C453.873 63.9216 451.414 62.3921 448.712 62.4718C447.266 62.5144 445.859 63.0377 444.745 63.9439C443.734 61.7673 441.326 60.3516 438.776 60.4268C437.094 60.4764 435.517 61.148 434.337 62.3163C433.572 59.7719 430.926 57.979 428.075 58.0631C426.416 58.112 424.852 58.7714 423.671 59.9175C422.905 57.3835 420.262 55.5979 417.415 55.6819C415.763 55.7306 414.202 56.3869 413.017 57.5302C411.941 55.4649 409.636 54.1733 407.168 54.2461C405.685 54.2898 404.244 54.8392 403.11 55.7903C401.955 53.9254 399.79 52.807 397.481 52.8751C395.823 52.924 394.257 53.5849 393.073 54.7356C392.012 52.6137 389.687 51.2872 387.177 51.3612C385.858 51.4001 384.592 51.8275 383.515 52.5982C382.357 50.8605 380.464 49.8567 378.477 49.9153C376.612 49.9703 375.199 50.4405 374.031 51.3941C372.867 49.961 371.164 49.1659 369.388 49.2182C367.456 49.2752 365.999 49.7822 364.803 50.812C363.539 49.3301 361.706 48.4753 359.926 48.5278C358.052 48.583 356.627 49.0625 355.445 50.0372C354.314 48.9046 352.82 48.3043 351.264 48.3502Z" fill="#FED300"/>
<path d="M248.564 95.7773C248.629 97.992 250.669 99.7792 253.052 99.7089C255.435 99.6386 257.367 97.7344 257.302 95.5196C257.237 93.3048 255.197 91.5177 252.814 91.588C250.431 91.6582 248.499 93.5625 248.564 95.7773Z" fill="#FED300"/>
<path d="M248.619 100.875C248.684 103.09 250.724 104.877 253.107 104.807C255.49 104.736 257.421 102.832 257.357 100.617C257.292 98.4025 255.252 96.6154 252.869 96.6856C250.486 96.7559 248.554 98.6601 248.619 100.875Z" fill="#FED300"/>
<path d="M249.799 106.281C249.864 108.496 251.903 110.283 254.286 110.213C256.669 110.143 258.601 108.238 258.536 106.024C258.471 103.809 256.431 102.022 254.048 102.092C251.666 102.162 249.734 104.066 249.799 106.281Z" fill="#FED300"/>
<path d="M625.346 204.935C625.41 207.15 627.45 208.937 629.833 208.867C632.216 208.797 634.148 206.893 634.083 204.678C634.018 202.463 631.978 200.676 629.595 200.746C627.212 200.816 625.281 202.721 625.346 204.935Z" fill="#FED300"/>
<path d="M621.681 208.56C621.746 210.775 623.786 212.562 626.169 212.492C628.552 212.422 630.484 210.518 630.419 208.303C630.354 206.088 628.314 204.301 625.931 204.371C623.548 204.441 621.617 206.346 621.681 208.56Z" fill="#FED300"/>
<path d="M617.861 212.246C617.926 214.461 619.966 216.248 622.349 216.178C624.732 216.107 626.664 214.203 626.599 211.988C626.534 209.774 624.494 207.986 622.111 208.057C619.728 208.127 617.796 210.031 617.861 212.246Z" fill="#FED300"/>
</svg>
