<svg width="358" height="1040" viewBox="0 0 358 1040" fill="none" xmlns="http://www.w3.org/2000/svg">
<line x1="181" y1="587.031" x2="181" y2="0.000584306" stroke="black" stroke-width="2"/>
<path fill-rule="evenodd" clip-rule="evenodd" d="M356.394 684.239H356.839V861.587H1.16361V684.239H1.76491C-1.60415 646.409 8.66598 632.778 45.7626 624.325C48.1087 599.836 58.6024 594.601 85.5726 592.903C88.6659 582.185 104.56 576.975 126.88 569.659C136.214 566.6 146.673 563.172 157.789 558.819C168.526 549.771 171.356 543.693 175.434 534.931L175.434 534.931C176.802 531.993 178.31 528.754 180.303 525C185.847 539.35 189.506 548.697 202.248 559.884C210.744 563.932 221.212 567.31 231.496 570.629L231.496 570.629C250.908 576.892 269.668 582.946 273.29 592.903C300.823 593.965 307.838 602.355 312.81 624.325C353.268 634.218 358.912 650.695 356.394 684.239ZM44.8823 933.182C5.43752 923.577 -3.86859 907.755 1.31014 861.587H356.906C360.605 902.523 356.949 921.861 313.626 933.182C308.622 956.81 301.563 965.832 273.855 966.974C270.21 977.683 251.331 984.193 231.796 990.929C221.446 994.498 210.912 998.131 202.362 1002.48C189.539 1014.52 185.856 1024.57 180.278 1040C178.271 1035.96 176.754 1032.48 175.378 1029.32C171.273 1019.9 168.426 1013.36 157.62 1003.63C146.434 998.949 135.909 995.262 126.516 991.972L126.515 991.972C104.053 984.104 88.0582 978.501 84.9452 966.974C57.8037 965.148 47.2433 959.518 44.8823 933.182Z" fill="#F9B96B"/>
<path fill-rule="evenodd" clip-rule="evenodd" d="M356.394 684.239H356.839V861.587H1.16361V684.239H1.76491C-1.60415 646.409 8.66598 632.778 45.7626 624.325C48.1087 599.836 58.6024 594.601 85.5726 592.903C88.6659 582.185 104.56 576.975 126.88 569.659C136.214 566.6 146.673 563.172 157.789 558.819C168.526 549.771 171.356 543.693 175.434 534.931L175.434 534.931C176.802 531.993 178.31 528.754 180.303 525C185.847 539.35 189.506 548.697 202.248 559.884C210.744 563.932 221.212 567.31 231.496 570.629L231.496 570.629C250.908 576.892 269.668 582.946 273.29 592.903C300.823 593.965 307.838 602.355 312.81 624.325C353.268 634.218 358.912 650.695 356.394 684.239ZM44.8823 933.182C5.43752 923.577 -3.86859 907.755 1.31014 861.587H356.906C360.605 902.523 356.949 921.861 313.626 933.182C308.622 956.81 301.563 965.832 273.855 966.974C270.21 977.683 251.331 984.193 231.796 990.929C221.446 994.498 210.912 998.131 202.362 1002.48C189.539 1014.52 185.856 1024.57 180.278 1040C178.271 1035.96 176.754 1032.48 175.378 1029.32C171.273 1019.9 168.426 1013.36 157.62 1003.63C146.434 998.949 135.909 995.262 126.516 991.972L126.515 991.972C104.053 984.104 88.0582 978.501 84.9452 966.974C57.8037 965.148 47.2433 959.518 44.8823 933.182Z" fill="#F9B96B"/>
<mask id="path-4-inside-1_888_10563" fill="white">
<path fill-rule="evenodd" clip-rule="evenodd" d="M24.1418 687.179C22.7563 657.399 32.4859 646.066 62.8829 638.875C64.9275 616.716 74.0729 611.979 97.5776 610.443C100.273 600.744 114.125 596.03 133.577 589.41C141.712 586.642 150.827 583.54 160.514 579.601C169.872 571.415 172.338 565.914 175.893 557.986C177.085 555.328 178.399 552.397 180.136 549C184.967 561.985 188.156 570.443 199.261 580.565C206.666 584.228 215.788 587.284 224.751 590.287C241.669 595.955 258.018 601.433 261.175 610.443C285.17 611.403 291.284 618.995 295.617 638.875C327.861 647.061 334.732 660.229 333.993 685.633H334.046V853.563C337.271 890.603 334.084 908.101 296.328 918.345C291.967 939.725 285.815 947.889 261.667 948.922C258.49 958.612 242.037 964.503 225.012 970.598C215.992 973.827 206.811 977.114 199.36 981.054C188.185 991.94 184.975 1001.04 180.113 1015C178.365 1011.35 177.043 1008.19 175.843 1005.34C172.266 996.81 169.784 990.894 160.367 982.091C150.618 977.854 141.445 974.519 133.259 971.541C113.683 964.422 99.7435 959.353 97.0305 948.922C73.3764 947.27 64.1729 942.175 62.1153 918.345C27.7388 909.654 19.6285 895.338 24.1418 853.563V687.179Z"/>
</mask>
<path d="M62.8829 638.875L63.1131 639.848L63.8126 639.683L63.8786 638.967L62.8829 638.875ZM24.1418 687.179H25.1418V687.156L25.1407 687.133L24.1418 687.179ZM97.5776 610.443L97.6429 611.44L98.3511 611.394L98.5411 610.71L97.5776 610.443ZM133.577 589.41L133.899 590.357L133.577 589.41ZM160.514 579.601L160.891 580.527L161.047 580.464L161.173 580.353L160.514 579.601ZM175.893 557.986L176.805 558.395V558.395L175.893 557.986ZM180.136 549L181.073 548.651L180.281 546.521L179.246 548.545L180.136 549ZM199.261 580.565L198.588 581.304L198.692 581.399L198.818 581.461L199.261 580.565ZM224.751 590.287L225.069 589.339L224.751 590.287ZM261.175 610.443L260.231 610.773L260.456 611.415L261.135 611.442L261.175 610.443ZM295.617 638.875L294.64 639.088L294.771 639.692L295.371 639.844L295.617 638.875ZM333.993 685.633L332.993 685.604L332.964 686.633H333.993V685.633ZM334.046 685.633H335.046V684.633H334.046V685.633ZM334.046 853.563H333.046V853.606L333.05 853.649L334.046 853.563ZM296.328 918.345L296.066 917.38L295.471 917.541L295.348 918.145L296.328 918.345ZM261.667 948.922L261.624 947.923L260.933 947.953L260.717 948.611L261.667 948.922ZM225.012 970.598L225.349 971.539L225.012 970.598ZM199.36 981.054L198.893 980.17L198.765 980.237L198.662 980.338L199.36 981.054ZM180.113 1015L179.211 1015.43L180.259 1017.62L181.058 1015.33L180.113 1015ZM175.843 1005.34L174.921 1005.72L175.843 1005.34ZM160.367 982.091L161.05 981.36L160.924 981.242L160.766 981.173L160.367 982.091ZM133.259 971.541L132.917 972.481L133.259 971.541ZM97.0305 948.922L97.9983 948.67L97.8173 947.975L97.1002 947.924L97.0305 948.922ZM62.1153 918.345L63.1116 918.259L63.0503 917.55L62.3604 917.375L62.1153 918.345ZM24.1418 853.563L25.136 853.67L25.1418 853.616V853.563H24.1418ZM62.6526 637.902C47.4025 641.509 37.0937 646.204 30.8179 653.925C24.5265 661.666 22.4461 672.25 23.1429 687.226L25.1407 687.133C24.452 672.329 26.5436 662.355 32.3699 655.187C38.2118 647.999 47.9663 643.431 63.1131 639.848L62.6526 637.902ZM97.5124 609.445C85.7665 610.213 77.3222 611.783 71.5793 616.128C65.765 620.527 62.919 627.6 61.8871 638.783L63.8786 638.967C64.8914 627.991 67.6404 621.616 72.7861 617.723C78.0032 613.776 85.884 612.209 97.6429 611.44L97.5124 609.445ZM133.255 588.463C123.555 591.764 115.147 594.623 108.835 597.883C102.535 601.137 98.0772 604.911 96.6142 610.175L98.5411 610.71C99.7739 606.275 103.59 602.843 109.753 599.66C115.903 596.484 124.147 593.676 133.899 590.357L133.255 588.463ZM160.138 578.674C150.481 582.601 141.392 585.694 133.255 588.463L133.899 590.357C142.032 587.589 151.173 584.479 160.891 580.527L160.138 578.674ZM174.98 557.577C173.199 561.551 171.724 564.835 169.545 568.147C167.373 571.447 164.481 574.802 159.856 578.848L161.173 580.353C165.906 576.213 168.926 572.725 171.215 569.246C173.497 565.779 175.033 562.349 176.805 558.395L174.98 557.577ZM179.246 548.545C177.496 551.967 176.172 554.919 174.98 557.577L176.805 558.395C177.997 555.737 179.302 552.827 181.026 549.455L179.246 548.545ZM199.935 579.826C189.019 569.876 185.897 561.615 181.073 548.651L179.199 549.349C184.038 562.354 187.294 571.009 198.588 581.304L199.935 579.826ZM225.069 589.339C216.088 586.33 207.036 583.295 199.705 579.668L198.818 581.461C206.296 585.161 215.488 588.239 224.434 591.235L225.069 589.339ZM262.119 610.112C260.396 605.193 255.169 601.422 248.56 598.212C241.894 594.974 233.509 592.167 225.069 589.339L224.434 591.235C232.911 594.076 241.16 596.841 247.687 600.011C254.271 603.209 258.798 606.682 260.231 610.773L262.119 610.112ZM296.594 638.662C294.422 628.697 291.759 621.547 286.433 616.816C281.098 612.077 273.278 609.926 261.215 609.443L261.135 611.442C273.067 611.92 280.301 614.044 285.105 618.312C289.918 622.587 292.479 629.173 294.64 639.088L296.594 638.662ZM334.993 685.662C335.364 672.895 333.838 662.964 327.972 655.195C322.11 647.432 312.062 642.018 295.863 637.906L295.371 639.844C311.415 643.918 320.925 649.181 326.375 656.4C331.821 663.612 333.361 672.968 332.993 685.604L334.993 685.662ZM333.993 686.633H334.046V684.633H333.993V686.633ZM333.046 685.633V853.563H335.046V685.633H333.046ZM333.05 853.649C334.665 872.197 334.631 885.557 329.659 895.557C324.733 905.466 314.833 912.288 296.066 917.38L296.589 919.31C315.578 914.158 326.15 907.11 331.45 896.448C336.705 885.878 336.652 871.969 335.042 853.476L333.05 853.649ZM295.348 918.145C293.171 928.818 290.588 935.926 285.729 940.538C280.894 945.128 273.622 947.41 261.624 947.923L261.71 949.921C273.86 949.401 281.738 947.084 287.106 941.989C292.451 936.915 295.124 929.251 297.307 918.545L295.348 918.145ZM260.717 948.611C259.262 953.05 254.685 956.788 248.072 960.22C241.506 963.629 233.207 966.602 224.675 969.657L225.349 971.539C233.843 968.499 242.283 965.479 248.993 961.996C255.658 958.536 260.896 954.484 262.617 949.234L260.717 948.611ZM224.675 969.657C215.673 972.879 206.42 976.19 198.893 980.17L199.827 981.938C207.203 978.038 216.311 974.775 225.349 971.539L224.675 969.657ZM198.662 980.338C187.307 991.399 184.036 1000.69 179.169 1014.67L181.058 1015.33C185.914 1001.38 189.062 992.481 200.058 981.77L198.662 980.338ZM181.015 1014.57C179.279 1010.94 177.965 1007.81 176.765 1004.95L174.921 1005.72C176.12 1008.58 177.451 1011.75 179.211 1015.43L181.015 1014.57ZM176.765 1004.95C173.167 996.373 170.619 990.306 161.05 981.36L159.684 982.821C168.95 991.483 171.365 997.247 174.921 1005.72L176.765 1004.95ZM160.766 981.173C150.985 976.923 141.785 973.578 133.601 970.602L132.917 972.481C141.106 975.459 150.251 978.785 159.969 983.008L160.766 981.173ZM133.601 970.602C123.786 967.032 115.492 964.013 109.304 960.598C103.116 957.182 99.2506 953.485 97.9983 948.67L96.0627 949.174C97.5233 954.789 101.984 958.842 108.338 962.349C114.692 965.856 123.156 968.931 132.917 972.481L133.601 970.602ZM97.1002 947.924C85.2714 947.098 77.3505 945.415 72.1029 941.173C66.9093 936.973 64.1328 930.087 63.1116 918.259L61.119 918.431C62.1554 930.434 65.0094 938.009 70.8455 942.728C76.6276 947.403 85.1354 949.094 96.9608 949.92L97.1002 947.924ZM62.3604 917.375C45.2443 913.048 34.9604 907.385 29.4089 897.857C23.8251 888.273 22.8809 874.543 25.136 853.67L23.1476 853.455C20.8893 874.357 21.7437 888.673 27.6808 898.864C33.6503 909.11 44.6098 914.951 61.8702 919.314L62.3604 917.375ZM25.1418 853.563V687.179H23.1418V853.563H25.1418Z" fill="#B02227" mask="url(#path-4-inside-1_888_10563)"/>
<path d="M119.363 643.152H109.48V658.875C109.48 659.318 109.624 659.747 109.91 660.164C110.21 660.62 110.574 660.848 111.004 660.848C112.944 660.848 113.914 658.842 113.914 654.832L117.84 657.078C116.342 660.398 114.025 662.052 110.887 662.039C109.064 662.026 107.645 661.193 106.629 659.539C106.186 658.823 105.965 658.107 105.965 657.391V643.152H101.883V640.809H105.965V634.246L109.48 636.688V640.809H119.363V643.152ZM139.676 643.152H134.344V647C134.956 647.143 135.398 647.319 135.672 647.527V649.832C134.122 649.298 132.508 649.031 130.828 649.031C129.617 649.031 128.445 649.233 127.312 649.637C125.802 650.171 125.04 650.932 125.027 651.922C125.001 652.964 126.479 653.484 129.461 653.484C129.526 653.484 129.949 653.465 130.73 653.426L131.902 653.367V655.164C130.132 655.216 129.025 655.262 128.582 655.301C125.47 655.574 123.914 656.473 123.914 657.996C123.914 658.842 124.454 659.507 125.535 659.988C126.382 660.366 127.293 660.555 128.27 660.555C132.501 660.555 135.926 658.68 138.543 654.93V659.871C136.303 661.29 133.654 662 130.594 662C127.247 662 124.357 661.225 121.922 659.676C120.737 658.921 120.145 658.055 120.145 657.078C120.145 656.128 120.561 655.301 121.395 654.598C121.902 654.168 122.742 653.673 123.914 653.113L122.625 652.371C121.857 651.928 121.473 651.336 121.473 650.594C121.473 648.979 122.69 647.82 125.125 647.117C126.974 646.583 129.051 646.316 131.355 646.316V643.152H118.836V640.809H139.676V643.152ZM160.105 643.152H156.023V648.602C156.883 649.396 157.404 649.91 157.586 650.145C157.911 650.561 158.243 651.206 158.582 652.078H155.984C155.984 650.659 155.581 649.552 154.773 648.758C153.979 647.964 152.872 647.566 151.453 647.566C149.969 647.566 148.582 647.977 147.293 648.797C146.056 649.578 145.06 650.633 144.305 651.961C143.589 653.224 143.23 654.448 143.23 655.633C143.23 657.026 143.732 658.087 144.734 658.816C145.62 659.467 146.785 659.793 148.23 659.793C150.639 659.793 152.319 659.129 153.27 657.801H157.43C157.078 659.207 155.783 660.392 153.543 661.355C152.54 661.785 151.609 662 150.75 662C149.07 662 147.378 661.525 145.672 660.574C144.044 659.676 142.703 658.523 141.648 657.117C140.594 655.698 140.066 654.298 140.066 652.918C140.066 651.876 140.529 650.698 141.453 649.383C143.393 646.622 145.757 645.242 148.543 645.242C150.379 645.242 151.831 645.626 152.898 646.395V643.152H139.109V640.809H160.105V643.152ZM181.258 643.152H165.496V649.031C166.915 647.482 168.23 646.486 169.441 646.043C170.118 645.796 170.88 645.672 171.727 645.672C174.904 645.672 177.28 647.234 178.855 650.359C179.546 651.727 179.891 653.074 179.891 654.402C179.891 656.824 178.895 659.012 176.902 660.965C176.238 661.616 175.743 662.065 175.418 662.312L172.215 660.398C173.022 659.552 173.94 658.51 174.969 657.273C176.128 655.88 176.714 654.122 176.727 652C176.74 650.737 176.453 649.682 175.867 648.836C175.203 647.846 174.266 647.365 173.055 647.391C171.935 647.417 170.737 647.84 169.461 648.66C168.315 649.389 167.365 650.262 166.609 651.277C165.789 652.371 165.379 653.426 165.379 654.441V662.195L161.727 660.242V643.152H159.578V640.809H161.727C161.727 636.98 160.73 633.712 158.738 631.004C157.54 629.376 156.434 628.23 155.418 627.566L159.363 627.527C161.551 628.725 163.289 631.31 164.578 635.281C165.19 637.169 165.496 639.012 165.496 640.809H181.258V643.152ZM201.863 643.152H180.867V640.809H201.863V643.152ZM197.664 651.727C197.664 648.602 196.186 647.039 193.23 647.039C191.043 647.039 189.214 648.185 187.742 650.477C186.44 652.508 185.789 654.669 185.789 656.961V662.645L182.586 660.965V646.277H185.945V648.602L187.684 647.293C189.22 646.134 190.841 645.555 192.547 645.555C194.865 645.555 196.785 646.453 198.309 648.25C199.741 649.943 200.457 651.967 200.457 654.324C200.457 657.28 199.207 660.118 196.707 662.84L192.938 660.477C194.109 659.318 195.105 658.25 195.926 657.273C197.085 655.893 197.664 654.044 197.664 651.727ZM208.172 638.758C208.12 638.81 207.97 638.836 207.723 638.836C207.514 638.836 207.332 638.81 207.176 638.758L205.906 636.16C205.385 635.34 204.676 634.786 203.777 634.5C202.892 634.201 202.345 633.875 202.137 633.523C201.941 632.924 201.564 632.007 201.004 630.77V630.32H201.766C202.768 630.633 203.582 630.926 204.207 631.199C205.236 631.655 205.926 632.182 206.277 632.781C206.473 633.107 206.772 633.94 207.176 635.281C207.553 636.544 207.872 637.423 208.133 637.918C208.159 638.152 208.172 638.432 208.172 638.758ZM209.324 643.152H201.375V640.809H209.324V643.152ZM207.098 662.449L203.816 660.633V645.555H207.098V662.449ZM229.871 643.152H225.789V648.602C226.648 649.396 227.169 649.91 227.352 650.145C227.677 650.561 228.009 651.206 228.348 652.078H225.75C225.75 650.659 225.346 649.552 224.539 648.758C223.745 647.964 222.638 647.566 221.219 647.566C219.734 647.566 218.348 647.977 217.059 648.797C215.822 649.578 214.826 650.633 214.07 651.961C213.354 653.224 212.996 654.448 212.996 655.633C212.996 657.026 213.497 658.087 214.5 658.816C215.385 659.467 216.551 659.793 217.996 659.793C220.405 659.793 222.085 659.129 223.035 657.801H227.195C226.844 659.207 225.548 660.392 223.309 661.355C222.306 661.785 221.375 662 220.516 662C218.836 662 217.143 661.525 215.438 660.574C213.81 659.676 212.469 658.523 211.414 657.117C210.359 655.698 209.832 654.298 209.832 652.918C209.832 651.876 210.294 650.698 211.219 649.383C213.159 646.622 215.522 645.242 218.309 645.242C220.145 645.242 221.596 645.626 222.664 646.395V643.152H208.875V640.809H229.871V643.152ZM248.66 643.152H235.652V646.277C235.704 646.277 235.757 646.303 235.809 646.355C235.861 646.408 235.906 646.434 235.945 646.434C235.841 646.434 235.783 646.427 235.77 646.414C235.77 646.349 236.74 646.141 238.68 645.789C239.396 645.659 240.105 645.594 240.809 645.594C243.738 645.594 245.62 646.414 246.453 648.055C247.013 649.148 247.293 651.355 247.293 654.676V662.195C247.02 662.091 245.984 661.668 244.188 660.926C244.188 660.509 244.103 660.242 243.934 660.125C243.243 660.529 242.677 660.835 242.234 661.043C240.828 661.707 239.194 662.039 237.332 662.039C234.767 662.039 232.788 661.232 231.395 659.617C230.717 658.836 230.379 657.964 230.379 657C230.379 655.919 230.913 654.845 231.98 653.777C234.051 651.707 236.622 650.672 239.695 650.672C241.557 650.672 243.055 651.102 244.188 651.961V650.164C243.615 649.435 243.055 648.947 242.508 648.699C241.974 648.452 241.238 648.341 240.301 648.367C238.204 648.406 236.284 648.79 234.539 649.52C233.758 649.845 232.996 650.138 232.254 650.398V648.953C232.423 648.81 232.671 648.595 232.996 648.309C233.048 648.243 233.081 648.204 233.094 648.191V643.152H229.09V640.809H248.66V643.152ZM244.188 655.516C244.188 654.943 243.504 654.428 242.137 653.973C241.004 653.595 240.06 653.406 239.305 653.406C236.557 653.406 234.357 654.396 232.703 656.375C232.039 657.169 231.707 657.82 231.707 658.328C231.98 659.279 233.055 659.754 234.93 659.754C237.352 659.754 239.565 659.148 241.57 657.938C243.315 656.883 244.188 656.076 244.188 655.516ZM257.234 643.152H255.164V640.809H257.234V643.152ZM250.555 643.152H248.328V640.809H250.555V643.152ZM254.52 638.445V662.488C254.389 662.449 254.22 662.378 254.012 662.273L252.996 661.746C251.837 661.147 251.225 660.848 251.16 660.848V638.484C251.16 637.117 250.893 635.665 250.359 634.129C249.617 631.98 248.465 630.027 246.902 628.27L245.672 626.883H249.832C251.993 629.044 253.413 631.694 254.09 634.832C254.376 636.16 254.52 637.365 254.52 638.445Z" fill="black"/>
<path d="M196.817 745.221L144.856 757.465L175.28 713.599L179.31 699.504L173.398 695.628L162.081 704.948L133.997 750.348L124.492 697.817L117.375 685L110.454 686.441L109.041 701.033L121.286 752.994L77.4203 722.57L63.3243 718.54L59.4493 724.452L68.7693 735.769L114.171 763.854L48.8203 780.475L50.2613 787.396L64.7713 788.801L64.7763 788.825L64.8473 788.808L64.8543 788.809L64.8533 788.807L116.819 776.561L86.3923 820.431L86.3903 820.43L86.3893 820.436L86.3473 820.497L86.3683 820.51L82.3603 834.526L88.2733 838.401L99.5263 829.134L99.5463 829.148L99.5853 829.086L99.5903 829.082L99.5883 829.08L127.674 783.676L137.18 836.212H137.178L137.182 836.218L137.195 836.29L137.219 836.285L144.296 849.03L151.217 847.589L152.621 833.079L152.645 833.074L152.628 833.003L152.629 832.996L152.627 832.997L140.381 781.031L184.252 811.458L184.251 811.46L184.257 811.461L184.317 811.503L184.331 811.483L198.347 815.49L202.222 809.577L192.955 798.324L192.968 798.304L192.906 798.265L192.902 798.26L192.901 798.262L147.499 770.177L200.033 760.672L212.85 753.554L211.409 746.633L196.817 745.221Z" fill="#3F2305"/>
<path d="M91.9413 819.957C91.8343 819.957 91.7303 819.902 91.6723 819.805L66.0673 776.775C66.0283 776.711 66.0153 776.634 66.0283 776.56L73.5603 734.032C73.5903 733.862 73.7543 733.755 73.9223 733.779C74.0923 733.809 74.2053 733.971 74.1753 734.141L66.6633 776.555L92.2093 819.485C92.2973 819.633 92.2493 819.826 92.1003 819.914C92.0503 819.943 91.9953 819.957 91.9413 819.957Z" fill="#3F2305"/>
<path d="M144.931 831.355C144.835 831.355 144.74 831.311 144.679 831.228C144.576 831.088 144.606 830.893 144.745 830.79L187.589 799.236L193.865 749.823L163.32 710.436L113.974 703.837C113.803 703.815 113.683 703.657 113.706 703.486C113.729 703.315 113.879 703.195 114.057 703.217L163.53 709.832C163.611 709.843 163.685 709.885 163.736 709.95L194.439 749.541C194.49 749.606 194.512 749.689 194.502 749.771L188.193 799.445C188.182 799.53 188.137 799.607 188.068 799.658L145.116 831.292C145.059 831.336 144.995 831.355 144.931 831.355Z" fill="#3F2305"/>
<path d="M91.9397 819.957C91.7947 819.957 91.6657 819.856 91.6347 819.709L73.5617 734.15C73.5267 733.988 73.6257 733.827 73.7867 733.784L163.41 709.844C163.577 709.796 163.747 709.898 163.792 710.064L188.186 799.329C188.209 799.412 188.196 799.501 188.151 799.574C188.106 799.647 188.033 799.699 187.949 799.717L92.0047 819.951C91.9827 819.955 91.9607 819.957 91.9397 819.957ZM74.2337 734.311L92.1807 819.274L187.495 799.172L163.27 710.526L74.2337 734.311Z" fill="#3F2305"/>
<path d="M130.916 834.042C130.897 834.042 130.878 834.04 130.858 834.037L74.7582 823.515C74.6702 823.498 74.5932 823.445 74.5472 823.368L48.9422 780.338C48.9042 780.274 48.8902 780.197 48.9032 780.123L56.4352 737.594C56.4492 737.517 56.4912 737.447 56.5532 737.4L96.7042 706.845C96.7702 706.796 96.8532 706.772 96.9352 706.784L146.408 713.399C146.49 713.41 146.563 713.452 146.614 713.517L177.317 753.108C177.368 753.174 177.39 753.256 177.38 753.338L171.07 803.012C171.059 803.095 171.017 803.169 170.951 803.22L131.107 833.976C131.052 834.02 130.985 834.042 130.916 834.042ZM75.0132 822.927L130.837 833.397L170.468 802.806L176.745 753.389L146.2 714.002L96.9822 707.421L57.0312 737.823L49.5402 780.118L75.0132 822.927Z" fill="#3F2305"/>
<path d="M130.917 834.041C130.857 834.041 130.797 834.023 130.746 833.99L49.0397 780.438C48.8957 780.343 48.8547 780.15 48.9497 780.005L96.6327 706.921C96.7237 706.781 96.9057 706.738 97.0507 706.821L177.227 753.027C177.376 753.113 177.428 753.303 177.342 753.453L131.188 833.883C131.145 833.958 131.073 834.012 130.99 834.031C130.966 834.038 130.942 834.041 130.917 834.041ZM49.6437 780.086L130.811 833.285L176.645 753.414L96.9947 707.511L49.6437 780.086Z" fill="#3F2305"/>
<path d="M143.65 874.334L146.586 756.617H118.805L121.993 878.215" fill="#3F2305"/>
<path d="M114.167 756.617C114.471 761.42 114.675 766.226 114.932 771.03L115.535 785.448C115.92 795.06 116.167 804.676 116.489 814.29C116.686 823.907 116.95 833.523 117.084 843.142L117.254 857.571C117.254 862.382 117.307 867.192 117.26 872.005C116.955 867.202 116.751 862.396 116.493 857.592L115.89 843.174C115.508 833.562 115.257 823.946 114.938 814.332C114.745 804.715 114.476 795.099 114.346 785.48L114.175 771.051C114.174 766.239 114.121 761.429 114.167 756.617Z" fill="#3F2305"/>
<path d="M316.086 844.256C315.492 854.107 306.576 862.141 296.707 862.141H289.916C289.916 862.141 280.296 825.075 289.916 824.103C290.554 824.039 296.398 824.006 297.053 824.006C307.976 824.006 316.754 833.19 316.086 844.256Z" fill="#3F2305"/>
<path d="M293.539 862.454C283.105 862.454 146.527 841.326 145.148 841.112C144.978 841.086 144.86 840.926 144.887 840.756C144.913 840.585 145.073 840.463 145.243 840.495C146.621 840.708 283.151 861.829 293.538 861.829C303.88 861.829 312.293 853.416 312.293 843.074C312.293 834.556 309.874 829.664 303.665 825.628C300.38 823.494 178.86 708.702 173.688 703.818C173.563 703.699 173.557 703.502 173.676 703.376C173.795 703.252 173.993 703.246 174.118 703.363C175.384 704.559 300.767 823.001 304.005 825.105C310.419 829.274 312.918 834.312 312.918 843.075C312.919 853.761 304.226 862.454 293.539 862.454Z" fill="#3F2305"/>
<path d="M297.227 860.694C306.957 856.664 311.577 845.51 307.547 835.78C303.517 826.051 292.362 821.43 282.633 825.46C272.903 829.491 268.283 840.645 272.313 850.375C276.343 860.104 287.498 864.725 297.227 860.694Z" fill="#B37021"/>
<path d="M289.914 824.007C292.414 823.817 294.965 824.226 297.371 825.072C299.767 825.954 302.001 827.333 303.87 829.119C305.753 830.892 307.243 833.082 308.28 835.467C309.305 837.861 309.821 840.469 309.842 843.075C309.824 845.681 309.304 848.288 308.282 850.684C307.244 853.069 305.756 855.26 303.872 857.033C302.002 858.819 299.769 860.198 297.373 861.08C294.967 861.926 292.415 862.334 289.915 862.143C294.917 861.817 299.604 859.579 302.923 856.083C306.245 852.587 308.149 847.853 308.123 843.075C308.151 838.297 306.247 833.561 302.925 830.065C299.605 826.568 294.916 824.331 289.914 824.007Z" fill="#FD8A00"/>
<path d="M303.806 873.821L306.439 834.096H281.516L284.376 877.302" fill="#3F2305"/>
<path d="M299.422 877.302L302.282 834.096H277.359L280.219 877.302" fill="#FD8A00"/>
<path d="M295.158 843.552C294.892 845.74 292.92 847.323 290.716 847.323H284.217C284.217 847.323 282.042 838.942 284.217 838.723C284.361 838.708 290.732 838.701 290.88 838.701C293.438 838.701 295.476 840.93 295.158 843.552Z" fill="#7C4B13"/>
<path d="M288.528 843.012C288.528 845.393 286.598 847.323 284.217 847.323C281.836 847.323 279.906 845.393 279.906 843.012C279.906 840.631 281.836 838.701 284.217 838.701C286.597 838.7 288.528 840.63 288.528 843.012Z" fill="#B37021"/>
<path d="M284.219 838.701C285.353 838.333 286.738 838.649 287.74 839.491C288.767 840.31 289.396 841.659 289.39 843.012C289.399 844.366 288.769 845.715 287.742 846.535C286.739 847.377 285.353 847.693 284.219 847.323C286.47 846.617 287.676 844.825 287.67 843.012C287.68 841.199 286.471 839.402 284.219 838.701Z" fill="#FD8A00"/>
<path d="M313.582 873.162H293.789V879.877H313.582V873.162Z" fill="#3F2305"/>
<path d="M293.793 873.162H265.93V879.877H293.793V873.162Z" fill="#FD8A00"/>
<path d="M184.355 747.815L132.394 760.06L162.818 716.194L166.848 702.098L160.936 698.222L156.575 699.13L149.619 707.542L121.535 752.942L112.03 700.411L104.913 687.594L97.9924 689.035L96.5794 703.627L108.824 755.588L64.9584 725.164L50.8624 721.134L46.5014 722.042L46.9874 727.047L56.3074 738.364L101.709 766.449L50.1254 776.822L36.3594 783.07L37.7994 789.991L52.3094 791.395L52.3144 791.419L52.3854 791.402L52.3924 791.403L52.3914 791.401L104.357 779.155L73.9304 823.026L73.9284 823.024L73.9274 823.031L73.8854 823.091L73.9064 823.105L69.8984 837.12L71.4504 841.903L75.8114 840.996L87.0644 831.729L87.0844 831.742L87.1234 831.68L87.1284 831.676L87.1264 831.675L115.213 786.27L124.719 838.806L124.716 838.807L124.72 838.812L124.733 838.885L124.757 838.88L131.834 851.624L138.755 850.183L140.159 835.674L140.183 835.669L140.167 835.597V835.591H140.165L127.919 783.625L171.79 814.052L171.789 814.054L171.795 814.056L171.855 814.097L171.869 814.077L181.524 818.992L185.885 818.084L189.76 812.172L180.493 800.919L180.507 800.898L180.444 800.859L180.44 800.854L180.439 800.856L135.037 772.772L183.21 764.174L187.571 763.266L200.388 756.148L198.948 749.227L184.355 747.815Z" fill="#7C4B13"/>
<path d="M135.805 836.499L119.973 769.317L107.67 701.319L100.552 688.502L93.6308 689.942L92.2188 704.535L108.068 771.795L120.358 839.714H120.356L120.359 839.72L120.372 839.792L120.396 839.787L127.473 852.531L134.394 851.091L135.799 836.581L135.823 836.576L135.806 836.505L135.807 836.498L135.805 836.499Z" fill="#FD8A00"/>
<path d="M131.346 835.392C132.185 835.217 132.724 834.395 132.549 833.556C132.374 832.717 131.552 832.178 130.713 832.353C129.874 832.528 129.335 833.35 129.51 834.189C129.685 835.028 130.507 835.567 131.346 835.392Z" fill="#7C4B13"/>
<path d="M124.002 836.922C124.841 836.747 125.38 835.925 125.205 835.086C125.03 834.247 124.208 833.708 123.369 833.883C122.53 834.058 121.991 834.88 122.166 835.719C122.341 836.558 123.163 837.097 124.002 836.922Z" fill="#7C4B13"/>
<path d="M96.6891 705.719C95.8501 705.894 95.3111 706.716 95.4861 707.555C95.6611 708.394 96.4831 708.933 97.3221 708.758C98.1611 708.583 98.7001 707.761 98.5251 706.922C98.3511 706.083 97.5291 705.544 96.6891 705.719Z" fill="#7C4B13"/>
<path d="M104.033 704.189C103.194 704.364 102.655 705.186 102.83 706.025C103.005 706.864 103.827 707.403 104.666 707.228C105.505 707.053 106.044 706.231 105.869 705.392C105.694 704.553 104.872 704.014 104.033 704.189Z" fill="#7C4B13"/>
<path d="M135.826 836.576C135.006 833.811 134.276 831.025 133.499 828.25L131.32 819.889C129.869 814.315 128.53 808.714 127.192 803.113C125.887 797.504 124.585 791.895 123.393 786.26L121.61 777.806C121.068 774.976 120.476 772.157 119.977 769.316C120.799 772.08 121.528 774.867 122.306 777.641L124.485 786.002C125.935 791.577 127.274 797.177 128.611 802.778C129.914 808.387 131.216 813.997 132.407 819.632L134.19 828.086C134.734 830.917 135.325 833.736 135.826 836.576Z" fill="#B37021"/>
<path d="M92.2188 704.535C93.0387 707.3 93.7688 710.086 94.5458 712.861L96.7248 721.222C98.1758 726.796 99.5148 732.397 100.853 737.998C102.158 743.607 103.46 749.216 104.652 754.851L106.435 763.305C106.977 766.135 107.569 768.954 108.068 771.795C107.246 769.031 106.517 766.244 105.739 763.47L103.56 755.109C102.111 749.534 100.771 743.934 99.4338 738.333C98.1308 732.724 96.8288 727.115 95.6378 721.479L93.8538 713.025C93.3098 710.194 92.7188 707.375 92.2188 704.535Z" fill="#B37021"/>
<path d="M48.033 792.309L115.215 776.477L183.212 764.174L196.029 757.056L194.589 750.135L179.996 748.723L112.737 764.573L44.817 776.862V776.86L44.811 776.863L44.739 776.876L44.744 776.9L32 783.977L33.441 790.898L47.95 792.303L47.955 792.327L48.027 792.31L48.033 792.311V792.309Z" fill="#FD8A00"/>
<path d="M49.1424 787.851C49.3174 788.69 50.1393 789.229 50.9783 789.054C51.8173 788.879 52.3563 788.057 52.1813 787.218C52.0063 786.379 51.1843 785.84 50.3453 786.015C49.5063 786.19 48.9674 787.012 49.1424 787.851Z" fill="#7C4B13"/>
<path d="M47.6111 780.506C47.7861 781.345 48.6081 781.884 49.4471 781.709C50.2861 781.534 50.8251 780.712 50.6501 779.873C50.4751 779.034 49.6531 778.495 48.8141 778.67C47.9751 778.845 47.4361 779.667 47.6111 780.506Z" fill="#7C4B13"/>
<path d="M178.814 753.197C178.639 752.358 177.817 751.819 176.978 751.994C176.139 752.169 175.6 752.991 175.775 753.83C175.95 754.669 176.772 755.208 177.611 755.033C178.449 754.859 178.988 754.037 178.814 753.197Z" fill="#7C4B13"/>
<path d="M180.345 760.543C180.17 759.704 179.348 759.165 178.509 759.34C177.67 759.515 177.131 760.337 177.306 761.176C177.481 762.015 178.303 762.554 179.142 762.38C179.981 762.204 180.52 761.382 180.345 760.543Z" fill="#7C4B13"/>
<path d="M47.9531 792.328C50.7181 791.508 53.5041 790.778 56.2791 790.001L64.6401 787.822C70.2141 786.371 75.8151 785.032 81.4161 783.694C87.0251 782.389 92.6341 781.087 98.2691 779.895L106.723 778.112C109.553 777.57 112.372 776.978 115.212 776.479C112.447 777.301 109.661 778.03 106.887 778.808L98.5261 780.987C92.9511 782.437 87.3511 783.776 81.7501 785.113C76.1411 786.416 70.5321 787.718 64.8961 788.909L56.4421 790.693C53.6121 791.236 50.7931 791.827 47.9531 792.328Z" fill="#B37021"/>
<path d="M179.994 748.723C177.229 749.543 174.443 750.273 171.668 751.05L163.307 753.229C157.733 754.68 152.132 756.019 146.531 757.357C140.922 758.662 135.313 759.964 129.678 761.156L121.224 762.939C118.394 763.481 115.575 764.073 112.734 764.572C115.499 763.75 118.285 763.021 121.059 762.243L129.42 760.064C134.995 758.615 140.595 757.275 146.196 755.938C151.805 754.635 157.414 753.333 163.05 752.142L171.504 750.359C174.335 749.815 177.154 749.223 179.994 748.723Z" fill="#B37021"/>
<path d="M176.077 801.763L117.378 765.453L60.596 726.071L46.5 722.041L42.625 727.953L51.945 739.27L110.712 775.622L167.428 814.959L167.427 814.961L167.433 814.962L167.494 815.004L167.507 814.983L181.523 818.991L185.398 813.078L176.131 801.826L176.145 801.805L176.082 801.766L176.078 801.761L176.077 801.763Z" fill="#FD8A00"/>
<path d="M172.139 804.132C172.609 803.415 172.409 802.453 171.692 801.983C170.975 801.513 170.013 801.713 169.543 802.43C169.073 803.147 169.273 804.109 169.99 804.579C170.706 805.05 171.669 804.849 172.139 804.132Z" fill="#7C4B13"/>
<path d="M168.03 810.407C168.5 809.69 168.3 808.728 167.583 808.258C166.866 807.788 165.904 807.988 165.434 808.705C164.964 809.422 165.164 810.384 165.881 810.854C166.598 811.325 167.56 811.125 168.03 810.407Z" fill="#7C4B13"/>
<path d="M55.9418 736.944C55.4718 737.661 55.6718 738.623 56.3888 739.093C57.1058 739.563 58.0678 739.363 58.5378 738.646C59.0078 737.929 58.8078 736.967 58.0908 736.497C57.3738 736.026 56.4118 736.227 55.9418 736.944Z" fill="#7C4B13"/>
<path d="M60.0512 730.669C59.5812 731.386 59.7812 732.348 60.4982 732.818C61.2152 733.288 62.1772 733.088 62.6472 732.371C63.1172 731.654 62.9172 730.692 62.2002 730.222C61.4832 729.751 60.5212 729.952 60.0512 730.669Z" fill="#7C4B13"/>
<path d="M176.142 801.805C173.607 800.43 171.121 798.976 168.609 797.563L161.156 793.192C156.189 790.276 151.281 787.263 146.375 784.249C141.486 781.206 136.599 778.16 131.772 775.018L124.533 770.301C122.148 768.683 119.737 767.108 117.375 765.453C119.911 766.827 122.397 768.281 124.909 769.693L132.362 774.064C137.329 776.981 142.236 779.994 147.142 783.009C152.03 786.054 156.917 789.099 161.744 792.242L168.983 796.959C171.368 798.575 173.78 800.15 176.142 801.805Z" fill="#B37021"/>
<path d="M51.9453 739.27C54.4803 740.645 56.9663 742.099 59.4783 743.512L66.9313 747.883C71.8983 750.799 76.8063 753.812 81.7123 756.826C86.6013 759.869 91.4883 762.915 96.3153 766.057L103.554 770.774C105.939 772.392 108.35 773.967 110.712 775.622C108.176 774.248 105.69 772.794 103.178 771.382L95.7253 767.011C90.7583 764.094 85.8513 761.081 80.9453 758.066C76.0573 755.021 71.1703 751.976 66.3433 748.833L59.1043 744.116C56.7183 742.5 54.3073 740.925 51.9453 739.27Z" fill="#B37021"/>
<path d="M82.7661 832.581L119.077 773.882L158.459 717.1L162.489 703.004L156.576 699.129L145.259 708.449L108.907 767.216L69.5711 823.932L69.5691 823.931L69.5671 823.937L69.5251 823.998L69.5461 824.011L65.5391 838.027L71.4511 841.902L82.7041 832.635L82.7251 832.649L82.7631 832.586L82.7681 832.582L82.7661 832.581Z" fill="#FD8A00"/>
<path d="M80.3966 828.649C81.1136 829.119 82.0756 828.919 82.5456 828.202C83.0156 827.485 82.8156 826.523 82.0986 826.053C81.3816 825.583 80.4196 825.783 79.9496 826.5C79.4796 827.216 79.6796 828.179 80.3966 828.649Z" fill="#7C4B13"/>
<path d="M74.1232 824.536C74.8402 825.006 75.8022 824.806 76.2722 824.089C76.7422 823.372 76.5422 822.41 75.8252 821.94C75.1082 821.47 74.1462 821.67 73.6762 822.387C73.2062 823.104 73.4062 824.066 74.1232 824.536Z" fill="#7C4B13"/>
<path d="M147.591 712.45C146.874 711.98 145.912 712.18 145.442 712.897C144.972 713.614 145.172 714.576 145.889 715.046C146.606 715.516 147.568 715.316 148.038 714.599C148.508 713.883 148.308 712.92 147.591 712.45Z" fill="#7C4B13"/>
<path d="M153.864 716.563C153.147 716.093 152.185 716.293 151.715 717.01C151.245 717.727 151.445 718.689 152.162 719.159C152.879 719.629 153.841 719.429 154.311 718.712C154.781 717.995 154.581 717.033 153.864 716.563Z" fill="#7C4B13"/>
<path d="M82.7266 832.65C84.1016 830.115 85.5556 827.629 86.9686 825.117L91.3396 817.664C94.2556 812.697 97.2686 807.79 100.283 802.883C103.326 797.994 106.372 793.107 109.514 788.28L114.231 781.041C115.849 778.656 117.424 776.245 119.079 773.883C117.705 776.419 116.251 778.905 114.839 781.417L110.468 788.87C107.551 793.837 104.538 798.744 101.523 803.65C98.4776 808.538 95.4326 813.425 92.2896 818.252L87.5726 825.491C85.9556 827.876 84.3806 830.288 82.7266 832.65Z" fill="#B37021"/>
<path d="M145.258 708.449C143.883 710.984 142.429 713.47 141.016 715.982L136.645 723.435C133.729 728.402 130.716 733.31 127.702 738.216C124.659 743.105 121.613 747.992 118.471 752.819L113.754 760.058C112.136 762.443 110.561 764.854 108.906 767.216C110.28 764.68 111.734 762.194 113.146 759.682L117.517 752.229C120.434 747.262 123.447 742.355 126.462 737.449C129.507 732.561 132.552 727.674 135.695 722.847L140.412 715.608C142.029 713.223 143.604 710.811 145.258 708.449Z" fill="#B37021"/>
<path d="M121.379 873.163H295.841V862.555L121.266 868.218L121.379 873.163Z" fill="#623B0D"/>
<path d="M311.471 862.555H295.844V873.163H311.471V862.555Z" fill="#3F2305"/>
<path d="M126.815 874.455L129.75 756.738H101.969L105.157 878.336" fill="#623B0D"/>
<path d="M121.921 878.336L125.109 756.738H97.3281L100.516 878.336" fill="#FD8A00"/>
<path d="M97.3294 756.738C97.6264 761.8 97.8304 766.865 98.0834 771.929L98.6854 787.123C99.0714 797.253 99.3254 807.386 99.6524 817.518C99.8604 827.653 100.132 837.786 100.281 847.922L100.476 863.127C100.488 868.197 100.549 873.265 100.517 878.336C100.219 873.274 100.015 868.209 99.7614 863.146L99.1594 847.952C98.7774 837.822 98.5174 827.689 98.1944 817.557C97.9894 807.422 97.7134 797.289 97.5674 787.153L97.3724 771.948C97.3594 766.877 97.2974 761.809 97.3294 756.738Z" fill="#B37021"/>
<path d="M105.603 756.738C105.9 761.8 106.104 766.865 106.357 771.929L106.959 787.123C107.345 797.253 107.599 807.386 107.926 817.518C108.135 827.653 108.406 837.786 108.556 847.922L108.751 863.127C108.763 868.197 108.825 873.265 108.792 878.336C108.494 873.274 108.29 868.209 108.036 863.146L107.434 847.952C107.052 837.822 106.792 827.689 106.47 817.557C106.265 807.422 105.989 797.289 105.843 787.153L105.648 771.948C105.633 766.877 105.571 761.809 105.603 756.738Z" fill="#B37021"/>
<path d="M118.33 756.738C118.361 761.809 118.3 766.877 118.287 771.947L118.092 787.152C117.946 797.288 117.67 807.421 117.465 817.556C117.142 827.688 116.882 837.821 116.5 847.951L115.898 863.145C115.644 868.208 115.44 873.273 115.142 878.335C115.109 873.264 115.171 868.196 115.183 863.126L115.378 847.921C115.527 837.785 115.799 827.652 116.008 817.517C116.335 807.385 116.589 797.252 116.975 787.122L117.577 771.928C117.829 766.865 118.033 761.8 118.33 756.738Z" fill="#B37021"/>
<path d="M121.923 878.335C121.892 873.264 121.953 868.196 121.966 863.126L122.161 847.921C122.307 837.785 122.583 827.652 122.788 817.517C123.111 807.385 123.371 797.252 123.752 787.122L124.354 771.928C124.608 766.865 124.812 761.8 125.11 756.738C125.143 761.809 125.081 766.877 125.069 771.947L124.874 787.152C124.725 797.288 124.453 807.421 124.245 817.556C123.918 827.688 123.664 837.821 123.278 847.951L122.676 863.146C122.424 868.208 122.22 873.273 121.923 878.335Z" fill="#B37021"/>
<path d="M120.264 768.51C120.264 771.653 117.716 774.202 114.572 774.202C111.428 774.202 105.776 774.202 105.776 774.202C105.776 774.202 102.904 763.138 105.776 762.847C105.966 762.828 114.377 762.818 114.572 762.818C117.715 762.818 120.264 765.366 120.264 768.51Z" fill="#623B0D"/>
<path d="M111.47 768.51C111.47 771.653 108.922 774.202 105.778 774.202C102.634 774.202 100.086 771.654 100.086 768.51C100.086 765.366 102.634 762.818 105.778 762.818C108.922 762.818 111.47 765.366 111.47 768.51Z" fill="#B37021"/>
<path d="M105.781 762.818C107.277 762.449 109.021 762.914 110.279 764.012C111.565 765.09 112.326 766.795 112.333 768.51C112.328 770.225 111.567 771.931 110.281 773.009C109.023 774.108 107.278 774.573 105.782 774.202C107.271 773.841 108.487 773.08 109.332 772.06C110.165 771.035 110.629 769.78 110.614 768.51C110.631 767.239 110.167 765.983 109.334 764.958C108.488 763.938 107.271 763.177 105.781 762.818Z" fill="#FD8A00"/>
<path d="M175.972 873.162H114.914V879.877H175.972V873.162Z" fill="#3F2305"/>
<path d="M114.916 873.162H89.8203V879.877H114.916V873.162Z" fill="#FD8A00"/>
</svg>
