<svg width="1440" height="511" viewBox="0 0 1440 511" fill="none" xmlns="http://www.w3.org/2000/svg">
<path d="M13.0399 442.049V479.718H-59V511H1494V479.718H1436.54V442.049H1435.17L1426.38 389.927H1434.63V371.845H1416.22L1407.85 322.26H1415.16V306.269H1399.23L1391.46 260.253H1397.93V246.106H1383.91L1376.97 204.959H1382.68V192.446H1369.98L1364.15 157.835H1369.2V146.766H1355.65L1351.18 120.259H1355.57V110.651L1375.81 97.9213V78.9874H1360.91V73.6215C1360.91 73.3041 1360.65 73.0477 1360.34 73.0477H1357.53L1356.22 43.7344H1357.65C1358 43.7344 1358.28 43.478 1358.28 43.1633V39.6108C1358.28 39.2935 1358 39.037 1357.65 39.037H1357.01V31.7202H1357.65C1358 31.7202 1358.28 31.4637 1358.28 31.1437V29.7612C1358.28 29.5366 1358.14 29.3464 1357.94 29.251C1357.98 29.1827 1358.04 29.1137 1358.08 29.0446C1358.15 28.9628 1358.21 28.8782 1358.26 28.7936C1358.37 28.6298 1358.48 28.4661 1358.57 28.2996C1358.64 28.1832 1358.7 28.0669 1358.77 27.9505C1358.81 27.8659 1358.85 27.784 1358.89 27.6994C1359.12 27.2318 1359.29 26.7636 1359.41 26.2987C1360.13 23.5839 1359.16 21.0099 1357.75 19.3574C1357.09 18.5908 1356.45 17.9405 1355.84 17.3721C1355.86 17.3566 1355.88 17.3322 1355.88 17.3058V17.0838C1355.88 17.0311 1355.82 16.9911 1355.76 16.9911H1355.41C1351.91 13.938 1349.36 13.9306 1349.36 13.9306C1349.36 13.9306 1349.26 13.9333 1349.06 13.957V13.9597C1349.01 13.9624 1348.96 13.9732 1348.91 13.9806C1348.87 13.9861 1348.83 13.9915 1348.8 13.9989C1348.75 14.007 1348.7 14.0172 1348.65 14.0253C1348.58 14.0436 1348.51 14.0598 1348.43 14.0781C1348.4 14.0889 1348.37 14.0937 1348.33 14.1018C1348.09 14.1654 1347.8 14.2554 1347.47 14.3765C1347.45 14.3846 1347.42 14.3975 1347.4 14.4083C1347.26 14.4611 1347.12 14.522 1346.96 14.5883C1346.93 14.6039 1346.88 14.6228 1346.84 14.6384C1346.7 14.7074 1346.55 14.7812 1346.4 14.8576C1346.35 14.8813 1346.31 14.9002 1346.27 14.9239C1346.09 15.0166 1345.92 15.1114 1345.73 15.2223C1345.7 15.2352 1345.68 15.2514 1345.65 15.267C1345.22 15.5234 1344.77 15.8245 1344.29 16.1893C1344.27 16.1974 1344.26 16.2075 1344.25 16.2211V16.2184C1344.2 16.2556 1344.15 16.2976 1344.1 16.3348C1343.93 16.464 1343.76 16.6041 1343.59 16.7496C1343.51 16.8206 1343.41 16.8978 1343.33 16.9742C1343.32 16.9796 1343.31 16.9824 1343.3 16.9898H1342.85C1342.79 16.9898 1342.73 17.0297 1342.73 17.0825V17.3044C1342.73 17.3545 1342.79 17.3971 1342.85 17.3971H1342.85C1342.85 17.4026 1342.85 17.408 1342.85 17.4127C1342.74 17.4973 1342.65 17.5846 1342.56 17.6773C1342.38 17.8438 1342.2 18.0237 1342.03 18.2058C1341.94 18.2958 1341.86 18.3749 1341.77 18.4703C1341.51 18.7505 1341.24 19.0441 1340.97 19.3561C1339.04 21.5999 1337.95 25.549 1340.79 29.2497C1340.58 29.3424 1340.44 29.5298 1340.44 29.7598V31.1423C1340.44 31.4624 1340.72 31.7188 1341.07 31.7188H1341.71V39.0356H1341.07C1340.72 39.0356 1340.44 39.2921 1340.44 39.6094V43.162C1340.44 43.4766 1340.72 43.7331 1341.07 43.7331H1342.5L1341.19 73.0463H1338.38C1338.07 73.0463 1337.81 73.3028 1337.81 73.6201V78.9861H1319.39V76.1211C1319.39 75.9519 1319.26 75.8146 1319.1 75.8146H1317.59L1316.89 60.1693H1317.65C1317.84 60.1693 1318 60.0319 1318 59.8628V57.9674C1318 57.7983 1317.84 57.6609 1317.65 57.6609H1317.32V53.7545H1317.65C1317.84 53.7545 1318 53.6144 1318 53.448V52.7077C1318 52.5886 1317.92 52.4858 1317.8 52.4357C1317.83 52.3985 1317.86 52.3646 1317.89 52.3274C1317.92 52.2848 1317.95 52.2401 1317.98 52.1928C1318.03 52.1055 1318.09 52.0155 1318.15 51.9309C1318.19 51.8673 1318.21 51.8064 1318.25 51.7435L1318.31 51.6088C1318.44 51.3577 1318.53 51.1094 1318.6 50.8631C1318.6 50.8631 1318.6 50.8631 1318.6 50.8604C1318.98 49.4117 1318.47 48.0401 1317.71 47.1543C1317.36 46.747 1317.02 46.3984 1316.69 46.0946C1316.7 46.0865 1316.7 46.0764 1316.7 46.0601V45.941C1316.7 45.9119 1316.68 45.891 1316.66 45.891H1316.46C1314.6 44.2629 1313.23 44.2602 1313.23 44.2602C1313.23 44.2602 1313.17 44.2602 1313.07 44.2731C1313.04 44.2785 1313.02 44.2784 1312.99 44.2866C1312.97 44.2866 1312.95 44.292 1312.93 44.2947C1312.9 44.3001 1312.88 44.3055 1312.85 44.3103C1312.82 44.3184 1312.77 44.3258 1312.73 44.3393L1312.68 44.3475C1312.55 44.3847 1312.4 44.432 1312.22 44.4984C1312.21 44.5038 1312.19 44.5092 1312.18 44.5139C1312.11 44.5403 1312.03 44.5748 1311.96 44.6093L1311.89 44.6384C1311.81 44.673 1311.73 44.7149 1311.64 44.7548C1311.62 44.7684 1311.6 44.7785 1311.58 44.7894C1311.48 44.8367 1311.39 44.8922 1311.3 44.9477C1311.28 44.9585 1311.26 44.9659 1311.26 44.9741C1311.02 45.1087 1310.77 45.2725 1310.52 45.4633C1310.52 45.4687 1310.5 45.4762 1310.49 45.4789C1310.47 45.4998 1310.45 45.5235 1310.42 45.5425C1310.33 45.6142 1310.24 45.6852 1310.15 45.7617C1310.1 45.8016 1310.06 45.8436 1310 45.8862C1310 45.8889 1310 45.8889 1310 45.8916H1309.75C1309.71 45.8916 1309.7 45.9126 1309.7 45.9417V46.0608C1309.7 46.0872 1309.71 46.1082 1309.75 46.1082H1309.75C1309.75 46.1136 1309.75 46.1136 1309.75 46.119C1309.7 46.1636 1309.65 46.2117 1309.6 46.2618C1309.51 46.3491 1309.41 46.4465 1309.32 46.5419C1309.27 46.5866 1309.22 46.6346 1309.18 46.682C1309.04 46.8329 1308.89 46.9885 1308.74 47.155C1307.72 48.3547 1307.14 50.4618 1308.66 52.4364C1308.54 52.4864 1308.47 52.5872 1308.47 52.7084V53.4487C1308.47 53.6151 1308.61 53.7552 1308.81 53.7552H1309.14V57.6616H1308.81C1308.61 57.6616 1308.47 57.7989 1308.47 57.9681V59.8635C1308.47 60.0326 1308.61 60.17 1308.81 60.17H1309.57L1308.87 75.8152H1307.36C1307.2 75.8152 1307.07 75.9526 1307.07 76.1218V78.9868H1287.51V76.1218C1287.51 75.9526 1287.38 75.8152 1287.21 75.8152H1285.71L1285.01 60.17H1285.77C1285.96 60.17 1286.11 60.0326 1286.11 59.8635V57.9681C1286.11 57.7989 1285.96 57.6616 1285.77 57.6616H1285.43V53.7552H1285.77C1285.96 53.7552 1286.11 53.6151 1286.11 53.4487V52.7084C1286.11 52.5893 1286.03 52.4864 1285.92 52.4364C1285.95 52.3991 1285.97 52.3653 1286 52.3281C1286.05 52.2855 1286.07 52.2408 1286.1 52.1934C1286.17 52.1061 1286.21 52.0162 1286.26 51.9316C1286.31 51.868 1286.34 51.8071 1286.37 51.7441L1286.44 51.6095C1286.55 51.3584 1286.65 51.1101 1286.71 50.8638C1286.71 50.8638 1286.71 50.8638 1286.71 50.8611C1287.09 49.4123 1286.58 48.0407 1285.83 47.155C1285.47 46.7476 1285.14 46.3991 1284.81 46.0953C1284.81 46.0872 1284.82 46.077 1284.82 46.0608V45.9417C1284.82 45.9126 1284.8 45.8916 1284.77 45.8916H1284.58C1282.71 44.2636 1281.35 44.2609 1281.35 44.2609C1281.35 44.2609 1281.29 44.2609 1281.19 44.2737C1281.16 44.2791 1281.14 44.2791 1281.11 44.2873C1281.09 44.2873 1281.07 44.2927 1281.05 44.2954C1281.02 44.3008 1281 44.3062 1280.97 44.3109C1280.93 44.3191 1280.89 44.3265 1280.85 44.34L1280.8 44.3481C1280.67 44.3854 1280.52 44.4327 1280.34 44.4991C1280.33 44.5045 1280.32 44.5099 1280.3 44.5146C1280.22 44.541 1280.15 44.5755 1280.07 44.61L1280.01 44.6391C1279.93 44.6736 1279.85 44.7156 1279.77 44.7555C1279.74 44.769 1279.72 44.7792 1279.7 44.79C1279.61 44.8374 1279.51 44.8929 1279.41 44.9484C1279.4 44.9592 1279.38 44.9666 1279.37 44.9748C1279.14 45.1094 1278.89 45.2731 1278.65 45.464C1278.64 45.4694 1278.63 45.4768 1278.62 45.4795C1278.59 45.5005 1278.56 45.5242 1278.54 45.5431C1278.45 45.6149 1278.36 45.6859 1278.26 45.7624C1278.22 45.8023 1278.17 45.8442 1278.13 45.8869C1278.13 45.8896 1278.13 45.8896 1278.11 45.8923H1277.87C1277.84 45.8923 1277.82 45.9133 1277.82 45.9424V46.0615C1277.82 46.0878 1277.84 46.1088 1277.87 46.1088H1277.87C1277.87 46.1142 1277.87 46.1142 1277.87 46.1196C1277.82 46.1643 1277.76 46.2124 1277.71 46.2624C1277.62 46.3497 1277.53 46.4472 1277.44 46.5426C1277.39 46.5872 1277.35 46.6353 1277.29 46.6827C1277.15 46.8336 1277.01 46.9892 1276.86 47.1556C1275.84 48.3554 1275.26 50.4625 1276.77 52.437C1276.66 52.4871 1276.58 52.5879 1276.58 52.7091V53.4493C1276.58 53.6158 1276.73 53.7559 1276.92 53.7559H1277.26V57.6623H1276.92C1276.73 57.6623 1276.58 57.7996 1276.58 57.9688V59.8641C1276.58 60.0333 1276.73 60.1707 1276.92 60.1707H1277.69L1276.99 75.8159H1275.48C1275.32 75.8159 1275.18 75.9533 1275.18 76.1225V78.9874H1259.03V76.1225C1259.03 75.9533 1258.9 75.8159 1258.72 75.8159H1257.23L1256.53 60.1707H1257.29C1257.47 60.1707 1257.63 60.0333 1257.63 59.8641V57.9688C1257.63 57.7996 1257.47 57.6623 1257.29 57.6623H1256.95V53.7559H1257.29C1257.47 53.7559 1257.63 53.6158 1257.63 53.4493V52.7091C1257.63 52.59 1257.56 52.4871 1257.44 52.437C1257.47 52.3998 1257.5 52.366 1257.53 52.3288C1257.56 52.2861 1257.59 52.2415 1257.62 52.1941C1257.68 52.1068 1257.73 52.0168 1257.78 51.9322C1257.82 51.8686 1257.86 51.8078 1257.89 51.7448L1257.95 51.6101C1258.08 51.3591 1258.17 51.1108 1258.24 50.8645C1258.24 50.8645 1258.24 50.8645 1258.24 50.8618C1258.61 49.413 1258.1 48.0414 1257.34 47.1556C1256.99 46.7483 1256.65 46.3998 1256.32 46.096C1256.33 46.0879 1256.35 46.0777 1256.35 46.0615V45.9424C1256.35 45.9133 1256.32 45.8923 1256.29 45.8923H1256.09C1254.22 44.2642 1252.87 44.2615 1252.87 44.2615C1252.87 44.2615 1252.81 44.2615 1252.71 44.2744H1252.7C1252.68 44.2798 1252.65 44.2798 1252.63 44.2879C1252.61 44.2879 1252.58 44.2934 1252.57 44.2961C1252.54 44.3015 1252.51 44.3069 1252.49 44.3116C1252.45 44.3197 1252.41 44.3272 1252.37 44.3407C1252.35 44.3434 1252.33 44.3461 1252.32 44.3488C1252.18 44.3861 1252.03 44.4334 1251.86 44.4997C1251.85 44.5051 1251.83 44.5106 1251.82 44.5153C1251.75 44.5417 1251.67 44.5762 1251.58 44.6107C1251.57 44.6215 1251.54 44.629 1251.53 44.6398C1251.44 44.6743 1251.36 44.7163 1251.28 44.7562C1251.26 44.7697 1251.24 44.7799 1251.22 44.7907C1251.12 44.838 1251.03 44.8935 1250.93 44.949C1250.91 44.9599 1250.9 44.9673 1250.88 44.9754C1250.66 45.1101 1250.41 45.2738 1250.15 45.4647C1250.15 45.4701 1250.14 45.4775 1250.14 45.4802C1250.11 45.5012 1250.09 45.5249 1250.06 45.5438C1249.97 45.6156 1249.88 45.6866 1249.79 45.7631C1249.74 45.803 1249.69 45.845 1249.64 45.8876C1249.64 45.8903 1249.63 45.8903 1249.63 45.893H1249.39C1249.36 45.893 1249.33 45.9139 1249.33 45.943V46.0622C1249.33 46.0885 1249.36 46.1095 1249.39 46.1095H1249.39C1249.39 46.1149 1249.39 46.1149 1249.39 46.1203C1249.33 46.165 1249.28 46.2131 1249.22 46.2631C1249.14 46.3504 1249.04 46.4479 1248.95 46.5433C1248.91 46.5879 1248.86 46.636 1248.82 46.6833C1248.67 46.8342 1248.53 46.9899 1248.39 47.1563C1247.36 48.3561 1246.77 50.4632 1248.3 52.4377C1248.18 52.4878 1248.1 52.5886 1248.1 52.7097V53.45C1248.1 53.6165 1248.25 53.7565 1248.44 53.7565H1248.78V57.6629H1248.44C1248.25 57.6629 1248.1 57.8003 1248.1 57.9695V59.8648C1248.1 60.034 1248.25 60.1714 1248.44 60.1714H1249.21L1248.51 75.8166H1247.01C1246.84 75.8166 1246.7 75.954 1246.7 76.1231V78.9881H1228V76.1231C1228 75.954 1227.86 75.8166 1227.7 75.8166H1226.19L1225.5 60.1714H1226.26C1226.45 60.1714 1226.6 60.034 1226.6 59.8648V57.9695C1226.6 57.8003 1226.45 57.6629 1226.26 57.6629H1225.92V53.7565H1226.26C1226.45 53.7565 1226.6 53.6165 1226.6 53.45V52.7097C1226.6 52.5906 1226.52 52.4878 1226.41 52.4377C1226.44 52.4005 1226.46 52.3666 1226.49 52.3294C1226.52 52.2868 1226.56 52.2422 1226.59 52.1948C1226.65 52.1075 1226.7 52.0175 1226.75 51.9329C1226.8 51.8693 1226.83 51.8084 1226.86 51.7455L1226.92 51.6108C1227.04 51.3598 1227.14 51.1114 1227.2 50.8651C1227.2 50.8651 1227.2 50.8651 1227.2 50.8624C1227.58 49.4137 1227.06 48.0421 1226.31 47.1563C1225.96 46.749 1225.63 46.4005 1225.3 46.0966C1225.3 46.0885 1225.31 46.0784 1225.31 46.0622V45.943C1225.31 45.9139 1225.29 45.893 1225.26 45.893H1225.07C1223.2 44.2649 1221.84 44.2622 1221.84 44.2622C1221.84 44.2622 1221.78 44.2622 1221.68 44.2751C1221.68 44.2751 1221.68 44.2751 1221.67 44.2751C1221.65 44.2805 1221.62 44.2805 1221.59 44.2886C1221.57 44.2886 1221.55 44.294 1221.53 44.2967C1221.5 44.3021 1221.49 44.3076 1221.46 44.3123C1221.42 44.3204 1221.38 44.3278 1221.34 44.3414L1221.29 44.3495C1221.15 44.3867 1221 44.4341 1220.83 44.5004C1220.81 44.5058 1220.8 44.5112 1220.79 44.5159C1220.71 44.5423 1220.64 44.5769 1220.56 44.6114L1220.49 44.6405C1220.41 44.675 1220.33 44.7169 1220.25 44.7569C1220.23 44.7704 1220.21 44.7806 1220.18 44.7914C1220.09 44.8387 1219.99 44.8942 1219.89 44.9497C1219.88 44.9606 1219.87 44.968 1219.85 44.9761C1219.63 45.1107 1219.39 45.2745 1219.12 45.4653C1219.12 45.4707 1219.11 45.4782 1219.1 45.4809C1219.08 45.5019 1219.05 45.5256 1219.02 45.5445C1218.94 45.6162 1218.85 45.6873 1218.75 45.7637C1218.71 45.8036 1218.66 45.8456 1218.61 45.8882C1218.61 45.8909 1218.61 45.8909 1218.6 45.8937H1218.36C1218.33 45.8937 1218.3 45.9146 1218.3 45.9437V46.0628C1218.3 46.0892 1218.33 46.1102 1218.36 46.1102H1218.36C1218.36 46.1156 1218.36 46.1156 1218.36 46.121C1218.3 46.1657 1218.25 46.2137 1218.2 46.2638C1218.11 46.3511 1218.02 46.4485 1217.92 46.5439C1217.87 46.5886 1217.83 46.6367 1217.79 46.684C1217.64 46.8349 1217.5 46.9905 1217.36 47.157C1216.33 48.3567 1215.75 50.4639 1217.26 52.4384C1217.15 52.4885 1217.07 52.5893 1217.07 52.7104V53.4507C1217.07 53.6172 1217.22 53.7572 1217.41 53.7572H1217.75V57.6636H1217.41C1217.22 57.6636 1217.07 57.801 1217.07 57.9701V59.8655C1217.07 60.0347 1217.22 60.172 1217.41 60.172H1218.18L1217.48 75.8173H1215.97C1215.81 75.8173 1215.67 75.9546 1215.67 76.1238V78.9888H1193.85V73.6228C1193.85 73.3055 1193.59 73.049 1193.28 73.049H1190.47L1189.16 43.7358H1190.59C1190.94 43.7358 1191.23 43.4793 1191.23 43.1647V39.6122C1191.23 39.2948 1190.94 39.0383 1190.59 39.0383H1189.95V31.7215H1190.59C1190.94 31.7215 1191.23 31.4651 1191.23 31.145V29.7626C1191.23 29.5379 1191.08 29.3478 1190.88 29.2523C1190.93 29.184 1190.98 29.115 1191.03 29.046C1191.09 28.9641 1191.15 28.8795 1191.21 28.7949C1191.32 28.6312 1191.42 28.4674 1191.52 28.301C1191.59 28.1846 1191.65 28.0682 1191.71 27.9518C1191.75 27.8672 1191.79 27.7853 1191.84 27.7008C1192.06 27.2332 1192.23 26.7649 1192.36 26.3001C1193.07 23.5853 1192.11 21.0112 1190.69 19.3588C1190.03 18.5921 1189.39 17.9418 1188.78 17.3734C1188.8 17.3579 1188.81 17.3335 1188.81 17.3072V17.0852C1188.81 17.0324 1188.77 16.9925 1188.72 16.9925H1188.35C1184.85 13.9394 1182.3 13.9319 1182.3 13.9319C1182.3 13.9319 1182.19 13.9346 1182.01 13.9583C1182.01 13.9583 1182.01 13.961 1182 13.961C1181.96 13.9637 1181.91 13.9746 1181.85 13.982C1181.82 13.9874 1181.78 13.9928 1181.74 14.0003C1181.69 14.0084 1181.65 14.0185 1181.6 14.0267C1181.53 14.0449 1181.45 14.0612 1181.37 14.0794C1181.35 14.0903 1181.31 14.095 1181.28 14.1031C1181.04 14.1667 1180.74 14.2567 1180.42 14.3778C1180.39 14.386 1180.37 14.3988 1180.34 14.4096C1180.21 14.4624 1180.06 14.5233 1179.91 14.5897C1179.87 14.6052 1179.83 14.6242 1179.79 14.6397C1179.65 14.7087 1179.49 14.7825 1179.34 14.8589C1179.29 14.8826 1179.25 14.9016 1179.22 14.9253C1179.04 15.018 1178.86 15.1127 1178.68 15.2237C1178.65 15.2365 1178.62 15.2528 1178.6 15.2684C1178.17 15.5248 1177.71 15.8259 1177.24 16.1906C1177.22 16.1988 1177.21 16.2089 1177.2 16.2224V16.2198C1177.14 16.257 1177.09 16.2989 1177.04 16.3361C1176.88 16.4654 1176.71 16.6054 1176.53 16.7509C1176.44 16.822 1176.36 16.8991 1176.27 16.9756C1176.27 16.981 1176.25 16.9837 1176.25 16.9911H1175.78C1175.72 16.9911 1175.68 17.0311 1175.68 17.0838V17.3058C1175.68 17.3559 1175.72 17.3985 1175.78 17.3985H1175.8C1175.79 17.4039 1175.79 17.4093 1175.78 17.414C1175.69 17.4986 1175.6 17.586 1175.5 17.6787C1175.32 17.8451 1175.15 18.0251 1174.98 18.2071C1174.89 18.2971 1174.8 18.3763 1174.72 18.4717C1174.45 18.7518 1174.18 19.0455 1173.91 19.3574C1171.99 21.6013 1170.9 25.5503 1173.73 29.251C1173.53 29.3437 1173.38 29.5311 1173.38 29.7612V31.1437C1173.38 31.4637 1173.66 31.7202 1174.01 31.7202H1174.65V39.037H1174.01C1173.66 39.037 1173.38 39.2935 1173.38 39.6108V43.1633C1173.38 43.478 1173.66 43.7344 1174.01 43.7344H1175.45L1174.14 73.0477H1171.32C1171.01 73.0477 1170.76 73.3041 1170.76 73.6215V78.9874H1155.86V97.9213L1176.1 110.651V120.259H1180.48L1176.01 146.766H1162.46V157.835H1167.52L1161.68 192.446H1148.98V204.959H1154.69L1147.75 246.106H1133.74V260.253H1140.2L1132.44 306.269H1116.51V322.26H1123.81L1115.44 371.845H1098.59V352.108H1101.68V345.679H1098.59V253.19L1113.13 221.534V208.675H1089.07V182.092H1073.81V161.567H1048.18V140.794H1045.66V127.444H1013.98V120.394H1011.62V116.683H1007.98C1004.75 107.683 995.372 101.175 984.297 101.175H901.996C890.914 101.175 881.537 107.683 878.306 116.683H870.338V120.394H868.165V127.444H840.628V140.794H838.111V161.567H812.488V182.092H797.225V208.675H773.151V221.534L787.702 253.19V345.679H784.607V352.108H787.702V370.787H772.617L771.39 343.245H773.972C774.324 343.245 774.61 342.988 774.61 342.671V337.123C774.61 336.803 774.324 336.546 773.972 336.546H771.092L769.817 308.028L769.76 306.696H772.277C772.589 306.696 772.84 306.439 772.84 306.122V300.574C772.84 300.262 772.589 300.003 772.277 300.003H769.457L768.159 270.692H769.577C769.938 270.692 770.212 270.439 770.212 270.118V266.569C770.212 266.249 769.938 265.995 769.577 265.995H768.943V258.676H769.577C769.938 258.676 770.212 258.414 770.212 258.097V256.71C770.212 256.49 770.075 256.302 769.866 256.202C769.917 256.136 769.969 256.067 770.012 256.001C770.077 255.917 770.135 255.835 770.195 255.747C770.309 255.584 770.406 255.423 770.509 255.253C770.581 255.137 770.632 255.023 770.698 254.907C770.744 254.817 770.787 254.74 770.83 254.653C771.05 254.186 771.219 253.717 771.339 253.255C771.339 253.252 771.348 253.252 771.348 253.252C772.057 250.535 771.102 247.964 769.681 246.314C769.023 245.545 768.383 244.894 767.768 244.329C767.787 244.313 767.802 244.289 767.802 244.262V244.035C767.802 243.985 767.759 243.945 767.702 243.945H767.35C763.838 240.892 761.294 240.886 761.294 240.886C761.294 240.886 761.185 240.886 761.005 240.913C761.005 240.913 761.005 240.913 760.996 240.913C760.947 240.918 760.901 240.926 760.844 240.934C760.804 240.942 760.77 240.947 760.73 240.955C760.684 240.966 760.641 240.97 760.584 240.981C760.518 240.997 760.441 241.013 760.367 241.037C760.329 241.039 760.301 241.05 760.272 241.052C760.024 241.121 759.732 241.208 759.406 241.33C759.377 241.343 759.359 241.348 759.329 241.359C759.197 241.414 759.054 241.475 758.891 241.543L758.783 241.593C758.637 241.66 758.48 241.731 758.322 241.813C758.282 241.834 758.242 241.853 758.202 241.874C758.031 241.966 757.848 242.066 757.67 242.177C757.635 242.191 757.613 242.207 757.59 242.22C757.164 242.474 756.706 242.783 756.226 243.145C756.211 243.153 756.203 243.161 756.186 243.171C756.132 243.209 756.086 243.251 756.031 243.288C755.868 243.423 755.697 243.557 755.523 243.703C755.437 243.774 755.351 243.851 755.26 243.927C755.26 243.938 755.251 243.938 755.245 243.943H754.773C754.716 243.943 754.67 243.983 754.67 244.033V244.26C754.67 244.31 754.716 244.345 754.773 244.345H754.79L754.773 244.369C754.676 244.459 754.584 244.54 754.484 244.636C754.315 244.8 754.137 244.98 753.963 245.157C753.88 245.247 753.792 245.329 753.7 245.426C753.443 245.704 753.174 245.997 752.902 246.312C750.981 248.554 749.894 252.502 752.722 256.2C752.522 256.293 752.368 256.486 752.368 256.708V258.095C752.368 258.413 752.657 258.674 753.011 258.674H753.646V265.993H753.011C752.657 265.993 752.368 266.247 752.368 266.567V270.116C752.368 270.436 752.657 270.69 753.011 270.69H754.438L753.132 300.001H750.314C749.997 300.001 749.751 300.26 749.751 300.572V306.12C749.751 306.437 749.997 306.694 750.314 306.694H752.831L752.768 308.026L751.496 336.544H749.322C748.973 336.544 748.688 336.801 748.688 337.121V342.669C748.688 342.986 748.974 343.243 749.322 343.243H751.196L751.104 345.371L749.96 370.786H696.254L695.064 343.932H697.646C697.997 343.932 698.286 343.673 698.286 343.358V337.813C698.286 337.493 697.997 337.232 697.646 337.232H694.763L693.493 308.719L693.436 307.387H695.944C696.259 307.387 696.516 307.13 696.516 306.81V301.259C696.516 300.945 696.259 300.686 695.944 300.686H693.136L691.82 271.377H693.256C693.605 271.377 693.891 271.118 693.891 270.8V267.251C693.891 266.936 693.605 266.68 693.256 266.68H692.613V259.361H693.256C693.605 259.361 693.891 259.104 693.891 258.787V257.399C693.891 257.174 693.748 256.987 693.537 256.892C693.594 256.823 693.643 256.757 693.694 256.683C693.748 256.603 693.811 256.519 693.868 256.434C693.977 256.268 694.086 256.107 694.177 255.94C694.252 255.824 694.312 255.707 694.377 255.588C694.42 255.506 694.454 255.422 694.497 255.34C694.726 254.867 694.898 254.401 695.018 253.942C695.733 251.222 694.769 248.648 693.356 247.001C692.693 246.229 692.058 245.581 691.437 245.013C691.466 244.997 691.48 244.973 691.48 244.946V244.722C691.48 244.669 691.429 244.629 691.372 244.629H691.017C687.514 241.581 684.966 241.571 684.966 241.571C684.966 241.571 684.861 241.573 684.669 241.6C684.62 241.605 684.568 241.61 684.514 241.618L684.403 241.636C684.355 241.647 684.311 241.654 684.26 241.668C684.188 241.681 684.112 241.7 684.034 241.718C684.003 241.729 683.977 241.732 683.942 241.742C683.691 241.805 683.408 241.893 683.076 242.019C683.056 242.033 683.027 242.037 683.007 242.048C682.864 242.098 682.721 242.165 682.572 242.228C682.535 242.242 682.492 242.263 682.449 242.278C682.309 242.347 682.158 242.421 681.997 242.5C681.957 242.518 681.915 242.54 681.871 242.561C681.7 242.651 681.522 242.754 681.336 242.862C681.316 242.876 681.285 242.889 681.259 242.907C680.827 243.158 680.372 243.467 679.895 243.824C679.88 243.837 679.866 243.845 679.854 243.858C679.8 243.893 679.751 243.938 679.709 243.977C679.537 244.105 679.368 244.247 679.188 244.385C679.111 244.461 679.017 244.54 678.928 244.612C678.925 244.623 678.916 244.623 678.908 244.628H678.444C678.387 244.628 678.339 244.668 678.339 244.72V244.945C678.339 244.995 678.387 245.035 678.444 245.035H678.461L678.439 245.053C678.344 245.141 678.253 245.228 678.161 245.315C677.981 245.487 677.812 245.664 677.632 245.841C677.549 245.934 677.46 246.018 677.377 246.113C677.111 246.39 676.848 246.684 676.576 246.999C674.648 249.241 673.559 253.192 676.402 256.89C676.181 256.98 676.033 257.172 676.033 257.397V258.785C676.033 259.102 676.319 259.359 676.676 259.359H677.311V266.678H676.676C676.325 266.678 676.033 266.934 676.033 267.249V270.798C676.033 271.116 676.324 271.375 676.676 271.375H678.1L676.799 300.684H673.988C673.673 300.684 673.416 300.943 673.416 301.257V306.808C673.416 307.128 673.674 307.385 673.988 307.385H676.496L676.439 308.717L675.167 337.23H672.99C672.639 337.23 672.353 337.492 672.353 337.811V343.356C672.353 343.671 672.639 343.93 672.99 343.93H674.864L674.772 346.053L673.668 370.786H634.075V312.24H624.678V297.137H617.117L616.305 278.008H621.489V263.081H615.664L615.049 248.541H619.862V238.208H614.497L612.124 214.102H614.686V207.594H610.52L609.178 180.512C611.889 179.701 613.846 177.409 613.846 174.699C613.846 171.311 610.797 168.567 607.039 168.567C603.278 168.567 600.221 171.311 600.221 174.699C600.221 177.409 602.186 179.701 604.891 180.512L603.556 207.594H599.384V214.102H601.946L599.576 238.208H594.211V248.541H599.026L598.406 263.081H592.586V278.008H597.771L596.959 297.137H589.395V312.24H580.878V272.515H582.955V268.775H581.559C584.07 264.596 591.843 248.546 570.612 238.407C562.353 234.455 553.714 233.147 547.337 223.232V217.385H547.088V209.701C547.485 209.585 547.771 209.26 547.771 208.861C547.771 208.372 547.337 207.978 546.788 207.978C546.244 207.978 545.812 208.372 545.812 208.861C545.812 209.26 546.096 209.585 546.496 209.701V217.385H546.244V223.364C539.876 233.16 531.28 234.476 523.046 238.406C501.818 248.546 509.593 264.595 512.11 268.775H510.711V272.515H512.787V312.24H504.385V233.995H508.635V226.342H505.77C510.917 217.778 526.843 184.928 483.369 164.162C466.448 156.071 448.766 153.383 435.703 133.088V121.112H435.197V105.38C436.001 105.144 436.601 104.467 436.601 103.659C436.601 102.657 435.703 101.848 434.588 101.848C433.476 101.848 432.58 102.657 432.58 103.659C432.58 104.467 433.17 105.144 433.982 105.38V121.112H433.47V133.358C420.435 153.416 402.825 156.109 385.975 164.162C342.501 184.928 358.424 217.778 363.574 226.342H360.712V233.995H364.959V312.24H356.554V272.515H358.639V268.775H357.232C359.751 264.595 367.527 248.546 346.296 238.406C338.028 234.455 329.398 233.147 323.02 223.231V217.384H322.771V209.701C323.16 209.584 323.455 209.26 323.455 208.86C323.455 208.371 323.015 207.977 322.471 207.977C321.931 207.977 321.49 208.371 321.49 208.86C321.49 209.26 321.779 209.584 322.177 209.701V217.384H321.931V223.363C315.557 233.159 306.963 234.476 298.73 238.406C277.499 248.545 285.275 264.595 287.786 268.774H286.396V272.514H288.473V312.239H279.947V297.136H272.386L271.571 278.006H276.756V263.08H270.937L270.316 248.539H275.129V238.207H269.775L267.398 214.1H269.961V207.593H265.786L264.453 180.511C267.164 179.699 269.117 177.407 269.117 174.698C269.117 171.309 266.069 168.565 262.311 168.565C258.545 168.565 255.499 171.309 255.499 174.698C255.499 177.407 257.455 179.699 260.163 180.511L258.831 207.593H254.656V214.1H257.218L254.842 238.207H249.486V248.539H254.301L253.68 263.08H247.861V278.006H253.046L252.234 297.136H244.67V312.239H235.276V370.784H195.676L194.572 346.051L194.477 343.932H196.354C196.705 343.932 196.988 343.673 196.988 343.358V337.813C196.988 337.493 196.705 337.232 196.354 337.232H194.18L192.91 308.719L192.842 307.387H195.364C195.676 307.387 195.927 307.13 195.927 306.81V301.259C195.927 300.945 195.675 300.686 195.364 300.686H192.544L191.24 271.377H192.667C193.021 271.377 193.307 271.118 193.307 270.8V267.251C193.307 266.936 193.021 266.68 192.667 266.68H192.032V259.361H192.667C193.021 259.361 193.307 259.104 193.307 258.787V257.399C193.307 257.174 193.159 256.982 192.953 256.892C195.784 253.194 194.692 249.242 192.773 247.001C192.501 246.686 192.233 246.393 191.975 246.115C191.88 246.02 191.795 245.935 191.709 245.843C191.532 245.666 191.36 245.489 191.189 245.317C191.088 245.23 190.997 245.143 190.902 245.055L190.885 245.037H190.902C190.962 245.037 191.006 244.997 191.006 244.947V244.722C191.006 244.67 190.962 244.63 190.902 244.63H190.433C190.424 244.624 190.416 244.624 190.416 244.614C190.325 244.543 190.242 244.463 190.156 244.387C189.976 244.249 189.805 244.107 189.642 243.979C189.593 243.939 189.541 243.895 189.493 243.86C189.478 243.847 189.465 243.839 189.45 243.826C188.973 243.469 188.518 243.16 188.086 242.909C188.063 242.891 188.035 242.877 188.006 242.864C187.823 242.756 187.646 242.652 187.474 242.563C187.431 242.542 187.394 242.521 187.351 242.502C187.188 242.423 187.036 242.349 186.893 242.28C186.85 242.265 186.816 242.243 186.773 242.23C186.625 242.167 186.482 242.101 186.347 242.05C186.319 242.039 186.296 242.035 186.267 242.021C185.947 241.894 185.655 241.807 185.404 241.744C185.375 241.733 185.346 241.73 185.312 241.72C185.232 241.702 185.152 241.683 185.092 241.67C185.032 241.656 184.991 241.649 184.949 241.638C184.906 241.63 184.872 241.625 184.835 241.62C184.778 241.612 184.726 241.606 184.686 241.602C184.68 241.602 184.68 241.602 184.68 241.602C184.488 241.575 184.383 241.572 184.383 241.572C184.383 241.572 181.837 241.583 178.329 244.631H177.971C177.914 244.631 177.871 244.671 177.871 244.724V244.948C177.871 244.975 177.886 244.998 177.905 245.015C177.293 245.583 176.65 246.231 175.995 247.003C174.577 248.65 173.613 251.224 174.325 253.944C174.454 254.404 174.626 254.869 174.846 255.342C174.889 255.424 174.932 255.509 174.975 255.59C175.038 255.709 175.098 255.826 175.167 255.942C175.261 256.109 175.369 256.27 175.484 256.436C175.533 256.521 175.596 256.605 175.653 256.685C175.704 256.758 175.761 256.825 175.81 256.894C175.604 256.989 175.456 257.176 175.456 257.401V258.789C175.456 259.106 175.739 259.363 176.093 259.363H176.731V266.682H176.093C175.739 266.682 175.456 266.938 175.456 267.253V270.803C175.456 271.12 175.739 271.379 176.093 271.379H177.523L176.216 300.688H173.399C173.082 300.688 172.833 300.947 172.833 301.261V306.812C172.833 307.132 173.082 307.389 173.399 307.389H175.918L175.861 308.721L174.583 337.234H171.703C171.352 337.234 171.065 337.496 171.065 337.815V343.36C171.065 343.675 171.352 343.934 171.703 343.934H174.282L173.081 370.79H119.375L118.236 345.375L118.148 343.247H120.018C120.376 343.247 120.659 342.99 120.659 342.673V337.125C120.659 336.805 120.376 336.548 120.018 336.548H117.839L116.57 308.03L116.512 306.698H119.023C119.338 306.698 119.598 306.441 119.598 306.124V300.576C119.598 300.264 119.338 300.005 119.023 300.005H116.215L114.903 270.694H116.338C116.684 270.694 116.973 270.44 116.973 270.12V266.571C116.973 266.251 116.684 265.997 116.338 265.997H115.703V258.678H116.338C116.684 258.678 116.973 258.416 116.973 258.099V256.712C116.973 256.49 116.827 256.297 116.613 256.204C119.455 252.506 118.363 248.557 116.438 246.316C116.167 246.001 115.898 245.708 115.638 245.43C115.552 245.333 115.466 245.25 115.38 245.161C115.203 244.984 115.026 244.804 114.853 244.64C114.759 244.544 114.659 244.463 114.567 244.373C114.561 244.362 114.561 244.357 114.55 244.349H114.567C114.627 244.349 114.665 244.314 114.665 244.264V244.037C114.665 243.987 114.627 243.947 114.567 243.947H114.101C114.086 243.942 114.086 243.941 114.081 243.931C113.99 243.855 113.904 243.778 113.818 243.707C113.647 243.561 113.475 243.427 113.304 243.292C113.257 243.255 113.206 243.213 113.161 243.176L113.121 243.149C112.643 242.787 112.186 242.478 111.757 242.224C111.728 242.211 111.7 242.195 111.677 242.182C111.494 242.071 111.317 241.97 111.137 241.878C111.096 241.857 111.06 241.838 111.017 241.817C110.856 241.735 110.708 241.663 110.556 241.598L110.445 241.547C110.296 241.478 110.145 241.418 110.007 241.363C109.99 241.352 109.961 241.347 109.938 241.334C109.609 241.212 109.323 241.125 109.074 241.056C109.04 241.054 109.011 241.043 108.974 241.041C108.897 241.017 108.825 241.001 108.754 240.985C108.705 240.974 108.653 240.97 108.611 240.959C108.576 240.951 108.534 240.945 108.503 240.938C108.448 240.93 108.396 240.922 108.348 240.917C108.348 240.917 108.348 240.917 108.339 240.917C108.153 240.89 108.048 240.89 108.048 240.89C108.048 240.89 105.502 240.896 101.999 243.949H101.636C101.585 243.949 101.536 243.989 101.536 244.039V244.266C101.536 244.293 101.551 244.316 101.57 244.333C100.955 244.898 100.315 245.549 99.6602 246.318C98.2473 247.968 97.2839 250.539 97.9962 253.257C97.9962 253.257 97.9962 253.257 97.9962 253.259C98.1192 253.722 98.2905 254.19 98.5167 254.657C98.554 254.745 98.5936 254.821 98.6368 254.911L98.8315 255.257C98.9289 255.427 99.0343 255.588 99.1463 255.751C99.2005 255.839 99.2605 255.921 99.3235 256.005L99.475 256.206C99.2664 256.306 99.1258 256.494 99.1258 256.714V258.101C99.1258 258.419 99.4091 258.68 99.7576 258.68H100.401V265.999H99.7576C99.4084 265.999 99.1258 266.253 99.1258 266.573V270.122C99.1258 270.443 99.4091 270.696 99.7576 270.696H101.19L99.8777 300.007H97.0694C96.7545 300.007 96.4976 300.266 96.4976 300.578V306.126C96.4976 306.443 96.7553 306.7 97.0694 306.7H99.5775L99.5233 308.032L98.248 336.55H95.3628C95.0165 336.55 94.731 336.807 94.731 337.127V342.675C94.731 342.992 95.0173 343.249 95.3628 343.249H97.9537L96.718 370.791H76.3825V397.45H71.2234L69.3045 332.715H69.4048L82.9084 324.246V302.655H68.4062L66.8279 249.508H68.0431L80.838 241.475V220.998H65.9815L64.226 161.99H67.0746L79.3804 154.261V134.585H63.4141L61.7295 77.967H66.0877L77.8935 70.5582V51.6778H60.9411L60.1321 24.3391H64.3673L75.2975 17.4797V0H10.5779V17.4797L21.511 24.3391H25.7462L24.9343 51.6778H7.98402V70.5582L19.7891 77.967H24.1561L22.4715 134.585H6.50592V154.261L18.8118 161.99H21.6603L19.9048 220.998H5.04465V241.475L17.8417 249.508H19.0541L17.4698 302.655H2.97647V324.242L16.472 332.712H16.5781L14.6534 397.447H-1.54716V421.477L13.4726 430.91H13.6614L13.3291 442.049H13.0399ZM1361.38 85.6087C1361.38 83.6923 1363.11 82.1434 1365.23 82.1434C1367.36 82.1434 1369.08 83.6923 1369.08 85.6087V94.1962H1361.38V85.6087ZM1345.94 85.6087C1345.94 83.6923 1347.66 82.1434 1349.79 82.1434C1351.92 82.1434 1353.63 83.6923 1353.63 85.6087V94.1962H1345.94V85.6087ZM1330.51 85.6087C1330.51 83.6923 1332.23 82.1434 1334.35 82.1434C1336.47 82.1434 1338.2 83.6923 1338.2 85.6087V94.1962H1330.51V85.6087ZM1315.07 85.6087C1315.07 83.6923 1316.79 82.1434 1318.91 82.1434C1321.03 82.1434 1322.75 83.6923 1322.75 85.6087V94.1962H1315.07V85.6087ZM1306.96 442.049H1224.71V401.98H1306.96V442.049ZM1229.46 371.845V332.923H1302.21V371.845H1229.46ZM1299.62 85.6087C1299.62 83.6923 1301.34 82.1434 1303.47 82.1434C1305.58 82.1434 1307.32 83.6923 1307.32 85.6087V94.1962H1299.62V85.6087ZM1284.18 85.6087C1284.18 83.6923 1285.91 82.1434 1288.03 82.1434C1290.15 82.1434 1291.87 83.6923 1291.87 85.6087V94.1962H1284.18V85.6087ZM1268.74 85.6087C1268.74 83.6923 1270.46 82.1434 1272.59 82.1434C1274.71 82.1434 1276.43 83.6923 1276.43 85.6087V94.1962H1268.74V85.6087ZM1253.3 85.6087C1253.3 83.6923 1255.02 82.1434 1257.15 82.1434C1259.27 82.1434 1261 83.6923 1261 85.6087V94.1962H1253.3V85.6087ZM1287.7 126.669V146.765H1243.97V126.669H1287.7ZM1291.02 165.213V192.446H1240.65V165.213H1291.02ZM1237.86 85.6087C1237.86 83.6923 1239.58 82.1434 1241.71 82.1434C1243.83 82.1434 1245.55 83.6923 1245.55 85.6087V94.1962H1237.86V85.6087ZM1237.37 213.306H1294.31V246.106H1237.37V213.306ZM1233.65 269.689H1298.01V306.269H1233.65V269.689ZM1222.42 85.6087C1222.42 83.6923 1224.14 82.1434 1226.27 82.1434C1228.39 82.1434 1230.12 83.6923 1230.12 85.6087V94.1962H1222.42V85.6087ZM1206.98 85.6087C1206.98 83.6923 1208.7 82.1434 1210.82 82.1434C1212.95 82.1434 1214.67 83.6923 1214.67 85.6087V94.1962H1206.98V85.6087ZM1191.53 85.6087C1191.53 83.6923 1193.26 82.1434 1195.39 82.1434C1197.51 82.1434 1199.24 83.6923 1199.24 85.6087V94.1962H1191.53V85.6087ZM1168.35 94.1969H1160.65V85.6093C1160.65 83.693 1162.38 82.1441 1164.5 82.1441C1166.62 82.1441 1168.35 83.693 1168.35 85.6093V94.1969ZM1176.1 94.1969V85.6093C1176.1 83.693 1177.82 82.1441 1179.94 82.1441C1182.07 82.1441 1183.79 83.693 1183.79 85.6093V94.1969H1176.1ZM1098.59 389.927H1105.3L1098.59 429.64V389.927ZM884.268 355.972L884.343 356.001L885.541 355.269L885.667 355.319V348.885L884.269 348.285V344.563C884.269 323.6 900.418 298.597 943.151 298.597C985.481 298.597 1002.03 323.6 1002.03 344.563V348.163L1000.64 348.763V355.2L1000.7 355.174L1001.95 355.937L1002.03 355.908V442.049H884.269V355.972H884.268ZM765.437 258.677H767.604V265.996H765.437V258.677ZM759.059 258.677H764.084V265.996H759.059V258.677ZM754.995 258.677H757.709V265.996H754.995V258.677ZM689.104 259.362H691.271V266.681H689.104V259.362ZM682.729 259.362H687.757V266.681H682.729V259.362ZM678.66 259.362H681.38V266.681H678.66V259.362ZM561.29 283C561.29 279.091 564.807 275.921 569.146 275.921C573.49 275.921 577.013 279.091 577.013 283V312.242H561.29V283ZM536.622 285.866C536.622 280.785 541.194 276.67 546.831 276.67C552.473 276.67 557.046 280.785 557.046 285.866V312.242H536.622V285.866ZM516.658 283C516.658 279.091 520.173 275.921 524.516 275.921C528.863 275.921 532.378 279.091 532.378 283V312.242H516.657L516.658 283ZM381.432 382.907C381.432 356.432 405.273 334.977 434.675 334.977C464.082 334.977 487.915 356.432 487.915 382.907V442.049H381.432V382.907ZM336.965 283C336.965 279.091 340.488 275.921 344.826 275.921C349.17 275.921 352.687 279.091 352.687 283V312.242H336.964L336.965 283ZM312.305 285.866C312.305 280.785 316.872 276.67 322.512 276.67C328.157 276.67 332.729 280.785 332.729 285.866V312.242H312.305V285.866ZM292.338 283C292.338 279.091 295.856 275.921 300.196 275.921C304.544 275.921 308.061 279.091 308.061 283V312.242H292.337L292.338 283ZM187.966 259.362H190.683V266.681H187.966V259.362ZM181.594 259.362H186.625V266.681H181.594V259.362ZM178.077 259.362H180.247V266.681H178.077V259.362ZM111.636 258.677H114.356V265.996H111.636V258.677ZM105.259 258.677H110.286V265.996H105.259V258.677ZM101.742 258.677H103.912V265.996H101.742V258.677ZM76.381 442.049H72.5492L72.2234 430.91H72.3977L76.381 428.413V442.049ZM71.8427 408.369C71.8427 405.876 73.7813 403.802 76.381 403.283V415.762H71.8427V408.369ZM68.9026 312.467C68.9026 309.885 71.2219 307.791 74.0903 307.791C76.9557 307.791 79.2838 309.885 79.2838 312.467V319.109H68.9026V312.467ZM67.5643 230.307C67.5643 227.854 69.7694 225.874 72.4833 225.874C75.203 225.874 77.4081 227.854 77.4081 230.307V236.601H67.5651L67.5643 230.307ZM66.609 143.527C66.609 141.173 68.7255 139.266 71.342 139.266C73.9526 139.266 76.075 141.172 76.075 143.527V149.58H66.609V143.527ZM65.6455 60.2573C65.6455 57.9999 67.6756 56.1682 70.1897 56.1682C72.7007 56.1682 74.7338 57.9999 74.7338 60.2573V66.0671H65.6455V60.2573ZM63.961 7.94275C63.961 5.85185 65.8454 4.16016 68.1617 4.16016C70.4898 4.16016 72.3684 5.85185 72.3684 7.94275V13.3216H63.961V7.94275ZM21.9224 13.3216H13.5121V7.94275C13.5121 5.85185 15.3936 4.16016 17.7129 4.16016C20.038 4.16016 21.9224 5.85185 21.9224 7.94275V13.3216ZM20.2298 66.0671H11.1496V60.2573C11.1496 57.9999 13.1827 56.1682 15.6937 56.1682C18.199 56.1682 20.2291 57.9999 20.2291 60.2573L20.2298 66.0671ZM19.2774 149.58H9.80841V143.527C9.80841 141.173 11.9278 139.266 14.5385 139.266C17.1579 139.266 19.2774 141.172 19.2774 143.527V149.58ZM18.3191 236.601H8.47892V230.307C8.47892 227.854 10.6781 225.874 13.3979 225.874C16.1176 225.874 18.3198 227.854 18.3198 230.307L18.3191 236.601ZM31.603 391.148H28.8144V337.231H31.603V391.148ZM48.7216 415.762H37.1596V408.368C37.1596 405.49 39.7505 403.166 42.9395 403.166C46.1336 403.166 48.7216 405.49 48.7216 408.368V415.762ZM42.9388 307.791C45.8071 307.791 48.1323 309.885 48.1323 312.467V319.109H37.7511V312.467C37.7511 309.885 40.0704 307.791 42.9388 307.791ZM41.5463 297.651V252.693H44.3349V297.651H41.5463ZM44.3349 337.232V391.149H41.5463V337.232H44.3349ZM50.7005 391.148H47.9178V337.231H50.7005V391.148ZM66.0657 408.369V415.762H54.5008V408.369C54.5008 405.491 57.0888 403.167 60.2807 403.167C63.4748 403.167 66.0657 405.491 66.0657 408.369ZM54.2804 391.148V337.231H57.069V391.148H54.2804ZM63.7121 312.467V319.109H53.325V312.467C53.325 309.885 55.6502 307.791 58.5185 307.791C61.3876 307.791 63.7121 309.885 63.7121 312.467ZM54.2804 297.651V252.693H57.069V297.651H54.2804ZM62.6344 236.601H52.7884V230.307C52.7884 227.854 54.9964 225.874 57.7132 225.874C60.4388 225.874 62.6351 227.854 62.6351 230.307L62.6344 236.601ZM54.2804 215.975V163.677H57.069V215.975H54.2804ZM61.8789 143.527V149.58H52.4128V143.527C52.4128 141.173 54.5293 139.266 57.14 139.266C59.7543 139.266 61.8789 141.172 61.8789 143.527ZM54.2804 131.799V82.0034H57.069V131.799H54.2804ZM61.1072 60.2573V66.0671H52.0278V60.2573C52.0278 57.9999 54.0608 56.1682 56.5631 56.1682C59.0735 56.1682 61.1072 57.9999 61.1072 60.2573ZM54.2804 49.4096V27.0187H57.069V49.4096H54.2804ZM51.3469 7.94275C51.3469 5.85185 53.2313 4.16016 55.5506 4.16016C57.8758 4.16016 59.7602 5.85185 59.7602 7.94275V13.3216H51.3469V7.94275ZM47.9178 27.0187H50.7005V49.4096H47.9178V27.0187ZM47.9178 82.0034H50.7005V131.799H47.9178V82.0034ZM47.9178 163.677H50.7005V215.975H47.9178V163.677ZM47.9178 252.693H50.7005V297.651H47.9178V252.693ZM38.738 7.94275C38.738 5.85185 40.6195 4.16016 42.9388 4.16016C45.261 4.16016 47.1483 5.85185 47.1483 7.94275V13.3216H38.738V7.94275ZM44.3349 27.0187V49.4096H41.5463V27.0187H44.3349ZM38.4005 60.2573C38.4005 57.9999 40.4335 56.1682 42.9388 56.1682C45.4469 56.1682 47.48 57.9999 47.48 60.2573V66.0671H38.4005V60.2573ZM44.3349 82.0034V131.799H41.5463V82.0034H44.3349ZM38.2087 143.527C38.2087 141.173 40.3252 139.266 42.9388 139.266C45.5553 139.266 47.6747 141.172 47.6747 143.527V149.58H38.2087V143.527ZM44.3349 163.677V215.975H41.5463V163.677H44.3349ZM38.0176 230.307C38.0176 227.854 40.2198 225.874 42.9395 225.874C45.6622 225.874 47.8695 227.854 47.8695 230.307V236.601H38.0176V230.307ZM35.1837 27.0187H37.9664V49.4096H35.1837V27.0187ZM35.1837 82.0034H37.9664V131.799H35.1837V82.0034ZM35.1837 163.677H37.9664V215.975H35.1837V163.677ZM35.1837 252.693H37.9664V297.651H35.1837V252.693ZM35.1837 337.232H37.9664V391.149H35.1837V337.232ZM26.1239 7.94275C26.1239 5.85185 28.0084 4.16016 30.3277 4.16016C32.6528 4.16016 34.5343 5.85185 34.5343 7.94275V13.3216H26.1239V7.94275ZM31.603 27.0187V49.4096H28.8144V27.0187H31.603ZM24.774 60.2573C24.774 57.9999 26.8099 56.1682 29.321 56.1682C31.8233 56.1682 33.8564 57.9999 33.8564 60.2573V66.0671H24.774V60.2573ZM31.603 82.0034V131.799H28.8144V82.0034H31.603ZM24.0045 143.527C24.0045 141.173 26.1239 139.266 28.7434 139.266C31.3541 139.266 33.4735 141.172 33.4735 143.527V149.58H24.0045V143.527ZM31.603 163.677V215.975H28.8144V163.677H31.603ZM23.2439 230.307C23.2439 227.854 25.446 225.874 28.1709 225.874C30.8877 225.874 33.0928 227.854 33.0928 230.307V236.601H23.2439V230.307ZM31.603 252.693V297.651H28.8144V252.693H31.603ZM22.1713 312.467C22.1713 309.885 24.4994 307.791 27.3648 307.791C30.2332 307.791 32.5583 309.885 32.5583 312.467V319.109H22.1713V312.467ZM19.8176 408.369C19.8176 405.491 22.4056 403.167 25.6027 403.167C28.7917 403.167 31.3826 405.491 31.3826 408.369V415.762H19.8176V408.369ZM6.59157 319.109V312.467C6.59157 309.885 8.91964 307.791 11.7851 307.791C14.6534 307.791 16.9786 309.885 16.9786 312.467V319.109H6.59157ZM2.47645 415.762V408.368C2.47645 405.49 5.06441 403.166 8.26149 403.166C11.4498 403.166 14.0385 405.49 14.0385 408.368V415.762H2.47645Z" fill="#F9B96B"/>
</svg>
