<svg width="1197" height="302" viewBox="0 0 1197 302" fill="none" xmlns="http://www.w3.org/2000/svg">
<mask id="path-1-outside-1_634_10" maskUnits="userSpaceOnUse" x="47" y="0" width="1111" height="302" fill="black">
<rect fill="white" x="47" width="1111" height="302"/>
<path d="M220.281 135.334H187.217V179.473C194.178 185.906 198.396 190.072 199.873 191.971C202.51 195.346 205.199 200.566 207.941 207.633H186.9C186.9 196.137 183.631 187.172 177.092 180.738C170.658 174.305 161.693 171.088 150.197 171.088C138.174 171.088 126.941 174.41 116.5 181.055C106.48 187.383 98.4121 195.926 92.2949 206.684C86.4941 216.914 83.5938 226.828 83.5938 236.426C83.5938 247.711 87.6543 256.307 95.7754 262.213C102.947 267.486 112.387 270.123 124.094 270.123C143.605 270.123 157.211 264.744 164.91 253.986H198.607C195.76 265.377 185.266 274.975 167.125 282.779C159.004 286.26 151.463 288 144.502 288C130.896 288 117.186 284.15 103.369 276.451C90.1855 269.174 79.3223 259.84 70.7793 248.449C62.2363 236.953 57.9648 225.615 57.9648 214.436C57.9648 205.998 61.709 196.453 69.1973 185.801C84.9121 163.441 104.055 152.262 126.625 152.262C141.496 152.262 153.256 155.373 161.904 161.596V135.334H50.2129V116.35H220.281V135.334ZM395.096 135.334H262.68V236.742C262.68 243.492 264.104 250.453 266.951 257.625C272.752 272.285 282.35 279.615 295.744 279.615C313.779 279.615 327.49 272.074 336.877 256.992C344.154 245.391 347.793 234.475 347.793 224.244V161.279H379.908V296.068C377.377 294.592 372.631 292.324 365.67 289.266L347.477 281.197V268.541C335.031 277.611 324.379 283.359 315.52 285.785C310.141 287.262 303.76 288 296.377 288C272.963 288 254.664 277.717 241.48 257.15C235.469 247.764 232.463 237.533 232.463 226.459V135.334H213.32V116.35H395.096V135.334ZM463.756 135.334H446.986V116.35H463.756V135.334ZM409.65 135.334H391.615V116.35H409.65V135.334ZM441.766 97.207V291.955C440.711 291.639 439.34 291.059 437.652 290.215L429.426 285.943C420.039 281.092 415.082 278.666 414.555 278.666V97.5234C414.555 86.4492 412.393 74.6895 408.068 62.2441C402.057 44.8418 392.723 29.0215 380.066 14.7832L370.1 3.55078H403.797C421.305 21.0586 432.801 42.5215 438.285 67.9395C440.605 78.6973 441.766 88.4531 441.766 97.207ZM601.234 135.334H521.184V262.688C521.184 266.273 522.344 269.754 524.664 273.129C527.09 276.82 530.043 278.666 533.523 278.666C549.238 278.666 557.096 262.424 557.096 229.939L588.895 248.133C576.766 275.027 557.992 288.422 532.574 288.316C517.809 288.211 506.312 281.461 498.086 268.066C494.5 262.266 492.707 256.465 492.707 250.664V135.334H459.643V116.35H492.707V63.1934L521.184 82.9688V116.35H601.234V135.334ZM776.365 135.334H643.949V236.742C643.949 243.492 645.373 250.453 648.221 257.625C654.021 272.285 663.619 279.615 677.014 279.615C695.049 279.615 708.76 272.074 718.146 256.992C725.424 245.391 729.062 234.475 729.062 224.244V161.279H761.178V296.068C758.646 294.592 753.9 292.324 746.939 289.266L728.746 281.197V268.541C716.301 277.611 705.648 283.359 696.789 285.785C691.41 287.262 685.029 288 677.646 288C654.232 288 635.934 277.717 622.75 257.15C616.738 247.764 613.732 237.533 613.732 226.459V135.334H594.59V116.35H776.365V135.334ZM933.461 135.334H773.518V116.35H933.461V135.334ZM920.33 192.129C920.33 198.352 916.586 205.365 909.098 213.17C902.77 219.814 896.125 224.771 889.164 228.041L865.434 201.146C872.605 200.514 879.408 197.877 885.842 193.236C893.225 187.963 896.916 181.951 896.916 175.201C896.916 171.615 894.596 168.557 889.955 166.025C885.947 163.705 881.992 162.545 878.09 162.545C869.969 162.545 861.268 166.447 851.986 174.252C833.107 190.072 823.668 207.58 823.668 226.775V293.854L793.293 278.033V160.963H823.984V172.986C828.52 168.451 837.906 163.705 852.145 158.748C859.105 156.322 866.277 155.109 873.66 155.109C888.953 155.109 901.926 160.963 912.578 172.67C917.746 178.365 920.33 184.852 920.33 192.129ZM1085.34 135.334H979.973V160.646C980.395 160.646 980.816 160.857 981.238 161.279C981.66 161.701 982.029 161.912 982.346 161.912C981.502 161.912 981.027 161.859 980.922 161.754C980.922 161.227 988.779 159.539 1004.49 156.691C1010.29 155.637 1016.04 155.109 1021.74 155.109C1045.47 155.109 1060.71 161.754 1067.46 175.043C1071.99 183.902 1074.26 201.779 1074.26 228.674V289.582C1072.05 288.738 1063.66 285.311 1049.11 279.299C1049.11 275.924 1048.42 273.762 1047.05 272.812C1041.46 276.082 1036.87 278.561 1033.29 280.248C1021.9 285.627 1008.66 288.316 993.578 288.316C972.801 288.316 956.77 281.777 945.484 268.699C940 262.371 937.258 255.305 937.258 247.5C937.258 238.746 941.582 230.045 950.23 221.396C967 204.627 987.83 196.242 1012.72 196.242C1027.8 196.242 1039.93 199.723 1049.11 206.684V192.129C1044.47 186.223 1039.93 182.268 1035.5 180.264C1031.18 178.26 1025.22 177.363 1017.62 177.574C1000.64 177.891 985.088 181.002 970.955 186.908C964.627 189.545 958.457 191.918 952.445 194.027V182.32C953.816 181.16 955.82 179.42 958.457 177.1C958.879 176.572 959.143 176.256 959.248 176.15V135.334H926.816V116.35H1085.34V135.334ZM1049.11 235.477C1049.11 230.836 1043.57 226.67 1032.5 222.979C1023.32 219.92 1015.67 218.391 1009.56 218.391C987.303 218.391 969.479 226.406 956.084 242.438C950.705 248.871 948.016 254.145 948.016 258.258C950.23 265.957 958.932 269.807 974.119 269.807C993.736 269.807 1011.67 264.902 1027.91 255.094C1042.04 246.551 1049.11 240.012 1049.11 235.477ZM1154.79 135.334H1138.02V116.35H1154.79V135.334ZM1100.68 135.334H1082.65V116.35H1100.68V135.334ZM1132.8 97.207V291.955C1131.74 291.639 1130.37 291.059 1128.68 290.215L1120.46 285.943C1111.07 281.092 1106.11 278.666 1105.59 278.666V97.5234C1105.59 86.4492 1103.42 74.6895 1099.1 62.2441C1093.09 44.8418 1083.75 29.0215 1071.1 14.7832L1061.13 3.55078H1094.83C1112.34 21.0586 1123.83 42.5215 1129.32 67.9395C1131.64 78.6973 1132.8 88.4531 1132.8 97.207Z"/>
</mask>
<path d="M220.281 135.334H187.217V179.473C194.178 185.906 198.396 190.072 199.873 191.971C202.51 195.346 205.199 200.566 207.941 207.633H186.9C186.9 196.137 183.631 187.172 177.092 180.738C170.658 174.305 161.693 171.088 150.197 171.088C138.174 171.088 126.941 174.41 116.5 181.055C106.48 187.383 98.4121 195.926 92.2949 206.684C86.4941 216.914 83.5938 226.828 83.5938 236.426C83.5938 247.711 87.6543 256.307 95.7754 262.213C102.947 267.486 112.387 270.123 124.094 270.123C143.605 270.123 157.211 264.744 164.91 253.986H198.607C195.76 265.377 185.266 274.975 167.125 282.779C159.004 286.26 151.463 288 144.502 288C130.896 288 117.186 284.15 103.369 276.451C90.1855 269.174 79.3223 259.84 70.7793 248.449C62.2363 236.953 57.9648 225.615 57.9648 214.436C57.9648 205.998 61.709 196.453 69.1973 185.801C84.9121 163.441 104.055 152.262 126.625 152.262C141.496 152.262 153.256 155.373 161.904 161.596V135.334H50.2129V116.35H220.281V135.334ZM395.096 135.334H262.68V236.742C262.68 243.492 264.104 250.453 266.951 257.625C272.752 272.285 282.35 279.615 295.744 279.615C313.779 279.615 327.49 272.074 336.877 256.992C344.154 245.391 347.793 234.475 347.793 224.244V161.279H379.908V296.068C377.377 294.592 372.631 292.324 365.67 289.266L347.477 281.197V268.541C335.031 277.611 324.379 283.359 315.52 285.785C310.141 287.262 303.76 288 296.377 288C272.963 288 254.664 277.717 241.48 257.15C235.469 247.764 232.463 237.533 232.463 226.459V135.334H213.32V116.35H395.096V135.334ZM463.756 135.334H446.986V116.35H463.756V135.334ZM409.65 135.334H391.615V116.35H409.65V135.334ZM441.766 97.207V291.955C440.711 291.639 439.34 291.059 437.652 290.215L429.426 285.943C420.039 281.092 415.082 278.666 414.555 278.666V97.5234C414.555 86.4492 412.393 74.6895 408.068 62.2441C402.057 44.8418 392.723 29.0215 380.066 14.7832L370.1 3.55078H403.797C421.305 21.0586 432.801 42.5215 438.285 67.9395C440.605 78.6973 441.766 88.4531 441.766 97.207ZM601.234 135.334H521.184V262.688C521.184 266.273 522.344 269.754 524.664 273.129C527.09 276.82 530.043 278.666 533.523 278.666C549.238 278.666 557.096 262.424 557.096 229.939L588.895 248.133C576.766 275.027 557.992 288.422 532.574 288.316C517.809 288.211 506.312 281.461 498.086 268.066C494.5 262.266 492.707 256.465 492.707 250.664V135.334H459.643V116.35H492.707V63.1934L521.184 82.9688V116.35H601.234V135.334ZM776.365 135.334H643.949V236.742C643.949 243.492 645.373 250.453 648.221 257.625C654.021 272.285 663.619 279.615 677.014 279.615C695.049 279.615 708.76 272.074 718.146 256.992C725.424 245.391 729.062 234.475 729.062 224.244V161.279H761.178V296.068C758.646 294.592 753.9 292.324 746.939 289.266L728.746 281.197V268.541C716.301 277.611 705.648 283.359 696.789 285.785C691.41 287.262 685.029 288 677.646 288C654.232 288 635.934 277.717 622.75 257.15C616.738 247.764 613.732 237.533 613.732 226.459V135.334H594.59V116.35H776.365V135.334ZM933.461 135.334H773.518V116.35H933.461V135.334ZM920.33 192.129C920.33 198.352 916.586 205.365 909.098 213.17C902.77 219.814 896.125 224.771 889.164 228.041L865.434 201.146C872.605 200.514 879.408 197.877 885.842 193.236C893.225 187.963 896.916 181.951 896.916 175.201C896.916 171.615 894.596 168.557 889.955 166.025C885.947 163.705 881.992 162.545 878.09 162.545C869.969 162.545 861.268 166.447 851.986 174.252C833.107 190.072 823.668 207.58 823.668 226.775V293.854L793.293 278.033V160.963H823.984V172.986C828.52 168.451 837.906 163.705 852.145 158.748C859.105 156.322 866.277 155.109 873.66 155.109C888.953 155.109 901.926 160.963 912.578 172.67C917.746 178.365 920.33 184.852 920.33 192.129ZM1085.34 135.334H979.973V160.646C980.395 160.646 980.816 160.857 981.238 161.279C981.66 161.701 982.029 161.912 982.346 161.912C981.502 161.912 981.027 161.859 980.922 161.754C980.922 161.227 988.779 159.539 1004.49 156.691C1010.29 155.637 1016.04 155.109 1021.74 155.109C1045.47 155.109 1060.71 161.754 1067.46 175.043C1071.99 183.902 1074.26 201.779 1074.26 228.674V289.582C1072.05 288.738 1063.66 285.311 1049.11 279.299C1049.11 275.924 1048.42 273.762 1047.05 272.812C1041.46 276.082 1036.87 278.561 1033.29 280.248C1021.9 285.627 1008.66 288.316 993.578 288.316C972.801 288.316 956.77 281.777 945.484 268.699C940 262.371 937.258 255.305 937.258 247.5C937.258 238.746 941.582 230.045 950.23 221.396C967 204.627 987.83 196.242 1012.72 196.242C1027.8 196.242 1039.93 199.723 1049.11 206.684V192.129C1044.47 186.223 1039.93 182.268 1035.5 180.264C1031.18 178.26 1025.22 177.363 1017.62 177.574C1000.64 177.891 985.088 181.002 970.955 186.908C964.627 189.545 958.457 191.918 952.445 194.027V182.32C953.816 181.16 955.82 179.42 958.457 177.1C958.879 176.572 959.143 176.256 959.248 176.15V135.334H926.816V116.35H1085.34V135.334ZM1049.11 235.477C1049.11 230.836 1043.57 226.67 1032.5 222.979C1023.32 219.92 1015.67 218.391 1009.56 218.391C987.303 218.391 969.479 226.406 956.084 242.438C950.705 248.871 948.016 254.145 948.016 258.258C950.23 265.957 958.932 269.807 974.119 269.807C993.736 269.807 1011.67 264.902 1027.91 255.094C1042.04 246.551 1049.11 240.012 1049.11 235.477ZM1154.79 135.334H1138.02V116.35H1154.79V135.334ZM1100.68 135.334H1082.65V116.35H1100.68V135.334ZM1132.8 97.207V291.955C1131.74 291.639 1130.37 291.059 1128.68 290.215L1120.46 285.943C1111.07 281.092 1106.11 278.666 1105.59 278.666V97.5234C1105.59 86.4492 1103.42 74.6895 1099.1 62.2441C1093.09 44.8418 1083.75 29.0215 1071.1 14.7832L1061.13 3.55078H1094.83C1112.34 21.0586 1123.83 42.5215 1129.32 67.9395C1131.64 78.6973 1132.8 88.4531 1132.8 97.207Z" fill="white" fill-opacity="0.38"/>
<path d="M220.281 135.334V138.334H223.281V135.334H220.281ZM187.217 135.334V132.334H184.217V135.334H187.217ZM187.217 179.473H184.217V180.785L185.181 181.676L187.217 179.473ZM199.873 191.971L197.505 193.813L197.509 193.818L199.873 191.971ZM207.941 207.633V210.633H212.324L210.738 206.547L207.941 207.633ZM186.9 207.633H183.9V210.633H186.9V207.633ZM177.092 180.738L174.97 182.86L174.979 182.868L174.988 182.877L177.092 180.738ZM116.5 181.055L118.102 183.591L118.111 183.586L116.5 181.055ZM92.2949 206.684L89.687 205.201L89.6852 205.204L92.2949 206.684ZM95.7754 262.213L97.5526 259.796L97.5462 259.791L97.5399 259.787L95.7754 262.213ZM164.91 253.986V250.986H163.368L162.471 252.24L164.91 253.986ZM198.607 253.986L201.518 254.714L202.45 250.986H198.607V253.986ZM167.125 282.779L168.307 285.537L168.311 285.535L167.125 282.779ZM103.369 276.451L104.829 273.831L104.819 273.825L103.369 276.451ZM70.7793 248.449L68.3713 250.239L68.3793 250.249L70.7793 248.449ZM69.1973 185.801L71.6515 187.526L71.6517 187.526L69.1973 185.801ZM161.904 161.596L160.152 164.031L164.904 167.45V161.596H161.904ZM161.904 135.334H164.904V132.334H161.904V135.334ZM50.2129 135.334H47.2129V138.334H50.2129V135.334ZM50.2129 116.35V113.35H47.2129V116.35H50.2129ZM220.281 116.35H223.281V113.35H220.281V116.35ZM220.281 132.334H187.217V138.334H220.281V132.334ZM184.217 135.334V179.473H190.217V135.334H184.217ZM185.181 181.676C192.208 188.171 196.213 192.152 197.505 193.813L202.241 190.129C200.58 187.993 196.148 183.642 189.253 177.27L185.181 181.676ZM197.509 193.818C199.877 196.849 202.44 201.749 205.145 208.718L210.738 206.547C207.958 199.383 205.142 193.843 202.237 190.124L197.509 193.818ZM207.941 204.633H186.9V210.633H207.941V204.633ZM189.9 207.633C189.9 195.548 186.445 185.732 179.196 178.6L174.988 182.877C180.816 188.611 183.9 196.725 183.9 207.633H189.9ZM179.213 178.617C172.078 171.482 162.268 168.088 150.197 168.088V174.088C161.118 174.088 169.238 177.127 174.97 182.86L179.213 178.617ZM150.197 168.088C137.586 168.088 125.797 171.582 114.889 178.524L118.111 183.586C128.086 177.238 138.762 174.088 150.197 174.088V168.088ZM114.898 178.518C104.443 185.121 96.0367 194.034 89.687 205.201L94.9028 208.167C100.787 197.818 108.518 189.644 118.102 183.591L114.898 178.518ZM89.6852 205.204C83.6859 215.785 80.5938 226.205 80.5938 236.426H86.5938C86.5938 227.452 89.3024 218.044 94.9046 208.163L89.6852 205.204ZM80.5938 236.426C80.5938 248.534 85.009 258.092 94.0109 264.639L97.5399 259.787C90.2996 254.521 86.5938 246.888 86.5938 236.426H80.5938ZM93.9982 264.63C101.826 270.386 111.948 273.123 124.094 273.123V267.123C112.826 267.123 104.068 264.587 97.5526 259.796L93.9982 264.63ZM124.094 273.123C144.09 273.123 158.855 267.602 167.35 255.732L162.471 252.24C155.567 261.886 143.121 267.123 124.094 267.123V273.123ZM164.91 256.986H198.607V250.986H164.91V256.986ZM195.697 253.259C193.194 263.269 183.797 272.341 165.939 280.024L168.311 285.535C186.734 277.609 198.325 267.485 201.518 254.714L195.697 253.259ZM165.943 280.022C158.099 283.384 150.963 285 144.502 285V291C151.963 291 159.909 289.136 168.307 285.537L165.943 280.022ZM144.502 285C131.485 285 118.272 281.322 104.829 273.831L101.909 279.072C116.099 286.979 130.308 291 144.502 291V285ZM104.819 273.825C91.9851 266.74 81.453 257.681 73.1793 246.649L68.3793 250.249C77.1915 261.999 88.386 271.607 101.919 279.078L104.819 273.825ZM73.1872 246.66C64.92 235.535 60.9648 224.81 60.9648 214.436H54.9648C54.9648 226.421 59.5526 238.371 68.3714 250.239L73.1872 246.66ZM60.9648 214.436C60.9648 206.868 64.3384 197.929 71.6515 187.526L66.743 184.076C59.0796 194.977 54.9648 205.128 54.9648 214.436H60.9648ZM71.6517 187.526C86.9391 165.775 105.244 155.262 126.625 155.262V149.262C102.865 149.262 82.8851 161.108 66.7428 184.076L71.6517 187.526ZM126.625 155.262C141.109 155.262 152.181 158.295 160.152 164.031L163.656 159.161C154.331 152.451 141.883 149.262 126.625 149.262V155.262ZM164.904 161.596V135.334H158.904V161.596H164.904ZM161.904 132.334H50.2129V138.334H161.904V132.334ZM53.2129 135.334V116.35H47.2129V135.334H53.2129ZM50.2129 119.35H220.281V113.35H50.2129V119.35ZM217.281 116.35V135.334H223.281V116.35H217.281ZM395.096 135.334V138.334H398.096V135.334H395.096ZM262.68 135.334V132.334H259.68V135.334H262.68ZM266.951 257.625L269.741 256.521L269.739 256.518L266.951 257.625ZM336.877 256.992L334.336 255.398L334.33 255.407L336.877 256.992ZM347.793 161.279V158.279H344.793V161.279H347.793ZM379.908 161.279H382.908V158.279H379.908V161.279ZM379.908 296.068L378.397 298.66L382.908 301.291V296.068H379.908ZM365.67 289.266L364.454 292.008L364.463 292.012L365.67 289.266ZM347.477 281.197H344.477V283.149L346.26 283.94L347.477 281.197ZM347.477 268.541H350.477V262.642L345.71 266.117L347.477 268.541ZM315.52 285.785L314.727 282.892L314.725 282.892L315.52 285.785ZM241.48 257.15L238.954 258.768L238.955 258.769L241.48 257.15ZM232.463 135.334H235.463V132.334H232.463V135.334ZM213.32 135.334H210.32V138.334H213.32V135.334ZM213.32 116.35V113.35H210.32V116.35H213.32ZM395.096 116.35H398.096V113.35H395.096V116.35ZM395.096 132.334H262.68V138.334H395.096V132.334ZM259.68 135.334V236.742H265.68V135.334H259.68ZM259.68 236.742C259.68 243.922 261.195 251.258 264.163 258.732L269.739 256.518C267.012 249.648 265.68 243.063 265.68 236.742H259.68ZM264.162 258.729C267.203 266.414 271.334 272.419 276.679 276.502C282.058 280.61 288.465 282.615 295.744 282.615V276.615C289.629 276.615 284.54 274.955 280.321 271.733C276.069 268.486 272.5 263.496 269.741 256.521L264.162 258.729ZM295.744 282.615C314.796 282.615 329.479 274.556 339.424 258.577L334.33 255.407C325.501 269.593 312.762 276.615 295.744 276.615V282.615ZM339.418 258.586C346.897 246.664 350.793 235.199 350.793 224.244H344.793C344.793 233.75 341.412 244.117 334.336 255.398L339.418 258.586ZM350.793 224.244V161.279H344.793V224.244H350.793ZM347.793 164.279H379.908V158.279H347.793V164.279ZM376.908 161.279V296.068H382.908V161.279H376.908ZM381.42 293.477C378.722 291.903 373.829 289.574 366.877 286.519L364.463 292.012C371.433 295.075 376.032 297.28 378.397 298.66L381.42 293.477ZM366.886 286.523L348.693 278.455L346.26 283.94L364.454 292.008L366.886 286.523ZM350.477 281.197V268.541H344.477V281.197H350.477ZM345.71 266.117C333.387 275.098 323.077 280.605 314.727 282.892L316.312 288.679C325.68 286.113 336.676 280.125 349.244 270.965L345.71 266.117ZM314.725 282.892C309.673 284.279 303.572 285 296.377 285V291C303.947 291 310.608 290.244 316.314 288.678L314.725 282.892ZM296.377 285C274.037 285 256.667 275.282 244.006 255.531L238.955 258.769C252.661 280.151 271.888 291 296.377 291V285ZM244.007 255.532C238.302 246.625 235.463 236.956 235.463 226.459H229.463C229.463 238.111 232.635 248.902 238.954 258.768L244.007 255.532ZM235.463 226.459V135.334H229.463V226.459H235.463ZM232.463 132.334H213.32V138.334H232.463V132.334ZM216.32 135.334V116.35H210.32V135.334H216.32ZM213.32 119.35H395.096V113.35H213.32V119.35ZM392.096 116.35V135.334H398.096V116.35H392.096ZM463.756 135.334V138.334H466.756V135.334H463.756ZM446.986 135.334H443.986V138.334H446.986V135.334ZM446.986 116.35V113.35H443.986V116.35H446.986ZM463.756 116.35H466.756V113.35H463.756V116.35ZM409.65 135.334V138.334H412.65V135.334H409.65ZM391.615 135.334H388.615V138.334H391.615V135.334ZM391.615 116.35V113.35H388.615V116.35H391.615ZM409.65 116.35H412.65V113.35H409.65V116.35ZM441.766 291.955L440.904 294.829L444.766 295.987V291.955H441.766ZM437.652 290.215L436.27 292.877L436.29 292.888L436.311 292.898L437.652 290.215ZM429.426 285.943L430.808 283.281L430.803 283.278L429.426 285.943ZM414.555 278.666H411.555V281.666H414.555V278.666ZM408.068 62.2441L405.233 63.2237L405.235 63.2288L408.068 62.2441ZM380.066 14.7832L377.822 16.7743L377.824 16.7763L380.066 14.7832ZM370.1 3.55078V0.550781H363.427L367.856 5.54192L370.1 3.55078ZM403.797 3.55078L405.918 1.42946L405.04 0.550781H403.797V3.55078ZM438.285 67.9395L441.218 67.3069L441.218 67.3067L438.285 67.9395ZM463.756 132.334H446.986V138.334H463.756V132.334ZM449.986 135.334V116.35H443.986V135.334H449.986ZM446.986 119.35H463.756V113.35H446.986V119.35ZM460.756 116.35V135.334H466.756V116.35H460.756ZM409.65 132.334H391.615V138.334H409.65V132.334ZM394.615 135.334V116.35H388.615V135.334H394.615ZM391.615 119.35H409.65V113.35H391.615V119.35ZM406.65 116.35V135.334H412.65V116.35H406.65ZM438.766 97.207V291.955H444.766V97.207H438.766ZM442.628 289.082C441.814 288.837 440.62 288.344 438.994 287.532L436.311 292.898C438.06 293.773 439.608 294.44 440.904 294.829L442.628 289.082ZM439.035 287.552L430.808 283.281L428.043 288.606L436.27 292.877L439.035 287.552ZM430.803 283.278C426.105 280.85 422.495 279.018 419.987 277.791C418.736 277.179 417.733 276.704 416.994 276.377C416.629 276.216 416.292 276.074 416.004 275.967C415.862 275.914 415.692 275.855 415.516 275.806C415.412 275.777 415.026 275.666 414.555 275.666V281.666C414.312 281.666 414.131 281.634 414.061 281.621C413.976 281.605 413.917 281.589 413.895 281.583C413.854 281.571 413.854 281.569 413.917 281.592C414.037 281.637 414.247 281.723 414.567 281.864C415.2 282.144 416.121 282.579 417.349 283.18C419.798 284.378 423.36 286.185 428.048 288.608L430.803 283.278ZM417.555 278.666V97.5234H411.555V278.666H417.555ZM417.555 97.5234C417.555 86.0573 415.316 73.963 410.902 61.2595L405.235 63.2288C409.469 75.4159 411.555 86.8412 411.555 97.5234H417.555ZM410.904 61.2646C404.759 43.4756 395.218 27.3134 382.309 12.7901L377.824 16.7763C390.227 30.7296 399.355 46.208 405.233 63.2237L410.904 61.2646ZM382.31 12.7921L372.344 1.55965L367.856 5.54192L377.822 16.7743L382.31 12.7921ZM370.1 6.55078H403.797V0.550781H370.1V6.55078ZM401.676 5.6721C418.754 22.751 429.984 43.6883 435.353 68.5722L441.218 67.3067C435.618 41.3546 423.855 19.3662 405.918 1.42946L401.676 5.6721ZM435.353 68.572C437.639 79.1724 438.766 88.7118 438.766 97.207H444.766C444.766 88.1944 443.572 78.2221 441.218 67.3069L435.353 68.572ZM601.234 135.334V138.334H604.234V135.334H601.234ZM521.184 135.334V132.334H518.184V135.334H521.184ZM524.664 273.129L527.171 271.481L527.154 271.455L527.136 271.429L524.664 273.129ZM557.096 229.939L558.586 227.336L554.096 224.767V229.939H557.096ZM588.895 248.133L591.629 249.366L592.75 246.882L590.384 245.529L588.895 248.133ZM532.574 288.316L532.553 291.316L532.562 291.316L532.574 288.316ZM498.086 268.066L500.642 266.496L500.638 266.489L498.086 268.066ZM492.707 135.334H495.707V132.334H492.707V135.334ZM459.643 135.334H456.643V138.334H459.643V135.334ZM459.643 116.35V113.35H456.643V116.35H459.643ZM492.707 116.35V119.35H495.707V116.35H492.707ZM492.707 63.1934L494.418 60.7292L489.707 57.4576V63.1934H492.707ZM521.184 82.9688H524.184V81.3997L522.895 80.5046L521.184 82.9688ZM521.184 116.35H518.184V119.35H521.184V116.35ZM601.234 116.35H604.234V113.35H601.234V116.35ZM601.234 132.334H521.184V138.334H601.234V132.334ZM518.184 135.334V262.688H524.184V135.334H518.184ZM518.184 262.688C518.184 266.964 519.578 271.027 522.192 274.828L527.136 271.429C525.109 268.481 524.184 265.583 524.184 262.688H518.184ZM522.157 274.776C524.969 279.055 528.76 281.666 533.523 281.666V275.666C531.326 275.666 529.211 274.586 527.171 271.481L522.157 274.776ZM533.523 281.666C537.998 281.666 542.042 280.5 545.538 278.091C549.011 275.698 551.771 272.199 553.903 267.791C558.129 259.055 560.096 246.328 560.096 229.939H554.096C554.096 246.036 552.134 257.671 548.502 265.178C546.706 268.891 544.555 271.482 542.134 273.15C539.737 274.802 536.906 275.666 533.523 275.666V281.666ZM555.606 232.543L587.405 250.737L590.384 245.529L558.586 227.336L555.606 232.543ZM586.16 246.899C580.254 259.996 572.826 269.593 563.975 275.907C555.153 282.202 544.734 285.367 532.587 285.316L532.562 291.316C545.832 291.371 557.509 287.892 567.46 280.792C577.383 273.712 585.406 263.164 591.629 249.366L586.16 246.899ZM532.596 285.316C518.943 285.219 508.369 279.078 500.642 266.496L495.53 269.636C504.256 283.844 516.674 291.203 532.553 291.316L532.596 285.316ZM500.638 266.489C497.293 261.078 495.707 255.816 495.707 250.664H489.707C489.707 257.114 491.707 263.453 495.534 269.644L500.638 266.489ZM495.707 250.664V135.334H489.707V250.664H495.707ZM492.707 132.334H459.643V138.334H492.707V132.334ZM462.643 135.334V116.35H456.643V135.334H462.643ZM459.643 119.35H492.707V113.35H459.643V119.35ZM495.707 116.35V63.1934H489.707V116.35H495.707ZM490.996 65.6575L519.472 85.4329L522.895 80.5046L494.418 60.7292L490.996 65.6575ZM518.184 82.9688V116.35H524.184V82.9688H518.184ZM521.184 119.35H601.234V113.35H521.184V119.35ZM598.234 116.35V135.334H604.234V116.35H598.234ZM776.365 135.334V138.334H779.365V135.334H776.365ZM643.949 135.334V132.334H640.949V135.334H643.949ZM648.221 257.625L651.01 256.521L651.009 256.518L648.221 257.625ZM718.146 256.992L715.605 255.398L715.599 255.407L718.146 256.992ZM729.062 161.279V158.279H726.062V161.279H729.062ZM761.178 161.279H764.178V158.279H761.178V161.279ZM761.178 296.068L759.666 298.66L764.178 301.291V296.068H761.178ZM746.939 289.266L745.723 292.008L745.733 292.012L746.939 289.266ZM728.746 281.197H725.746V283.149L727.53 283.94L728.746 281.197ZM728.746 268.541H731.746V262.642L726.979 266.117L728.746 268.541ZM696.789 285.785L695.997 282.892L695.995 282.892L696.789 285.785ZM622.75 257.15L620.224 258.768L620.224 258.769L622.75 257.15ZM613.732 135.334H616.732V132.334H613.732V135.334ZM594.59 135.334H591.59V138.334H594.59V135.334ZM594.59 116.35V113.35H591.59V116.35H594.59ZM776.365 116.35H779.365V113.35H776.365V116.35ZM776.365 132.334H643.949V138.334H776.365V132.334ZM640.949 135.334V236.742H646.949V135.334H640.949ZM640.949 236.742C640.949 243.922 642.465 251.258 645.432 258.732L651.009 256.518C648.281 249.648 646.949 243.063 646.949 236.742H640.949ZM645.431 258.729C648.472 266.414 652.603 272.419 657.949 276.502C663.328 280.61 669.734 282.615 677.014 282.615V276.615C670.899 276.615 665.809 274.955 661.59 271.733C657.338 268.486 653.77 263.496 651.01 256.521L645.431 258.729ZM677.014 282.615C696.066 282.615 710.749 274.556 720.693 258.577L715.599 255.407C706.771 269.593 694.032 276.615 677.014 276.615V282.615ZM720.688 258.586C728.166 246.664 732.062 235.199 732.062 224.244H726.062C726.062 233.75 722.682 244.117 715.605 255.398L720.688 258.586ZM732.062 224.244V161.279H726.062V224.244H732.062ZM729.062 164.279H761.178V158.279H729.062V164.279ZM758.178 161.279V296.068H764.178V161.279H758.178ZM762.689 293.477C759.991 291.903 755.098 289.574 748.146 286.519L745.733 292.012C752.703 295.075 757.302 297.28 759.666 298.66L762.689 293.477ZM748.156 286.523L729.962 278.455L727.53 283.94L745.723 292.008L748.156 286.523ZM731.746 281.197V268.541H725.746V281.197H731.746ZM726.979 266.117C714.656 275.098 704.347 280.605 695.997 282.892L697.581 288.679C706.95 286.113 717.945 280.125 730.513 270.965L726.979 266.117ZM695.995 282.892C690.943 284.279 684.842 285 677.646 285V291C685.217 291 691.878 290.244 697.583 288.678L695.995 282.892ZM677.646 285C655.307 285 637.936 275.282 625.276 255.531L620.224 258.769C633.931 280.151 653.158 291 677.646 291V285ZM625.276 255.532C619.572 246.625 616.732 236.956 616.732 226.459H610.732C610.732 238.111 613.905 248.902 620.224 258.768L625.276 255.532ZM616.732 226.459V135.334H610.732V226.459H616.732ZM613.732 132.334H594.59V138.334H613.732V132.334ZM597.59 135.334V116.35H591.59V135.334H597.59ZM594.59 119.35H776.365V113.35H594.59V119.35ZM773.365 116.35V135.334H779.365V116.35H773.365ZM933.461 135.334V138.334H936.461V135.334H933.461ZM773.518 135.334H770.518V138.334H773.518V135.334ZM773.518 116.35V113.35H770.518V116.35H773.518ZM933.461 116.35H936.461V113.35H933.461V116.35ZM909.098 213.17L906.933 211.093L906.925 211.101L909.098 213.17ZM889.164 228.041L886.915 230.026L888.403 231.713L890.439 230.756L889.164 228.041ZM865.434 201.146L865.17 198.158L859.256 198.68L863.184 203.131L865.434 201.146ZM885.842 193.236L884.098 190.795L884.087 190.803L885.842 193.236ZM889.955 166.025L888.452 168.622L888.485 168.641L888.518 168.659L889.955 166.025ZM851.986 174.252L853.913 176.551L853.917 176.548L851.986 174.252ZM823.668 293.854L822.282 296.514L826.668 298.799V293.854H823.668ZM793.293 278.033H790.293V279.853L791.907 280.694L793.293 278.033ZM793.293 160.963V157.963H790.293V160.963H793.293ZM823.984 160.963H826.984V157.963H823.984V160.963ZM823.984 172.986H820.984V180.229L826.106 175.108L823.984 172.986ZM852.145 158.748L853.131 161.581L853.132 161.581L852.145 158.748ZM912.578 172.67L914.8 170.654L914.797 170.651L912.578 172.67ZM933.461 132.334H773.518V138.334H933.461V132.334ZM776.518 135.334V116.35H770.518V135.334H776.518ZM773.518 119.35H933.461V113.35H773.518V119.35ZM930.461 116.35V135.334H936.461V116.35H930.461ZM917.33 192.129C917.33 197.175 914.25 203.466 906.933 211.093L911.262 215.247C918.922 207.264 923.33 199.528 923.33 192.129H917.33ZM906.925 211.101C900.805 217.527 894.455 222.241 887.889 225.326L890.439 230.756C897.795 227.302 904.734 222.102 911.27 215.239L906.925 211.101ZM891.414 226.056L867.683 199.162L863.184 203.131L886.915 230.026L891.414 226.056ZM865.697 204.135C873.461 203.45 880.771 200.593 887.597 195.669L884.087 190.803C878.045 195.161 871.75 197.577 865.17 198.158L865.697 204.135ZM887.586 195.678C895.461 190.052 899.916 183.234 899.916 175.201H893.916C893.916 180.668 890.988 185.873 884.098 190.795L887.586 195.678ZM899.916 175.201C899.916 170.042 896.49 166.173 891.392 163.392L888.518 168.659C892.701 170.94 893.916 173.189 893.916 175.201H899.916ZM891.458 163.429C887.079 160.894 882.611 159.545 878.09 159.545V165.545C881.373 165.545 884.815 166.516 888.452 168.622L891.458 163.429ZM878.09 159.545C868.986 159.545 859.62 163.913 850.056 171.956L853.917 176.548C862.915 168.981 870.951 165.545 878.09 165.545V159.545ZM850.059 171.953C830.708 188.169 820.668 206.453 820.668 226.775H826.668C826.668 208.707 835.507 191.976 853.913 176.551L850.059 171.953ZM820.668 226.775V293.854H826.668V226.775H820.668ZM825.054 291.193L794.679 275.372L791.907 280.694L822.282 296.514L825.054 291.193ZM796.293 278.033V160.963H790.293V278.033H796.293ZM793.293 163.963H823.984V157.963H793.293V163.963ZM820.984 160.963V172.986H826.984V160.963H820.984ZM826.106 175.108C830.108 171.105 838.892 166.539 853.131 161.581L851.158 155.915C836.921 160.872 826.931 165.797 821.863 170.865L826.106 175.108ZM853.132 161.581C859.775 159.266 866.613 158.109 873.66 158.109V152.109C865.942 152.109 858.436 153.379 851.157 155.915L853.132 161.581ZM873.66 158.109C888.075 158.109 900.253 163.582 910.359 174.689L914.797 170.651C903.599 158.344 889.831 152.109 873.66 152.109V158.109ZM910.356 174.686C915.055 179.864 917.33 185.642 917.33 192.129H923.33C923.33 184.061 920.438 176.867 914.8 170.654L910.356 174.686ZM1085.34 135.334V138.334H1088.34V135.334H1085.34ZM979.973 135.334V132.334H976.973V135.334H979.973ZM979.973 160.646H976.973V163.646H979.973V160.646ZM980.922 161.754H977.922V162.997L978.801 163.875L980.922 161.754ZM1004.49 156.691L1005.03 159.643L1005.03 159.643L1004.49 156.691ZM1067.46 175.043L1064.78 176.402L1064.79 176.41L1067.46 175.043ZM1074.26 289.582L1073.19 292.385L1077.26 293.935V289.582H1074.26ZM1049.11 279.299H1046.11V281.306L1047.96 282.072L1049.11 279.299ZM1047.05 272.812L1048.76 270.346L1047.19 269.258L1045.54 270.223L1047.05 272.812ZM1033.29 280.248L1032.01 277.534L1032.01 277.535L1033.29 280.248ZM945.484 268.699L947.756 266.739L947.751 266.734L945.484 268.699ZM1049.11 206.684L1047.29 209.074L1052.11 212.725V206.684H1049.11ZM1049.11 192.129H1052.11V191.091L1051.47 190.275L1049.11 192.129ZM1035.5 180.264L1034.24 182.986L1034.25 182.991L1034.27 182.997L1035.5 180.264ZM1017.62 177.574L1017.68 180.574L1017.69 180.573L1017.71 180.573L1017.62 177.574ZM970.955 186.908L972.109 189.677L972.112 189.676L970.955 186.908ZM952.445 194.027H949.445V198.259L953.439 196.858L952.445 194.027ZM952.445 182.32L950.508 180.03L949.445 180.929V182.32H952.445ZM958.457 177.1L960.439 179.352L960.636 179.178L960.8 178.974L958.457 177.1ZM959.248 176.15L961.369 178.272L962.248 177.393V176.15H959.248ZM959.248 135.334H962.248V132.334H959.248V135.334ZM926.816 135.334H923.816V138.334H926.816V135.334ZM926.816 116.35V113.35H923.816V116.35H926.816ZM1085.34 116.35H1088.34V113.35H1085.34V116.35ZM956.084 242.438L958.386 244.362L958.386 244.361L956.084 242.438ZM948.016 258.258H945.016V258.681L945.133 259.087L948.016 258.258ZM1027.91 255.094L1029.46 257.662L1029.46 257.661L1027.91 255.094ZM1085.34 132.334H979.973V138.334H1085.34V132.334ZM976.973 135.334V160.646H982.973V135.334H976.973ZM979.973 163.646C979.318 163.646 979.022 163.306 979.117 163.401L983.36 159.158C982.611 158.409 981.471 157.646 979.973 157.646V163.646ZM979.117 163.401C979.656 163.94 980.771 164.912 982.346 164.912V158.912C982.859 158.912 983.201 159.081 983.32 159.149C983.439 159.217 983.451 159.25 983.36 159.158L979.117 163.401ZM982.346 158.912C981.964 158.912 981.763 158.899 981.688 158.891C981.646 158.886 981.721 158.891 981.86 158.929C981.931 158.948 982.072 158.991 982.247 159.072C982.406 159.147 982.723 159.312 983.043 159.633L978.801 163.875C979.413 164.488 980.12 164.674 980.281 164.717C980.564 164.795 980.831 164.833 981.026 164.854C981.426 164.899 981.883 164.912 982.346 164.912V158.912ZM983.922 161.754C983.922 162.691 983.49 163.328 983.266 163.601C983.032 163.888 982.802 164.053 982.709 164.117C982.517 164.248 982.387 164.295 982.443 164.272C982.519 164.24 982.749 164.158 983.209 164.028C984.097 163.778 985.495 163.445 987.445 163.026C991.325 162.193 997.179 161.066 1005.03 159.643L1003.96 153.739C996.094 155.165 990.163 156.305 986.185 157.16C984.206 157.585 982.657 157.95 981.581 158.253C981.059 158.401 980.552 158.559 980.138 158.732C979.948 158.811 979.634 158.951 979.319 159.166C979.165 159.272 978.889 159.477 978.624 159.801C978.369 160.111 977.922 160.784 977.922 161.754H983.922ZM1005.03 159.643C1010.66 158.619 1016.23 158.109 1021.74 158.109V152.109C1015.86 152.109 1009.93 152.654 1003.96 153.74L1005.03 159.643ZM1021.74 158.109C1045.06 158.109 1058.81 164.634 1064.78 176.402L1070.13 173.684C1062.61 158.873 1045.87 152.109 1021.74 152.109V158.109ZM1064.79 176.41C1066.82 180.374 1068.47 186.647 1069.58 195.473C1070.7 204.241 1071.26 215.298 1071.26 228.674H1077.26C1077.26 215.155 1076.69 203.826 1075.54 194.718C1074.39 185.667 1072.64 178.571 1070.13 173.676L1064.79 176.41ZM1071.26 228.674V289.582H1077.26V228.674H1071.26ZM1075.33 286.779C1073.16 285.954 1064.83 282.549 1050.25 276.526L1047.96 282.072C1062.49 288.073 1070.93 291.523 1073.19 292.385L1075.33 286.779ZM1052.11 279.299C1052.11 277.439 1051.92 275.719 1051.45 274.239C1050.98 272.751 1050.16 271.314 1048.76 270.346L1045.34 275.279C1045.34 275.279 1045.34 275.28 1045.35 275.283C1045.35 275.286 1045.36 275.292 1045.37 275.301C1045.38 275.318 1045.41 275.351 1045.45 275.406C1045.52 275.52 1045.63 275.722 1045.73 276.053C1045.95 276.735 1046.11 277.784 1046.11 279.299H1052.11ZM1045.54 270.223C1039.98 273.472 1035.48 275.9 1032.01 277.534L1034.56 282.963C1038.27 281.221 1042.94 278.692 1048.57 275.402L1045.54 270.223ZM1032.01 277.535C1021.09 282.691 1008.3 285.316 993.578 285.316V291.316C1009.02 291.316 1022.71 288.563 1034.57 282.961L1032.01 277.535ZM993.578 285.316C973.479 285.316 958.355 279.023 947.756 266.739L943.213 270.659C955.184 284.532 972.122 291.316 993.578 291.316V285.316ZM947.751 266.734C942.702 260.909 940.258 254.528 940.258 247.5H934.258C934.258 256.082 937.298 263.834 943.217 270.664L947.751 266.734ZM940.258 247.5C940.258 239.814 944.039 231.831 952.352 223.518L948.109 219.275C939.125 228.259 934.258 237.679 934.258 247.5H940.258ZM952.352 223.518C968.528 207.341 988.582 199.242 1012.72 199.242V193.242C987.078 193.242 965.472 201.913 948.109 219.275L952.352 223.518ZM1012.72 199.242C1027.35 199.242 1038.78 202.616 1047.29 209.074L1050.92 204.294C1041.08 196.83 1028.25 193.242 1012.72 193.242V199.242ZM1052.11 206.684V192.129H1046.11V206.684H1052.11ZM1051.47 190.275C1046.68 184.178 1041.78 179.812 1036.74 177.53L1034.27 182.997C1038.08 184.723 1042.26 188.268 1046.75 193.982L1051.47 190.275ZM1036.76 177.542C1031.84 175.261 1025.35 174.358 1017.54 174.575L1017.71 180.573C1025.08 180.368 1030.51 181.259 1034.24 182.986L1036.76 177.542ZM1017.57 174.575C1000.25 174.897 984.316 178.073 969.798 184.14L972.112 189.676C985.86 183.931 1001.04 180.884 1017.68 180.574L1017.57 174.575ZM969.801 184.139C963.522 186.755 957.406 189.108 951.452 191.197L953.439 196.858C959.508 194.728 965.732 192.335 972.109 189.677L969.801 184.139ZM955.445 194.027V182.32H949.445V194.027H955.445ZM954.383 184.61C955.777 183.431 957.799 181.675 960.439 179.352L956.475 174.847C953.842 177.165 951.856 178.889 950.508 180.03L954.383 184.61ZM960.8 178.974C961.005 178.717 961.162 178.524 961.276 178.387C961.333 178.319 961.372 178.273 961.397 178.245C961.43 178.207 961.414 178.227 961.369 178.272L957.127 174.029C956.875 174.281 956.489 174.758 956.114 175.226L960.8 178.974ZM962.248 176.15V135.334H956.248V176.15H962.248ZM959.248 132.334H926.816V138.334H959.248V132.334ZM929.816 135.334V116.35H923.816V135.334H929.816ZM926.816 119.35H1085.34V113.35H926.816V119.35ZM1082.34 116.35V135.334H1088.34V116.35H1082.34ZM1052.11 235.477C1052.11 231.818 1049.89 228.834 1046.76 226.474C1043.61 224.108 1039.11 222.021 1033.44 220.132L1031.55 225.825C1036.96 227.628 1040.76 229.469 1043.15 231.269C1045.55 233.075 1046.11 234.495 1046.11 235.477H1052.11ZM1033.44 220.132C1024.12 217.024 1016.13 215.391 1009.56 215.391V221.391C1015.22 221.391 1022.52 222.816 1031.55 225.825L1033.44 220.132ZM1009.56 215.391C986.48 215.391 967.787 223.751 953.782 240.514L958.386 244.361C971.17 229.061 988.125 221.391 1009.56 221.391V215.391ZM953.782 240.513C948.346 247.016 945.016 253.006 945.016 258.258H951.016C951.016 255.283 953.065 250.726 958.386 244.362L953.782 240.513ZM945.133 259.087C946.532 263.953 949.995 267.453 954.989 269.663C959.882 271.828 966.328 272.807 974.119 272.807V266.807C966.723 266.807 961.224 265.861 957.416 264.176C953.71 262.536 951.714 260.262 950.899 257.428L945.133 259.087ZM974.119 272.807C994.264 272.807 1012.73 267.763 1029.46 257.662L1026.36 252.526C1010.6 262.042 993.209 266.807 974.119 266.807V272.807ZM1029.46 257.661C1036.6 253.348 1042.09 249.455 1045.85 245.984C1047.72 244.248 1049.24 242.543 1050.31 240.867C1051.37 239.206 1052.11 237.384 1052.11 235.477H1046.11C1046.11 235.837 1045.96 236.533 1045.25 237.64C1044.56 238.733 1043.43 240.047 1041.77 241.58C1038.45 244.648 1033.35 248.297 1026.36 252.526L1029.46 257.661ZM1154.79 135.334V138.334H1157.79V135.334H1154.79ZM1138.02 135.334H1135.02V138.334H1138.02V135.334ZM1138.02 116.35V113.35H1135.02V116.35H1138.02ZM1154.79 116.35H1157.79V113.35H1154.79V116.35ZM1100.68 135.334V138.334H1103.68V135.334H1100.68ZM1082.65 135.334H1079.65V138.334H1082.65V135.334ZM1082.65 116.35V113.35H1079.65V116.35H1082.65ZM1100.68 116.35H1103.68V113.35H1100.68V116.35ZM1132.8 291.955L1131.93 294.829L1135.8 295.987V291.955H1132.8ZM1128.68 290.215L1127.3 292.877L1127.32 292.888L1127.34 292.898L1128.68 290.215ZM1120.46 285.943L1121.84 283.281L1121.83 283.278L1120.46 285.943ZM1105.59 278.666H1102.59V281.666H1105.59V278.666ZM1099.1 62.2441L1096.26 63.2237L1096.27 63.2288L1099.1 62.2441ZM1071.1 14.7832L1068.85 16.7743L1068.86 16.7763L1071.1 14.7832ZM1061.13 3.55078V0.550781H1054.46L1058.89 5.54192L1061.13 3.55078ZM1094.83 3.55078L1096.95 1.42946L1096.07 0.550781H1094.83V3.55078ZM1129.32 67.9395L1132.25 67.3069L1132.25 67.3067L1129.32 67.9395ZM1154.79 132.334H1138.02V138.334H1154.79V132.334ZM1141.02 135.334V116.35H1135.02V135.334H1141.02ZM1138.02 119.35H1154.79V113.35H1138.02V119.35ZM1151.79 116.35V135.334H1157.79V116.35H1151.79ZM1100.68 132.334H1082.65V138.334H1100.68V132.334ZM1085.65 135.334V116.35H1079.65V135.334H1085.65ZM1082.65 119.35H1100.68V113.35H1082.65V119.35ZM1097.68 116.35V135.334H1103.68V116.35H1097.68ZM1129.8 97.207V291.955H1135.8V97.207H1129.8ZM1133.66 289.082C1132.85 288.837 1131.65 288.344 1130.03 287.532L1127.34 292.898C1129.09 293.773 1130.64 294.44 1131.93 294.829L1133.66 289.082ZM1130.07 287.552L1121.84 283.281L1119.07 288.606L1127.3 292.877L1130.07 287.552ZM1121.83 283.278C1117.14 280.85 1113.53 279.018 1111.02 277.791C1109.77 277.179 1108.76 276.704 1108.03 276.377C1107.66 276.216 1107.32 276.074 1107.03 275.967C1106.89 275.914 1106.72 275.855 1106.55 275.806C1106.44 275.777 1106.06 275.666 1105.59 275.666V281.666C1105.34 281.666 1105.16 281.634 1105.09 281.621C1105.01 281.605 1104.95 281.589 1104.93 281.583C1104.88 281.571 1104.89 281.569 1104.95 281.592C1105.07 281.637 1105.28 281.723 1105.6 281.864C1106.23 282.144 1107.15 282.579 1108.38 283.18C1110.83 284.378 1114.39 286.185 1119.08 288.608L1121.83 283.278ZM1108.59 278.666V97.5234H1102.59V278.666H1108.59ZM1108.59 97.5234C1108.59 86.0573 1106.35 73.963 1101.93 61.2595L1096.27 63.2288C1100.5 75.4159 1102.59 86.8412 1102.59 97.5234H1108.59ZM1101.94 61.2646C1095.79 43.4756 1086.25 27.3134 1073.34 12.7901L1068.86 16.7763C1081.26 30.7296 1090.39 46.208 1096.26 63.2237L1101.94 61.2646ZM1073.34 12.7921L1063.37 1.55965L1058.89 5.54192L1068.85 16.7743L1073.34 12.7921ZM1061.13 6.55078H1094.83V0.550781H1061.13V6.55078ZM1092.71 5.6721C1109.79 22.751 1121.01 43.6883 1126.38 68.5722L1132.25 67.3067C1126.65 41.3546 1114.89 19.3662 1096.95 1.42946L1092.71 5.6721ZM1126.38 68.572C1128.67 79.1724 1129.8 88.7118 1129.8 97.207H1135.8C1135.8 88.1944 1134.6 78.2221 1132.25 67.3069L1126.38 68.572Z" fill="white" fill-opacity="0.55" mask="url(#path-1-outside-1_634_10)"/>
<path d="M212.281 135.334H179.217V179.473C186.178 185.906 190.396 190.072 191.873 191.971C194.51 195.346 197.199 200.566 199.941 207.633H178.9C178.9 196.137 175.631 187.172 169.092 180.738C162.658 174.305 153.693 171.088 142.197 171.088C130.174 171.088 118.941 174.41 108.5 181.055C98.4805 187.383 90.4121 195.926 84.2949 206.684C78.4941 216.914 75.5938 226.828 75.5938 236.426C75.5938 247.711 79.6543 256.307 87.7754 262.213C94.9473 267.486 104.387 270.123 116.094 270.123C135.605 270.123 149.211 264.744 156.91 253.986H190.607C187.76 265.377 177.266 274.975 159.125 282.779C151.004 286.26 143.463 288 136.502 288C122.896 288 109.186 284.15 95.3691 276.451C82.1855 269.174 71.3223 259.84 62.7793 248.449C54.2363 236.953 49.9648 225.615 49.9648 214.436C49.9648 205.998 53.709 196.453 61.1973 185.801C76.9121 163.441 96.0547 152.262 118.625 152.262C133.496 152.262 145.256 155.373 153.904 161.596V135.334H42.2129V116.35H212.281V135.334ZM387.096 135.334H254.68V236.742C254.68 243.492 256.104 250.453 258.951 257.625C264.752 272.285 274.35 279.615 287.744 279.615C305.779 279.615 319.49 272.074 328.877 256.992C336.154 245.391 339.793 234.475 339.793 224.244V161.279H371.908V296.068C369.377 294.592 364.631 292.324 357.67 289.266L339.477 281.197V268.541C327.031 277.611 316.379 283.359 307.52 285.785C302.141 287.262 295.76 288 288.377 288C264.963 288 246.664 277.717 233.48 257.15C227.469 247.764 224.463 237.533 224.463 226.459V135.334H205.32V116.35H387.096V135.334ZM455.756 135.334H438.986V116.35H455.756V135.334ZM401.65 135.334H383.615V116.35H401.65V135.334ZM433.766 97.207V291.955C432.711 291.639 431.34 291.059 429.652 290.215L421.426 285.943C412.039 281.092 407.082 278.666 406.555 278.666V97.5234C406.555 86.4492 404.393 74.6895 400.068 62.2441C394.057 44.8418 384.723 29.0215 372.066 14.7832L362.1 3.55078H395.797C413.305 21.0586 424.801 42.5215 430.285 67.9395C432.605 78.6973 433.766 88.4531 433.766 97.207ZM593.234 135.334H513.184V262.688C513.184 266.273 514.344 269.754 516.664 273.129C519.09 276.82 522.043 278.666 525.523 278.666C541.238 278.666 549.096 262.424 549.096 229.939L580.895 248.133C568.766 275.027 549.992 288.422 524.574 288.316C509.809 288.211 498.312 281.461 490.086 268.066C486.5 262.266 484.707 256.465 484.707 250.664V135.334H451.643V116.35H484.707V63.1934L513.184 82.9688V116.35H593.234V135.334ZM768.365 135.334H635.949V236.742C635.949 243.492 637.373 250.453 640.221 257.625C646.021 272.285 655.619 279.615 669.014 279.615C687.049 279.615 700.76 272.074 710.146 256.992C717.424 245.391 721.062 234.475 721.062 224.244V161.279H753.178V296.068C750.646 294.592 745.9 292.324 738.939 289.266L720.746 281.197V268.541C708.301 277.611 697.648 283.359 688.789 285.785C683.41 287.262 677.029 288 669.646 288C646.232 288 627.934 277.717 614.75 257.15C608.738 247.764 605.732 237.533 605.732 226.459V135.334H586.59V116.35H768.365V135.334ZM925.461 135.334H765.518V116.35H925.461V135.334ZM912.33 192.129C912.33 198.352 908.586 205.365 901.098 213.17C894.77 219.814 888.125 224.771 881.164 228.041L857.434 201.146C864.605 200.514 871.408 197.877 877.842 193.236C885.225 187.963 888.916 181.951 888.916 175.201C888.916 171.615 886.596 168.557 881.955 166.025C877.947 163.705 873.992 162.545 870.09 162.545C861.969 162.545 853.268 166.447 843.986 174.252C825.107 190.072 815.668 207.58 815.668 226.775V293.854L785.293 278.033V160.963H815.984V172.986C820.52 168.451 829.906 163.705 844.145 158.748C851.105 156.322 858.277 155.109 865.66 155.109C880.953 155.109 893.926 160.963 904.578 172.67C909.746 178.365 912.33 184.852 912.33 192.129ZM1077.34 135.334H971.973V160.646C972.395 160.646 972.816 160.857 973.238 161.279C973.66 161.701 974.029 161.912 974.346 161.912C973.502 161.912 973.027 161.859 972.922 161.754C972.922 161.227 980.779 159.539 996.494 156.691C1002.29 155.637 1008.04 155.109 1013.74 155.109C1037.47 155.109 1052.71 161.754 1059.46 175.043C1063.99 183.902 1066.26 201.779 1066.26 228.674V289.582C1064.05 288.738 1055.66 285.311 1041.11 279.299C1041.11 275.924 1040.42 273.762 1039.05 272.812C1033.46 276.082 1028.87 278.561 1025.29 280.248C1013.9 285.627 1000.66 288.316 985.578 288.316C964.801 288.316 948.77 281.777 937.484 268.699C932 262.371 929.258 255.305 929.258 247.5C929.258 238.746 933.582 230.045 942.23 221.396C959 204.627 979.83 196.242 1004.72 196.242C1019.8 196.242 1031.93 199.723 1041.11 206.684V192.129C1036.47 186.223 1031.93 182.268 1027.5 180.264C1023.18 178.26 1017.22 177.363 1009.62 177.574C992.645 177.891 977.088 181.002 962.955 186.908C956.627 189.545 950.457 191.918 944.445 194.027V182.32C945.816 181.16 947.82 179.42 950.457 177.1C950.879 176.572 951.143 176.256 951.248 176.15V135.334H918.816V116.35H1077.34V135.334ZM1041.11 235.477C1041.11 230.836 1035.57 226.67 1024.5 222.979C1015.32 219.92 1007.67 218.391 1001.56 218.391C979.303 218.391 961.479 226.406 948.084 242.438C942.705 248.871 940.016 254.145 940.016 258.258C942.23 265.957 950.932 269.807 966.119 269.807C985.736 269.807 1003.67 264.902 1019.91 255.094C1034.04 246.551 1041.11 240.012 1041.11 235.477ZM1146.79 135.334H1130.02V116.35H1146.79V135.334ZM1092.68 135.334H1074.65V116.35H1092.68V135.334ZM1124.8 97.207V291.955C1123.74 291.639 1122.37 291.059 1120.68 290.215L1112.46 285.943C1103.07 281.092 1098.11 278.666 1097.59 278.666V97.5234C1097.59 86.4492 1095.42 74.6895 1091.1 62.2441C1085.09 44.8418 1075.75 29.0215 1063.1 14.7832L1053.13 3.55078H1086.83C1104.34 21.0586 1115.83 42.5215 1121.32 67.9395C1123.64 78.6973 1124.8 88.4531 1124.8 97.207Z" fill="black" fill-opacity="0.82"/>
</svg>
